%TF.GenerationSoftware,KiCad,Pcbnew,9.0.4*%
%TF.CreationDate,2025-11-28T22:46:11-05:00*%
%TF.ProjectId,STM32H743VIT6 FC,53544d33-3248-4373-9433-564954362046,rev?*%
%TF.SameCoordinates,Original*%
%TF.FileFunction,Soldermask,Top*%
%TF.FilePolarity,Negative*%
%FSLAX46Y46*%
G04 Gerber Fmt 4.6, Leading zero omitted, Abs format (unit mm)*
G04 Created by KiCad (PCBNEW 9.0.4) date 2025-11-28 22:46:11*
%MOMM*%
%LPD*%
G01*
G04 APERTURE LIST*
G04 Aperture macros list*
%AMRoundRect*
0 Rectangle with rounded corners*
0 $1 Rounding radius*
0 $2 $3 $4 $5 $6 $7 $8 $9 X,Y pos of 4 corners*
0 Add a 4 corners polygon primitive as box body*
4,1,4,$2,$3,$4,$5,$6,$7,$8,$9,$2,$3,0*
0 Add four circle primitives for the rounded corners*
1,1,$1+$1,$2,$3*
1,1,$1+$1,$4,$5*
1,1,$1+$1,$6,$7*
1,1,$1+$1,$8,$9*
0 Add four rect primitives between the rounded corners*
20,1,$1+$1,$2,$3,$4,$5,0*
20,1,$1+$1,$4,$5,$6,$7,0*
20,1,$1+$1,$6,$7,$8,$9,0*
20,1,$1+$1,$8,$9,$2,$3,0*%
G04 Aperture macros list end*
%ADD10C,0.010000*%
%ADD11RoundRect,0.250000X0.550000X-0.550000X0.550000X0.550000X-0.550000X0.550000X-0.550000X-0.550000X0*%
%ADD12RoundRect,0.250000X-0.550000X0.550000X-0.550000X-0.550000X0.550000X-0.550000X0.550000X0.550000X0*%
%ADD13RoundRect,0.250000X-0.550000X-0.550000X0.550000X-0.550000X0.550000X0.550000X-0.550000X0.550000X0*%
%ADD14RoundRect,0.250000X0.550000X0.550000X-0.550000X0.550000X-0.550000X-0.550000X0.550000X-0.550000X0*%
%ADD15RoundRect,0.237500X-0.250000X-0.237500X0.250000X-0.237500X0.250000X0.237500X-0.250000X0.237500X0*%
%ADD16RoundRect,0.237500X-0.300000X-0.237500X0.300000X-0.237500X0.300000X0.237500X-0.300000X0.237500X0*%
%ADD17C,4.700000*%
%ADD18C,5.000000*%
%ADD19RoundRect,0.150000X0.512500X0.150000X-0.512500X0.150000X-0.512500X-0.150000X0.512500X-0.150000X0*%
%ADD20RoundRect,0.237500X0.287500X0.237500X-0.287500X0.237500X-0.287500X-0.237500X0.287500X-0.237500X0*%
%ADD21RoundRect,0.093750X0.106250X-0.093750X0.106250X0.093750X-0.106250X0.093750X-0.106250X-0.093750X0*%
%ADD22R,1.600000X1.000000*%
%ADD23RoundRect,0.237500X0.237500X-0.300000X0.237500X0.300000X-0.237500X0.300000X-0.237500X-0.300000X0*%
%ADD24RoundRect,0.237500X0.237500X-0.250000X0.237500X0.250000X-0.237500X0.250000X-0.237500X-0.250000X0*%
%ADD25RoundRect,0.078000X0.494000X0.234000X-0.494000X0.234000X-0.494000X-0.234000X0.494000X-0.234000X0*%
%ADD26RoundRect,0.102000X2.350000X2.300000X-2.350000X2.300000X-2.350000X-2.300000X2.350000X-2.300000X0*%
%ADD27C,1.020000*%
%ADD28O,2.004000X1.304000*%
%ADD29RoundRect,0.237500X-0.237500X0.300000X-0.237500X-0.300000X0.237500X-0.300000X0.237500X0.300000X0*%
%ADD30RoundRect,0.102000X-0.950000X0.200000X-0.950000X-0.200000X0.950000X-0.200000X0.950000X0.200000X0*%
%ADD31RoundRect,0.237500X0.300000X0.237500X-0.300000X0.237500X-0.300000X-0.237500X0.300000X-0.237500X0*%
%ADD32R,0.650000X1.050000*%
%ADD33RoundRect,0.237500X-0.237500X0.250000X-0.237500X-0.250000X0.237500X-0.250000X0.237500X0.250000X0*%
%ADD34RoundRect,0.150000X-0.150000X0.587500X-0.150000X-0.587500X0.150000X-0.587500X0.150000X0.587500X0*%
%ADD35RoundRect,0.075000X-0.725000X-0.075000X0.725000X-0.075000X0.725000X0.075000X-0.725000X0.075000X0*%
%ADD36RoundRect,0.075000X-0.075000X-0.725000X0.075000X-0.725000X0.075000X0.725000X-0.075000X0.725000X0*%
G04 APERTURE END LIST*
D10*
%TO.C,J1*%
X178222000Y-112008800D02*
X176572000Y-112008800D01*
X176572000Y-111308800D01*
X178222000Y-111308800D01*
X178222000Y-112008800D01*
G36*
X178222000Y-112008800D02*
G01*
X176572000Y-112008800D01*
X176572000Y-111308800D01*
X178222000Y-111308800D01*
X178222000Y-112008800D01*
G37*
X178222000Y-112808800D02*
X176572000Y-112808800D01*
X176572000Y-112108800D01*
X178222000Y-112108800D01*
X178222000Y-112808800D01*
G36*
X178222000Y-112808800D02*
G01*
X176572000Y-112808800D01*
X176572000Y-112108800D01*
X178222000Y-112108800D01*
X178222000Y-112808800D01*
G37*
X178222000Y-113308800D02*
X176572000Y-113308800D01*
X176572000Y-112908800D01*
X178222000Y-112908800D01*
X178222000Y-113308800D01*
G36*
X178222000Y-113308800D02*
G01*
X176572000Y-113308800D01*
X176572000Y-112908800D01*
X178222000Y-112908800D01*
X178222000Y-113308800D01*
G37*
X178222000Y-113808800D02*
X176572000Y-113808800D01*
X176572000Y-113408800D01*
X178222000Y-113408800D01*
X178222000Y-113808800D01*
G36*
X178222000Y-113808800D02*
G01*
X176572000Y-113808800D01*
X176572000Y-113408800D01*
X178222000Y-113408800D01*
X178222000Y-113808800D01*
G37*
X178222000Y-114308800D02*
X176572000Y-114308800D01*
X176572000Y-113908800D01*
X178222000Y-113908800D01*
X178222000Y-114308800D01*
G36*
X178222000Y-114308800D02*
G01*
X176572000Y-114308800D01*
X176572000Y-113908800D01*
X178222000Y-113908800D01*
X178222000Y-114308800D01*
G37*
X178222000Y-114808800D02*
X176572000Y-114808800D01*
X176572000Y-114408800D01*
X178222000Y-114408800D01*
X178222000Y-114808800D01*
G36*
X178222000Y-114808800D02*
G01*
X176572000Y-114808800D01*
X176572000Y-114408800D01*
X178222000Y-114408800D01*
X178222000Y-114808800D01*
G37*
X178222000Y-115308800D02*
X176572000Y-115308800D01*
X176572000Y-114908800D01*
X178222000Y-114908800D01*
X178222000Y-115308800D01*
G36*
X178222000Y-115308800D02*
G01*
X176572000Y-115308800D01*
X176572000Y-114908800D01*
X178222000Y-114908800D01*
X178222000Y-115308800D01*
G37*
X178222000Y-115808800D02*
X176572000Y-115808800D01*
X176572000Y-115408800D01*
X178222000Y-115408800D01*
X178222000Y-115808800D01*
G36*
X178222000Y-115808800D02*
G01*
X176572000Y-115808800D01*
X176572000Y-115408800D01*
X178222000Y-115408800D01*
X178222000Y-115808800D01*
G37*
X178222000Y-116308800D02*
X176572000Y-116308800D01*
X176572000Y-115908800D01*
X178222000Y-115908800D01*
X178222000Y-116308800D01*
G36*
X178222000Y-116308800D02*
G01*
X176572000Y-116308800D01*
X176572000Y-115908800D01*
X178222000Y-115908800D01*
X178222000Y-116308800D01*
G37*
X178222000Y-116808800D02*
X176572000Y-116808800D01*
X176572000Y-116408800D01*
X178222000Y-116408800D01*
X178222000Y-116808800D01*
G36*
X178222000Y-116808800D02*
G01*
X176572000Y-116808800D01*
X176572000Y-116408800D01*
X178222000Y-116408800D01*
X178222000Y-116808800D01*
G37*
X178222000Y-117608800D02*
X176572000Y-117608800D01*
X176572000Y-116908800D01*
X178222000Y-116908800D01*
X178222000Y-117608800D01*
G36*
X178222000Y-117608800D02*
G01*
X176572000Y-117608800D01*
X176572000Y-116908800D01*
X178222000Y-116908800D01*
X178222000Y-117608800D01*
G37*
X178222000Y-118408800D02*
X176572000Y-118408800D01*
X176572000Y-117708800D01*
X178222000Y-117708800D01*
X178222000Y-118408800D01*
G36*
X178222000Y-118408800D02*
G01*
X176572000Y-118408800D01*
X176572000Y-117708800D01*
X178222000Y-117708800D01*
X178222000Y-118408800D01*
G37*
%TO.C,U_IMU1*%
X156760500Y-129531200D02*
X156767500Y-129532200D01*
X156773500Y-129533200D01*
X156779500Y-129534200D01*
X156786500Y-129536200D01*
X156792500Y-129538200D01*
X156798500Y-129541200D01*
X156804500Y-129544200D01*
X156810500Y-129547200D01*
X156815500Y-129550200D01*
X156820500Y-129554200D01*
X156826500Y-129558200D01*
X156831500Y-129562200D01*
X156835500Y-129567200D01*
X156840500Y-129571200D01*
X156844500Y-129576200D01*
X156848500Y-129582200D01*
X156852500Y-129587200D01*
X156855500Y-129593200D01*
X156858500Y-129598200D01*
X156861500Y-129604200D01*
X156864500Y-129610200D01*
X156866500Y-129616200D01*
X156868500Y-129623200D01*
X156869500Y-129629200D01*
X156870500Y-129635200D01*
X156871500Y-129642200D01*
X156872500Y-129648200D01*
X156872500Y-129655200D01*
X156872500Y-129855200D01*
X156872500Y-129862200D01*
X156871500Y-129868200D01*
X156870500Y-129875200D01*
X156869500Y-129881200D01*
X156868500Y-129887200D01*
X156866500Y-129894200D01*
X156864500Y-129900200D01*
X156861500Y-129906200D01*
X156858500Y-129912200D01*
X156855500Y-129917200D01*
X156852500Y-129923200D01*
X156848500Y-129928200D01*
X156844500Y-129934200D01*
X156840500Y-129939200D01*
X156835500Y-129943200D01*
X156831500Y-129948200D01*
X156826500Y-129952200D01*
X156820500Y-129956200D01*
X156815500Y-129960200D01*
X156810500Y-129963200D01*
X156804500Y-129966200D01*
X156798500Y-129969200D01*
X156792500Y-129972200D01*
X156786500Y-129974200D01*
X156779500Y-129976200D01*
X156773500Y-129977200D01*
X156767500Y-129978200D01*
X156760500Y-129979200D01*
X156754500Y-129980200D01*
X156747500Y-129980200D01*
X156307500Y-129980200D01*
X156300500Y-129980200D01*
X156294500Y-129979200D01*
X156287500Y-129978200D01*
X156281500Y-129977200D01*
X156275500Y-129976200D01*
X156268500Y-129974200D01*
X156262500Y-129972200D01*
X156256500Y-129969200D01*
X156250500Y-129966200D01*
X156244500Y-129963200D01*
X156239500Y-129960200D01*
X156234500Y-129956200D01*
X156228500Y-129952200D01*
X156223500Y-129948200D01*
X156219500Y-129943200D01*
X156214500Y-129939200D01*
X156210500Y-129934200D01*
X156206500Y-129928200D01*
X156202500Y-129923200D01*
X156199500Y-129917200D01*
X156196500Y-129912200D01*
X156193500Y-129906200D01*
X156190500Y-129900200D01*
X156188500Y-129894200D01*
X156186500Y-129887200D01*
X156185500Y-129881200D01*
X156184500Y-129875200D01*
X156183500Y-129868200D01*
X156182500Y-129862200D01*
X156182500Y-129855200D01*
X156182500Y-129655200D01*
X156182500Y-129648200D01*
X156183500Y-129642200D01*
X156184500Y-129635200D01*
X156185500Y-129629200D01*
X156186500Y-129623200D01*
X156188500Y-129616200D01*
X156190500Y-129610200D01*
X156193500Y-129604200D01*
X156196500Y-129598200D01*
X156199500Y-129593200D01*
X156202500Y-129587200D01*
X156206500Y-129582200D01*
X156210500Y-129576200D01*
X156214500Y-129571200D01*
X156219500Y-129567200D01*
X156223500Y-129562200D01*
X156228500Y-129558200D01*
X156234500Y-129554200D01*
X156239500Y-129550200D01*
X156244500Y-129547200D01*
X156250500Y-129544200D01*
X156256500Y-129541200D01*
X156262500Y-129538200D01*
X156268500Y-129536200D01*
X156275500Y-129534200D01*
X156281500Y-129533200D01*
X156287500Y-129532200D01*
X156294500Y-129531200D01*
X156300500Y-129530200D01*
X156307500Y-129530200D01*
X156747500Y-129530200D01*
X156754500Y-129530200D01*
X156760500Y-129531200D01*
G36*
X156760500Y-129531200D02*
G01*
X156767500Y-129532200D01*
X156773500Y-129533200D01*
X156779500Y-129534200D01*
X156786500Y-129536200D01*
X156792500Y-129538200D01*
X156798500Y-129541200D01*
X156804500Y-129544200D01*
X156810500Y-129547200D01*
X156815500Y-129550200D01*
X156820500Y-129554200D01*
X156826500Y-129558200D01*
X156831500Y-129562200D01*
X156835500Y-129567200D01*
X156840500Y-129571200D01*
X156844500Y-129576200D01*
X156848500Y-129582200D01*
X156852500Y-129587200D01*
X156855500Y-129593200D01*
X156858500Y-129598200D01*
X156861500Y-129604200D01*
X156864500Y-129610200D01*
X156866500Y-129616200D01*
X156868500Y-129623200D01*
X156869500Y-129629200D01*
X156870500Y-129635200D01*
X156871500Y-129642200D01*
X156872500Y-129648200D01*
X156872500Y-129655200D01*
X156872500Y-129855200D01*
X156872500Y-129862200D01*
X156871500Y-129868200D01*
X156870500Y-129875200D01*
X156869500Y-129881200D01*
X156868500Y-129887200D01*
X156866500Y-129894200D01*
X156864500Y-129900200D01*
X156861500Y-129906200D01*
X156858500Y-129912200D01*
X156855500Y-129917200D01*
X156852500Y-129923200D01*
X156848500Y-129928200D01*
X156844500Y-129934200D01*
X156840500Y-129939200D01*
X156835500Y-129943200D01*
X156831500Y-129948200D01*
X156826500Y-129952200D01*
X156820500Y-129956200D01*
X156815500Y-129960200D01*
X156810500Y-129963200D01*
X156804500Y-129966200D01*
X156798500Y-129969200D01*
X156792500Y-129972200D01*
X156786500Y-129974200D01*
X156779500Y-129976200D01*
X156773500Y-129977200D01*
X156767500Y-129978200D01*
X156760500Y-129979200D01*
X156754500Y-129980200D01*
X156747500Y-129980200D01*
X156307500Y-129980200D01*
X156300500Y-129980200D01*
X156294500Y-129979200D01*
X156287500Y-129978200D01*
X156281500Y-129977200D01*
X156275500Y-129976200D01*
X156268500Y-129974200D01*
X156262500Y-129972200D01*
X156256500Y-129969200D01*
X156250500Y-129966200D01*
X156244500Y-129963200D01*
X156239500Y-129960200D01*
X156234500Y-129956200D01*
X156228500Y-129952200D01*
X156223500Y-129948200D01*
X156219500Y-129943200D01*
X156214500Y-129939200D01*
X156210500Y-129934200D01*
X156206500Y-129928200D01*
X156202500Y-129923200D01*
X156199500Y-129917200D01*
X156196500Y-129912200D01*
X156193500Y-129906200D01*
X156190500Y-129900200D01*
X156188500Y-129894200D01*
X156186500Y-129887200D01*
X156185500Y-129881200D01*
X156184500Y-129875200D01*
X156183500Y-129868200D01*
X156182500Y-129862200D01*
X156182500Y-129855200D01*
X156182500Y-129655200D01*
X156182500Y-129648200D01*
X156183500Y-129642200D01*
X156184500Y-129635200D01*
X156185500Y-129629200D01*
X156186500Y-129623200D01*
X156188500Y-129616200D01*
X156190500Y-129610200D01*
X156193500Y-129604200D01*
X156196500Y-129598200D01*
X156199500Y-129593200D01*
X156202500Y-129587200D01*
X156206500Y-129582200D01*
X156210500Y-129576200D01*
X156214500Y-129571200D01*
X156219500Y-129567200D01*
X156223500Y-129562200D01*
X156228500Y-129558200D01*
X156234500Y-129554200D01*
X156239500Y-129550200D01*
X156244500Y-129547200D01*
X156250500Y-129544200D01*
X156256500Y-129541200D01*
X156262500Y-129538200D01*
X156268500Y-129536200D01*
X156275500Y-129534200D01*
X156281500Y-129533200D01*
X156287500Y-129532200D01*
X156294500Y-129531200D01*
X156300500Y-129530200D01*
X156307500Y-129530200D01*
X156747500Y-129530200D01*
X156754500Y-129530200D01*
X156760500Y-129531200D01*
G37*
X156760500Y-130031200D02*
X156767500Y-130032200D01*
X156773500Y-130033200D01*
X156779500Y-130034200D01*
X156786500Y-130036200D01*
X156792500Y-130038200D01*
X156798500Y-130041200D01*
X156804500Y-130044200D01*
X156810500Y-130047200D01*
X156815500Y-130050200D01*
X156820500Y-130054200D01*
X156826500Y-130058200D01*
X156831500Y-130062200D01*
X156835500Y-130067200D01*
X156840500Y-130071200D01*
X156844500Y-130076200D01*
X156848500Y-130082200D01*
X156852500Y-130087200D01*
X156855500Y-130093200D01*
X156858500Y-130098200D01*
X156861500Y-130104200D01*
X156864500Y-130110200D01*
X156866500Y-130116200D01*
X156868500Y-130123200D01*
X156869500Y-130129200D01*
X156870500Y-130135200D01*
X156871500Y-130142200D01*
X156872500Y-130148200D01*
X156872500Y-130155200D01*
X156872500Y-130355200D01*
X156872500Y-130362200D01*
X156871500Y-130368200D01*
X156870500Y-130375200D01*
X156869500Y-130381200D01*
X156868500Y-130387200D01*
X156866500Y-130394200D01*
X156864500Y-130400200D01*
X156861500Y-130406200D01*
X156858500Y-130412200D01*
X156855500Y-130417200D01*
X156852500Y-130423200D01*
X156848500Y-130428200D01*
X156844500Y-130434200D01*
X156840500Y-130439200D01*
X156835500Y-130443200D01*
X156831500Y-130448200D01*
X156826500Y-130452200D01*
X156820500Y-130456200D01*
X156815500Y-130460200D01*
X156810500Y-130463200D01*
X156804500Y-130466200D01*
X156798500Y-130469200D01*
X156792500Y-130472200D01*
X156786500Y-130474200D01*
X156779500Y-130476200D01*
X156773500Y-130477200D01*
X156767500Y-130478200D01*
X156760500Y-130479200D01*
X156754500Y-130480200D01*
X156747500Y-130480200D01*
X156307500Y-130480200D01*
X156300500Y-130480200D01*
X156294500Y-130479200D01*
X156287500Y-130478200D01*
X156281500Y-130477200D01*
X156275500Y-130476200D01*
X156268500Y-130474200D01*
X156262500Y-130472200D01*
X156256500Y-130469200D01*
X156250500Y-130466200D01*
X156244500Y-130463200D01*
X156239500Y-130460200D01*
X156234500Y-130456200D01*
X156228500Y-130452200D01*
X156223500Y-130448200D01*
X156219500Y-130443200D01*
X156214500Y-130439200D01*
X156210500Y-130434200D01*
X156206500Y-130428200D01*
X156202500Y-130423200D01*
X156199500Y-130417200D01*
X156196500Y-130412200D01*
X156193500Y-130406200D01*
X156190500Y-130400200D01*
X156188500Y-130394200D01*
X156186500Y-130387200D01*
X156185500Y-130381200D01*
X156184500Y-130375200D01*
X156183500Y-130368200D01*
X156182500Y-130362200D01*
X156182500Y-130355200D01*
X156182500Y-130155200D01*
X156182500Y-130148200D01*
X156183500Y-130142200D01*
X156184500Y-130135200D01*
X156185500Y-130129200D01*
X156186500Y-130123200D01*
X156188500Y-130116200D01*
X156190500Y-130110200D01*
X156193500Y-130104200D01*
X156196500Y-130098200D01*
X156199500Y-130093200D01*
X156202500Y-130087200D01*
X156206500Y-130082200D01*
X156210500Y-130076200D01*
X156214500Y-130071200D01*
X156219500Y-130067200D01*
X156223500Y-130062200D01*
X156228500Y-130058200D01*
X156234500Y-130054200D01*
X156239500Y-130050200D01*
X156244500Y-130047200D01*
X156250500Y-130044200D01*
X156256500Y-130041200D01*
X156262500Y-130038200D01*
X156268500Y-130036200D01*
X156275500Y-130034200D01*
X156281500Y-130033200D01*
X156287500Y-130032200D01*
X156294500Y-130031200D01*
X156300500Y-130030200D01*
X156307500Y-130030200D01*
X156747500Y-130030200D01*
X156754500Y-130030200D01*
X156760500Y-130031200D01*
G36*
X156760500Y-130031200D02*
G01*
X156767500Y-130032200D01*
X156773500Y-130033200D01*
X156779500Y-130034200D01*
X156786500Y-130036200D01*
X156792500Y-130038200D01*
X156798500Y-130041200D01*
X156804500Y-130044200D01*
X156810500Y-130047200D01*
X156815500Y-130050200D01*
X156820500Y-130054200D01*
X156826500Y-130058200D01*
X156831500Y-130062200D01*
X156835500Y-130067200D01*
X156840500Y-130071200D01*
X156844500Y-130076200D01*
X156848500Y-130082200D01*
X156852500Y-130087200D01*
X156855500Y-130093200D01*
X156858500Y-130098200D01*
X156861500Y-130104200D01*
X156864500Y-130110200D01*
X156866500Y-130116200D01*
X156868500Y-130123200D01*
X156869500Y-130129200D01*
X156870500Y-130135200D01*
X156871500Y-130142200D01*
X156872500Y-130148200D01*
X156872500Y-130155200D01*
X156872500Y-130355200D01*
X156872500Y-130362200D01*
X156871500Y-130368200D01*
X156870500Y-130375200D01*
X156869500Y-130381200D01*
X156868500Y-130387200D01*
X156866500Y-130394200D01*
X156864500Y-130400200D01*
X156861500Y-130406200D01*
X156858500Y-130412200D01*
X156855500Y-130417200D01*
X156852500Y-130423200D01*
X156848500Y-130428200D01*
X156844500Y-130434200D01*
X156840500Y-130439200D01*
X156835500Y-130443200D01*
X156831500Y-130448200D01*
X156826500Y-130452200D01*
X156820500Y-130456200D01*
X156815500Y-130460200D01*
X156810500Y-130463200D01*
X156804500Y-130466200D01*
X156798500Y-130469200D01*
X156792500Y-130472200D01*
X156786500Y-130474200D01*
X156779500Y-130476200D01*
X156773500Y-130477200D01*
X156767500Y-130478200D01*
X156760500Y-130479200D01*
X156754500Y-130480200D01*
X156747500Y-130480200D01*
X156307500Y-130480200D01*
X156300500Y-130480200D01*
X156294500Y-130479200D01*
X156287500Y-130478200D01*
X156281500Y-130477200D01*
X156275500Y-130476200D01*
X156268500Y-130474200D01*
X156262500Y-130472200D01*
X156256500Y-130469200D01*
X156250500Y-130466200D01*
X156244500Y-130463200D01*
X156239500Y-130460200D01*
X156234500Y-130456200D01*
X156228500Y-130452200D01*
X156223500Y-130448200D01*
X156219500Y-130443200D01*
X156214500Y-130439200D01*
X156210500Y-130434200D01*
X156206500Y-130428200D01*
X156202500Y-130423200D01*
X156199500Y-130417200D01*
X156196500Y-130412200D01*
X156193500Y-130406200D01*
X156190500Y-130400200D01*
X156188500Y-130394200D01*
X156186500Y-130387200D01*
X156185500Y-130381200D01*
X156184500Y-130375200D01*
X156183500Y-130368200D01*
X156182500Y-130362200D01*
X156182500Y-130355200D01*
X156182500Y-130155200D01*
X156182500Y-130148200D01*
X156183500Y-130142200D01*
X156184500Y-130135200D01*
X156185500Y-130129200D01*
X156186500Y-130123200D01*
X156188500Y-130116200D01*
X156190500Y-130110200D01*
X156193500Y-130104200D01*
X156196500Y-130098200D01*
X156199500Y-130093200D01*
X156202500Y-130087200D01*
X156206500Y-130082200D01*
X156210500Y-130076200D01*
X156214500Y-130071200D01*
X156219500Y-130067200D01*
X156223500Y-130062200D01*
X156228500Y-130058200D01*
X156234500Y-130054200D01*
X156239500Y-130050200D01*
X156244500Y-130047200D01*
X156250500Y-130044200D01*
X156256500Y-130041200D01*
X156262500Y-130038200D01*
X156268500Y-130036200D01*
X156275500Y-130034200D01*
X156281500Y-130033200D01*
X156287500Y-130032200D01*
X156294500Y-130031200D01*
X156300500Y-130030200D01*
X156307500Y-130030200D01*
X156747500Y-130030200D01*
X156754500Y-130030200D01*
X156760500Y-130031200D01*
G37*
X156760500Y-130531200D02*
X156767500Y-130532200D01*
X156773500Y-130533200D01*
X156779500Y-130534200D01*
X156786500Y-130536200D01*
X156792500Y-130538200D01*
X156798500Y-130541200D01*
X156804500Y-130544200D01*
X156810500Y-130547200D01*
X156815500Y-130550200D01*
X156820500Y-130554200D01*
X156826500Y-130558200D01*
X156831500Y-130562200D01*
X156835500Y-130567200D01*
X156840500Y-130571200D01*
X156844500Y-130576200D01*
X156848500Y-130582200D01*
X156852500Y-130587200D01*
X156855500Y-130593200D01*
X156858500Y-130598200D01*
X156861500Y-130604200D01*
X156864500Y-130610200D01*
X156866500Y-130616200D01*
X156868500Y-130623200D01*
X156869500Y-130629200D01*
X156870500Y-130635200D01*
X156871500Y-130642200D01*
X156872500Y-130648200D01*
X156872500Y-130655200D01*
X156872500Y-130855200D01*
X156872500Y-130862200D01*
X156871500Y-130868200D01*
X156870500Y-130875200D01*
X156869500Y-130881200D01*
X156868500Y-130887200D01*
X156866500Y-130894200D01*
X156864500Y-130900200D01*
X156861500Y-130906200D01*
X156858500Y-130912200D01*
X156855500Y-130917200D01*
X156852500Y-130923200D01*
X156848500Y-130928200D01*
X156844500Y-130934200D01*
X156840500Y-130939200D01*
X156835500Y-130943200D01*
X156831500Y-130948200D01*
X156826500Y-130952200D01*
X156820500Y-130956200D01*
X156815500Y-130960200D01*
X156810500Y-130963200D01*
X156804500Y-130966200D01*
X156798500Y-130969200D01*
X156792500Y-130972200D01*
X156786500Y-130974200D01*
X156779500Y-130976200D01*
X156773500Y-130977200D01*
X156767500Y-130978200D01*
X156760500Y-130979200D01*
X156754500Y-130980200D01*
X156747500Y-130980200D01*
X156307500Y-130980200D01*
X156300500Y-130980200D01*
X156294500Y-130979200D01*
X156287500Y-130978200D01*
X156281500Y-130977200D01*
X156275500Y-130976200D01*
X156268500Y-130974200D01*
X156262500Y-130972200D01*
X156256500Y-130969200D01*
X156250500Y-130966200D01*
X156244500Y-130963200D01*
X156239500Y-130960200D01*
X156234500Y-130956200D01*
X156228500Y-130952200D01*
X156223500Y-130948200D01*
X156219500Y-130943200D01*
X156214500Y-130939200D01*
X156210500Y-130934200D01*
X156206500Y-130928200D01*
X156202500Y-130923200D01*
X156199500Y-130917200D01*
X156196500Y-130912200D01*
X156193500Y-130906200D01*
X156190500Y-130900200D01*
X156188500Y-130894200D01*
X156186500Y-130887200D01*
X156185500Y-130881200D01*
X156184500Y-130875200D01*
X156183500Y-130868200D01*
X156182500Y-130862200D01*
X156182500Y-130855200D01*
X156182500Y-130655200D01*
X156182500Y-130648200D01*
X156183500Y-130642200D01*
X156184500Y-130635200D01*
X156185500Y-130629200D01*
X156186500Y-130623200D01*
X156188500Y-130616200D01*
X156190500Y-130610200D01*
X156193500Y-130604200D01*
X156196500Y-130598200D01*
X156199500Y-130593200D01*
X156202500Y-130587200D01*
X156206500Y-130582200D01*
X156210500Y-130576200D01*
X156214500Y-130571200D01*
X156219500Y-130567200D01*
X156223500Y-130562200D01*
X156228500Y-130558200D01*
X156234500Y-130554200D01*
X156239500Y-130550200D01*
X156244500Y-130547200D01*
X156250500Y-130544200D01*
X156256500Y-130541200D01*
X156262500Y-130538200D01*
X156268500Y-130536200D01*
X156275500Y-130534200D01*
X156281500Y-130533200D01*
X156287500Y-130532200D01*
X156294500Y-130531200D01*
X156300500Y-130530200D01*
X156307500Y-130530200D01*
X156747500Y-130530200D01*
X156754500Y-130530200D01*
X156760500Y-130531200D01*
G36*
X156760500Y-130531200D02*
G01*
X156767500Y-130532200D01*
X156773500Y-130533200D01*
X156779500Y-130534200D01*
X156786500Y-130536200D01*
X156792500Y-130538200D01*
X156798500Y-130541200D01*
X156804500Y-130544200D01*
X156810500Y-130547200D01*
X156815500Y-130550200D01*
X156820500Y-130554200D01*
X156826500Y-130558200D01*
X156831500Y-130562200D01*
X156835500Y-130567200D01*
X156840500Y-130571200D01*
X156844500Y-130576200D01*
X156848500Y-130582200D01*
X156852500Y-130587200D01*
X156855500Y-130593200D01*
X156858500Y-130598200D01*
X156861500Y-130604200D01*
X156864500Y-130610200D01*
X156866500Y-130616200D01*
X156868500Y-130623200D01*
X156869500Y-130629200D01*
X156870500Y-130635200D01*
X156871500Y-130642200D01*
X156872500Y-130648200D01*
X156872500Y-130655200D01*
X156872500Y-130855200D01*
X156872500Y-130862200D01*
X156871500Y-130868200D01*
X156870500Y-130875200D01*
X156869500Y-130881200D01*
X156868500Y-130887200D01*
X156866500Y-130894200D01*
X156864500Y-130900200D01*
X156861500Y-130906200D01*
X156858500Y-130912200D01*
X156855500Y-130917200D01*
X156852500Y-130923200D01*
X156848500Y-130928200D01*
X156844500Y-130934200D01*
X156840500Y-130939200D01*
X156835500Y-130943200D01*
X156831500Y-130948200D01*
X156826500Y-130952200D01*
X156820500Y-130956200D01*
X156815500Y-130960200D01*
X156810500Y-130963200D01*
X156804500Y-130966200D01*
X156798500Y-130969200D01*
X156792500Y-130972200D01*
X156786500Y-130974200D01*
X156779500Y-130976200D01*
X156773500Y-130977200D01*
X156767500Y-130978200D01*
X156760500Y-130979200D01*
X156754500Y-130980200D01*
X156747500Y-130980200D01*
X156307500Y-130980200D01*
X156300500Y-130980200D01*
X156294500Y-130979200D01*
X156287500Y-130978200D01*
X156281500Y-130977200D01*
X156275500Y-130976200D01*
X156268500Y-130974200D01*
X156262500Y-130972200D01*
X156256500Y-130969200D01*
X156250500Y-130966200D01*
X156244500Y-130963200D01*
X156239500Y-130960200D01*
X156234500Y-130956200D01*
X156228500Y-130952200D01*
X156223500Y-130948200D01*
X156219500Y-130943200D01*
X156214500Y-130939200D01*
X156210500Y-130934200D01*
X156206500Y-130928200D01*
X156202500Y-130923200D01*
X156199500Y-130917200D01*
X156196500Y-130912200D01*
X156193500Y-130906200D01*
X156190500Y-130900200D01*
X156188500Y-130894200D01*
X156186500Y-130887200D01*
X156185500Y-130881200D01*
X156184500Y-130875200D01*
X156183500Y-130868200D01*
X156182500Y-130862200D01*
X156182500Y-130855200D01*
X156182500Y-130655200D01*
X156182500Y-130648200D01*
X156183500Y-130642200D01*
X156184500Y-130635200D01*
X156185500Y-130629200D01*
X156186500Y-130623200D01*
X156188500Y-130616200D01*
X156190500Y-130610200D01*
X156193500Y-130604200D01*
X156196500Y-130598200D01*
X156199500Y-130593200D01*
X156202500Y-130587200D01*
X156206500Y-130582200D01*
X156210500Y-130576200D01*
X156214500Y-130571200D01*
X156219500Y-130567200D01*
X156223500Y-130562200D01*
X156228500Y-130558200D01*
X156234500Y-130554200D01*
X156239500Y-130550200D01*
X156244500Y-130547200D01*
X156250500Y-130544200D01*
X156256500Y-130541200D01*
X156262500Y-130538200D01*
X156268500Y-130536200D01*
X156275500Y-130534200D01*
X156281500Y-130533200D01*
X156287500Y-130532200D01*
X156294500Y-130531200D01*
X156300500Y-130530200D01*
X156307500Y-130530200D01*
X156747500Y-130530200D01*
X156754500Y-130530200D01*
X156760500Y-130531200D01*
G37*
X156760500Y-131031200D02*
X156767500Y-131032200D01*
X156773500Y-131033200D01*
X156779500Y-131034200D01*
X156786500Y-131036200D01*
X156792500Y-131038200D01*
X156798500Y-131041200D01*
X156804500Y-131044200D01*
X156810500Y-131047200D01*
X156815500Y-131050200D01*
X156820500Y-131054200D01*
X156826500Y-131058200D01*
X156831500Y-131062200D01*
X156835500Y-131067200D01*
X156840500Y-131071200D01*
X156844500Y-131076200D01*
X156848500Y-131082200D01*
X156852500Y-131087200D01*
X156855500Y-131093200D01*
X156858500Y-131098200D01*
X156861500Y-131104200D01*
X156864500Y-131110200D01*
X156866500Y-131116200D01*
X156868500Y-131123200D01*
X156869500Y-131129200D01*
X156870500Y-131135200D01*
X156871500Y-131142200D01*
X156872500Y-131148200D01*
X156872500Y-131155200D01*
X156872500Y-131355200D01*
X156872500Y-131362200D01*
X156871500Y-131368200D01*
X156870500Y-131375200D01*
X156869500Y-131381200D01*
X156868500Y-131387200D01*
X156866500Y-131394200D01*
X156864500Y-131400200D01*
X156861500Y-131406200D01*
X156858500Y-131412200D01*
X156855500Y-131417200D01*
X156852500Y-131423200D01*
X156848500Y-131428200D01*
X156844500Y-131434200D01*
X156840500Y-131439200D01*
X156835500Y-131443200D01*
X156831500Y-131448200D01*
X156826500Y-131452200D01*
X156820500Y-131456200D01*
X156815500Y-131460200D01*
X156810500Y-131463200D01*
X156804500Y-131466200D01*
X156798500Y-131469200D01*
X156792500Y-131472200D01*
X156786500Y-131474200D01*
X156779500Y-131476200D01*
X156773500Y-131477200D01*
X156767500Y-131478200D01*
X156760500Y-131479200D01*
X156754500Y-131480200D01*
X156747500Y-131480200D01*
X156307500Y-131480200D01*
X156300500Y-131480200D01*
X156294500Y-131479200D01*
X156287500Y-131478200D01*
X156281500Y-131477200D01*
X156275500Y-131476200D01*
X156268500Y-131474200D01*
X156262500Y-131472200D01*
X156256500Y-131469200D01*
X156250500Y-131466200D01*
X156244500Y-131463200D01*
X156239500Y-131460200D01*
X156234500Y-131456200D01*
X156228500Y-131452200D01*
X156223500Y-131448200D01*
X156219500Y-131443200D01*
X156214500Y-131439200D01*
X156210500Y-131434200D01*
X156206500Y-131428200D01*
X156202500Y-131423200D01*
X156199500Y-131417200D01*
X156196500Y-131412200D01*
X156193500Y-131406200D01*
X156190500Y-131400200D01*
X156188500Y-131394200D01*
X156186500Y-131387200D01*
X156185500Y-131381200D01*
X156184500Y-131375200D01*
X156183500Y-131368200D01*
X156182500Y-131362200D01*
X156182500Y-131355200D01*
X156182500Y-131155200D01*
X156182500Y-131148200D01*
X156183500Y-131142200D01*
X156184500Y-131135200D01*
X156185500Y-131129200D01*
X156186500Y-131123200D01*
X156188500Y-131116200D01*
X156190500Y-131110200D01*
X156193500Y-131104200D01*
X156196500Y-131098200D01*
X156199500Y-131093200D01*
X156202500Y-131087200D01*
X156206500Y-131082200D01*
X156210500Y-131076200D01*
X156214500Y-131071200D01*
X156219500Y-131067200D01*
X156223500Y-131062200D01*
X156228500Y-131058200D01*
X156234500Y-131054200D01*
X156239500Y-131050200D01*
X156244500Y-131047200D01*
X156250500Y-131044200D01*
X156256500Y-131041200D01*
X156262500Y-131038200D01*
X156268500Y-131036200D01*
X156275500Y-131034200D01*
X156281500Y-131033200D01*
X156287500Y-131032200D01*
X156294500Y-131031200D01*
X156300500Y-131030200D01*
X156307500Y-131030200D01*
X156747500Y-131030200D01*
X156754500Y-131030200D01*
X156760500Y-131031200D01*
G36*
X156760500Y-131031200D02*
G01*
X156767500Y-131032200D01*
X156773500Y-131033200D01*
X156779500Y-131034200D01*
X156786500Y-131036200D01*
X156792500Y-131038200D01*
X156798500Y-131041200D01*
X156804500Y-131044200D01*
X156810500Y-131047200D01*
X156815500Y-131050200D01*
X156820500Y-131054200D01*
X156826500Y-131058200D01*
X156831500Y-131062200D01*
X156835500Y-131067200D01*
X156840500Y-131071200D01*
X156844500Y-131076200D01*
X156848500Y-131082200D01*
X156852500Y-131087200D01*
X156855500Y-131093200D01*
X156858500Y-131098200D01*
X156861500Y-131104200D01*
X156864500Y-131110200D01*
X156866500Y-131116200D01*
X156868500Y-131123200D01*
X156869500Y-131129200D01*
X156870500Y-131135200D01*
X156871500Y-131142200D01*
X156872500Y-131148200D01*
X156872500Y-131155200D01*
X156872500Y-131355200D01*
X156872500Y-131362200D01*
X156871500Y-131368200D01*
X156870500Y-131375200D01*
X156869500Y-131381200D01*
X156868500Y-131387200D01*
X156866500Y-131394200D01*
X156864500Y-131400200D01*
X156861500Y-131406200D01*
X156858500Y-131412200D01*
X156855500Y-131417200D01*
X156852500Y-131423200D01*
X156848500Y-131428200D01*
X156844500Y-131434200D01*
X156840500Y-131439200D01*
X156835500Y-131443200D01*
X156831500Y-131448200D01*
X156826500Y-131452200D01*
X156820500Y-131456200D01*
X156815500Y-131460200D01*
X156810500Y-131463200D01*
X156804500Y-131466200D01*
X156798500Y-131469200D01*
X156792500Y-131472200D01*
X156786500Y-131474200D01*
X156779500Y-131476200D01*
X156773500Y-131477200D01*
X156767500Y-131478200D01*
X156760500Y-131479200D01*
X156754500Y-131480200D01*
X156747500Y-131480200D01*
X156307500Y-131480200D01*
X156300500Y-131480200D01*
X156294500Y-131479200D01*
X156287500Y-131478200D01*
X156281500Y-131477200D01*
X156275500Y-131476200D01*
X156268500Y-131474200D01*
X156262500Y-131472200D01*
X156256500Y-131469200D01*
X156250500Y-131466200D01*
X156244500Y-131463200D01*
X156239500Y-131460200D01*
X156234500Y-131456200D01*
X156228500Y-131452200D01*
X156223500Y-131448200D01*
X156219500Y-131443200D01*
X156214500Y-131439200D01*
X156210500Y-131434200D01*
X156206500Y-131428200D01*
X156202500Y-131423200D01*
X156199500Y-131417200D01*
X156196500Y-131412200D01*
X156193500Y-131406200D01*
X156190500Y-131400200D01*
X156188500Y-131394200D01*
X156186500Y-131387200D01*
X156185500Y-131381200D01*
X156184500Y-131375200D01*
X156183500Y-131368200D01*
X156182500Y-131362200D01*
X156182500Y-131355200D01*
X156182500Y-131155200D01*
X156182500Y-131148200D01*
X156183500Y-131142200D01*
X156184500Y-131135200D01*
X156185500Y-131129200D01*
X156186500Y-131123200D01*
X156188500Y-131116200D01*
X156190500Y-131110200D01*
X156193500Y-131104200D01*
X156196500Y-131098200D01*
X156199500Y-131093200D01*
X156202500Y-131087200D01*
X156206500Y-131082200D01*
X156210500Y-131076200D01*
X156214500Y-131071200D01*
X156219500Y-131067200D01*
X156223500Y-131062200D01*
X156228500Y-131058200D01*
X156234500Y-131054200D01*
X156239500Y-131050200D01*
X156244500Y-131047200D01*
X156250500Y-131044200D01*
X156256500Y-131041200D01*
X156262500Y-131038200D01*
X156268500Y-131036200D01*
X156275500Y-131034200D01*
X156281500Y-131033200D01*
X156287500Y-131032200D01*
X156294500Y-131031200D01*
X156300500Y-131030200D01*
X156307500Y-131030200D01*
X156747500Y-131030200D01*
X156754500Y-131030200D01*
X156760500Y-131031200D01*
G37*
X157305500Y-129246200D02*
X157312500Y-129247200D01*
X157318500Y-129248200D01*
X157324500Y-129249200D01*
X157331500Y-129251200D01*
X157337500Y-129253200D01*
X157343500Y-129256200D01*
X157349500Y-129259200D01*
X157354500Y-129262200D01*
X157360500Y-129265200D01*
X157365500Y-129269200D01*
X157371500Y-129273200D01*
X157376500Y-129277200D01*
X157380500Y-129282200D01*
X157385500Y-129286200D01*
X157389500Y-129291200D01*
X157393500Y-129297200D01*
X157397500Y-129302200D01*
X157400500Y-129307200D01*
X157403500Y-129313200D01*
X157406500Y-129319200D01*
X157409500Y-129325200D01*
X157411500Y-129331200D01*
X157413500Y-129338200D01*
X157414500Y-129344200D01*
X157415500Y-129350200D01*
X157416500Y-129357200D01*
X157417500Y-129363200D01*
X157417500Y-129370200D01*
X157417500Y-129810200D01*
X157417500Y-129817200D01*
X157416500Y-129823200D01*
X157415500Y-129830200D01*
X157414500Y-129836200D01*
X157413500Y-129842200D01*
X157411500Y-129849200D01*
X157409500Y-129855200D01*
X157406500Y-129861200D01*
X157403500Y-129867200D01*
X157400500Y-129873200D01*
X157397500Y-129878200D01*
X157393500Y-129883200D01*
X157389500Y-129889200D01*
X157385500Y-129894200D01*
X157380500Y-129898200D01*
X157376500Y-129903200D01*
X157371500Y-129907200D01*
X157365500Y-129911200D01*
X157360500Y-129915200D01*
X157354500Y-129918200D01*
X157349500Y-129921200D01*
X157343500Y-129924200D01*
X157337500Y-129927200D01*
X157331500Y-129929200D01*
X157324500Y-129931200D01*
X157318500Y-129932200D01*
X157312500Y-129933200D01*
X157305500Y-129934200D01*
X157299500Y-129935200D01*
X157292500Y-129935200D01*
X157092500Y-129935200D01*
X157085500Y-129935200D01*
X157079500Y-129934200D01*
X157072500Y-129933200D01*
X157066500Y-129932200D01*
X157060500Y-129931200D01*
X157053500Y-129929200D01*
X157047500Y-129927200D01*
X157041500Y-129924200D01*
X157035500Y-129921200D01*
X157029500Y-129918200D01*
X157024500Y-129915200D01*
X157019500Y-129911200D01*
X157013500Y-129907200D01*
X157008500Y-129903200D01*
X157004500Y-129898200D01*
X156999500Y-129894200D01*
X156995500Y-129889200D01*
X156991500Y-129883200D01*
X156987500Y-129878200D01*
X156984500Y-129873200D01*
X156981500Y-129867200D01*
X156978500Y-129861200D01*
X156975500Y-129855200D01*
X156973500Y-129849200D01*
X156971500Y-129842200D01*
X156970500Y-129836200D01*
X156969500Y-129830200D01*
X156968500Y-129823200D01*
X156967500Y-129817200D01*
X156967500Y-129810200D01*
X156967500Y-129370200D01*
X156967500Y-129363200D01*
X156968500Y-129357200D01*
X156969500Y-129350200D01*
X156970500Y-129344200D01*
X156971500Y-129338200D01*
X156973500Y-129331200D01*
X156975500Y-129325200D01*
X156978500Y-129319200D01*
X156981500Y-129313200D01*
X156984500Y-129307200D01*
X156987500Y-129302200D01*
X156991500Y-129297200D01*
X156995500Y-129291200D01*
X156999500Y-129286200D01*
X157004500Y-129282200D01*
X157008500Y-129277200D01*
X157013500Y-129273200D01*
X157019500Y-129269200D01*
X157024500Y-129265200D01*
X157030500Y-129262200D01*
X157035500Y-129259200D01*
X157041500Y-129256200D01*
X157047500Y-129253200D01*
X157053500Y-129251200D01*
X157060500Y-129249200D01*
X157066500Y-129248200D01*
X157072500Y-129247200D01*
X157079500Y-129246200D01*
X157085500Y-129245200D01*
X157092500Y-129245200D01*
X157292500Y-129245200D01*
X157299500Y-129245200D01*
X157305500Y-129246200D01*
G36*
X157305500Y-129246200D02*
G01*
X157312500Y-129247200D01*
X157318500Y-129248200D01*
X157324500Y-129249200D01*
X157331500Y-129251200D01*
X157337500Y-129253200D01*
X157343500Y-129256200D01*
X157349500Y-129259200D01*
X157354500Y-129262200D01*
X157360500Y-129265200D01*
X157365500Y-129269200D01*
X157371500Y-129273200D01*
X157376500Y-129277200D01*
X157380500Y-129282200D01*
X157385500Y-129286200D01*
X157389500Y-129291200D01*
X157393500Y-129297200D01*
X157397500Y-129302200D01*
X157400500Y-129307200D01*
X157403500Y-129313200D01*
X157406500Y-129319200D01*
X157409500Y-129325200D01*
X157411500Y-129331200D01*
X157413500Y-129338200D01*
X157414500Y-129344200D01*
X157415500Y-129350200D01*
X157416500Y-129357200D01*
X157417500Y-129363200D01*
X157417500Y-129370200D01*
X157417500Y-129810200D01*
X157417500Y-129817200D01*
X157416500Y-129823200D01*
X157415500Y-129830200D01*
X157414500Y-129836200D01*
X157413500Y-129842200D01*
X157411500Y-129849200D01*
X157409500Y-129855200D01*
X157406500Y-129861200D01*
X157403500Y-129867200D01*
X157400500Y-129873200D01*
X157397500Y-129878200D01*
X157393500Y-129883200D01*
X157389500Y-129889200D01*
X157385500Y-129894200D01*
X157380500Y-129898200D01*
X157376500Y-129903200D01*
X157371500Y-129907200D01*
X157365500Y-129911200D01*
X157360500Y-129915200D01*
X157354500Y-129918200D01*
X157349500Y-129921200D01*
X157343500Y-129924200D01*
X157337500Y-129927200D01*
X157331500Y-129929200D01*
X157324500Y-129931200D01*
X157318500Y-129932200D01*
X157312500Y-129933200D01*
X157305500Y-129934200D01*
X157299500Y-129935200D01*
X157292500Y-129935200D01*
X157092500Y-129935200D01*
X157085500Y-129935200D01*
X157079500Y-129934200D01*
X157072500Y-129933200D01*
X157066500Y-129932200D01*
X157060500Y-129931200D01*
X157053500Y-129929200D01*
X157047500Y-129927200D01*
X157041500Y-129924200D01*
X157035500Y-129921200D01*
X157029500Y-129918200D01*
X157024500Y-129915200D01*
X157019500Y-129911200D01*
X157013500Y-129907200D01*
X157008500Y-129903200D01*
X157004500Y-129898200D01*
X156999500Y-129894200D01*
X156995500Y-129889200D01*
X156991500Y-129883200D01*
X156987500Y-129878200D01*
X156984500Y-129873200D01*
X156981500Y-129867200D01*
X156978500Y-129861200D01*
X156975500Y-129855200D01*
X156973500Y-129849200D01*
X156971500Y-129842200D01*
X156970500Y-129836200D01*
X156969500Y-129830200D01*
X156968500Y-129823200D01*
X156967500Y-129817200D01*
X156967500Y-129810200D01*
X156967500Y-129370200D01*
X156967500Y-129363200D01*
X156968500Y-129357200D01*
X156969500Y-129350200D01*
X156970500Y-129344200D01*
X156971500Y-129338200D01*
X156973500Y-129331200D01*
X156975500Y-129325200D01*
X156978500Y-129319200D01*
X156981500Y-129313200D01*
X156984500Y-129307200D01*
X156987500Y-129302200D01*
X156991500Y-129297200D01*
X156995500Y-129291200D01*
X156999500Y-129286200D01*
X157004500Y-129282200D01*
X157008500Y-129277200D01*
X157013500Y-129273200D01*
X157019500Y-129269200D01*
X157024500Y-129265200D01*
X157030500Y-129262200D01*
X157035500Y-129259200D01*
X157041500Y-129256200D01*
X157047500Y-129253200D01*
X157053500Y-129251200D01*
X157060500Y-129249200D01*
X157066500Y-129248200D01*
X157072500Y-129247200D01*
X157079500Y-129246200D01*
X157085500Y-129245200D01*
X157092500Y-129245200D01*
X157292500Y-129245200D01*
X157299500Y-129245200D01*
X157305500Y-129246200D01*
G37*
X157305500Y-131076200D02*
X157312500Y-131077200D01*
X157318500Y-131078200D01*
X157324500Y-131079200D01*
X157331500Y-131081200D01*
X157337500Y-131083200D01*
X157343500Y-131086200D01*
X157349500Y-131089200D01*
X157354500Y-131092200D01*
X157360500Y-131095200D01*
X157365500Y-131099200D01*
X157371500Y-131103200D01*
X157376500Y-131107200D01*
X157380500Y-131112200D01*
X157385500Y-131116200D01*
X157389500Y-131121200D01*
X157393500Y-131127200D01*
X157397500Y-131132200D01*
X157400500Y-131137200D01*
X157403500Y-131143200D01*
X157406500Y-131149200D01*
X157409500Y-131155200D01*
X157411500Y-131161200D01*
X157413500Y-131168200D01*
X157414500Y-131174200D01*
X157415500Y-131180200D01*
X157416500Y-131187200D01*
X157417500Y-131193200D01*
X157417500Y-131200200D01*
X157417500Y-131640200D01*
X157417500Y-131647200D01*
X157416500Y-131653200D01*
X157415500Y-131660200D01*
X157414500Y-131666200D01*
X157413500Y-131672200D01*
X157411500Y-131679200D01*
X157409500Y-131685200D01*
X157406500Y-131691200D01*
X157403500Y-131697200D01*
X157400500Y-131703200D01*
X157397500Y-131708200D01*
X157393500Y-131713200D01*
X157389500Y-131719200D01*
X157385500Y-131724200D01*
X157380500Y-131728200D01*
X157376500Y-131733200D01*
X157371500Y-131737200D01*
X157365500Y-131741200D01*
X157360500Y-131745200D01*
X157354500Y-131748200D01*
X157349500Y-131751200D01*
X157343500Y-131754200D01*
X157337500Y-131757200D01*
X157331500Y-131759200D01*
X157324500Y-131761200D01*
X157318500Y-131762200D01*
X157312500Y-131763200D01*
X157305500Y-131764200D01*
X157299500Y-131765200D01*
X157292500Y-131765200D01*
X157092500Y-131765200D01*
X157085500Y-131765200D01*
X157079500Y-131764200D01*
X157072500Y-131763200D01*
X157066500Y-131762200D01*
X157060500Y-131761200D01*
X157053500Y-131759200D01*
X157047500Y-131757200D01*
X157041500Y-131754200D01*
X157035500Y-131751200D01*
X157029500Y-131748200D01*
X157024500Y-131745200D01*
X157019500Y-131741200D01*
X157013500Y-131737200D01*
X157008500Y-131733200D01*
X157004500Y-131728200D01*
X156999500Y-131724200D01*
X156995500Y-131719200D01*
X156991500Y-131713200D01*
X156987500Y-131708200D01*
X156984500Y-131703200D01*
X156981500Y-131697200D01*
X156978500Y-131691200D01*
X156975500Y-131685200D01*
X156973500Y-131679200D01*
X156971500Y-131672200D01*
X156970500Y-131666200D01*
X156969500Y-131660200D01*
X156968500Y-131653200D01*
X156967500Y-131647200D01*
X156967500Y-131640200D01*
X156967500Y-131200200D01*
X156967500Y-131193200D01*
X156968500Y-131187200D01*
X156969500Y-131180200D01*
X156970500Y-131174200D01*
X156971500Y-131168200D01*
X156973500Y-131161200D01*
X156975500Y-131155200D01*
X156978500Y-131149200D01*
X156981500Y-131143200D01*
X156984500Y-131137200D01*
X156987500Y-131132200D01*
X156991500Y-131127200D01*
X156995500Y-131121200D01*
X156999500Y-131116200D01*
X157004500Y-131112200D01*
X157008500Y-131107200D01*
X157013500Y-131103200D01*
X157019500Y-131099200D01*
X157024500Y-131095200D01*
X157030500Y-131092200D01*
X157035500Y-131089200D01*
X157041500Y-131086200D01*
X157047500Y-131083200D01*
X157053500Y-131081200D01*
X157060500Y-131079200D01*
X157066500Y-131078200D01*
X157072500Y-131077200D01*
X157079500Y-131076200D01*
X157085500Y-131075200D01*
X157092500Y-131075200D01*
X157292500Y-131075200D01*
X157299500Y-131075200D01*
X157305500Y-131076200D01*
G36*
X157305500Y-131076200D02*
G01*
X157312500Y-131077200D01*
X157318500Y-131078200D01*
X157324500Y-131079200D01*
X157331500Y-131081200D01*
X157337500Y-131083200D01*
X157343500Y-131086200D01*
X157349500Y-131089200D01*
X157354500Y-131092200D01*
X157360500Y-131095200D01*
X157365500Y-131099200D01*
X157371500Y-131103200D01*
X157376500Y-131107200D01*
X157380500Y-131112200D01*
X157385500Y-131116200D01*
X157389500Y-131121200D01*
X157393500Y-131127200D01*
X157397500Y-131132200D01*
X157400500Y-131137200D01*
X157403500Y-131143200D01*
X157406500Y-131149200D01*
X157409500Y-131155200D01*
X157411500Y-131161200D01*
X157413500Y-131168200D01*
X157414500Y-131174200D01*
X157415500Y-131180200D01*
X157416500Y-131187200D01*
X157417500Y-131193200D01*
X157417500Y-131200200D01*
X157417500Y-131640200D01*
X157417500Y-131647200D01*
X157416500Y-131653200D01*
X157415500Y-131660200D01*
X157414500Y-131666200D01*
X157413500Y-131672200D01*
X157411500Y-131679200D01*
X157409500Y-131685200D01*
X157406500Y-131691200D01*
X157403500Y-131697200D01*
X157400500Y-131703200D01*
X157397500Y-131708200D01*
X157393500Y-131713200D01*
X157389500Y-131719200D01*
X157385500Y-131724200D01*
X157380500Y-131728200D01*
X157376500Y-131733200D01*
X157371500Y-131737200D01*
X157365500Y-131741200D01*
X157360500Y-131745200D01*
X157354500Y-131748200D01*
X157349500Y-131751200D01*
X157343500Y-131754200D01*
X157337500Y-131757200D01*
X157331500Y-131759200D01*
X157324500Y-131761200D01*
X157318500Y-131762200D01*
X157312500Y-131763200D01*
X157305500Y-131764200D01*
X157299500Y-131765200D01*
X157292500Y-131765200D01*
X157092500Y-131765200D01*
X157085500Y-131765200D01*
X157079500Y-131764200D01*
X157072500Y-131763200D01*
X157066500Y-131762200D01*
X157060500Y-131761200D01*
X157053500Y-131759200D01*
X157047500Y-131757200D01*
X157041500Y-131754200D01*
X157035500Y-131751200D01*
X157029500Y-131748200D01*
X157024500Y-131745200D01*
X157019500Y-131741200D01*
X157013500Y-131737200D01*
X157008500Y-131733200D01*
X157004500Y-131728200D01*
X156999500Y-131724200D01*
X156995500Y-131719200D01*
X156991500Y-131713200D01*
X156987500Y-131708200D01*
X156984500Y-131703200D01*
X156981500Y-131697200D01*
X156978500Y-131691200D01*
X156975500Y-131685200D01*
X156973500Y-131679200D01*
X156971500Y-131672200D01*
X156970500Y-131666200D01*
X156969500Y-131660200D01*
X156968500Y-131653200D01*
X156967500Y-131647200D01*
X156967500Y-131640200D01*
X156967500Y-131200200D01*
X156967500Y-131193200D01*
X156968500Y-131187200D01*
X156969500Y-131180200D01*
X156970500Y-131174200D01*
X156971500Y-131168200D01*
X156973500Y-131161200D01*
X156975500Y-131155200D01*
X156978500Y-131149200D01*
X156981500Y-131143200D01*
X156984500Y-131137200D01*
X156987500Y-131132200D01*
X156991500Y-131127200D01*
X156995500Y-131121200D01*
X156999500Y-131116200D01*
X157004500Y-131112200D01*
X157008500Y-131107200D01*
X157013500Y-131103200D01*
X157019500Y-131099200D01*
X157024500Y-131095200D01*
X157030500Y-131092200D01*
X157035500Y-131089200D01*
X157041500Y-131086200D01*
X157047500Y-131083200D01*
X157053500Y-131081200D01*
X157060500Y-131079200D01*
X157066500Y-131078200D01*
X157072500Y-131077200D01*
X157079500Y-131076200D01*
X157085500Y-131075200D01*
X157092500Y-131075200D01*
X157292500Y-131075200D01*
X157299500Y-131075200D01*
X157305500Y-131076200D01*
G37*
X157805500Y-129246200D02*
X157812500Y-129247200D01*
X157818500Y-129248200D01*
X157824500Y-129249200D01*
X157831500Y-129251200D01*
X157837500Y-129253200D01*
X157843500Y-129256200D01*
X157849500Y-129259200D01*
X157855500Y-129262200D01*
X157860500Y-129265200D01*
X157865500Y-129269200D01*
X157871500Y-129273200D01*
X157876500Y-129277200D01*
X157880500Y-129282200D01*
X157885500Y-129286200D01*
X157889500Y-129291200D01*
X157893500Y-129297200D01*
X157897500Y-129302200D01*
X157900500Y-129307200D01*
X157903500Y-129313200D01*
X157906500Y-129319200D01*
X157909500Y-129325200D01*
X157911500Y-129331200D01*
X157913500Y-129338200D01*
X157914500Y-129344200D01*
X157915500Y-129350200D01*
X157916500Y-129357200D01*
X157917500Y-129363200D01*
X157917500Y-129370200D01*
X157917500Y-129810200D01*
X157917500Y-129817200D01*
X157916500Y-129823200D01*
X157915500Y-129830200D01*
X157914500Y-129836200D01*
X157913500Y-129842200D01*
X157911500Y-129849200D01*
X157909500Y-129855200D01*
X157906500Y-129861200D01*
X157903500Y-129867200D01*
X157900500Y-129873200D01*
X157897500Y-129878200D01*
X157893500Y-129883200D01*
X157889500Y-129889200D01*
X157885500Y-129894200D01*
X157880500Y-129898200D01*
X157876500Y-129903200D01*
X157871500Y-129907200D01*
X157865500Y-129911200D01*
X157860500Y-129915200D01*
X157855500Y-129918200D01*
X157849500Y-129921200D01*
X157843500Y-129924200D01*
X157837500Y-129927200D01*
X157831500Y-129929200D01*
X157824500Y-129931200D01*
X157818500Y-129932200D01*
X157812500Y-129933200D01*
X157805500Y-129934200D01*
X157799500Y-129935200D01*
X157792500Y-129935200D01*
X157592500Y-129935200D01*
X157585500Y-129935200D01*
X157579500Y-129934200D01*
X157572500Y-129933200D01*
X157566500Y-129932200D01*
X157560500Y-129931200D01*
X157553500Y-129929200D01*
X157547500Y-129927200D01*
X157541500Y-129924200D01*
X157535500Y-129921200D01*
X157529500Y-129918200D01*
X157524500Y-129915200D01*
X157519500Y-129911200D01*
X157513500Y-129907200D01*
X157508500Y-129903200D01*
X157504500Y-129898200D01*
X157499500Y-129894200D01*
X157495500Y-129889200D01*
X157491500Y-129883200D01*
X157487500Y-129878200D01*
X157484500Y-129873200D01*
X157481500Y-129867200D01*
X157478500Y-129861200D01*
X157475500Y-129855200D01*
X157473500Y-129849200D01*
X157471500Y-129842200D01*
X157470500Y-129836200D01*
X157469500Y-129830200D01*
X157468500Y-129823200D01*
X157467500Y-129817200D01*
X157467500Y-129810200D01*
X157467500Y-129370200D01*
X157467500Y-129363200D01*
X157468500Y-129357200D01*
X157469500Y-129350200D01*
X157470500Y-129344200D01*
X157471500Y-129338200D01*
X157473500Y-129331200D01*
X157475500Y-129325200D01*
X157478500Y-129319200D01*
X157481500Y-129313200D01*
X157484500Y-129307200D01*
X157487500Y-129302200D01*
X157491500Y-129297200D01*
X157495500Y-129291200D01*
X157499500Y-129286200D01*
X157504500Y-129282200D01*
X157508500Y-129277200D01*
X157513500Y-129273200D01*
X157519500Y-129269200D01*
X157524500Y-129265200D01*
X157530500Y-129262200D01*
X157535500Y-129259200D01*
X157541500Y-129256200D01*
X157547500Y-129253200D01*
X157553500Y-129251200D01*
X157560500Y-129249200D01*
X157566500Y-129248200D01*
X157572500Y-129247200D01*
X157579500Y-129246200D01*
X157585500Y-129245200D01*
X157592500Y-129245200D01*
X157792500Y-129245200D01*
X157799500Y-129245200D01*
X157805500Y-129246200D01*
G36*
X157805500Y-129246200D02*
G01*
X157812500Y-129247200D01*
X157818500Y-129248200D01*
X157824500Y-129249200D01*
X157831500Y-129251200D01*
X157837500Y-129253200D01*
X157843500Y-129256200D01*
X157849500Y-129259200D01*
X157855500Y-129262200D01*
X157860500Y-129265200D01*
X157865500Y-129269200D01*
X157871500Y-129273200D01*
X157876500Y-129277200D01*
X157880500Y-129282200D01*
X157885500Y-129286200D01*
X157889500Y-129291200D01*
X157893500Y-129297200D01*
X157897500Y-129302200D01*
X157900500Y-129307200D01*
X157903500Y-129313200D01*
X157906500Y-129319200D01*
X157909500Y-129325200D01*
X157911500Y-129331200D01*
X157913500Y-129338200D01*
X157914500Y-129344200D01*
X157915500Y-129350200D01*
X157916500Y-129357200D01*
X157917500Y-129363200D01*
X157917500Y-129370200D01*
X157917500Y-129810200D01*
X157917500Y-129817200D01*
X157916500Y-129823200D01*
X157915500Y-129830200D01*
X157914500Y-129836200D01*
X157913500Y-129842200D01*
X157911500Y-129849200D01*
X157909500Y-129855200D01*
X157906500Y-129861200D01*
X157903500Y-129867200D01*
X157900500Y-129873200D01*
X157897500Y-129878200D01*
X157893500Y-129883200D01*
X157889500Y-129889200D01*
X157885500Y-129894200D01*
X157880500Y-129898200D01*
X157876500Y-129903200D01*
X157871500Y-129907200D01*
X157865500Y-129911200D01*
X157860500Y-129915200D01*
X157855500Y-129918200D01*
X157849500Y-129921200D01*
X157843500Y-129924200D01*
X157837500Y-129927200D01*
X157831500Y-129929200D01*
X157824500Y-129931200D01*
X157818500Y-129932200D01*
X157812500Y-129933200D01*
X157805500Y-129934200D01*
X157799500Y-129935200D01*
X157792500Y-129935200D01*
X157592500Y-129935200D01*
X157585500Y-129935200D01*
X157579500Y-129934200D01*
X157572500Y-129933200D01*
X157566500Y-129932200D01*
X157560500Y-129931200D01*
X157553500Y-129929200D01*
X157547500Y-129927200D01*
X157541500Y-129924200D01*
X157535500Y-129921200D01*
X157529500Y-129918200D01*
X157524500Y-129915200D01*
X157519500Y-129911200D01*
X157513500Y-129907200D01*
X157508500Y-129903200D01*
X157504500Y-129898200D01*
X157499500Y-129894200D01*
X157495500Y-129889200D01*
X157491500Y-129883200D01*
X157487500Y-129878200D01*
X157484500Y-129873200D01*
X157481500Y-129867200D01*
X157478500Y-129861200D01*
X157475500Y-129855200D01*
X157473500Y-129849200D01*
X157471500Y-129842200D01*
X157470500Y-129836200D01*
X157469500Y-129830200D01*
X157468500Y-129823200D01*
X157467500Y-129817200D01*
X157467500Y-129810200D01*
X157467500Y-129370200D01*
X157467500Y-129363200D01*
X157468500Y-129357200D01*
X157469500Y-129350200D01*
X157470500Y-129344200D01*
X157471500Y-129338200D01*
X157473500Y-129331200D01*
X157475500Y-129325200D01*
X157478500Y-129319200D01*
X157481500Y-129313200D01*
X157484500Y-129307200D01*
X157487500Y-129302200D01*
X157491500Y-129297200D01*
X157495500Y-129291200D01*
X157499500Y-129286200D01*
X157504500Y-129282200D01*
X157508500Y-129277200D01*
X157513500Y-129273200D01*
X157519500Y-129269200D01*
X157524500Y-129265200D01*
X157530500Y-129262200D01*
X157535500Y-129259200D01*
X157541500Y-129256200D01*
X157547500Y-129253200D01*
X157553500Y-129251200D01*
X157560500Y-129249200D01*
X157566500Y-129248200D01*
X157572500Y-129247200D01*
X157579500Y-129246200D01*
X157585500Y-129245200D01*
X157592500Y-129245200D01*
X157792500Y-129245200D01*
X157799500Y-129245200D01*
X157805500Y-129246200D01*
G37*
X157805500Y-131076200D02*
X157812500Y-131077200D01*
X157818500Y-131078200D01*
X157824500Y-131079200D01*
X157831500Y-131081200D01*
X157837500Y-131083200D01*
X157843500Y-131086200D01*
X157849500Y-131089200D01*
X157855500Y-131092200D01*
X157860500Y-131095200D01*
X157865500Y-131099200D01*
X157871500Y-131103200D01*
X157876500Y-131107200D01*
X157880500Y-131112200D01*
X157885500Y-131116200D01*
X157889500Y-131121200D01*
X157893500Y-131127200D01*
X157897500Y-131132200D01*
X157900500Y-131137200D01*
X157903500Y-131143200D01*
X157906500Y-131149200D01*
X157909500Y-131155200D01*
X157911500Y-131161200D01*
X157913500Y-131168200D01*
X157914500Y-131174200D01*
X157915500Y-131180200D01*
X157916500Y-131187200D01*
X157917500Y-131193200D01*
X157917500Y-131200200D01*
X157917500Y-131640200D01*
X157917500Y-131647200D01*
X157916500Y-131653200D01*
X157915500Y-131660200D01*
X157914500Y-131666200D01*
X157913500Y-131672200D01*
X157911500Y-131679200D01*
X157909500Y-131685200D01*
X157906500Y-131691200D01*
X157903500Y-131697200D01*
X157900500Y-131703200D01*
X157897500Y-131708200D01*
X157893500Y-131713200D01*
X157889500Y-131719200D01*
X157885500Y-131724200D01*
X157880500Y-131728200D01*
X157876500Y-131733200D01*
X157871500Y-131737200D01*
X157865500Y-131741200D01*
X157860500Y-131745200D01*
X157855500Y-131748200D01*
X157849500Y-131751200D01*
X157843500Y-131754200D01*
X157837500Y-131757200D01*
X157831500Y-131759200D01*
X157824500Y-131761200D01*
X157818500Y-131762200D01*
X157812500Y-131763200D01*
X157805500Y-131764200D01*
X157799500Y-131765200D01*
X157792500Y-131765200D01*
X157592500Y-131765200D01*
X157585500Y-131765200D01*
X157579500Y-131764200D01*
X157572500Y-131763200D01*
X157566500Y-131762200D01*
X157560500Y-131761200D01*
X157553500Y-131759200D01*
X157547500Y-131757200D01*
X157541500Y-131754200D01*
X157535500Y-131751200D01*
X157529500Y-131748200D01*
X157524500Y-131745200D01*
X157519500Y-131741200D01*
X157513500Y-131737200D01*
X157508500Y-131733200D01*
X157504500Y-131728200D01*
X157499500Y-131724200D01*
X157495500Y-131719200D01*
X157491500Y-131713200D01*
X157487500Y-131708200D01*
X157484500Y-131703200D01*
X157481500Y-131697200D01*
X157478500Y-131691200D01*
X157475500Y-131685200D01*
X157473500Y-131679200D01*
X157471500Y-131672200D01*
X157470500Y-131666200D01*
X157469500Y-131660200D01*
X157468500Y-131653200D01*
X157467500Y-131647200D01*
X157467500Y-131640200D01*
X157467500Y-131200200D01*
X157467500Y-131193200D01*
X157468500Y-131187200D01*
X157469500Y-131180200D01*
X157470500Y-131174200D01*
X157471500Y-131168200D01*
X157473500Y-131161200D01*
X157475500Y-131155200D01*
X157478500Y-131149200D01*
X157481500Y-131143200D01*
X157484500Y-131137200D01*
X157487500Y-131132200D01*
X157491500Y-131127200D01*
X157495500Y-131121200D01*
X157499500Y-131116200D01*
X157504500Y-131112200D01*
X157508500Y-131107200D01*
X157513500Y-131103200D01*
X157519500Y-131099200D01*
X157524500Y-131095200D01*
X157530500Y-131092200D01*
X157535500Y-131089200D01*
X157541500Y-131086200D01*
X157547500Y-131083200D01*
X157553500Y-131081200D01*
X157560500Y-131079200D01*
X157566500Y-131078200D01*
X157572500Y-131077200D01*
X157579500Y-131076200D01*
X157585500Y-131075200D01*
X157592500Y-131075200D01*
X157792500Y-131075200D01*
X157799500Y-131075200D01*
X157805500Y-131076200D01*
G36*
X157805500Y-131076200D02*
G01*
X157812500Y-131077200D01*
X157818500Y-131078200D01*
X157824500Y-131079200D01*
X157831500Y-131081200D01*
X157837500Y-131083200D01*
X157843500Y-131086200D01*
X157849500Y-131089200D01*
X157855500Y-131092200D01*
X157860500Y-131095200D01*
X157865500Y-131099200D01*
X157871500Y-131103200D01*
X157876500Y-131107200D01*
X157880500Y-131112200D01*
X157885500Y-131116200D01*
X157889500Y-131121200D01*
X157893500Y-131127200D01*
X157897500Y-131132200D01*
X157900500Y-131137200D01*
X157903500Y-131143200D01*
X157906500Y-131149200D01*
X157909500Y-131155200D01*
X157911500Y-131161200D01*
X157913500Y-131168200D01*
X157914500Y-131174200D01*
X157915500Y-131180200D01*
X157916500Y-131187200D01*
X157917500Y-131193200D01*
X157917500Y-131200200D01*
X157917500Y-131640200D01*
X157917500Y-131647200D01*
X157916500Y-131653200D01*
X157915500Y-131660200D01*
X157914500Y-131666200D01*
X157913500Y-131672200D01*
X157911500Y-131679200D01*
X157909500Y-131685200D01*
X157906500Y-131691200D01*
X157903500Y-131697200D01*
X157900500Y-131703200D01*
X157897500Y-131708200D01*
X157893500Y-131713200D01*
X157889500Y-131719200D01*
X157885500Y-131724200D01*
X157880500Y-131728200D01*
X157876500Y-131733200D01*
X157871500Y-131737200D01*
X157865500Y-131741200D01*
X157860500Y-131745200D01*
X157855500Y-131748200D01*
X157849500Y-131751200D01*
X157843500Y-131754200D01*
X157837500Y-131757200D01*
X157831500Y-131759200D01*
X157824500Y-131761200D01*
X157818500Y-131762200D01*
X157812500Y-131763200D01*
X157805500Y-131764200D01*
X157799500Y-131765200D01*
X157792500Y-131765200D01*
X157592500Y-131765200D01*
X157585500Y-131765200D01*
X157579500Y-131764200D01*
X157572500Y-131763200D01*
X157566500Y-131762200D01*
X157560500Y-131761200D01*
X157553500Y-131759200D01*
X157547500Y-131757200D01*
X157541500Y-131754200D01*
X157535500Y-131751200D01*
X157529500Y-131748200D01*
X157524500Y-131745200D01*
X157519500Y-131741200D01*
X157513500Y-131737200D01*
X157508500Y-131733200D01*
X157504500Y-131728200D01*
X157499500Y-131724200D01*
X157495500Y-131719200D01*
X157491500Y-131713200D01*
X157487500Y-131708200D01*
X157484500Y-131703200D01*
X157481500Y-131697200D01*
X157478500Y-131691200D01*
X157475500Y-131685200D01*
X157473500Y-131679200D01*
X157471500Y-131672200D01*
X157470500Y-131666200D01*
X157469500Y-131660200D01*
X157468500Y-131653200D01*
X157467500Y-131647200D01*
X157467500Y-131640200D01*
X157467500Y-131200200D01*
X157467500Y-131193200D01*
X157468500Y-131187200D01*
X157469500Y-131180200D01*
X157470500Y-131174200D01*
X157471500Y-131168200D01*
X157473500Y-131161200D01*
X157475500Y-131155200D01*
X157478500Y-131149200D01*
X157481500Y-131143200D01*
X157484500Y-131137200D01*
X157487500Y-131132200D01*
X157491500Y-131127200D01*
X157495500Y-131121200D01*
X157499500Y-131116200D01*
X157504500Y-131112200D01*
X157508500Y-131107200D01*
X157513500Y-131103200D01*
X157519500Y-131099200D01*
X157524500Y-131095200D01*
X157530500Y-131092200D01*
X157535500Y-131089200D01*
X157541500Y-131086200D01*
X157547500Y-131083200D01*
X157553500Y-131081200D01*
X157560500Y-131079200D01*
X157566500Y-131078200D01*
X157572500Y-131077200D01*
X157579500Y-131076200D01*
X157585500Y-131075200D01*
X157592500Y-131075200D01*
X157792500Y-131075200D01*
X157799500Y-131075200D01*
X157805500Y-131076200D01*
G37*
X158305500Y-129246200D02*
X158312500Y-129247200D01*
X158318500Y-129248200D01*
X158324500Y-129249200D01*
X158331500Y-129251200D01*
X158337500Y-129253200D01*
X158343500Y-129256200D01*
X158349500Y-129259200D01*
X158354500Y-129262200D01*
X158360500Y-129265200D01*
X158365500Y-129269200D01*
X158371500Y-129273200D01*
X158376500Y-129277200D01*
X158380500Y-129282200D01*
X158385500Y-129286200D01*
X158389500Y-129291200D01*
X158393500Y-129297200D01*
X158397500Y-129302200D01*
X158400500Y-129307200D01*
X158403500Y-129313200D01*
X158406500Y-129319200D01*
X158409500Y-129325200D01*
X158411500Y-129331200D01*
X158413500Y-129338200D01*
X158414500Y-129344200D01*
X158415500Y-129350200D01*
X158416500Y-129357200D01*
X158417500Y-129363200D01*
X158417500Y-129370200D01*
X158417500Y-129810200D01*
X158417500Y-129817200D01*
X158416500Y-129823200D01*
X158415500Y-129830200D01*
X158414500Y-129836200D01*
X158413500Y-129842200D01*
X158411500Y-129849200D01*
X158409500Y-129855200D01*
X158406500Y-129861200D01*
X158403500Y-129867200D01*
X158400500Y-129873200D01*
X158397500Y-129878200D01*
X158393500Y-129883200D01*
X158389500Y-129889200D01*
X158385500Y-129894200D01*
X158380500Y-129898200D01*
X158376500Y-129903200D01*
X158371500Y-129907200D01*
X158365500Y-129911200D01*
X158360500Y-129915200D01*
X158354500Y-129918200D01*
X158349500Y-129921200D01*
X158343500Y-129924200D01*
X158337500Y-129927200D01*
X158331500Y-129929200D01*
X158324500Y-129931200D01*
X158318500Y-129932200D01*
X158312500Y-129933200D01*
X158305500Y-129934200D01*
X158299500Y-129935200D01*
X158292500Y-129935200D01*
X158092500Y-129935200D01*
X158085500Y-129935200D01*
X158079500Y-129934200D01*
X158072500Y-129933200D01*
X158066500Y-129932200D01*
X158060500Y-129931200D01*
X158053500Y-129929200D01*
X158047500Y-129927200D01*
X158041500Y-129924200D01*
X158035500Y-129921200D01*
X158029500Y-129918200D01*
X158024500Y-129915200D01*
X158019500Y-129911200D01*
X158013500Y-129907200D01*
X158008500Y-129903200D01*
X158004500Y-129898200D01*
X157999500Y-129894200D01*
X157995500Y-129889200D01*
X157991500Y-129883200D01*
X157987500Y-129878200D01*
X157984500Y-129873200D01*
X157981500Y-129867200D01*
X157978500Y-129861200D01*
X157975500Y-129855200D01*
X157973500Y-129849200D01*
X157971500Y-129842200D01*
X157970500Y-129836200D01*
X157969500Y-129830200D01*
X157968500Y-129823200D01*
X157967500Y-129817200D01*
X157967500Y-129810200D01*
X157967500Y-129370200D01*
X157967500Y-129363200D01*
X157968500Y-129357200D01*
X157969500Y-129350200D01*
X157970500Y-129344200D01*
X157971500Y-129338200D01*
X157973500Y-129331200D01*
X157975500Y-129325200D01*
X157978500Y-129319200D01*
X157981500Y-129313200D01*
X157984500Y-129307200D01*
X157987500Y-129302200D01*
X157991500Y-129297200D01*
X157995500Y-129291200D01*
X157999500Y-129286200D01*
X158004500Y-129282200D01*
X158008500Y-129277200D01*
X158013500Y-129273200D01*
X158019500Y-129269200D01*
X158024500Y-129265200D01*
X158030500Y-129262200D01*
X158035500Y-129259200D01*
X158041500Y-129256200D01*
X158047500Y-129253200D01*
X158053500Y-129251200D01*
X158060500Y-129249200D01*
X158066500Y-129248200D01*
X158072500Y-129247200D01*
X158079500Y-129246200D01*
X158085500Y-129245200D01*
X158092500Y-129245200D01*
X158292500Y-129245200D01*
X158299500Y-129245200D01*
X158305500Y-129246200D01*
G36*
X158305500Y-129246200D02*
G01*
X158312500Y-129247200D01*
X158318500Y-129248200D01*
X158324500Y-129249200D01*
X158331500Y-129251200D01*
X158337500Y-129253200D01*
X158343500Y-129256200D01*
X158349500Y-129259200D01*
X158354500Y-129262200D01*
X158360500Y-129265200D01*
X158365500Y-129269200D01*
X158371500Y-129273200D01*
X158376500Y-129277200D01*
X158380500Y-129282200D01*
X158385500Y-129286200D01*
X158389500Y-129291200D01*
X158393500Y-129297200D01*
X158397500Y-129302200D01*
X158400500Y-129307200D01*
X158403500Y-129313200D01*
X158406500Y-129319200D01*
X158409500Y-129325200D01*
X158411500Y-129331200D01*
X158413500Y-129338200D01*
X158414500Y-129344200D01*
X158415500Y-129350200D01*
X158416500Y-129357200D01*
X158417500Y-129363200D01*
X158417500Y-129370200D01*
X158417500Y-129810200D01*
X158417500Y-129817200D01*
X158416500Y-129823200D01*
X158415500Y-129830200D01*
X158414500Y-129836200D01*
X158413500Y-129842200D01*
X158411500Y-129849200D01*
X158409500Y-129855200D01*
X158406500Y-129861200D01*
X158403500Y-129867200D01*
X158400500Y-129873200D01*
X158397500Y-129878200D01*
X158393500Y-129883200D01*
X158389500Y-129889200D01*
X158385500Y-129894200D01*
X158380500Y-129898200D01*
X158376500Y-129903200D01*
X158371500Y-129907200D01*
X158365500Y-129911200D01*
X158360500Y-129915200D01*
X158354500Y-129918200D01*
X158349500Y-129921200D01*
X158343500Y-129924200D01*
X158337500Y-129927200D01*
X158331500Y-129929200D01*
X158324500Y-129931200D01*
X158318500Y-129932200D01*
X158312500Y-129933200D01*
X158305500Y-129934200D01*
X158299500Y-129935200D01*
X158292500Y-129935200D01*
X158092500Y-129935200D01*
X158085500Y-129935200D01*
X158079500Y-129934200D01*
X158072500Y-129933200D01*
X158066500Y-129932200D01*
X158060500Y-129931200D01*
X158053500Y-129929200D01*
X158047500Y-129927200D01*
X158041500Y-129924200D01*
X158035500Y-129921200D01*
X158029500Y-129918200D01*
X158024500Y-129915200D01*
X158019500Y-129911200D01*
X158013500Y-129907200D01*
X158008500Y-129903200D01*
X158004500Y-129898200D01*
X157999500Y-129894200D01*
X157995500Y-129889200D01*
X157991500Y-129883200D01*
X157987500Y-129878200D01*
X157984500Y-129873200D01*
X157981500Y-129867200D01*
X157978500Y-129861200D01*
X157975500Y-129855200D01*
X157973500Y-129849200D01*
X157971500Y-129842200D01*
X157970500Y-129836200D01*
X157969500Y-129830200D01*
X157968500Y-129823200D01*
X157967500Y-129817200D01*
X157967500Y-129810200D01*
X157967500Y-129370200D01*
X157967500Y-129363200D01*
X157968500Y-129357200D01*
X157969500Y-129350200D01*
X157970500Y-129344200D01*
X157971500Y-129338200D01*
X157973500Y-129331200D01*
X157975500Y-129325200D01*
X157978500Y-129319200D01*
X157981500Y-129313200D01*
X157984500Y-129307200D01*
X157987500Y-129302200D01*
X157991500Y-129297200D01*
X157995500Y-129291200D01*
X157999500Y-129286200D01*
X158004500Y-129282200D01*
X158008500Y-129277200D01*
X158013500Y-129273200D01*
X158019500Y-129269200D01*
X158024500Y-129265200D01*
X158030500Y-129262200D01*
X158035500Y-129259200D01*
X158041500Y-129256200D01*
X158047500Y-129253200D01*
X158053500Y-129251200D01*
X158060500Y-129249200D01*
X158066500Y-129248200D01*
X158072500Y-129247200D01*
X158079500Y-129246200D01*
X158085500Y-129245200D01*
X158092500Y-129245200D01*
X158292500Y-129245200D01*
X158299500Y-129245200D01*
X158305500Y-129246200D01*
G37*
X158305500Y-131076200D02*
X158312500Y-131077200D01*
X158318500Y-131078200D01*
X158324500Y-131079200D01*
X158331500Y-131081200D01*
X158337500Y-131083200D01*
X158343500Y-131086200D01*
X158349500Y-131089200D01*
X158354500Y-131092200D01*
X158360500Y-131095200D01*
X158365500Y-131099200D01*
X158371500Y-131103200D01*
X158376500Y-131107200D01*
X158380500Y-131112200D01*
X158385500Y-131116200D01*
X158389500Y-131121200D01*
X158393500Y-131127200D01*
X158397500Y-131132200D01*
X158400500Y-131137200D01*
X158403500Y-131143200D01*
X158406500Y-131149200D01*
X158409500Y-131155200D01*
X158411500Y-131161200D01*
X158413500Y-131168200D01*
X158414500Y-131174200D01*
X158415500Y-131180200D01*
X158416500Y-131187200D01*
X158417500Y-131193200D01*
X158417500Y-131200200D01*
X158417500Y-131640200D01*
X158417500Y-131647200D01*
X158416500Y-131653200D01*
X158415500Y-131660200D01*
X158414500Y-131666200D01*
X158413500Y-131672200D01*
X158411500Y-131679200D01*
X158409500Y-131685200D01*
X158406500Y-131691200D01*
X158403500Y-131697200D01*
X158400500Y-131703200D01*
X158397500Y-131708200D01*
X158393500Y-131713200D01*
X158389500Y-131719200D01*
X158385500Y-131724200D01*
X158380500Y-131728200D01*
X158376500Y-131733200D01*
X158371500Y-131737200D01*
X158365500Y-131741200D01*
X158360500Y-131745200D01*
X158354500Y-131748200D01*
X158349500Y-131751200D01*
X158343500Y-131754200D01*
X158337500Y-131757200D01*
X158331500Y-131759200D01*
X158324500Y-131761200D01*
X158318500Y-131762200D01*
X158312500Y-131763200D01*
X158305500Y-131764200D01*
X158299500Y-131765200D01*
X158292500Y-131765200D01*
X158092500Y-131765200D01*
X158085500Y-131765200D01*
X158079500Y-131764200D01*
X158072500Y-131763200D01*
X158066500Y-131762200D01*
X158060500Y-131761200D01*
X158053500Y-131759200D01*
X158047500Y-131757200D01*
X158041500Y-131754200D01*
X158035500Y-131751200D01*
X158029500Y-131748200D01*
X158024500Y-131745200D01*
X158019500Y-131741200D01*
X158013500Y-131737200D01*
X158008500Y-131733200D01*
X158004500Y-131728200D01*
X157999500Y-131724200D01*
X157995500Y-131719200D01*
X157991500Y-131713200D01*
X157987500Y-131708200D01*
X157984500Y-131703200D01*
X157981500Y-131697200D01*
X157978500Y-131691200D01*
X157975500Y-131685200D01*
X157973500Y-131679200D01*
X157971500Y-131672200D01*
X157970500Y-131666200D01*
X157969500Y-131660200D01*
X157968500Y-131653200D01*
X157967500Y-131647200D01*
X157967500Y-131640200D01*
X157967500Y-131200200D01*
X157967500Y-131193200D01*
X157968500Y-131187200D01*
X157969500Y-131180200D01*
X157970500Y-131174200D01*
X157971500Y-131168200D01*
X157973500Y-131161200D01*
X157975500Y-131155200D01*
X157978500Y-131149200D01*
X157981500Y-131143200D01*
X157984500Y-131137200D01*
X157987500Y-131132200D01*
X157991500Y-131127200D01*
X157995500Y-131121200D01*
X157999500Y-131116200D01*
X158004500Y-131112200D01*
X158008500Y-131107200D01*
X158013500Y-131103200D01*
X158019500Y-131099200D01*
X158024500Y-131095200D01*
X158030500Y-131092200D01*
X158035500Y-131089200D01*
X158041500Y-131086200D01*
X158047500Y-131083200D01*
X158053500Y-131081200D01*
X158060500Y-131079200D01*
X158066500Y-131078200D01*
X158072500Y-131077200D01*
X158079500Y-131076200D01*
X158085500Y-131075200D01*
X158092500Y-131075200D01*
X158292500Y-131075200D01*
X158299500Y-131075200D01*
X158305500Y-131076200D01*
G36*
X158305500Y-131076200D02*
G01*
X158312500Y-131077200D01*
X158318500Y-131078200D01*
X158324500Y-131079200D01*
X158331500Y-131081200D01*
X158337500Y-131083200D01*
X158343500Y-131086200D01*
X158349500Y-131089200D01*
X158354500Y-131092200D01*
X158360500Y-131095200D01*
X158365500Y-131099200D01*
X158371500Y-131103200D01*
X158376500Y-131107200D01*
X158380500Y-131112200D01*
X158385500Y-131116200D01*
X158389500Y-131121200D01*
X158393500Y-131127200D01*
X158397500Y-131132200D01*
X158400500Y-131137200D01*
X158403500Y-131143200D01*
X158406500Y-131149200D01*
X158409500Y-131155200D01*
X158411500Y-131161200D01*
X158413500Y-131168200D01*
X158414500Y-131174200D01*
X158415500Y-131180200D01*
X158416500Y-131187200D01*
X158417500Y-131193200D01*
X158417500Y-131200200D01*
X158417500Y-131640200D01*
X158417500Y-131647200D01*
X158416500Y-131653200D01*
X158415500Y-131660200D01*
X158414500Y-131666200D01*
X158413500Y-131672200D01*
X158411500Y-131679200D01*
X158409500Y-131685200D01*
X158406500Y-131691200D01*
X158403500Y-131697200D01*
X158400500Y-131703200D01*
X158397500Y-131708200D01*
X158393500Y-131713200D01*
X158389500Y-131719200D01*
X158385500Y-131724200D01*
X158380500Y-131728200D01*
X158376500Y-131733200D01*
X158371500Y-131737200D01*
X158365500Y-131741200D01*
X158360500Y-131745200D01*
X158354500Y-131748200D01*
X158349500Y-131751200D01*
X158343500Y-131754200D01*
X158337500Y-131757200D01*
X158331500Y-131759200D01*
X158324500Y-131761200D01*
X158318500Y-131762200D01*
X158312500Y-131763200D01*
X158305500Y-131764200D01*
X158299500Y-131765200D01*
X158292500Y-131765200D01*
X158092500Y-131765200D01*
X158085500Y-131765200D01*
X158079500Y-131764200D01*
X158072500Y-131763200D01*
X158066500Y-131762200D01*
X158060500Y-131761200D01*
X158053500Y-131759200D01*
X158047500Y-131757200D01*
X158041500Y-131754200D01*
X158035500Y-131751200D01*
X158029500Y-131748200D01*
X158024500Y-131745200D01*
X158019500Y-131741200D01*
X158013500Y-131737200D01*
X158008500Y-131733200D01*
X158004500Y-131728200D01*
X157999500Y-131724200D01*
X157995500Y-131719200D01*
X157991500Y-131713200D01*
X157987500Y-131708200D01*
X157984500Y-131703200D01*
X157981500Y-131697200D01*
X157978500Y-131691200D01*
X157975500Y-131685200D01*
X157973500Y-131679200D01*
X157971500Y-131672200D01*
X157970500Y-131666200D01*
X157969500Y-131660200D01*
X157968500Y-131653200D01*
X157967500Y-131647200D01*
X157967500Y-131640200D01*
X157967500Y-131200200D01*
X157967500Y-131193200D01*
X157968500Y-131187200D01*
X157969500Y-131180200D01*
X157970500Y-131174200D01*
X157971500Y-131168200D01*
X157973500Y-131161200D01*
X157975500Y-131155200D01*
X157978500Y-131149200D01*
X157981500Y-131143200D01*
X157984500Y-131137200D01*
X157987500Y-131132200D01*
X157991500Y-131127200D01*
X157995500Y-131121200D01*
X157999500Y-131116200D01*
X158004500Y-131112200D01*
X158008500Y-131107200D01*
X158013500Y-131103200D01*
X158019500Y-131099200D01*
X158024500Y-131095200D01*
X158030500Y-131092200D01*
X158035500Y-131089200D01*
X158041500Y-131086200D01*
X158047500Y-131083200D01*
X158053500Y-131081200D01*
X158060500Y-131079200D01*
X158066500Y-131078200D01*
X158072500Y-131077200D01*
X158079500Y-131076200D01*
X158085500Y-131075200D01*
X158092500Y-131075200D01*
X158292500Y-131075200D01*
X158299500Y-131075200D01*
X158305500Y-131076200D01*
G37*
X159090500Y-129531200D02*
X159097500Y-129532200D01*
X159103500Y-129533200D01*
X159109500Y-129534200D01*
X159116500Y-129536200D01*
X159122500Y-129538200D01*
X159128500Y-129541200D01*
X159134500Y-129544200D01*
X159140500Y-129547200D01*
X159145500Y-129550200D01*
X159150500Y-129554200D01*
X159156500Y-129558200D01*
X159161500Y-129562200D01*
X159165500Y-129567200D01*
X159170500Y-129571200D01*
X159174500Y-129576200D01*
X159178500Y-129582200D01*
X159182500Y-129587200D01*
X159185500Y-129593200D01*
X159188500Y-129598200D01*
X159191500Y-129604200D01*
X159194500Y-129610200D01*
X159196500Y-129616200D01*
X159198500Y-129623200D01*
X159199500Y-129629200D01*
X159200500Y-129635200D01*
X159201500Y-129642200D01*
X159202500Y-129648200D01*
X159202500Y-129655200D01*
X159202500Y-129855200D01*
X159202500Y-129862200D01*
X159201500Y-129868200D01*
X159200500Y-129875200D01*
X159199500Y-129881200D01*
X159198500Y-129887200D01*
X159196500Y-129894200D01*
X159194500Y-129900200D01*
X159191500Y-129906200D01*
X159188500Y-129912200D01*
X159185500Y-129917200D01*
X159182500Y-129923200D01*
X159178500Y-129928200D01*
X159174500Y-129934200D01*
X159170500Y-129939200D01*
X159165500Y-129943200D01*
X159161500Y-129948200D01*
X159156500Y-129952200D01*
X159150500Y-129956200D01*
X159145500Y-129960200D01*
X159140500Y-129963200D01*
X159134500Y-129966200D01*
X159128500Y-129969200D01*
X159122500Y-129972200D01*
X159116500Y-129974200D01*
X159109500Y-129976200D01*
X159103500Y-129977200D01*
X159097500Y-129978200D01*
X159090500Y-129979200D01*
X159084500Y-129980200D01*
X159077500Y-129980200D01*
X158637500Y-129980200D01*
X158630500Y-129980200D01*
X158624500Y-129979200D01*
X158617500Y-129978200D01*
X158611500Y-129977200D01*
X158605500Y-129976200D01*
X158598500Y-129974200D01*
X158592500Y-129972200D01*
X158586500Y-129969200D01*
X158580500Y-129966200D01*
X158574500Y-129963200D01*
X158569500Y-129960200D01*
X158564500Y-129956200D01*
X158558500Y-129952200D01*
X158553500Y-129948200D01*
X158549500Y-129943200D01*
X158544500Y-129939200D01*
X158540500Y-129934200D01*
X158536500Y-129928200D01*
X158532500Y-129923200D01*
X158529500Y-129917200D01*
X158526500Y-129912200D01*
X158523500Y-129906200D01*
X158520500Y-129900200D01*
X158518500Y-129894200D01*
X158516500Y-129887200D01*
X158515500Y-129881200D01*
X158514500Y-129875200D01*
X158513500Y-129868200D01*
X158512500Y-129862200D01*
X158512500Y-129855200D01*
X158512500Y-129655200D01*
X158512500Y-129648200D01*
X158513500Y-129642200D01*
X158514500Y-129635200D01*
X158515500Y-129629200D01*
X158516500Y-129623200D01*
X158518500Y-129616200D01*
X158520500Y-129610200D01*
X158523500Y-129604200D01*
X158526500Y-129598200D01*
X158529500Y-129593200D01*
X158532500Y-129587200D01*
X158536500Y-129582200D01*
X158540500Y-129576200D01*
X158544500Y-129571200D01*
X158549500Y-129567200D01*
X158553500Y-129562200D01*
X158558500Y-129558200D01*
X158564500Y-129554200D01*
X158569500Y-129550200D01*
X158574500Y-129547200D01*
X158580500Y-129544200D01*
X158586500Y-129541200D01*
X158592500Y-129538200D01*
X158598500Y-129536200D01*
X158605500Y-129534200D01*
X158611500Y-129533200D01*
X158617500Y-129532200D01*
X158624500Y-129531200D01*
X158630500Y-129530200D01*
X158637500Y-129530200D01*
X159077500Y-129530200D01*
X159084500Y-129530200D01*
X159090500Y-129531200D01*
G36*
X159090500Y-129531200D02*
G01*
X159097500Y-129532200D01*
X159103500Y-129533200D01*
X159109500Y-129534200D01*
X159116500Y-129536200D01*
X159122500Y-129538200D01*
X159128500Y-129541200D01*
X159134500Y-129544200D01*
X159140500Y-129547200D01*
X159145500Y-129550200D01*
X159150500Y-129554200D01*
X159156500Y-129558200D01*
X159161500Y-129562200D01*
X159165500Y-129567200D01*
X159170500Y-129571200D01*
X159174500Y-129576200D01*
X159178500Y-129582200D01*
X159182500Y-129587200D01*
X159185500Y-129593200D01*
X159188500Y-129598200D01*
X159191500Y-129604200D01*
X159194500Y-129610200D01*
X159196500Y-129616200D01*
X159198500Y-129623200D01*
X159199500Y-129629200D01*
X159200500Y-129635200D01*
X159201500Y-129642200D01*
X159202500Y-129648200D01*
X159202500Y-129655200D01*
X159202500Y-129855200D01*
X159202500Y-129862200D01*
X159201500Y-129868200D01*
X159200500Y-129875200D01*
X159199500Y-129881200D01*
X159198500Y-129887200D01*
X159196500Y-129894200D01*
X159194500Y-129900200D01*
X159191500Y-129906200D01*
X159188500Y-129912200D01*
X159185500Y-129917200D01*
X159182500Y-129923200D01*
X159178500Y-129928200D01*
X159174500Y-129934200D01*
X159170500Y-129939200D01*
X159165500Y-129943200D01*
X159161500Y-129948200D01*
X159156500Y-129952200D01*
X159150500Y-129956200D01*
X159145500Y-129960200D01*
X159140500Y-129963200D01*
X159134500Y-129966200D01*
X159128500Y-129969200D01*
X159122500Y-129972200D01*
X159116500Y-129974200D01*
X159109500Y-129976200D01*
X159103500Y-129977200D01*
X159097500Y-129978200D01*
X159090500Y-129979200D01*
X159084500Y-129980200D01*
X159077500Y-129980200D01*
X158637500Y-129980200D01*
X158630500Y-129980200D01*
X158624500Y-129979200D01*
X158617500Y-129978200D01*
X158611500Y-129977200D01*
X158605500Y-129976200D01*
X158598500Y-129974200D01*
X158592500Y-129972200D01*
X158586500Y-129969200D01*
X158580500Y-129966200D01*
X158574500Y-129963200D01*
X158569500Y-129960200D01*
X158564500Y-129956200D01*
X158558500Y-129952200D01*
X158553500Y-129948200D01*
X158549500Y-129943200D01*
X158544500Y-129939200D01*
X158540500Y-129934200D01*
X158536500Y-129928200D01*
X158532500Y-129923200D01*
X158529500Y-129917200D01*
X158526500Y-129912200D01*
X158523500Y-129906200D01*
X158520500Y-129900200D01*
X158518500Y-129894200D01*
X158516500Y-129887200D01*
X158515500Y-129881200D01*
X158514500Y-129875200D01*
X158513500Y-129868200D01*
X158512500Y-129862200D01*
X158512500Y-129855200D01*
X158512500Y-129655200D01*
X158512500Y-129648200D01*
X158513500Y-129642200D01*
X158514500Y-129635200D01*
X158515500Y-129629200D01*
X158516500Y-129623200D01*
X158518500Y-129616200D01*
X158520500Y-129610200D01*
X158523500Y-129604200D01*
X158526500Y-129598200D01*
X158529500Y-129593200D01*
X158532500Y-129587200D01*
X158536500Y-129582200D01*
X158540500Y-129576200D01*
X158544500Y-129571200D01*
X158549500Y-129567200D01*
X158553500Y-129562200D01*
X158558500Y-129558200D01*
X158564500Y-129554200D01*
X158569500Y-129550200D01*
X158574500Y-129547200D01*
X158580500Y-129544200D01*
X158586500Y-129541200D01*
X158592500Y-129538200D01*
X158598500Y-129536200D01*
X158605500Y-129534200D01*
X158611500Y-129533200D01*
X158617500Y-129532200D01*
X158624500Y-129531200D01*
X158630500Y-129530200D01*
X158637500Y-129530200D01*
X159077500Y-129530200D01*
X159084500Y-129530200D01*
X159090500Y-129531200D01*
G37*
X159090500Y-130031200D02*
X159097500Y-130032200D01*
X159103500Y-130033200D01*
X159109500Y-130034200D01*
X159116500Y-130036200D01*
X159122500Y-130038200D01*
X159128500Y-130041200D01*
X159134500Y-130044200D01*
X159140500Y-130047200D01*
X159145500Y-130050200D01*
X159150500Y-130054200D01*
X159156500Y-130058200D01*
X159161500Y-130062200D01*
X159165500Y-130067200D01*
X159170500Y-130071200D01*
X159174500Y-130076200D01*
X159178500Y-130082200D01*
X159182500Y-130087200D01*
X159185500Y-130093200D01*
X159188500Y-130098200D01*
X159191500Y-130104200D01*
X159194500Y-130110200D01*
X159196500Y-130116200D01*
X159198500Y-130123200D01*
X159199500Y-130129200D01*
X159200500Y-130135200D01*
X159201500Y-130142200D01*
X159202500Y-130148200D01*
X159202500Y-130155200D01*
X159202500Y-130355200D01*
X159202500Y-130362200D01*
X159201500Y-130368200D01*
X159200500Y-130375200D01*
X159199500Y-130381200D01*
X159198500Y-130387200D01*
X159196500Y-130394200D01*
X159194500Y-130400200D01*
X159191500Y-130406200D01*
X159188500Y-130412200D01*
X159185500Y-130417200D01*
X159182500Y-130423200D01*
X159178500Y-130428200D01*
X159174500Y-130434200D01*
X159170500Y-130439200D01*
X159165500Y-130443200D01*
X159161500Y-130448200D01*
X159156500Y-130452200D01*
X159150500Y-130456200D01*
X159145500Y-130460200D01*
X159140500Y-130463200D01*
X159134500Y-130466200D01*
X159128500Y-130469200D01*
X159122500Y-130472200D01*
X159116500Y-130474200D01*
X159109500Y-130476200D01*
X159103500Y-130477200D01*
X159097500Y-130478200D01*
X159090500Y-130479200D01*
X159084500Y-130480200D01*
X159077500Y-130480200D01*
X158637500Y-130480200D01*
X158630500Y-130480200D01*
X158624500Y-130479200D01*
X158617500Y-130478200D01*
X158611500Y-130477200D01*
X158605500Y-130476200D01*
X158598500Y-130474200D01*
X158592500Y-130472200D01*
X158586500Y-130469200D01*
X158580500Y-130466200D01*
X158574500Y-130463200D01*
X158569500Y-130460200D01*
X158564500Y-130456200D01*
X158558500Y-130452200D01*
X158553500Y-130448200D01*
X158549500Y-130443200D01*
X158544500Y-130439200D01*
X158540500Y-130434200D01*
X158536500Y-130428200D01*
X158532500Y-130423200D01*
X158529500Y-130417200D01*
X158526500Y-130412200D01*
X158523500Y-130406200D01*
X158520500Y-130400200D01*
X158518500Y-130394200D01*
X158516500Y-130387200D01*
X158515500Y-130381200D01*
X158514500Y-130375200D01*
X158513500Y-130368200D01*
X158512500Y-130362200D01*
X158512500Y-130355200D01*
X158512500Y-130155200D01*
X158512500Y-130148200D01*
X158513500Y-130142200D01*
X158514500Y-130135200D01*
X158515500Y-130129200D01*
X158516500Y-130123200D01*
X158518500Y-130116200D01*
X158520500Y-130110200D01*
X158523500Y-130104200D01*
X158526500Y-130098200D01*
X158529500Y-130093200D01*
X158532500Y-130087200D01*
X158536500Y-130082200D01*
X158540500Y-130076200D01*
X158544500Y-130071200D01*
X158549500Y-130067200D01*
X158553500Y-130062200D01*
X158558500Y-130058200D01*
X158564500Y-130054200D01*
X158569500Y-130050200D01*
X158574500Y-130047200D01*
X158580500Y-130044200D01*
X158586500Y-130041200D01*
X158592500Y-130038200D01*
X158598500Y-130036200D01*
X158605500Y-130034200D01*
X158611500Y-130033200D01*
X158617500Y-130032200D01*
X158624500Y-130031200D01*
X158630500Y-130030200D01*
X158637500Y-130030200D01*
X159077500Y-130030200D01*
X159084500Y-130030200D01*
X159090500Y-130031200D01*
G36*
X159090500Y-130031200D02*
G01*
X159097500Y-130032200D01*
X159103500Y-130033200D01*
X159109500Y-130034200D01*
X159116500Y-130036200D01*
X159122500Y-130038200D01*
X159128500Y-130041200D01*
X159134500Y-130044200D01*
X159140500Y-130047200D01*
X159145500Y-130050200D01*
X159150500Y-130054200D01*
X159156500Y-130058200D01*
X159161500Y-130062200D01*
X159165500Y-130067200D01*
X159170500Y-130071200D01*
X159174500Y-130076200D01*
X159178500Y-130082200D01*
X159182500Y-130087200D01*
X159185500Y-130093200D01*
X159188500Y-130098200D01*
X159191500Y-130104200D01*
X159194500Y-130110200D01*
X159196500Y-130116200D01*
X159198500Y-130123200D01*
X159199500Y-130129200D01*
X159200500Y-130135200D01*
X159201500Y-130142200D01*
X159202500Y-130148200D01*
X159202500Y-130155200D01*
X159202500Y-130355200D01*
X159202500Y-130362200D01*
X159201500Y-130368200D01*
X159200500Y-130375200D01*
X159199500Y-130381200D01*
X159198500Y-130387200D01*
X159196500Y-130394200D01*
X159194500Y-130400200D01*
X159191500Y-130406200D01*
X159188500Y-130412200D01*
X159185500Y-130417200D01*
X159182500Y-130423200D01*
X159178500Y-130428200D01*
X159174500Y-130434200D01*
X159170500Y-130439200D01*
X159165500Y-130443200D01*
X159161500Y-130448200D01*
X159156500Y-130452200D01*
X159150500Y-130456200D01*
X159145500Y-130460200D01*
X159140500Y-130463200D01*
X159134500Y-130466200D01*
X159128500Y-130469200D01*
X159122500Y-130472200D01*
X159116500Y-130474200D01*
X159109500Y-130476200D01*
X159103500Y-130477200D01*
X159097500Y-130478200D01*
X159090500Y-130479200D01*
X159084500Y-130480200D01*
X159077500Y-130480200D01*
X158637500Y-130480200D01*
X158630500Y-130480200D01*
X158624500Y-130479200D01*
X158617500Y-130478200D01*
X158611500Y-130477200D01*
X158605500Y-130476200D01*
X158598500Y-130474200D01*
X158592500Y-130472200D01*
X158586500Y-130469200D01*
X158580500Y-130466200D01*
X158574500Y-130463200D01*
X158569500Y-130460200D01*
X158564500Y-130456200D01*
X158558500Y-130452200D01*
X158553500Y-130448200D01*
X158549500Y-130443200D01*
X158544500Y-130439200D01*
X158540500Y-130434200D01*
X158536500Y-130428200D01*
X158532500Y-130423200D01*
X158529500Y-130417200D01*
X158526500Y-130412200D01*
X158523500Y-130406200D01*
X158520500Y-130400200D01*
X158518500Y-130394200D01*
X158516500Y-130387200D01*
X158515500Y-130381200D01*
X158514500Y-130375200D01*
X158513500Y-130368200D01*
X158512500Y-130362200D01*
X158512500Y-130355200D01*
X158512500Y-130155200D01*
X158512500Y-130148200D01*
X158513500Y-130142200D01*
X158514500Y-130135200D01*
X158515500Y-130129200D01*
X158516500Y-130123200D01*
X158518500Y-130116200D01*
X158520500Y-130110200D01*
X158523500Y-130104200D01*
X158526500Y-130098200D01*
X158529500Y-130093200D01*
X158532500Y-130087200D01*
X158536500Y-130082200D01*
X158540500Y-130076200D01*
X158544500Y-130071200D01*
X158549500Y-130067200D01*
X158553500Y-130062200D01*
X158558500Y-130058200D01*
X158564500Y-130054200D01*
X158569500Y-130050200D01*
X158574500Y-130047200D01*
X158580500Y-130044200D01*
X158586500Y-130041200D01*
X158592500Y-130038200D01*
X158598500Y-130036200D01*
X158605500Y-130034200D01*
X158611500Y-130033200D01*
X158617500Y-130032200D01*
X158624500Y-130031200D01*
X158630500Y-130030200D01*
X158637500Y-130030200D01*
X159077500Y-130030200D01*
X159084500Y-130030200D01*
X159090500Y-130031200D01*
G37*
X159090500Y-130531200D02*
X159097500Y-130532200D01*
X159103500Y-130533200D01*
X159109500Y-130534200D01*
X159116500Y-130536200D01*
X159122500Y-130538200D01*
X159128500Y-130541200D01*
X159134500Y-130544200D01*
X159140500Y-130547200D01*
X159145500Y-130550200D01*
X159150500Y-130554200D01*
X159156500Y-130558200D01*
X159161500Y-130562200D01*
X159165500Y-130567200D01*
X159170500Y-130571200D01*
X159174500Y-130576200D01*
X159178500Y-130582200D01*
X159182500Y-130587200D01*
X159185500Y-130593200D01*
X159188500Y-130598200D01*
X159191500Y-130604200D01*
X159194500Y-130610200D01*
X159196500Y-130616200D01*
X159198500Y-130623200D01*
X159199500Y-130629200D01*
X159200500Y-130635200D01*
X159201500Y-130642200D01*
X159202500Y-130648200D01*
X159202500Y-130655200D01*
X159202500Y-130855200D01*
X159202500Y-130862200D01*
X159201500Y-130868200D01*
X159200500Y-130875200D01*
X159199500Y-130881200D01*
X159198500Y-130887200D01*
X159196500Y-130894200D01*
X159194500Y-130900200D01*
X159191500Y-130906200D01*
X159188500Y-130912200D01*
X159185500Y-130917200D01*
X159182500Y-130923200D01*
X159178500Y-130928200D01*
X159174500Y-130934200D01*
X159170500Y-130939200D01*
X159165500Y-130943200D01*
X159161500Y-130948200D01*
X159156500Y-130952200D01*
X159150500Y-130956200D01*
X159145500Y-130960200D01*
X159140500Y-130963200D01*
X159134500Y-130966200D01*
X159128500Y-130969200D01*
X159122500Y-130972200D01*
X159116500Y-130974200D01*
X159109500Y-130976200D01*
X159103500Y-130977200D01*
X159097500Y-130978200D01*
X159090500Y-130979200D01*
X159084500Y-130980200D01*
X159077500Y-130980200D01*
X158637500Y-130980200D01*
X158630500Y-130980200D01*
X158624500Y-130979200D01*
X158617500Y-130978200D01*
X158611500Y-130977200D01*
X158605500Y-130976200D01*
X158598500Y-130974200D01*
X158592500Y-130972200D01*
X158586500Y-130969200D01*
X158580500Y-130966200D01*
X158574500Y-130963200D01*
X158569500Y-130960200D01*
X158564500Y-130956200D01*
X158558500Y-130952200D01*
X158553500Y-130948200D01*
X158549500Y-130943200D01*
X158544500Y-130939200D01*
X158540500Y-130934200D01*
X158536500Y-130928200D01*
X158532500Y-130923200D01*
X158529500Y-130917200D01*
X158526500Y-130912200D01*
X158523500Y-130906200D01*
X158520500Y-130900200D01*
X158518500Y-130894200D01*
X158516500Y-130887200D01*
X158515500Y-130881200D01*
X158514500Y-130875200D01*
X158513500Y-130868200D01*
X158512500Y-130862200D01*
X158512500Y-130855200D01*
X158512500Y-130655200D01*
X158512500Y-130648200D01*
X158513500Y-130642200D01*
X158514500Y-130635200D01*
X158515500Y-130629200D01*
X158516500Y-130623200D01*
X158518500Y-130616200D01*
X158520500Y-130610200D01*
X158523500Y-130604200D01*
X158526500Y-130598200D01*
X158529500Y-130593200D01*
X158532500Y-130587200D01*
X158536500Y-130582200D01*
X158540500Y-130576200D01*
X158544500Y-130571200D01*
X158549500Y-130567200D01*
X158553500Y-130562200D01*
X158558500Y-130558200D01*
X158564500Y-130554200D01*
X158569500Y-130550200D01*
X158574500Y-130547200D01*
X158580500Y-130544200D01*
X158586500Y-130541200D01*
X158592500Y-130538200D01*
X158598500Y-130536200D01*
X158605500Y-130534200D01*
X158611500Y-130533200D01*
X158617500Y-130532200D01*
X158624500Y-130531200D01*
X158630500Y-130530200D01*
X158637500Y-130530200D01*
X159077500Y-130530200D01*
X159084500Y-130530200D01*
X159090500Y-130531200D01*
G36*
X159090500Y-130531200D02*
G01*
X159097500Y-130532200D01*
X159103500Y-130533200D01*
X159109500Y-130534200D01*
X159116500Y-130536200D01*
X159122500Y-130538200D01*
X159128500Y-130541200D01*
X159134500Y-130544200D01*
X159140500Y-130547200D01*
X159145500Y-130550200D01*
X159150500Y-130554200D01*
X159156500Y-130558200D01*
X159161500Y-130562200D01*
X159165500Y-130567200D01*
X159170500Y-130571200D01*
X159174500Y-130576200D01*
X159178500Y-130582200D01*
X159182500Y-130587200D01*
X159185500Y-130593200D01*
X159188500Y-130598200D01*
X159191500Y-130604200D01*
X159194500Y-130610200D01*
X159196500Y-130616200D01*
X159198500Y-130623200D01*
X159199500Y-130629200D01*
X159200500Y-130635200D01*
X159201500Y-130642200D01*
X159202500Y-130648200D01*
X159202500Y-130655200D01*
X159202500Y-130855200D01*
X159202500Y-130862200D01*
X159201500Y-130868200D01*
X159200500Y-130875200D01*
X159199500Y-130881200D01*
X159198500Y-130887200D01*
X159196500Y-130894200D01*
X159194500Y-130900200D01*
X159191500Y-130906200D01*
X159188500Y-130912200D01*
X159185500Y-130917200D01*
X159182500Y-130923200D01*
X159178500Y-130928200D01*
X159174500Y-130934200D01*
X159170500Y-130939200D01*
X159165500Y-130943200D01*
X159161500Y-130948200D01*
X159156500Y-130952200D01*
X159150500Y-130956200D01*
X159145500Y-130960200D01*
X159140500Y-130963200D01*
X159134500Y-130966200D01*
X159128500Y-130969200D01*
X159122500Y-130972200D01*
X159116500Y-130974200D01*
X159109500Y-130976200D01*
X159103500Y-130977200D01*
X159097500Y-130978200D01*
X159090500Y-130979200D01*
X159084500Y-130980200D01*
X159077500Y-130980200D01*
X158637500Y-130980200D01*
X158630500Y-130980200D01*
X158624500Y-130979200D01*
X158617500Y-130978200D01*
X158611500Y-130977200D01*
X158605500Y-130976200D01*
X158598500Y-130974200D01*
X158592500Y-130972200D01*
X158586500Y-130969200D01*
X158580500Y-130966200D01*
X158574500Y-130963200D01*
X158569500Y-130960200D01*
X158564500Y-130956200D01*
X158558500Y-130952200D01*
X158553500Y-130948200D01*
X158549500Y-130943200D01*
X158544500Y-130939200D01*
X158540500Y-130934200D01*
X158536500Y-130928200D01*
X158532500Y-130923200D01*
X158529500Y-130917200D01*
X158526500Y-130912200D01*
X158523500Y-130906200D01*
X158520500Y-130900200D01*
X158518500Y-130894200D01*
X158516500Y-130887200D01*
X158515500Y-130881200D01*
X158514500Y-130875200D01*
X158513500Y-130868200D01*
X158512500Y-130862200D01*
X158512500Y-130855200D01*
X158512500Y-130655200D01*
X158512500Y-130648200D01*
X158513500Y-130642200D01*
X158514500Y-130635200D01*
X158515500Y-130629200D01*
X158516500Y-130623200D01*
X158518500Y-130616200D01*
X158520500Y-130610200D01*
X158523500Y-130604200D01*
X158526500Y-130598200D01*
X158529500Y-130593200D01*
X158532500Y-130587200D01*
X158536500Y-130582200D01*
X158540500Y-130576200D01*
X158544500Y-130571200D01*
X158549500Y-130567200D01*
X158553500Y-130562200D01*
X158558500Y-130558200D01*
X158564500Y-130554200D01*
X158569500Y-130550200D01*
X158574500Y-130547200D01*
X158580500Y-130544200D01*
X158586500Y-130541200D01*
X158592500Y-130538200D01*
X158598500Y-130536200D01*
X158605500Y-130534200D01*
X158611500Y-130533200D01*
X158617500Y-130532200D01*
X158624500Y-130531200D01*
X158630500Y-130530200D01*
X158637500Y-130530200D01*
X159077500Y-130530200D01*
X159084500Y-130530200D01*
X159090500Y-130531200D01*
G37*
X159090500Y-131031200D02*
X159097500Y-131032200D01*
X159103500Y-131033200D01*
X159109500Y-131034200D01*
X159116500Y-131036200D01*
X159122500Y-131038200D01*
X159128500Y-131041200D01*
X159134500Y-131044200D01*
X159140500Y-131047200D01*
X159145500Y-131050200D01*
X159150500Y-131054200D01*
X159156500Y-131058200D01*
X159161500Y-131062200D01*
X159165500Y-131067200D01*
X159170500Y-131071200D01*
X159174500Y-131076200D01*
X159178500Y-131082200D01*
X159182500Y-131087200D01*
X159185500Y-131093200D01*
X159188500Y-131098200D01*
X159191500Y-131104200D01*
X159194500Y-131110200D01*
X159196500Y-131116200D01*
X159198500Y-131123200D01*
X159199500Y-131129200D01*
X159200500Y-131135200D01*
X159201500Y-131142200D01*
X159202500Y-131148200D01*
X159202500Y-131155200D01*
X159202500Y-131355200D01*
X159202500Y-131362200D01*
X159201500Y-131368200D01*
X159200500Y-131375200D01*
X159199500Y-131381200D01*
X159198500Y-131387200D01*
X159196500Y-131394200D01*
X159194500Y-131400200D01*
X159191500Y-131406200D01*
X159188500Y-131412200D01*
X159185500Y-131417200D01*
X159182500Y-131423200D01*
X159178500Y-131428200D01*
X159174500Y-131434200D01*
X159170500Y-131439200D01*
X159165500Y-131443200D01*
X159161500Y-131448200D01*
X159156500Y-131452200D01*
X159150500Y-131456200D01*
X159145500Y-131460200D01*
X159140500Y-131463200D01*
X159134500Y-131466200D01*
X159128500Y-131469200D01*
X159122500Y-131472200D01*
X159116500Y-131474200D01*
X159109500Y-131476200D01*
X159103500Y-131477200D01*
X159097500Y-131478200D01*
X159090500Y-131479200D01*
X159084500Y-131480200D01*
X159077500Y-131480200D01*
X158637500Y-131480200D01*
X158630500Y-131480200D01*
X158624500Y-131479200D01*
X158617500Y-131478200D01*
X158611500Y-131477200D01*
X158605500Y-131476200D01*
X158598500Y-131474200D01*
X158592500Y-131472200D01*
X158586500Y-131469200D01*
X158580500Y-131466200D01*
X158574500Y-131463200D01*
X158569500Y-131460200D01*
X158564500Y-131456200D01*
X158558500Y-131452200D01*
X158553500Y-131448200D01*
X158549500Y-131443200D01*
X158544500Y-131439200D01*
X158540500Y-131434200D01*
X158536500Y-131428200D01*
X158532500Y-131423200D01*
X158529500Y-131417200D01*
X158526500Y-131412200D01*
X158523500Y-131406200D01*
X158520500Y-131400200D01*
X158518500Y-131394200D01*
X158516500Y-131387200D01*
X158515500Y-131381200D01*
X158514500Y-131375200D01*
X158513500Y-131368200D01*
X158512500Y-131362200D01*
X158512500Y-131355200D01*
X158512500Y-131155200D01*
X158512500Y-131148200D01*
X158513500Y-131142200D01*
X158514500Y-131135200D01*
X158515500Y-131129200D01*
X158516500Y-131123200D01*
X158518500Y-131116200D01*
X158520500Y-131110200D01*
X158523500Y-131104200D01*
X158526500Y-131098200D01*
X158529500Y-131093200D01*
X158532500Y-131087200D01*
X158536500Y-131082200D01*
X158540500Y-131076200D01*
X158544500Y-131071200D01*
X158549500Y-131067200D01*
X158553500Y-131062200D01*
X158558500Y-131058200D01*
X158564500Y-131054200D01*
X158569500Y-131050200D01*
X158574500Y-131047200D01*
X158580500Y-131044200D01*
X158586500Y-131041200D01*
X158592500Y-131038200D01*
X158598500Y-131036200D01*
X158605500Y-131034200D01*
X158611500Y-131033200D01*
X158617500Y-131032200D01*
X158624500Y-131031200D01*
X158630500Y-131030200D01*
X158637500Y-131030200D01*
X159077500Y-131030200D01*
X159084500Y-131030200D01*
X159090500Y-131031200D01*
G36*
X159090500Y-131031200D02*
G01*
X159097500Y-131032200D01*
X159103500Y-131033200D01*
X159109500Y-131034200D01*
X159116500Y-131036200D01*
X159122500Y-131038200D01*
X159128500Y-131041200D01*
X159134500Y-131044200D01*
X159140500Y-131047200D01*
X159145500Y-131050200D01*
X159150500Y-131054200D01*
X159156500Y-131058200D01*
X159161500Y-131062200D01*
X159165500Y-131067200D01*
X159170500Y-131071200D01*
X159174500Y-131076200D01*
X159178500Y-131082200D01*
X159182500Y-131087200D01*
X159185500Y-131093200D01*
X159188500Y-131098200D01*
X159191500Y-131104200D01*
X159194500Y-131110200D01*
X159196500Y-131116200D01*
X159198500Y-131123200D01*
X159199500Y-131129200D01*
X159200500Y-131135200D01*
X159201500Y-131142200D01*
X159202500Y-131148200D01*
X159202500Y-131155200D01*
X159202500Y-131355200D01*
X159202500Y-131362200D01*
X159201500Y-131368200D01*
X159200500Y-131375200D01*
X159199500Y-131381200D01*
X159198500Y-131387200D01*
X159196500Y-131394200D01*
X159194500Y-131400200D01*
X159191500Y-131406200D01*
X159188500Y-131412200D01*
X159185500Y-131417200D01*
X159182500Y-131423200D01*
X159178500Y-131428200D01*
X159174500Y-131434200D01*
X159170500Y-131439200D01*
X159165500Y-131443200D01*
X159161500Y-131448200D01*
X159156500Y-131452200D01*
X159150500Y-131456200D01*
X159145500Y-131460200D01*
X159140500Y-131463200D01*
X159134500Y-131466200D01*
X159128500Y-131469200D01*
X159122500Y-131472200D01*
X159116500Y-131474200D01*
X159109500Y-131476200D01*
X159103500Y-131477200D01*
X159097500Y-131478200D01*
X159090500Y-131479200D01*
X159084500Y-131480200D01*
X159077500Y-131480200D01*
X158637500Y-131480200D01*
X158630500Y-131480200D01*
X158624500Y-131479200D01*
X158617500Y-131478200D01*
X158611500Y-131477200D01*
X158605500Y-131476200D01*
X158598500Y-131474200D01*
X158592500Y-131472200D01*
X158586500Y-131469200D01*
X158580500Y-131466200D01*
X158574500Y-131463200D01*
X158569500Y-131460200D01*
X158564500Y-131456200D01*
X158558500Y-131452200D01*
X158553500Y-131448200D01*
X158549500Y-131443200D01*
X158544500Y-131439200D01*
X158540500Y-131434200D01*
X158536500Y-131428200D01*
X158532500Y-131423200D01*
X158529500Y-131417200D01*
X158526500Y-131412200D01*
X158523500Y-131406200D01*
X158520500Y-131400200D01*
X158518500Y-131394200D01*
X158516500Y-131387200D01*
X158515500Y-131381200D01*
X158514500Y-131375200D01*
X158513500Y-131368200D01*
X158512500Y-131362200D01*
X158512500Y-131355200D01*
X158512500Y-131155200D01*
X158512500Y-131148200D01*
X158513500Y-131142200D01*
X158514500Y-131135200D01*
X158515500Y-131129200D01*
X158516500Y-131123200D01*
X158518500Y-131116200D01*
X158520500Y-131110200D01*
X158523500Y-131104200D01*
X158526500Y-131098200D01*
X158529500Y-131093200D01*
X158532500Y-131087200D01*
X158536500Y-131082200D01*
X158540500Y-131076200D01*
X158544500Y-131071200D01*
X158549500Y-131067200D01*
X158553500Y-131062200D01*
X158558500Y-131058200D01*
X158564500Y-131054200D01*
X158569500Y-131050200D01*
X158574500Y-131047200D01*
X158580500Y-131044200D01*
X158586500Y-131041200D01*
X158592500Y-131038200D01*
X158598500Y-131036200D01*
X158605500Y-131034200D01*
X158611500Y-131033200D01*
X158617500Y-131032200D01*
X158624500Y-131031200D01*
X158630500Y-131030200D01*
X158637500Y-131030200D01*
X159077500Y-131030200D01*
X159084500Y-131030200D01*
X159090500Y-131031200D01*
G37*
%TD*%
D11*
%TO.C,AVTX_J2*%
X148620000Y-109020000D03*
X148620000Y-111520000D03*
X148620000Y-114020000D03*
X148620000Y-116520000D03*
X148620000Y-119020000D03*
X148620000Y-121520000D03*
%TD*%
D12*
%TO.C,OTHER_J2*%
X148620000Y-131520000D03*
X148620000Y-129020000D03*
X148620000Y-126520000D03*
X148620000Y-124020000D03*
%TD*%
D13*
%TO.C,GPS_J2*%
X172000000Y-134876800D03*
X169500000Y-134876800D03*
X167000000Y-134876800D03*
X164500000Y-134876800D03*
X162000000Y-134876800D03*
X159500000Y-134876800D03*
%TD*%
%TO.C,VTX_J2*%
X172000000Y-137380000D03*
X169500000Y-137380000D03*
X167000000Y-137380000D03*
X164500000Y-137380000D03*
X162000000Y-137380000D03*
X159500000Y-137380000D03*
%TD*%
D12*
%TO.C,RX_J2*%
X182880000Y-130270000D03*
X182880000Y-127770000D03*
X182880000Y-125270000D03*
X182880000Y-122770000D03*
%TD*%
D14*
%TO.C,DEBUG_J2*%
X164508800Y-108102400D03*
X167008800Y-108102400D03*
X172008800Y-108102400D03*
X174508800Y-108102400D03*
%TD*%
%TO.C,CAM_J2*%
X159500000Y-105620000D03*
X162000000Y-105620000D03*
X164500000Y-105620000D03*
%TD*%
D13*
%TO.C,UART2_J2*%
X167000000Y-105620000D03*
X174500000Y-105620000D03*
X172000000Y-105620000D03*
X169500000Y-105620000D03*
%TD*%
D15*
%TO.C,MCU_R1*%
X159844100Y-108407200D03*
X161669100Y-108407200D03*
%TD*%
D16*
%TO.C,FLASH_C1*%
X174041900Y-134366000D03*
X175766900Y-134366000D03*
%TD*%
D15*
%TO.C,USB_R3*%
X171030000Y-112315400D03*
X172855000Y-112315400D03*
%TD*%
D17*
%TO.C,H1*%
X150500000Y-105000000D03*
D18*
X150500000Y-105000000D03*
%TD*%
D19*
%TO.C,U2*%
X175130000Y-115800000D03*
X175130000Y-114850000D03*
X175130000Y-113900000D03*
X172855000Y-113900000D03*
X172855000Y-114850000D03*
X172855000Y-115800000D03*
%TD*%
D20*
%TO.C,5V_D1*%
X180214200Y-125045200D03*
X178464200Y-125045200D03*
%TD*%
%TO.C,3V3_D1*%
X180214200Y-122125200D03*
X178464200Y-122125200D03*
%TD*%
D16*
%TO.C,USB_C1*%
X171080000Y-118820000D03*
X172805000Y-118820000D03*
%TD*%
D21*
%TO.C,U_3V1*%
X173274200Y-126412800D03*
X173924200Y-126412800D03*
X174574200Y-126412800D03*
X174574200Y-124637800D03*
X173924200Y-124637800D03*
X173274200Y-124637800D03*
D22*
X173924200Y-125525300D03*
%TD*%
D23*
%TO.C,MCU_C3*%
X153820000Y-110560000D03*
X153820000Y-108835000D03*
%TD*%
D20*
%TO.C,MCU_D1*%
X180214200Y-130885200D03*
X178464200Y-130885200D03*
%TD*%
%TO.C,MCU_D3*%
X180214200Y-127965200D03*
X178464200Y-127965200D03*
%TD*%
%TO.C,9V_D1*%
X180214200Y-126505200D03*
X178464200Y-126505200D03*
%TD*%
D24*
%TO.C,USB_R1*%
X175130000Y-119197900D03*
X175130000Y-117372900D03*
%TD*%
D17*
%TO.C,H3*%
X150500000Y-135500000D03*
D18*
X150500000Y-135500000D03*
%TD*%
D16*
%TO.C,MCU_C14*%
X171080000Y-110850000D03*
X172805000Y-110850000D03*
%TD*%
D23*
%TO.C,MCU_C6*%
X151173630Y-115098630D03*
X151173630Y-113373630D03*
%TD*%
D25*
%TO.C,U_FLASH1*%
X176750800Y-132283200D03*
X176750800Y-131013200D03*
X176750800Y-129743200D03*
X176750800Y-128473200D03*
X168960800Y-128473200D03*
X168960800Y-129743200D03*
X168960800Y-131013200D03*
X168960800Y-132283200D03*
D26*
X172855800Y-130378200D03*
%TD*%
D27*
%TO.C,J1*%
X179472000Y-118108800D03*
X179472000Y-111608800D03*
D28*
X182372000Y-119753800D03*
X182372000Y-109963800D03*
X179372000Y-119753800D03*
X179372000Y-109963800D03*
%TD*%
D29*
%TO.C,IMU_C1*%
X163310955Y-130222902D03*
X163310955Y-131947902D03*
%TD*%
%TO.C,MCU_C11*%
X151240000Y-127780000D03*
X151240000Y-129505000D03*
%TD*%
D17*
%TO.C,*%
X181000000Y-135500000D03*
%TD*%
D30*
%TO.C,Y_MCU1*%
X151240000Y-117160000D03*
X151240000Y-118360000D03*
X151240000Y-119560000D03*
%TD*%
D31*
%TO.C,MCU_C13*%
X163650600Y-128540000D03*
X161925600Y-128540000D03*
%TD*%
D20*
%TO.C,USB_D1*%
X180214200Y-123585200D03*
X178464200Y-123585200D03*
%TD*%
D16*
%TO.C,MCU_C5*%
X165228100Y-128540000D03*
X166953100Y-128540000D03*
%TD*%
D23*
%TO.C,MCU_C1*%
X151173630Y-111786130D03*
X151173630Y-110061130D03*
%TD*%
D17*
%TO.C,H2*%
X181000000Y-105000000D03*
D18*
X181000000Y-105000000D03*
%TD*%
D29*
%TO.C,IMU_C3*%
X161837755Y-130222902D03*
X161837755Y-131947902D03*
%TD*%
D23*
%TO.C,3V3_C2*%
X171450000Y-125962500D03*
X171450000Y-124237500D03*
%TD*%
D24*
%TO.C,USB_R2*%
X175130000Y-112307900D03*
X175130000Y-110482900D03*
%TD*%
D17*
%TO.C,H4*%
X181000000Y-135500000D03*
D18*
X181000000Y-135500000D03*
%TD*%
D29*
%TO.C,IMU_C2*%
X164784155Y-130222902D03*
X164784155Y-131947902D03*
%TD*%
D23*
%TO.C,MCU_C9*%
X151240000Y-122912500D03*
X151240000Y-121187500D03*
%TD*%
D32*
%TO.C,SW2*%
X157480000Y-105150000D03*
X157480000Y-109300000D03*
X155330000Y-105150000D03*
X155330000Y-109300000D03*
%TD*%
D15*
%TO.C,FLASH_R1*%
X173991900Y-135824800D03*
X175816900Y-135824800D03*
%TD*%
D23*
%TO.C,3v3_C1*%
X176199800Y-126008300D03*
X176199800Y-124283300D03*
%TD*%
D33*
%TO.C,FB1*%
X153800000Y-126887500D03*
X153800000Y-128712500D03*
%TD*%
D15*
%TO.C,USB_R4*%
X171030000Y-117365400D03*
X172855000Y-117365400D03*
%TD*%
%TO.C,FLASH_R2*%
X173991900Y-137287000D03*
X175816900Y-137287000D03*
%TD*%
D20*
%TO.C,MCU_D2*%
X180214200Y-129425200D03*
X178464200Y-129425200D03*
%TD*%
D23*
%TO.C,MCU_C4*%
X169494200Y-110209500D03*
X169494200Y-108484500D03*
%TD*%
D34*
%TO.C,D0*%
X174855000Y-121081800D03*
X172955000Y-121081800D03*
X173905000Y-122956800D03*
%TD*%
D35*
%TO.C,U_STM32*%
X153660000Y-112600000D03*
X153660000Y-113100000D03*
X153660000Y-113600000D03*
X153660000Y-114100000D03*
X153660000Y-114600000D03*
X153660000Y-115100000D03*
X153660000Y-115600000D03*
X153660000Y-116100000D03*
X153660000Y-116600000D03*
X153660000Y-117100000D03*
X153660000Y-117600000D03*
X153660000Y-118100000D03*
X153660000Y-118600000D03*
X153660000Y-119100000D03*
X153660000Y-119600000D03*
X153660000Y-120100000D03*
X153660000Y-120600000D03*
X153660000Y-121100000D03*
X153660000Y-121600000D03*
X153660000Y-122100000D03*
X153660000Y-122600000D03*
X153660000Y-123100000D03*
X153660000Y-123600000D03*
X153660000Y-124100000D03*
X153660000Y-124600000D03*
D36*
X155335000Y-126275000D03*
X155835000Y-126275000D03*
X156335000Y-126275000D03*
X156835000Y-126275000D03*
X157335000Y-126275000D03*
X157835000Y-126275000D03*
X158335000Y-126275000D03*
X158835000Y-126275000D03*
X159335000Y-126275000D03*
X159835000Y-126275000D03*
X160335000Y-126275000D03*
X160835000Y-126275000D03*
X161335000Y-126275000D03*
X161835000Y-126275000D03*
X162335000Y-126275000D03*
X162835000Y-126275000D03*
X163335000Y-126275000D03*
X163835000Y-126275000D03*
X164335000Y-126275000D03*
X164835000Y-126275000D03*
X165335000Y-126275000D03*
X165835000Y-126275000D03*
X166335000Y-126275000D03*
X166835000Y-126275000D03*
X167335000Y-126275000D03*
D35*
X169010000Y-124600000D03*
X169010000Y-124100000D03*
X169010000Y-123600000D03*
X169010000Y-123100000D03*
X169010000Y-122600000D03*
X169010000Y-122100000D03*
X169010000Y-121600000D03*
X169010000Y-121100000D03*
X169010000Y-120600000D03*
X169010000Y-120100000D03*
X169010000Y-119600000D03*
X169010000Y-119100000D03*
X169010000Y-118600000D03*
X169010000Y-118100000D03*
X169010000Y-117600000D03*
X169010000Y-117100000D03*
X169010000Y-116600000D03*
X169010000Y-116100000D03*
X169010000Y-115600000D03*
X169010000Y-115100000D03*
X169010000Y-114600000D03*
X169010000Y-114100000D03*
X169010000Y-113600000D03*
X169010000Y-113100000D03*
X169010000Y-112600000D03*
D36*
X167335000Y-110925000D03*
X166835000Y-110925000D03*
X166335000Y-110925000D03*
X165835000Y-110925000D03*
X165335000Y-110925000D03*
X164835000Y-110925000D03*
X164335000Y-110925000D03*
X163835000Y-110925000D03*
X163335000Y-110925000D03*
X162835000Y-110925000D03*
X162335000Y-110925000D03*
X161835000Y-110925000D03*
X161335000Y-110925000D03*
X160835000Y-110925000D03*
X160335000Y-110925000D03*
X159835000Y-110925000D03*
X159335000Y-110925000D03*
X158835000Y-110925000D03*
X158335000Y-110925000D03*
X157835000Y-110925000D03*
X157335000Y-110925000D03*
X156835000Y-110925000D03*
X156335000Y-110925000D03*
X155835000Y-110925000D03*
X155335000Y-110925000D03*
%TD*%
D29*
%TO.C,MCU_C10*%
X151240000Y-124480000D03*
X151240000Y-126205000D03*
%TD*%
D14*
%TO.C,ESC_J2*%
X157000000Y-103124000D03*
X159500000Y-103124000D03*
X162000000Y-103124000D03*
X164500000Y-103124000D03*
X167000000Y-103124000D03*
X169500000Y-103124000D03*
X172000000Y-103124000D03*
X174500000Y-103124000D03*
%TD*%
M02*
