%TF.GenerationSoftware,KiCad,Pcbnew,9.0.4*%
%TF.CreationDate,2025-11-28T22:46:11-05:00*%
%TF.ProjectId,STM32H743VIT6 FC,53544d33-3248-4373-9433-564954362046,rev?*%
%TF.SameCoordinates,Original*%
%TF.FileFunction,Copper,L3,Inr*%
%TF.FilePolarity,Positive*%
%FSLAX46Y46*%
G04 Gerber Fmt 4.6, Leading zero omitted, Abs format (unit mm)*
G04 Created by KiCad (PCBNEW 9.0.4) date 2025-11-28 22:46:11*
%MOMM*%
%LPD*%
G01*
G04 APERTURE LIST*
%TA.AperFunction,ComponentPad*%
%ADD10C,4.700000*%
%TD*%
%TA.AperFunction,HeatsinkPad*%
%ADD11C,0.500000*%
%TD*%
%TA.AperFunction,ComponentPad*%
%ADD12O,1.800000X1.100000*%
%TD*%
%TA.AperFunction,ViaPad*%
%ADD13C,0.600000*%
%TD*%
%TA.AperFunction,ViaPad*%
%ADD14C,0.500000*%
%TD*%
G04 APERTURE END LIST*
D10*
%TO.N,*%
%TO.C,H1*%
X150500000Y-105000000D03*
%TD*%
D11*
%TO.N,GND*%
%TO.C,U_3V1*%
X173374200Y-125525300D03*
X174474200Y-125525300D03*
%TD*%
D10*
%TO.N,*%
%TO.C,H3*%
X150500000Y-135500000D03*
%TD*%
D12*
%TO.N,GND*%
%TO.C,J1*%
X182372000Y-119753800D03*
X182372000Y-109963800D03*
X179372000Y-119753800D03*
X179372000Y-109963800D03*
%TD*%
D10*
%TO.N,*%
%TO.C,*%
X181000000Y-135500000D03*
%TD*%
%TO.N,*%
%TO.C,H2*%
X181000000Y-105000000D03*
%TD*%
%TO.N,*%
%TO.C,H4*%
X181000000Y-135500000D03*
%TD*%
D13*
%TO.N,GND*%
X150400000Y-113300000D03*
D14*
%TO.N,UART3_TX*%
X170599199Y-122867419D03*
X166369998Y-137380000D03*
%TO.N,UART5_RX*%
X165750000Y-133300000D03*
X159500000Y-137380000D03*
X169710000Y-125650000D03*
%TO.N,UART3_RX*%
X171589109Y-122270891D03*
X170730000Y-135750421D03*
X165119111Y-136740498D03*
%TO.N,GYRO_CLKIN*%
X161783500Y-127485000D03*
X166319200Y-118922800D03*
%TO.N,GYRO_INT1*%
X157059998Y-133282000D03*
X167800000Y-123661795D03*
%TO.N,GYRO_CS*%
X152286000Y-124970000D03*
X157460000Y-128810000D03*
%TO.N,GYRO_SCK*%
X155751000Y-124020000D03*
X157363687Y-130488928D03*
%TO.N,SPI2_NSS*%
X162830000Y-119065800D03*
X176150000Y-131680000D03*
X170636566Y-121750000D03*
X172385897Y-124145016D03*
%TO.N,Net-(USB_D1-K)*%
X180214200Y-123585200D03*
%TO.N,UART2_TX*%
X174500000Y-105620000D03*
%TO.N,UART2_RX*%
X158963053Y-107100000D03*
X160040000Y-109530000D03*
X172000000Y-105620000D03*
%TO.N,UART1_RX*%
X170653905Y-115663856D03*
X182880000Y-127770000D03*
%TO.N,UART1_TX*%
X182880000Y-130270000D03*
X170270359Y-118085701D03*
%TO.N,LED_STRIP*%
X148620000Y-126520000D03*
X152240000Y-124099999D03*
%TO.N,BEEPER*%
X162572506Y-107815583D03*
X148620000Y-109020000D03*
X160403990Y-107598252D03*
%TO.N,LED2*%
X171625000Y-119700000D03*
X177685288Y-127187946D03*
%TO.N,LED1*%
X177000000Y-125175000D03*
X172962748Y-123731076D03*
%TO.N,UART8_TX*%
X158779001Y-133636903D03*
X155040444Y-120729474D03*
%TO.N,UART8_RX*%
X156200000Y-118500000D03*
X159500000Y-135100000D03*
%TO.N,MOTOR2*%
X163121000Y-121793000D03*
X164500000Y-103124000D03*
%TO.N,MOTOR1*%
X162010002Y-103124000D03*
X161835000Y-124567497D03*
%TO.N,UART7_RX*%
X170400000Y-107602000D03*
X174500000Y-103124000D03*
X159840000Y-128860000D03*
%TO.N,ADC_CURR*%
X162153600Y-113202600D03*
X162153600Y-119837200D03*
X162164625Y-121016625D03*
X172000000Y-103124000D03*
%TO.N,MOTOR4*%
X165275625Y-123825625D03*
X169362000Y-103262000D03*
%TO.N,MOTOR3*%
X164388800Y-122859800D03*
X167000000Y-103124000D03*
%TO.N,I2C1_SCL*%
X168826260Y-135690000D03*
X158231394Y-117231394D03*
%TO.N,I2C1_SDA*%
X172009769Y-135100002D03*
X158851000Y-115850000D03*
X170768208Y-136621011D03*
%TO.N,CAM*%
X148620000Y-111520000D03*
X159500000Y-105620000D03*
%TO.N,UART4_TX*%
X148620000Y-114020000D03*
X157325000Y-112014746D03*
%TO.N,UART4_RX*%
X157081282Y-112977937D03*
X148620000Y-116520000D03*
%TO.N,ADC_VBAT*%
X154075306Y-125940225D03*
%TO.N,Net-(9V_D1-K)*%
X180214200Y-126505200D03*
D13*
%TO.N,9V_REG*%
X172000000Y-137380000D03*
D14*
%TO.N,Net-(5V_D1-K)*%
X180214200Y-125045200D03*
D13*
%TO.N,5V_REG*%
X148685000Y-128955000D03*
X160087500Y-121528600D03*
X148620000Y-119020000D03*
X173775000Y-121425000D03*
X158216600Y-106490000D03*
X157400000Y-114500000D03*
D14*
%TO.N,Net-(U1-SW)*%
X158563754Y-127461292D03*
X160887500Y-124475000D03*
D13*
%TO.N,BAT*%
X159500000Y-103124000D03*
D14*
%TO.N,Net-(3V3_D1-K)*%
X180214200Y-122125200D03*
D13*
%TO.N,3.3V*%
X171450000Y-125962500D03*
X176377207Y-120622793D03*
X153162501Y-130993927D03*
X174508800Y-108102400D03*
X169075000Y-127600000D03*
X148620000Y-131520000D03*
%TO.N,5V*%
X182880000Y-125270000D03*
X167000000Y-134876800D03*
X172450000Y-124960000D03*
X167600000Y-132650000D03*
X174381813Y-123435560D03*
D14*
%TO.N,Net-(MCU_D3-K)*%
X180214200Y-127965200D03*
%TO.N,Net-(MCU_D2-K)*%
X180214200Y-129425200D03*
%TO.N,Net-(MCU_D1-K)*%
X180214200Y-130885200D03*
D13*
%TO.N,GND*%
X160172400Y-130530600D03*
X170844150Y-120528900D03*
X150270000Y-129530000D03*
X162000000Y-105620000D03*
X176816000Y-134366000D03*
X161837755Y-131947902D03*
X155750000Y-124850000D03*
X162000000Y-137380000D03*
X172855800Y-130378200D03*
X164500000Y-134876800D03*
X175120000Y-109650000D03*
X174410000Y-130378200D03*
X177300000Y-121800000D03*
X162560000Y-123825000D03*
X171625000Y-113200000D03*
X164780000Y-132950000D03*
X176250000Y-126000000D03*
X158102500Y-130782660D03*
X154900000Y-116900000D03*
X173830000Y-110850000D03*
X171460000Y-130378200D03*
X175768000Y-120015000D03*
X152041230Y-126461400D03*
X176450506Y-127683808D03*
X151290000Y-131810000D03*
X172855800Y-131770000D03*
X152235000Y-121485000D03*
X169500000Y-137380000D03*
X159800000Y-133600000D03*
X152200000Y-110061130D03*
X153061862Y-129876573D03*
X152896372Y-128207929D03*
X165917300Y-129576601D03*
X161925600Y-128540000D03*
X178409600Y-132080000D03*
X169754169Y-105443991D03*
X158822688Y-128122395D03*
X160087500Y-120055400D03*
X157000000Y-103124000D03*
X176500000Y-110940000D03*
X168760000Y-108530000D03*
X170927107Y-114252107D03*
X166879200Y-121175000D03*
X149890000Y-118850000D03*
X163370666Y-132741860D03*
X171080000Y-118820000D03*
X153820000Y-108835000D03*
X172855800Y-129130000D03*
X171577000Y-124283300D03*
X169500000Y-133550000D03*
X148620000Y-124020000D03*
X148620000Y-121520000D03*
X172008800Y-108102400D03*
X182880000Y-122770000D03*
X162540000Y-108960000D03*
X165800000Y-124400000D03*
%TO.N,3.3V*%
X155330000Y-106240000D03*
X155330000Y-108220000D03*
D14*
%TO.N,BOOT0*%
X157480000Y-106240000D03*
X157480000Y-108200000D03*
D13*
%TO.N,GND*%
X174130000Y-115270000D03*
X156115001Y-109684149D03*
%TO.N,9V_REG*%
X178260000Y-133240000D03*
X176904571Y-118995429D03*
%TD*%
%TA.AperFunction,Conductor*%
%TO.N,GND*%
G36*
X159024688Y-102270185D02*
G01*
X159070443Y-102322989D01*
X159080387Y-102392147D01*
X159051362Y-102455703D01*
X159026540Y-102477602D01*
X158989711Y-102502210D01*
X158989707Y-102502213D01*
X158878213Y-102613707D01*
X158878210Y-102613711D01*
X158790609Y-102744814D01*
X158790602Y-102744827D01*
X158730264Y-102890498D01*
X158730261Y-102890510D01*
X158699500Y-103045153D01*
X158699500Y-103202846D01*
X158730261Y-103357489D01*
X158730264Y-103357501D01*
X158790602Y-103503172D01*
X158790609Y-103503185D01*
X158878210Y-103634288D01*
X158878213Y-103634292D01*
X158989707Y-103745786D01*
X158989711Y-103745789D01*
X159120814Y-103833390D01*
X159120827Y-103833397D01*
X159220060Y-103874500D01*
X159266503Y-103893737D01*
X159421153Y-103924499D01*
X159421156Y-103924500D01*
X159421158Y-103924500D01*
X159578844Y-103924500D01*
X159578845Y-103924499D01*
X159733497Y-103893737D01*
X159879179Y-103833394D01*
X160010289Y-103745789D01*
X160121789Y-103634289D01*
X160209394Y-103503179D01*
X160269737Y-103357497D01*
X160300500Y-103202842D01*
X160300500Y-103045158D01*
X160300500Y-103045155D01*
X160300499Y-103045153D01*
X160272920Y-102906505D01*
X160269737Y-102890503D01*
X160225450Y-102783584D01*
X160209397Y-102744827D01*
X160209390Y-102744814D01*
X160121789Y-102613711D01*
X160121786Y-102613707D01*
X160010292Y-102502213D01*
X160010288Y-102502210D01*
X159973460Y-102477602D01*
X159928655Y-102423989D01*
X159919948Y-102354664D01*
X159950103Y-102291637D01*
X160009546Y-102254918D01*
X160042351Y-102250500D01*
X161557649Y-102250500D01*
X161624688Y-102270185D01*
X161670443Y-102322989D01*
X161680387Y-102392147D01*
X161651362Y-102455703D01*
X161626540Y-102477602D01*
X161531586Y-102541048D01*
X161531582Y-102541051D01*
X161427053Y-102645580D01*
X161427050Y-102645584D01*
X161344921Y-102768498D01*
X161344914Y-102768511D01*
X161288345Y-102905082D01*
X161288342Y-102905092D01*
X161259502Y-103050079D01*
X161259502Y-103050082D01*
X161259502Y-103197918D01*
X161259502Y-103197920D01*
X161259501Y-103197920D01*
X161288342Y-103342907D01*
X161288345Y-103342917D01*
X161344914Y-103479488D01*
X161344921Y-103479501D01*
X161427050Y-103602415D01*
X161427053Y-103602419D01*
X161531582Y-103706948D01*
X161531586Y-103706951D01*
X161654500Y-103789080D01*
X161654513Y-103789087D01*
X161761471Y-103833390D01*
X161791089Y-103845658D01*
X161791093Y-103845658D01*
X161791094Y-103845659D01*
X161936081Y-103874500D01*
X161936084Y-103874500D01*
X162083922Y-103874500D01*
X162181464Y-103855096D01*
X162228915Y-103845658D01*
X162365497Y-103789084D01*
X162488418Y-103706951D01*
X162592953Y-103602416D01*
X162675086Y-103479495D01*
X162731660Y-103342913D01*
X162759522Y-103202846D01*
X162760502Y-103197920D01*
X162760502Y-103050079D01*
X162731661Y-102905092D01*
X162731660Y-102905091D01*
X162731660Y-102905087D01*
X162717623Y-102871198D01*
X162675089Y-102768511D01*
X162675082Y-102768498D01*
X162592953Y-102645584D01*
X162592950Y-102645580D01*
X162488421Y-102541051D01*
X162488417Y-102541048D01*
X162393464Y-102477602D01*
X162348659Y-102423990D01*
X162339952Y-102354665D01*
X162370107Y-102291637D01*
X162429550Y-102254918D01*
X162462355Y-102250500D01*
X164047647Y-102250500D01*
X164114686Y-102270185D01*
X164160441Y-102322989D01*
X164170385Y-102392147D01*
X164141360Y-102455703D01*
X164116538Y-102477602D01*
X164021584Y-102541048D01*
X164021580Y-102541051D01*
X163917051Y-102645580D01*
X163917048Y-102645584D01*
X163834919Y-102768498D01*
X163834912Y-102768511D01*
X163778343Y-102905082D01*
X163778340Y-102905092D01*
X163749500Y-103050079D01*
X163749500Y-103050082D01*
X163749500Y-103197918D01*
X163749500Y-103197920D01*
X163749499Y-103197920D01*
X163778340Y-103342907D01*
X163778343Y-103342917D01*
X163834912Y-103479488D01*
X163834919Y-103479501D01*
X163917048Y-103602415D01*
X163917051Y-103602419D01*
X164021580Y-103706948D01*
X164021584Y-103706951D01*
X164144498Y-103789080D01*
X164144511Y-103789087D01*
X164251469Y-103833390D01*
X164281087Y-103845658D01*
X164281091Y-103845658D01*
X164281092Y-103845659D01*
X164426079Y-103874500D01*
X164426082Y-103874500D01*
X164573920Y-103874500D01*
X164671462Y-103855096D01*
X164718913Y-103845658D01*
X164855495Y-103789084D01*
X164978416Y-103706951D01*
X165082951Y-103602416D01*
X165165084Y-103479495D01*
X165221658Y-103342913D01*
X165249520Y-103202846D01*
X165250500Y-103197920D01*
X165250500Y-103050079D01*
X165221659Y-102905092D01*
X165221658Y-102905091D01*
X165221658Y-102905087D01*
X165207621Y-102871198D01*
X165165087Y-102768511D01*
X165165080Y-102768498D01*
X165082951Y-102645584D01*
X165082948Y-102645580D01*
X164978419Y-102541051D01*
X164978415Y-102541048D01*
X164883462Y-102477602D01*
X164838657Y-102423990D01*
X164829950Y-102354665D01*
X164860105Y-102291637D01*
X164919548Y-102254918D01*
X164952353Y-102250500D01*
X166547647Y-102250500D01*
X166614686Y-102270185D01*
X166660441Y-102322989D01*
X166670385Y-102392147D01*
X166641360Y-102455703D01*
X166616538Y-102477602D01*
X166521584Y-102541048D01*
X166521580Y-102541051D01*
X166417051Y-102645580D01*
X166417048Y-102645584D01*
X166334919Y-102768498D01*
X166334912Y-102768511D01*
X166278343Y-102905082D01*
X166278340Y-102905092D01*
X166249500Y-103050079D01*
X166249500Y-103050082D01*
X166249500Y-103197918D01*
X166249500Y-103197920D01*
X166249499Y-103197920D01*
X166278340Y-103342907D01*
X166278343Y-103342917D01*
X166334912Y-103479488D01*
X166334919Y-103479501D01*
X166417048Y-103602415D01*
X166417051Y-103602419D01*
X166521580Y-103706948D01*
X166521584Y-103706951D01*
X166644498Y-103789080D01*
X166644511Y-103789087D01*
X166751469Y-103833390D01*
X166781087Y-103845658D01*
X166781091Y-103845658D01*
X166781092Y-103845659D01*
X166926079Y-103874500D01*
X166926082Y-103874500D01*
X167073920Y-103874500D01*
X167171462Y-103855096D01*
X167218913Y-103845658D01*
X167355495Y-103789084D01*
X167478416Y-103706951D01*
X167582951Y-103602416D01*
X167665084Y-103479495D01*
X167721658Y-103342913D01*
X167723049Y-103335920D01*
X168611499Y-103335920D01*
X168640340Y-103480907D01*
X168640343Y-103480917D01*
X168696912Y-103617488D01*
X168696919Y-103617501D01*
X168779048Y-103740415D01*
X168779051Y-103740419D01*
X168883580Y-103844948D01*
X168883584Y-103844951D01*
X169006498Y-103927080D01*
X169006511Y-103927087D01*
X169143082Y-103983656D01*
X169143087Y-103983658D01*
X169143091Y-103983658D01*
X169143092Y-103983659D01*
X169288079Y-104012500D01*
X169288082Y-104012500D01*
X169435920Y-104012500D01*
X169533462Y-103993096D01*
X169580913Y-103983658D01*
X169717495Y-103927084D01*
X169840416Y-103844951D01*
X169944951Y-103740416D01*
X170027084Y-103617495D01*
X170083658Y-103480913D01*
X170112500Y-103335918D01*
X170112500Y-103188082D01*
X170112500Y-103188079D01*
X170083659Y-103043092D01*
X170083658Y-103043091D01*
X170083658Y-103043087D01*
X170083656Y-103043082D01*
X170027087Y-102906511D01*
X170027080Y-102906498D01*
X169944951Y-102783584D01*
X169944948Y-102783580D01*
X169840419Y-102679051D01*
X169840415Y-102679048D01*
X169717501Y-102596919D01*
X169717488Y-102596912D01*
X169580917Y-102540343D01*
X169580907Y-102540340D01*
X169435920Y-102511500D01*
X169435918Y-102511500D01*
X169288082Y-102511500D01*
X169288080Y-102511500D01*
X169143092Y-102540340D01*
X169143082Y-102540343D01*
X169006511Y-102596912D01*
X169006498Y-102596919D01*
X168883584Y-102679048D01*
X168883580Y-102679051D01*
X168779051Y-102783580D01*
X168779048Y-102783584D01*
X168696919Y-102906498D01*
X168696912Y-102906511D01*
X168640343Y-103043082D01*
X168640340Y-103043092D01*
X168611500Y-103188079D01*
X168611500Y-103188082D01*
X168611500Y-103335918D01*
X168611500Y-103335920D01*
X168611499Y-103335920D01*
X167723049Y-103335920D01*
X167749520Y-103202846D01*
X167750500Y-103197920D01*
X167750500Y-103050079D01*
X167721659Y-102905092D01*
X167721658Y-102905091D01*
X167721658Y-102905087D01*
X167707621Y-102871198D01*
X167665087Y-102768511D01*
X167665080Y-102768498D01*
X167582951Y-102645584D01*
X167582948Y-102645580D01*
X167478419Y-102541051D01*
X167478415Y-102541048D01*
X167383462Y-102477602D01*
X167338657Y-102423990D01*
X167329950Y-102354665D01*
X167360105Y-102291637D01*
X167419548Y-102254918D01*
X167452353Y-102250500D01*
X171547647Y-102250500D01*
X171614686Y-102270185D01*
X171660441Y-102322989D01*
X171670385Y-102392147D01*
X171641360Y-102455703D01*
X171616538Y-102477602D01*
X171521584Y-102541048D01*
X171521580Y-102541051D01*
X171417051Y-102645580D01*
X171417048Y-102645584D01*
X171334919Y-102768498D01*
X171334912Y-102768511D01*
X171278343Y-102905082D01*
X171278340Y-102905092D01*
X171249500Y-103050079D01*
X171249500Y-103050082D01*
X171249500Y-103197918D01*
X171249500Y-103197920D01*
X171249499Y-103197920D01*
X171278340Y-103342907D01*
X171278343Y-103342917D01*
X171334912Y-103479488D01*
X171334919Y-103479501D01*
X171417048Y-103602415D01*
X171417051Y-103602419D01*
X171521580Y-103706948D01*
X171521584Y-103706951D01*
X171644498Y-103789080D01*
X171644511Y-103789087D01*
X171751469Y-103833390D01*
X171781087Y-103845658D01*
X171781091Y-103845658D01*
X171781092Y-103845659D01*
X171926079Y-103874500D01*
X171926082Y-103874500D01*
X172073920Y-103874500D01*
X172171462Y-103855096D01*
X172218913Y-103845658D01*
X172355495Y-103789084D01*
X172478416Y-103706951D01*
X172582951Y-103602416D01*
X172665084Y-103479495D01*
X172721658Y-103342913D01*
X172749520Y-103202846D01*
X172750500Y-103197920D01*
X172750500Y-103050079D01*
X172721659Y-102905092D01*
X172721658Y-102905091D01*
X172721658Y-102905087D01*
X172707621Y-102871198D01*
X172665087Y-102768511D01*
X172665080Y-102768498D01*
X172582951Y-102645584D01*
X172582948Y-102645580D01*
X172478419Y-102541051D01*
X172478415Y-102541048D01*
X172383462Y-102477602D01*
X172338657Y-102423990D01*
X172329950Y-102354665D01*
X172360105Y-102291637D01*
X172419548Y-102254918D01*
X172452353Y-102250500D01*
X174047647Y-102250500D01*
X174114686Y-102270185D01*
X174160441Y-102322989D01*
X174170385Y-102392147D01*
X174141360Y-102455703D01*
X174116538Y-102477602D01*
X174021584Y-102541048D01*
X174021580Y-102541051D01*
X173917051Y-102645580D01*
X173917048Y-102645584D01*
X173834919Y-102768498D01*
X173834912Y-102768511D01*
X173778343Y-102905082D01*
X173778340Y-102905092D01*
X173749500Y-103050079D01*
X173749500Y-103050082D01*
X173749500Y-103197918D01*
X173749500Y-103197920D01*
X173749499Y-103197920D01*
X173778340Y-103342907D01*
X173778343Y-103342917D01*
X173834912Y-103479488D01*
X173834919Y-103479501D01*
X173917048Y-103602415D01*
X173917051Y-103602419D01*
X174021580Y-103706948D01*
X174021584Y-103706951D01*
X174144498Y-103789080D01*
X174144511Y-103789087D01*
X174251469Y-103833390D01*
X174281087Y-103845658D01*
X174281091Y-103845658D01*
X174281092Y-103845659D01*
X174426079Y-103874500D01*
X174426082Y-103874500D01*
X174573920Y-103874500D01*
X174671462Y-103855096D01*
X174718913Y-103845658D01*
X174855495Y-103789084D01*
X174978416Y-103706951D01*
X175082951Y-103602416D01*
X175165084Y-103479495D01*
X175221658Y-103342913D01*
X175249520Y-103202846D01*
X175250500Y-103197920D01*
X175250500Y-103050079D01*
X175221659Y-102905092D01*
X175221658Y-102905091D01*
X175221658Y-102905087D01*
X175207621Y-102871198D01*
X175165087Y-102768511D01*
X175165080Y-102768498D01*
X175082951Y-102645584D01*
X175082948Y-102645580D01*
X174978419Y-102541051D01*
X174978415Y-102541048D01*
X174883462Y-102477602D01*
X174838657Y-102423990D01*
X174829950Y-102354665D01*
X174860105Y-102291637D01*
X174919548Y-102254918D01*
X174952353Y-102250500D01*
X179596384Y-102250500D01*
X179663423Y-102270185D01*
X179709178Y-102322989D01*
X179719122Y-102392147D01*
X179690097Y-102455703D01*
X179650186Y-102486220D01*
X179618989Y-102501243D01*
X179347900Y-102671580D01*
X179097587Y-102871197D01*
X178871197Y-103097587D01*
X178671580Y-103347900D01*
X178501243Y-103618989D01*
X178362332Y-103907440D01*
X178256590Y-104209635D01*
X178256589Y-104209637D01*
X178185347Y-104521771D01*
X178185345Y-104521783D01*
X178149500Y-104839914D01*
X178149500Y-105160085D01*
X178185345Y-105478216D01*
X178185346Y-105478225D01*
X178185347Y-105478229D01*
X178200833Y-105546079D01*
X178256589Y-105790362D01*
X178256590Y-105790364D01*
X178362332Y-106092559D01*
X178501243Y-106381010D01*
X178544475Y-106449813D01*
X178671581Y-106652101D01*
X178871198Y-106902413D01*
X179097587Y-107128802D01*
X179347899Y-107328419D01*
X179618987Y-107498755D01*
X179907442Y-107637668D01*
X180209637Y-107743410D01*
X180521771Y-107814653D01*
X180839915Y-107850499D01*
X180839916Y-107850500D01*
X180839919Y-107850500D01*
X181160084Y-107850500D01*
X181160084Y-107850499D01*
X181478229Y-107814653D01*
X181790363Y-107743410D01*
X182092558Y-107637668D01*
X182381013Y-107498755D01*
X182652101Y-107328419D01*
X182902413Y-107128802D01*
X183128802Y-106902413D01*
X183328419Y-106652101D01*
X183498755Y-106381013D01*
X183513780Y-106349812D01*
X183560601Y-106297954D01*
X183628028Y-106279641D01*
X183694652Y-106300688D01*
X183739321Y-106354414D01*
X183749500Y-106403615D01*
X183749500Y-109207012D01*
X183729815Y-109274051D01*
X183677011Y-109319806D01*
X183607853Y-109329750D01*
X183544297Y-109300725D01*
X183537819Y-109294693D01*
X183391339Y-109148213D01*
X183391335Y-109148210D01*
X183219368Y-109033305D01*
X183219358Y-109033300D01*
X183028274Y-108954150D01*
X183028266Y-108954148D01*
X182825420Y-108913800D01*
X182622000Y-108913800D01*
X182622000Y-109713800D01*
X182122000Y-109713800D01*
X182122000Y-108913800D01*
X181918579Y-108913800D01*
X181715733Y-108954148D01*
X181715725Y-108954150D01*
X181524641Y-109033300D01*
X181524631Y-109033305D01*
X181352664Y-109148210D01*
X181352660Y-109148213D01*
X181206413Y-109294460D01*
X181206410Y-109294464D01*
X181091505Y-109466431D01*
X181091500Y-109466441D01*
X181012351Y-109657523D01*
X181012348Y-109657533D01*
X181001156Y-109713798D01*
X181001158Y-109713800D01*
X181972272Y-109713800D01*
X181880386Y-109751860D01*
X181810060Y-109822186D01*
X181772000Y-109914072D01*
X181772000Y-110013528D01*
X181810060Y-110105414D01*
X181880386Y-110175740D01*
X181972272Y-110213800D01*
X181001157Y-110213800D01*
X181012350Y-110270074D01*
X181012351Y-110270076D01*
X181091500Y-110461158D01*
X181091505Y-110461168D01*
X181206410Y-110633135D01*
X181206413Y-110633139D01*
X181352660Y-110779386D01*
X181352664Y-110779389D01*
X181524631Y-110894294D01*
X181524641Y-110894299D01*
X181715725Y-110973449D01*
X181715733Y-110973451D01*
X181918579Y-111013799D01*
X181918583Y-111013800D01*
X182122000Y-111013800D01*
X182122000Y-110213800D01*
X182622000Y-110213800D01*
X182622000Y-111013800D01*
X182825417Y-111013800D01*
X182825420Y-111013799D01*
X183028266Y-110973451D01*
X183028274Y-110973449D01*
X183219358Y-110894299D01*
X183219368Y-110894294D01*
X183391335Y-110779389D01*
X183391339Y-110779386D01*
X183537819Y-110632907D01*
X183599142Y-110599422D01*
X183668834Y-110604406D01*
X183724767Y-110646278D01*
X183749184Y-110711742D01*
X183749500Y-110720588D01*
X183749500Y-118997012D01*
X183729815Y-119064051D01*
X183677011Y-119109806D01*
X183607853Y-119119750D01*
X183544297Y-119090725D01*
X183537819Y-119084693D01*
X183391339Y-118938213D01*
X183391335Y-118938210D01*
X183219368Y-118823305D01*
X183219358Y-118823300D01*
X183028274Y-118744150D01*
X183028266Y-118744148D01*
X182825420Y-118703800D01*
X182622000Y-118703800D01*
X182622000Y-119503800D01*
X182122000Y-119503800D01*
X182122000Y-118703800D01*
X181918579Y-118703800D01*
X181715733Y-118744148D01*
X181715725Y-118744150D01*
X181524641Y-118823300D01*
X181524631Y-118823305D01*
X181352664Y-118938210D01*
X181352660Y-118938213D01*
X181206413Y-119084460D01*
X181206410Y-119084464D01*
X181091505Y-119256431D01*
X181091500Y-119256441D01*
X181012351Y-119447523D01*
X181012348Y-119447533D01*
X181001156Y-119503798D01*
X181001158Y-119503800D01*
X181972272Y-119503800D01*
X181880386Y-119541860D01*
X181810060Y-119612186D01*
X181772000Y-119704072D01*
X181772000Y-119803528D01*
X181810060Y-119895414D01*
X181880386Y-119965740D01*
X181972272Y-120003800D01*
X181001157Y-120003800D01*
X181012350Y-120060074D01*
X181012351Y-120060076D01*
X181091500Y-120251158D01*
X181091505Y-120251168D01*
X181206410Y-120423135D01*
X181206413Y-120423139D01*
X181352660Y-120569386D01*
X181352664Y-120569389D01*
X181524631Y-120684294D01*
X181524641Y-120684299D01*
X181715725Y-120763449D01*
X181715733Y-120763451D01*
X181918579Y-120803799D01*
X181918583Y-120803800D01*
X182122000Y-120803800D01*
X182122000Y-120003800D01*
X182622000Y-120003800D01*
X182622000Y-120803800D01*
X182825417Y-120803800D01*
X182825420Y-120803799D01*
X183028266Y-120763451D01*
X183028274Y-120763449D01*
X183219358Y-120684299D01*
X183219368Y-120684294D01*
X183391335Y-120569389D01*
X183391339Y-120569386D01*
X183537819Y-120422907D01*
X183599142Y-120389422D01*
X183668834Y-120394406D01*
X183724767Y-120436278D01*
X183749184Y-120501742D01*
X183749500Y-120510588D01*
X183749500Y-124721662D01*
X183729815Y-124788701D01*
X183677011Y-124834456D01*
X183607853Y-124844400D01*
X183544297Y-124815375D01*
X183522399Y-124790554D01*
X183501791Y-124759713D01*
X183501786Y-124759707D01*
X183390292Y-124648213D01*
X183390288Y-124648210D01*
X183259185Y-124560609D01*
X183259172Y-124560602D01*
X183113501Y-124500264D01*
X183113489Y-124500261D01*
X182958845Y-124469500D01*
X182958842Y-124469500D01*
X182801158Y-124469500D01*
X182801155Y-124469500D01*
X182646510Y-124500261D01*
X182646498Y-124500264D01*
X182500827Y-124560602D01*
X182500814Y-124560609D01*
X182369711Y-124648210D01*
X182369707Y-124648213D01*
X182258213Y-124759707D01*
X182258210Y-124759711D01*
X182170609Y-124890814D01*
X182170602Y-124890827D01*
X182110264Y-125036498D01*
X182110261Y-125036510D01*
X182079500Y-125191153D01*
X182079500Y-125348846D01*
X182110261Y-125503489D01*
X182110264Y-125503501D01*
X182170602Y-125649172D01*
X182170609Y-125649185D01*
X182258210Y-125780288D01*
X182258213Y-125780292D01*
X182369707Y-125891786D01*
X182369711Y-125891789D01*
X182500814Y-125979390D01*
X182500827Y-125979397D01*
X182615231Y-126026784D01*
X182646503Y-126039737D01*
X182756722Y-126061661D01*
X182801153Y-126070499D01*
X182801156Y-126070500D01*
X182801158Y-126070500D01*
X182958844Y-126070500D01*
X182958845Y-126070499D01*
X183113497Y-126039737D01*
X183259179Y-125979394D01*
X183390289Y-125891789D01*
X183501789Y-125780289D01*
X183518443Y-125755365D01*
X183522398Y-125749446D01*
X183576010Y-125704641D01*
X183645335Y-125695934D01*
X183708363Y-125726088D01*
X183745082Y-125785531D01*
X183749500Y-125818337D01*
X183749500Y-127311661D01*
X183729815Y-127378700D01*
X183677011Y-127424455D01*
X183607853Y-127434399D01*
X183544297Y-127405374D01*
X183522398Y-127380552D01*
X183462951Y-127291584D01*
X183462948Y-127291580D01*
X183358419Y-127187051D01*
X183358415Y-127187048D01*
X183235501Y-127104919D01*
X183235488Y-127104912D01*
X183098917Y-127048343D01*
X183098907Y-127048340D01*
X182953920Y-127019500D01*
X182953918Y-127019500D01*
X182806082Y-127019500D01*
X182806080Y-127019500D01*
X182661092Y-127048340D01*
X182661082Y-127048343D01*
X182524511Y-127104912D01*
X182524498Y-127104919D01*
X182401584Y-127187048D01*
X182401580Y-127187051D01*
X182297051Y-127291580D01*
X182297048Y-127291584D01*
X182214919Y-127414498D01*
X182214912Y-127414511D01*
X182158343Y-127551082D01*
X182158340Y-127551092D01*
X182129500Y-127696079D01*
X182129500Y-127696082D01*
X182129500Y-127843918D01*
X182129500Y-127843920D01*
X182129499Y-127843920D01*
X182158340Y-127988907D01*
X182158343Y-127988917D01*
X182214912Y-128125488D01*
X182214919Y-128125501D01*
X182297048Y-128248415D01*
X182297051Y-128248419D01*
X182401580Y-128352948D01*
X182401584Y-128352951D01*
X182524498Y-128435080D01*
X182524511Y-128435087D01*
X182661082Y-128491656D01*
X182661087Y-128491658D01*
X182661091Y-128491658D01*
X182661092Y-128491659D01*
X182806079Y-128520500D01*
X182806082Y-128520500D01*
X182953920Y-128520500D01*
X183051462Y-128501096D01*
X183098913Y-128491658D01*
X183235495Y-128435084D01*
X183358416Y-128352951D01*
X183462951Y-128248416D01*
X183498287Y-128195532D01*
X183522398Y-128159448D01*
X183576010Y-128114642D01*
X183645335Y-128105935D01*
X183708362Y-128136089D01*
X183745082Y-128195532D01*
X183749500Y-128228338D01*
X183749500Y-129811661D01*
X183729815Y-129878700D01*
X183677011Y-129924455D01*
X183607853Y-129934399D01*
X183544297Y-129905374D01*
X183522398Y-129880552D01*
X183462951Y-129791584D01*
X183462948Y-129791580D01*
X183358419Y-129687051D01*
X183358415Y-129687048D01*
X183235501Y-129604919D01*
X183235488Y-129604912D01*
X183098917Y-129548343D01*
X183098907Y-129548340D01*
X182953920Y-129519500D01*
X182953918Y-129519500D01*
X182806082Y-129519500D01*
X182806080Y-129519500D01*
X182661092Y-129548340D01*
X182661082Y-129548343D01*
X182524511Y-129604912D01*
X182524498Y-129604919D01*
X182401584Y-129687048D01*
X182401580Y-129687051D01*
X182297051Y-129791580D01*
X182297048Y-129791584D01*
X182214919Y-129914498D01*
X182214912Y-129914511D01*
X182158343Y-130051082D01*
X182158340Y-130051092D01*
X182129500Y-130196079D01*
X182129500Y-130196082D01*
X182129500Y-130343918D01*
X182129500Y-130343920D01*
X182129499Y-130343920D01*
X182158340Y-130488907D01*
X182158343Y-130488917D01*
X182214912Y-130625488D01*
X182214919Y-130625501D01*
X182297048Y-130748415D01*
X182297051Y-130748419D01*
X182401580Y-130852948D01*
X182401584Y-130852951D01*
X182524498Y-130935080D01*
X182524511Y-130935087D01*
X182612812Y-130971662D01*
X182661087Y-130991658D01*
X182661091Y-130991658D01*
X182661092Y-130991659D01*
X182806079Y-131020500D01*
X182806082Y-131020500D01*
X182953920Y-131020500D01*
X183051462Y-131001096D01*
X183098913Y-130991658D01*
X183235495Y-130935084D01*
X183358416Y-130852951D01*
X183462951Y-130748416D01*
X183498287Y-130695532D01*
X183522398Y-130659448D01*
X183576010Y-130614642D01*
X183645335Y-130605935D01*
X183708362Y-130636089D01*
X183745082Y-130695532D01*
X183749500Y-130728338D01*
X183749500Y-134096384D01*
X183729815Y-134163423D01*
X183677011Y-134209178D01*
X183607853Y-134219122D01*
X183544297Y-134190097D01*
X183513780Y-134150186D01*
X183498756Y-134118989D01*
X183496450Y-134115319D01*
X183328419Y-133847899D01*
X183128802Y-133597587D01*
X182902413Y-133371198D01*
X182883252Y-133355918D01*
X182789820Y-133281408D01*
X182652101Y-133171581D01*
X182381013Y-133001245D01*
X182381010Y-133001243D01*
X182092559Y-132862332D01*
X181790364Y-132756590D01*
X181790362Y-132756589D01*
X181538261Y-132699049D01*
X181478229Y-132685347D01*
X181478225Y-132685346D01*
X181478216Y-132685345D01*
X181160085Y-132649500D01*
X181160081Y-132649500D01*
X180839919Y-132649500D01*
X180839914Y-132649500D01*
X180521783Y-132685345D01*
X180521771Y-132685347D01*
X180209637Y-132756589D01*
X180209635Y-132756590D01*
X179907440Y-132862332D01*
X179618989Y-133001243D01*
X179347896Y-133171582D01*
X179347894Y-133171583D01*
X179260736Y-133241090D01*
X179196050Y-133267499D01*
X179127354Y-133254742D01*
X179076461Y-133206871D01*
X179063436Y-133166784D01*
X179061689Y-133167132D01*
X179034249Y-133029185D01*
X179029737Y-133006503D01*
X179015369Y-132971815D01*
X178969397Y-132860827D01*
X178969390Y-132860814D01*
X178881789Y-132729711D01*
X178881786Y-132729707D01*
X178770292Y-132618213D01*
X178770288Y-132618210D01*
X178639185Y-132530609D01*
X178639172Y-132530602D01*
X178493501Y-132470264D01*
X178493489Y-132470261D01*
X178338845Y-132439500D01*
X178338842Y-132439500D01*
X178181158Y-132439500D01*
X178181155Y-132439500D01*
X178026510Y-132470261D01*
X178026498Y-132470264D01*
X177880827Y-132530602D01*
X177880814Y-132530609D01*
X177749711Y-132618210D01*
X177749707Y-132618213D01*
X177638213Y-132729707D01*
X177638210Y-132729711D01*
X177550609Y-132860814D01*
X177550602Y-132860827D01*
X177490264Y-133006498D01*
X177490261Y-133006510D01*
X177459500Y-133161153D01*
X177459500Y-133318846D01*
X177490261Y-133473489D01*
X177490264Y-133473501D01*
X177550602Y-133619172D01*
X177550609Y-133619185D01*
X177638210Y-133750288D01*
X177638213Y-133750292D01*
X177749707Y-133861786D01*
X177749711Y-133861789D01*
X177880814Y-133949390D01*
X177880827Y-133949397D01*
X177984657Y-133992404D01*
X178026503Y-134009737D01*
X178140940Y-134032500D01*
X178181153Y-134040499D01*
X178181156Y-134040500D01*
X178341697Y-134040500D01*
X178408736Y-134060185D01*
X178454491Y-134112989D01*
X178464435Y-134182147D01*
X178453417Y-134218302D01*
X178362332Y-134407440D01*
X178256590Y-134709635D01*
X178256589Y-134709637D01*
X178185347Y-135021771D01*
X178185345Y-135021783D01*
X178149500Y-135339914D01*
X178149500Y-135660085D01*
X178185345Y-135978216D01*
X178185346Y-135978225D01*
X178185347Y-135978229D01*
X178201607Y-136049471D01*
X178256589Y-136290362D01*
X178256590Y-136290364D01*
X178362332Y-136592559D01*
X178501243Y-136881010D01*
X178501245Y-136881013D01*
X178671581Y-137152101D01*
X178871198Y-137402413D01*
X179097587Y-137628802D01*
X179347899Y-137828419D01*
X179618987Y-137998755D01*
X179618989Y-137998756D01*
X179650186Y-138013780D01*
X179702045Y-138060603D01*
X179720358Y-138128030D01*
X179699310Y-138194654D01*
X179645584Y-138239322D01*
X179596384Y-138249500D01*
X172548337Y-138249500D01*
X172481298Y-138229815D01*
X172435543Y-138177011D01*
X172425599Y-138107853D01*
X172454624Y-138044297D01*
X172479446Y-138022398D01*
X172492343Y-138013780D01*
X172510289Y-138001789D01*
X172621789Y-137890289D01*
X172709394Y-137759179D01*
X172769737Y-137613497D01*
X172800500Y-137458842D01*
X172800500Y-137301158D01*
X172800500Y-137301155D01*
X172800499Y-137301153D01*
X172784141Y-137218917D01*
X172769737Y-137146503D01*
X172769735Y-137146498D01*
X172709397Y-137000827D01*
X172709390Y-137000814D01*
X172621789Y-136869711D01*
X172621786Y-136869707D01*
X172510292Y-136758213D01*
X172510288Y-136758210D01*
X172379185Y-136670609D01*
X172379172Y-136670602D01*
X172233501Y-136610264D01*
X172233489Y-136610261D01*
X172078845Y-136579500D01*
X172078842Y-136579500D01*
X171921158Y-136579500D01*
X171921155Y-136579500D01*
X171766510Y-136610261D01*
X171766503Y-136610263D01*
X171688770Y-136642460D01*
X171619301Y-136649927D01*
X171556822Y-136618652D01*
X171521170Y-136558562D01*
X171519702Y-136552090D01*
X171489867Y-136402103D01*
X171489866Y-136402102D01*
X171489866Y-136402098D01*
X171482782Y-136384996D01*
X171433293Y-136265518D01*
X171433292Y-136265516D01*
X171405717Y-136224247D01*
X171384840Y-136157572D01*
X171394259Y-136107905D01*
X171395081Y-136105920D01*
X171395084Y-136105916D01*
X171451658Y-135969334D01*
X171475236Y-135850804D01*
X171507621Y-135788893D01*
X171568337Y-135754319D01*
X171638106Y-135758059D01*
X171650621Y-135763573D01*
X171654274Y-135765086D01*
X171790856Y-135821660D01*
X171790860Y-135821660D01*
X171790861Y-135821661D01*
X171935848Y-135850502D01*
X171935851Y-135850502D01*
X172083689Y-135850502D01*
X172181231Y-135831098D01*
X172228682Y-135821660D01*
X172365264Y-135765086D01*
X172488185Y-135682953D01*
X172592720Y-135578418D01*
X172674853Y-135455497D01*
X172731427Y-135318915D01*
X172743946Y-135255979D01*
X172760269Y-135173922D01*
X172760269Y-135026081D01*
X172731428Y-134881094D01*
X172731427Y-134881093D01*
X172731427Y-134881089D01*
X172731424Y-134881082D01*
X172674856Y-134744513D01*
X172674849Y-134744500D01*
X172592720Y-134621586D01*
X172592717Y-134621582D01*
X172488188Y-134517053D01*
X172488184Y-134517050D01*
X172365270Y-134434921D01*
X172365257Y-134434914D01*
X172228686Y-134378345D01*
X172228676Y-134378342D01*
X172083689Y-134349502D01*
X172083687Y-134349502D01*
X171935851Y-134349502D01*
X171935849Y-134349502D01*
X171790861Y-134378342D01*
X171790851Y-134378345D01*
X171654280Y-134434914D01*
X171654267Y-134434921D01*
X171531353Y-134517050D01*
X171531349Y-134517053D01*
X171426820Y-134621582D01*
X171426817Y-134621586D01*
X171344688Y-134744500D01*
X171344681Y-134744513D01*
X171288112Y-134881084D01*
X171288109Y-134881093D01*
X171264532Y-134999619D01*
X171232146Y-135061529D01*
X171171430Y-135096103D01*
X171101660Y-135092362D01*
X171089153Y-135086851D01*
X170948917Y-135028764D01*
X170948907Y-135028761D01*
X170803920Y-134999921D01*
X170803918Y-134999921D01*
X170656082Y-134999921D01*
X170656080Y-134999921D01*
X170511092Y-135028761D01*
X170511082Y-135028764D01*
X170374511Y-135085333D01*
X170374498Y-135085340D01*
X170251584Y-135167469D01*
X170251580Y-135167472D01*
X170147051Y-135272001D01*
X170147048Y-135272005D01*
X170064919Y-135394919D01*
X170064912Y-135394932D01*
X170008343Y-135531503D01*
X170008340Y-135531513D01*
X169979500Y-135676500D01*
X169979500Y-135676503D01*
X169979500Y-135824339D01*
X169979500Y-135824341D01*
X169979499Y-135824341D01*
X170008340Y-135969328D01*
X170008343Y-135969338D01*
X170064914Y-136105913D01*
X170092489Y-136147182D01*
X170113367Y-136213860D01*
X170103948Y-136263525D01*
X170046551Y-136402093D01*
X170046548Y-136402103D01*
X170017708Y-136547090D01*
X170017708Y-136547093D01*
X170017708Y-136694929D01*
X170017708Y-136694931D01*
X170017707Y-136694931D01*
X170046548Y-136839918D01*
X170046551Y-136839928D01*
X170103120Y-136976499D01*
X170103127Y-136976512D01*
X170185256Y-137099426D01*
X170185259Y-137099430D01*
X170289788Y-137203959D01*
X170289792Y-137203962D01*
X170412706Y-137286091D01*
X170412719Y-137286098D01*
X170508369Y-137325717D01*
X170549295Y-137342669D01*
X170549299Y-137342669D01*
X170549300Y-137342670D01*
X170694287Y-137371511D01*
X170694290Y-137371511D01*
X170842128Y-137371511D01*
X170939670Y-137352107D01*
X170987121Y-137342669D01*
X171028047Y-137325716D01*
X171097515Y-137318247D01*
X171159995Y-137349521D01*
X171195648Y-137409609D01*
X171199500Y-137440277D01*
X171199500Y-137458846D01*
X171230261Y-137613489D01*
X171230264Y-137613501D01*
X171290602Y-137759172D01*
X171290609Y-137759185D01*
X171378210Y-137890288D01*
X171378213Y-137890292D01*
X171489707Y-138001786D01*
X171489711Y-138001789D01*
X171520554Y-138022398D01*
X171565359Y-138076010D01*
X171574066Y-138145335D01*
X171543912Y-138208363D01*
X171484469Y-138245082D01*
X171451663Y-138249500D01*
X166828337Y-138249500D01*
X166761298Y-138229815D01*
X166715543Y-138177011D01*
X166705599Y-138107853D01*
X166734624Y-138044297D01*
X166759446Y-138022398D01*
X166802187Y-137993838D01*
X166848414Y-137962951D01*
X166952949Y-137858416D01*
X167035082Y-137735495D01*
X167091656Y-137598913D01*
X167118859Y-137462157D01*
X167120498Y-137453920D01*
X167120498Y-137306079D01*
X167091657Y-137161092D01*
X167091656Y-137161091D01*
X167091656Y-137161087D01*
X167085613Y-137146498D01*
X167035085Y-137024511D01*
X167035078Y-137024498D01*
X166952949Y-136901584D01*
X166952946Y-136901580D01*
X166848417Y-136797051D01*
X166848413Y-136797048D01*
X166725499Y-136714919D01*
X166725486Y-136714912D01*
X166588915Y-136658343D01*
X166588905Y-136658340D01*
X166443918Y-136629500D01*
X166443916Y-136629500D01*
X166296080Y-136629500D01*
X166296078Y-136629500D01*
X166151090Y-136658340D01*
X166151089Y-136658341D01*
X166151088Y-136658341D01*
X166151085Y-136658342D01*
X166086594Y-136685055D01*
X166029115Y-136708863D01*
X165959645Y-136716331D01*
X165897166Y-136685055D01*
X165861514Y-136624966D01*
X165860046Y-136618493D01*
X165840770Y-136521590D01*
X165840769Y-136521589D01*
X165840769Y-136521585D01*
X165795542Y-136412396D01*
X165784198Y-136385009D01*
X165784191Y-136384996D01*
X165702062Y-136262082D01*
X165702059Y-136262078D01*
X165597530Y-136157549D01*
X165597526Y-136157546D01*
X165474612Y-136075417D01*
X165474599Y-136075410D01*
X165338028Y-136018841D01*
X165338018Y-136018838D01*
X165193031Y-135989998D01*
X165193029Y-135989998D01*
X165045193Y-135989998D01*
X165045191Y-135989998D01*
X164900203Y-136018838D01*
X164900193Y-136018841D01*
X164763622Y-136075410D01*
X164763609Y-136075417D01*
X164640695Y-136157546D01*
X164640691Y-136157549D01*
X164536162Y-136262078D01*
X164536159Y-136262082D01*
X164454030Y-136384996D01*
X164454023Y-136385009D01*
X164397454Y-136521580D01*
X164397451Y-136521590D01*
X164368611Y-136666577D01*
X164368611Y-136666580D01*
X164368611Y-136814416D01*
X164368611Y-136814418D01*
X164368610Y-136814418D01*
X164397451Y-136959405D01*
X164397454Y-136959415D01*
X164454023Y-137095986D01*
X164454030Y-137095999D01*
X164536159Y-137218913D01*
X164536162Y-137218917D01*
X164640691Y-137323446D01*
X164640695Y-137323449D01*
X164763609Y-137405578D01*
X164763622Y-137405585D01*
X164880314Y-137453920D01*
X164900198Y-137462156D01*
X164900202Y-137462156D01*
X164900203Y-137462157D01*
X165045190Y-137490998D01*
X165045193Y-137490998D01*
X165193031Y-137490998D01*
X165290573Y-137471594D01*
X165338024Y-137462156D01*
X165459992Y-137411634D01*
X165529462Y-137404166D01*
X165591941Y-137435441D01*
X165627593Y-137495530D01*
X165629062Y-137502003D01*
X165648338Y-137598908D01*
X165648341Y-137598917D01*
X165704910Y-137735488D01*
X165704917Y-137735501D01*
X165787046Y-137858415D01*
X165787049Y-137858419D01*
X165891578Y-137962948D01*
X165891582Y-137962951D01*
X165980550Y-138022398D01*
X166025355Y-138076010D01*
X166034062Y-138145335D01*
X166003908Y-138208363D01*
X165944465Y-138245082D01*
X165911659Y-138249500D01*
X159958339Y-138249500D01*
X159891300Y-138229815D01*
X159845545Y-138177011D01*
X159835601Y-138107853D01*
X159864626Y-138044297D01*
X159889448Y-138022398D01*
X159932189Y-137993838D01*
X159978416Y-137962951D01*
X160082951Y-137858416D01*
X160165084Y-137735495D01*
X160221658Y-137598913D01*
X160248861Y-137462157D01*
X160250500Y-137453920D01*
X160250500Y-137306079D01*
X160221659Y-137161092D01*
X160221658Y-137161091D01*
X160221658Y-137161087D01*
X160215615Y-137146498D01*
X160165087Y-137024511D01*
X160165080Y-137024498D01*
X160082951Y-136901584D01*
X160082948Y-136901580D01*
X159978419Y-136797051D01*
X159978415Y-136797048D01*
X159855501Y-136714919D01*
X159855488Y-136714912D01*
X159718917Y-136658343D01*
X159718907Y-136658340D01*
X159573920Y-136629500D01*
X159573918Y-136629500D01*
X159426082Y-136629500D01*
X159426080Y-136629500D01*
X159281092Y-136658340D01*
X159281082Y-136658343D01*
X159144511Y-136714912D01*
X159144498Y-136714919D01*
X159021584Y-136797048D01*
X159021580Y-136797051D01*
X158917051Y-136901580D01*
X158917048Y-136901584D01*
X158834919Y-137024498D01*
X158834912Y-137024511D01*
X158778343Y-137161082D01*
X158778340Y-137161092D01*
X158749500Y-137306079D01*
X158749500Y-137306082D01*
X158749500Y-137453918D01*
X158749500Y-137453920D01*
X158749499Y-137453920D01*
X158778340Y-137598907D01*
X158778343Y-137598917D01*
X158834912Y-137735488D01*
X158834919Y-137735501D01*
X158917048Y-137858415D01*
X158917051Y-137858419D01*
X159021580Y-137962948D01*
X159021584Y-137962951D01*
X159110552Y-138022398D01*
X159155357Y-138076010D01*
X159164064Y-138145335D01*
X159133910Y-138208363D01*
X159074467Y-138245082D01*
X159041661Y-138249500D01*
X151903616Y-138249500D01*
X151836577Y-138229815D01*
X151790822Y-138177011D01*
X151780878Y-138107853D01*
X151809903Y-138044297D01*
X151849814Y-138013780D01*
X151862650Y-138007598D01*
X151881013Y-137998755D01*
X152152101Y-137828419D01*
X152402413Y-137628802D01*
X152628802Y-137402413D01*
X152828419Y-137152101D01*
X152998755Y-136881013D01*
X153137668Y-136592558D01*
X153243410Y-136290363D01*
X153314653Y-135978229D01*
X153350500Y-135660081D01*
X153350500Y-135339919D01*
X153314653Y-135021771D01*
X153243410Y-134709637D01*
X153137668Y-134407442D01*
X153013780Y-134150186D01*
X152998756Y-134118989D01*
X152996450Y-134115319D01*
X152828419Y-133847899D01*
X152628802Y-133597587D01*
X152402413Y-133371198D01*
X152387615Y-133359397D01*
X152383255Y-133355920D01*
X156309497Y-133355920D01*
X156338338Y-133500907D01*
X156338341Y-133500917D01*
X156394910Y-133637488D01*
X156394917Y-133637501D01*
X156477046Y-133760415D01*
X156477049Y-133760419D01*
X156581578Y-133864948D01*
X156581582Y-133864951D01*
X156704496Y-133947080D01*
X156704509Y-133947087D01*
X156813884Y-133992391D01*
X156841085Y-134003658D01*
X156841089Y-134003658D01*
X156841090Y-134003659D01*
X156986077Y-134032500D01*
X156986080Y-134032500D01*
X157133918Y-134032500D01*
X157231460Y-134013096D01*
X157278911Y-134003658D01*
X157415493Y-133947084D01*
X157538414Y-133864951D01*
X157642949Y-133760416D01*
X157676086Y-133710823D01*
X158028500Y-133710823D01*
X158057341Y-133855810D01*
X158057344Y-133855820D01*
X158113913Y-133992391D01*
X158113920Y-133992404D01*
X158196049Y-134115318D01*
X158196052Y-134115322D01*
X158300581Y-134219851D01*
X158300585Y-134219854D01*
X158423499Y-134301983D01*
X158423512Y-134301990D01*
X158560083Y-134358559D01*
X158560088Y-134358561D01*
X158560092Y-134358561D01*
X158560093Y-134358562D01*
X158705080Y-134387403D01*
X158851867Y-134387403D01*
X158918906Y-134407088D01*
X158964661Y-134459892D01*
X158974605Y-134529050D01*
X158945580Y-134592606D01*
X158939548Y-134599084D01*
X158917051Y-134621580D01*
X158917048Y-134621584D01*
X158834919Y-134744498D01*
X158834912Y-134744511D01*
X158778343Y-134881082D01*
X158778340Y-134881092D01*
X158749500Y-135026079D01*
X158749500Y-135026081D01*
X158749500Y-135026082D01*
X158749500Y-135173918D01*
X158749500Y-135173920D01*
X158749499Y-135173920D01*
X158778340Y-135318907D01*
X158778343Y-135318917D01*
X158834912Y-135455488D01*
X158834919Y-135455501D01*
X158917048Y-135578415D01*
X158917051Y-135578419D01*
X159021580Y-135682948D01*
X159021584Y-135682951D01*
X159144498Y-135765080D01*
X159144511Y-135765087D01*
X159281082Y-135821656D01*
X159281087Y-135821658D01*
X159281091Y-135821658D01*
X159281092Y-135821659D01*
X159426079Y-135850500D01*
X159426082Y-135850500D01*
X159573920Y-135850500D01*
X159671462Y-135831096D01*
X159718913Y-135821658D01*
X159855495Y-135765084D01*
X159857237Y-135763920D01*
X168075759Y-135763920D01*
X168104600Y-135908907D01*
X168104603Y-135908917D01*
X168161172Y-136045488D01*
X168161179Y-136045501D01*
X168243308Y-136168415D01*
X168243311Y-136168419D01*
X168347840Y-136272948D01*
X168347844Y-136272951D01*
X168470758Y-136355080D01*
X168470771Y-136355087D01*
X168543010Y-136385009D01*
X168607347Y-136411658D01*
X168607351Y-136411658D01*
X168607352Y-136411659D01*
X168752339Y-136440500D01*
X168752342Y-136440500D01*
X168900180Y-136440500D01*
X168997722Y-136421096D01*
X169045173Y-136411658D01*
X169181755Y-136355084D01*
X169304676Y-136272951D01*
X169409211Y-136168416D01*
X169491344Y-136045495D01*
X169547918Y-135908913D01*
X169576527Y-135765089D01*
X169576760Y-135763920D01*
X169576760Y-135616079D01*
X169547919Y-135471092D01*
X169547918Y-135471091D01*
X169547918Y-135471087D01*
X169541462Y-135455501D01*
X169491347Y-135334511D01*
X169491340Y-135334498D01*
X169409211Y-135211584D01*
X169409208Y-135211580D01*
X169304679Y-135107051D01*
X169304675Y-135107048D01*
X169181761Y-135024919D01*
X169181748Y-135024912D01*
X169045177Y-134968343D01*
X169045167Y-134968340D01*
X168900180Y-134939500D01*
X168900178Y-134939500D01*
X168752342Y-134939500D01*
X168752340Y-134939500D01*
X168607352Y-134968340D01*
X168607342Y-134968343D01*
X168470771Y-135024912D01*
X168470758Y-135024919D01*
X168347844Y-135107048D01*
X168347840Y-135107051D01*
X168243311Y-135211580D01*
X168243308Y-135211584D01*
X168161179Y-135334498D01*
X168161172Y-135334511D01*
X168104603Y-135471082D01*
X168104600Y-135471092D01*
X168075760Y-135616079D01*
X168075760Y-135616082D01*
X168075760Y-135763918D01*
X168075760Y-135763920D01*
X168075759Y-135763920D01*
X159857237Y-135763920D01*
X159978416Y-135682951D01*
X160082951Y-135578416D01*
X160165084Y-135455495D01*
X160221658Y-135318913D01*
X160231096Y-135271462D01*
X160250500Y-135173920D01*
X160250500Y-135026079D01*
X160221659Y-134881092D01*
X160221658Y-134881089D01*
X160221658Y-134881087D01*
X160187223Y-134797953D01*
X166199500Y-134797953D01*
X166199500Y-134955646D01*
X166230261Y-135110289D01*
X166230264Y-135110301D01*
X166290602Y-135255972D01*
X166290609Y-135255985D01*
X166378210Y-135387088D01*
X166378213Y-135387092D01*
X166489707Y-135498586D01*
X166489711Y-135498589D01*
X166620814Y-135586190D01*
X166620827Y-135586197D01*
X166705029Y-135621074D01*
X166766503Y-135646537D01*
X166917136Y-135676500D01*
X166921153Y-135677299D01*
X166921156Y-135677300D01*
X166921158Y-135677300D01*
X167078844Y-135677300D01*
X167078845Y-135677299D01*
X167233497Y-135646537D01*
X167379179Y-135586194D01*
X167461015Y-135531513D01*
X167497869Y-135506888D01*
X167497870Y-135506887D01*
X167510289Y-135498589D01*
X167621789Y-135387089D01*
X167709394Y-135255979D01*
X167769737Y-135110297D01*
X167800500Y-134955642D01*
X167800500Y-134797958D01*
X167800500Y-134797955D01*
X167800499Y-134797953D01*
X167769738Y-134643310D01*
X167769737Y-134643303D01*
X167748738Y-134592606D01*
X167709397Y-134497627D01*
X167709390Y-134497614D01*
X167621789Y-134366511D01*
X167621786Y-134366507D01*
X167510292Y-134255013D01*
X167510288Y-134255010D01*
X167379185Y-134167409D01*
X167379172Y-134167402D01*
X167233501Y-134107064D01*
X167233489Y-134107061D01*
X167078845Y-134076300D01*
X167078842Y-134076300D01*
X166921158Y-134076300D01*
X166921155Y-134076300D01*
X166766510Y-134107061D01*
X166766498Y-134107064D01*
X166620827Y-134167402D01*
X166620814Y-134167409D01*
X166489711Y-134255010D01*
X166489707Y-134255013D01*
X166378213Y-134366507D01*
X166378210Y-134366511D01*
X166290609Y-134497614D01*
X166290602Y-134497627D01*
X166230264Y-134643298D01*
X166230261Y-134643310D01*
X166199500Y-134797953D01*
X160187223Y-134797953D01*
X160165087Y-134744511D01*
X160165080Y-134744498D01*
X160082951Y-134621584D01*
X160082948Y-134621580D01*
X159978419Y-134517051D01*
X159978415Y-134517048D01*
X159855501Y-134434919D01*
X159855488Y-134434912D01*
X159718917Y-134378343D01*
X159718907Y-134378340D01*
X159573920Y-134349500D01*
X159573918Y-134349500D01*
X159427134Y-134349500D01*
X159360095Y-134329815D01*
X159314340Y-134277011D01*
X159304396Y-134207853D01*
X159333421Y-134144297D01*
X159339453Y-134137819D01*
X159361949Y-134115322D01*
X159361952Y-134115319D01*
X159444085Y-133992398D01*
X159500659Y-133855816D01*
X159516055Y-133778416D01*
X159529501Y-133710823D01*
X159529501Y-133562982D01*
X159500660Y-133417995D01*
X159500659Y-133417994D01*
X159500659Y-133417990D01*
X159482405Y-133373920D01*
X164999499Y-133373920D01*
X165028340Y-133518907D01*
X165028343Y-133518917D01*
X165084912Y-133655488D01*
X165084919Y-133655501D01*
X165167048Y-133778415D01*
X165167051Y-133778419D01*
X165271580Y-133882948D01*
X165271584Y-133882951D01*
X165394498Y-133965080D01*
X165394511Y-133965087D01*
X165531082Y-134021656D01*
X165531087Y-134021658D01*
X165531091Y-134021658D01*
X165531092Y-134021659D01*
X165676079Y-134050500D01*
X165676082Y-134050500D01*
X165823920Y-134050500D01*
X165921462Y-134031096D01*
X165968913Y-134021658D01*
X166105495Y-133965084D01*
X166228416Y-133882951D01*
X166332951Y-133778416D01*
X166415084Y-133655495D01*
X166471658Y-133518913D01*
X166491386Y-133419735D01*
X166500500Y-133373920D01*
X166500500Y-133226079D01*
X166471659Y-133081092D01*
X166471658Y-133081091D01*
X166471658Y-133081087D01*
X166450154Y-133029172D01*
X166415087Y-132944511D01*
X166415080Y-132944498D01*
X166332951Y-132821584D01*
X166332948Y-132821580D01*
X166228419Y-132717051D01*
X166228415Y-132717048D01*
X166155261Y-132668168D01*
X166105501Y-132634919D01*
X166105488Y-132634912D01*
X165968917Y-132578343D01*
X165968907Y-132578340D01*
X165932776Y-132571153D01*
X166799500Y-132571153D01*
X166799500Y-132728846D01*
X166830261Y-132883489D01*
X166830264Y-132883501D01*
X166890602Y-133029172D01*
X166890609Y-133029185D01*
X166978210Y-133160288D01*
X166978213Y-133160292D01*
X167089707Y-133271786D01*
X167089711Y-133271789D01*
X167220814Y-133359390D01*
X167220827Y-133359397D01*
X167362273Y-133417985D01*
X167366503Y-133419737D01*
X167521153Y-133450499D01*
X167521156Y-133450500D01*
X167521158Y-133450500D01*
X167678844Y-133450500D01*
X167678845Y-133450499D01*
X167833497Y-133419737D01*
X167979179Y-133359394D01*
X168110289Y-133271789D01*
X168221789Y-133160289D01*
X168309394Y-133029179D01*
X168369737Y-132883497D01*
X168400500Y-132728842D01*
X168400500Y-132571158D01*
X168400500Y-132571155D01*
X168400499Y-132571153D01*
X168380431Y-132470264D01*
X168369737Y-132416503D01*
X168369735Y-132416498D01*
X168309397Y-132270827D01*
X168309390Y-132270814D01*
X168221789Y-132139711D01*
X168221786Y-132139707D01*
X168110292Y-132028213D01*
X168110288Y-132028210D01*
X167979185Y-131940609D01*
X167979172Y-131940602D01*
X167833501Y-131880264D01*
X167833489Y-131880261D01*
X167678845Y-131849500D01*
X167678842Y-131849500D01*
X167521158Y-131849500D01*
X167521155Y-131849500D01*
X167366510Y-131880261D01*
X167366498Y-131880264D01*
X167220827Y-131940602D01*
X167220814Y-131940609D01*
X167089711Y-132028210D01*
X167089707Y-132028213D01*
X166978213Y-132139707D01*
X166978210Y-132139711D01*
X166890609Y-132270814D01*
X166890602Y-132270827D01*
X166830264Y-132416498D01*
X166830261Y-132416510D01*
X166799500Y-132571153D01*
X165932776Y-132571153D01*
X165823920Y-132549500D01*
X165823918Y-132549500D01*
X165676082Y-132549500D01*
X165676080Y-132549500D01*
X165531092Y-132578340D01*
X165531082Y-132578343D01*
X165394511Y-132634912D01*
X165394498Y-132634919D01*
X165271584Y-132717048D01*
X165271580Y-132717051D01*
X165167051Y-132821580D01*
X165167048Y-132821584D01*
X165084919Y-132944498D01*
X165084912Y-132944511D01*
X165028343Y-133081082D01*
X165028340Y-133081092D01*
X164999500Y-133226079D01*
X164999500Y-133226082D01*
X164999500Y-133373918D01*
X164999500Y-133373920D01*
X164999499Y-133373920D01*
X159482405Y-133373920D01*
X159474948Y-133355918D01*
X159444085Y-133281407D01*
X159361952Y-133158487D01*
X159361949Y-133158483D01*
X159257420Y-133053954D01*
X159257416Y-133053951D01*
X159134502Y-132971822D01*
X159134489Y-132971815D01*
X158997918Y-132915246D01*
X158997908Y-132915243D01*
X158852921Y-132886403D01*
X158852919Y-132886403D01*
X158705083Y-132886403D01*
X158705081Y-132886403D01*
X158560093Y-132915243D01*
X158560083Y-132915246D01*
X158423512Y-132971815D01*
X158423499Y-132971822D01*
X158300585Y-133053951D01*
X158300581Y-133053954D01*
X158196052Y-133158483D01*
X158196049Y-133158487D01*
X158113920Y-133281401D01*
X158113913Y-133281414D01*
X158057344Y-133417985D01*
X158057341Y-133417995D01*
X158028501Y-133562982D01*
X158028501Y-133562985D01*
X158028501Y-133710821D01*
X158028501Y-133710823D01*
X158028500Y-133710823D01*
X157676086Y-133710823D01*
X157725082Y-133637495D01*
X157781656Y-133500913D01*
X157806917Y-133373920D01*
X157810498Y-133355920D01*
X157810498Y-133208079D01*
X157781657Y-133063092D01*
X157781656Y-133063091D01*
X157781656Y-133063087D01*
X157777872Y-133053951D01*
X157725085Y-132926511D01*
X157725078Y-132926498D01*
X157642949Y-132803584D01*
X157642946Y-132803580D01*
X157538417Y-132699051D01*
X157538413Y-132699048D01*
X157415499Y-132616919D01*
X157415486Y-132616912D01*
X157278915Y-132560343D01*
X157278905Y-132560340D01*
X157133918Y-132531500D01*
X157133916Y-132531500D01*
X156986080Y-132531500D01*
X156986078Y-132531500D01*
X156841090Y-132560340D01*
X156841080Y-132560343D01*
X156704509Y-132616912D01*
X156704496Y-132616919D01*
X156581582Y-132699048D01*
X156581578Y-132699051D01*
X156477049Y-132803580D01*
X156477046Y-132803584D01*
X156394917Y-132926498D01*
X156394910Y-132926511D01*
X156338341Y-133063082D01*
X156338338Y-133063092D01*
X156309498Y-133208079D01*
X156309498Y-133208082D01*
X156309498Y-133355918D01*
X156309498Y-133355920D01*
X156309497Y-133355920D01*
X152383255Y-133355920D01*
X152311801Y-133298937D01*
X152220439Y-133226079D01*
X152152101Y-133171581D01*
X151881013Y-133001245D01*
X151881010Y-133001243D01*
X151592559Y-132862332D01*
X151290364Y-132756590D01*
X151290362Y-132756589D01*
X151038261Y-132699049D01*
X150978229Y-132685347D01*
X150978225Y-132685346D01*
X150978216Y-132685345D01*
X150660085Y-132649500D01*
X150660081Y-132649500D01*
X150339919Y-132649500D01*
X150339914Y-132649500D01*
X150021783Y-132685345D01*
X150021771Y-132685347D01*
X149709637Y-132756589D01*
X149709635Y-132756590D01*
X149407440Y-132862332D01*
X149118989Y-133001243D01*
X148847900Y-133171580D01*
X148597587Y-133371197D01*
X148371197Y-133597587D01*
X148171580Y-133847900D01*
X148001243Y-134118989D01*
X147986220Y-134150186D01*
X147939397Y-134202045D01*
X147871970Y-134220358D01*
X147805346Y-134199310D01*
X147760678Y-134145584D01*
X147750500Y-134096384D01*
X147750500Y-132068337D01*
X147770185Y-132001298D01*
X147822989Y-131955543D01*
X147892147Y-131945599D01*
X147955703Y-131974624D01*
X147977602Y-131999446D01*
X147998210Y-132030288D01*
X147998213Y-132030292D01*
X148109707Y-132141786D01*
X148109711Y-132141789D01*
X148240814Y-132229390D01*
X148240827Y-132229397D01*
X148386498Y-132289735D01*
X148386503Y-132289737D01*
X148541153Y-132320499D01*
X148541156Y-132320500D01*
X148541158Y-132320500D01*
X148698844Y-132320500D01*
X148698845Y-132320499D01*
X148853497Y-132289737D01*
X148999179Y-132229394D01*
X149130289Y-132141789D01*
X149241789Y-132030289D01*
X149329394Y-131899179D01*
X149389737Y-131753497D01*
X149420500Y-131598842D01*
X149420500Y-131441158D01*
X149420500Y-131441155D01*
X149420499Y-131441153D01*
X149406965Y-131373112D01*
X149389737Y-131286503D01*
X149389735Y-131286498D01*
X149329397Y-131140827D01*
X149329390Y-131140814D01*
X149241789Y-131009711D01*
X149241786Y-131009707D01*
X149147159Y-130915080D01*
X152362001Y-130915080D01*
X152362001Y-131072773D01*
X152392762Y-131227416D01*
X152392765Y-131227428D01*
X152453103Y-131373099D01*
X152453110Y-131373112D01*
X152540711Y-131504215D01*
X152540714Y-131504219D01*
X152652208Y-131615713D01*
X152652212Y-131615716D01*
X152783315Y-131703317D01*
X152783328Y-131703324D01*
X152928999Y-131763662D01*
X152929004Y-131763664D01*
X153083654Y-131794426D01*
X153083657Y-131794427D01*
X153083659Y-131794427D01*
X153241345Y-131794427D01*
X153241346Y-131794426D01*
X153395998Y-131763664D01*
X153419522Y-131753920D01*
X175399499Y-131753920D01*
X175428340Y-131898907D01*
X175428343Y-131898917D01*
X175484912Y-132035488D01*
X175484919Y-132035501D01*
X175567048Y-132158415D01*
X175567051Y-132158419D01*
X175671580Y-132262948D01*
X175671584Y-132262951D01*
X175794498Y-132345080D01*
X175794511Y-132345087D01*
X175931082Y-132401656D01*
X175931087Y-132401658D01*
X175931091Y-132401658D01*
X175931092Y-132401659D01*
X176076079Y-132430500D01*
X176076082Y-132430500D01*
X176223920Y-132430500D01*
X176321462Y-132411096D01*
X176368913Y-132401658D01*
X176505495Y-132345084D01*
X176628416Y-132262951D01*
X176732951Y-132158416D01*
X176815084Y-132035495D01*
X176871658Y-131898913D01*
X176892442Y-131794426D01*
X176900500Y-131753920D01*
X176900500Y-131606079D01*
X176871659Y-131461092D01*
X176871658Y-131461091D01*
X176871658Y-131461087D01*
X176835218Y-131373112D01*
X176815087Y-131324511D01*
X176815080Y-131324498D01*
X176732951Y-131201584D01*
X176732948Y-131201580D01*
X176628419Y-131097051D01*
X176628415Y-131097048D01*
X176505501Y-131014919D01*
X176505488Y-131014912D01*
X176368917Y-130958343D01*
X176368907Y-130958340D01*
X176223920Y-130929500D01*
X176223918Y-130929500D01*
X176076082Y-130929500D01*
X176076080Y-130929500D01*
X175931092Y-130958340D01*
X175931082Y-130958343D01*
X175794511Y-131014912D01*
X175794498Y-131014919D01*
X175671584Y-131097048D01*
X175671580Y-131097051D01*
X175567051Y-131201580D01*
X175567048Y-131201584D01*
X175484919Y-131324498D01*
X175484912Y-131324511D01*
X175428343Y-131461082D01*
X175428340Y-131461092D01*
X175399500Y-131606079D01*
X175399500Y-131606082D01*
X175399500Y-131753918D01*
X175399500Y-131753920D01*
X175399499Y-131753920D01*
X153419522Y-131753920D01*
X153541680Y-131703321D01*
X153672790Y-131615716D01*
X153689664Y-131598842D01*
X153776198Y-131512309D01*
X153784287Y-131504219D01*
X153784290Y-131504216D01*
X153871895Y-131373106D01*
X153932238Y-131227424D01*
X153963001Y-131072769D01*
X153963001Y-130915085D01*
X153963001Y-130915082D01*
X153963000Y-130915080D01*
X153959645Y-130898213D01*
X153932238Y-130760430D01*
X153918945Y-130728338D01*
X153871898Y-130614754D01*
X153871891Y-130614741D01*
X153837217Y-130562848D01*
X156613186Y-130562848D01*
X156642027Y-130707835D01*
X156642030Y-130707845D01*
X156698599Y-130844416D01*
X156698606Y-130844429D01*
X156780735Y-130967343D01*
X156780738Y-130967347D01*
X156885267Y-131071876D01*
X156885271Y-131071879D01*
X157008185Y-131154008D01*
X157008198Y-131154015D01*
X157123041Y-131201584D01*
X157144774Y-131210586D01*
X157144778Y-131210586D01*
X157144779Y-131210587D01*
X157289766Y-131239428D01*
X157289769Y-131239428D01*
X157437607Y-131239428D01*
X157535149Y-131220024D01*
X157582600Y-131210586D01*
X157719182Y-131154012D01*
X157842103Y-131071879D01*
X157946638Y-130967344D01*
X158028771Y-130844423D01*
X158085345Y-130707841D01*
X158101725Y-130625495D01*
X158114187Y-130562848D01*
X158114187Y-130415007D01*
X158085346Y-130270020D01*
X158085345Y-130270019D01*
X158085345Y-130270015D01*
X158054720Y-130196079D01*
X158028774Y-130133439D01*
X158028767Y-130133426D01*
X157946638Y-130010512D01*
X157946635Y-130010508D01*
X157842106Y-129905979D01*
X157842102Y-129905976D01*
X157719188Y-129823847D01*
X157719179Y-129823842D01*
X157607223Y-129777469D01*
X157552820Y-129733628D01*
X157530755Y-129667334D01*
X157548034Y-129599635D01*
X157599171Y-129552024D01*
X157630479Y-129541292D01*
X157678913Y-129531658D01*
X157815495Y-129475084D01*
X157938416Y-129392951D01*
X158042951Y-129288416D01*
X158125084Y-129165495D01*
X158181658Y-129028913D01*
X158200554Y-128933920D01*
X159089499Y-128933920D01*
X159118340Y-129078907D01*
X159118343Y-129078917D01*
X159174912Y-129215488D01*
X159174919Y-129215501D01*
X159257048Y-129338415D01*
X159257051Y-129338419D01*
X159361580Y-129442948D01*
X159361584Y-129442951D01*
X159484498Y-129525080D01*
X159484511Y-129525087D01*
X159581590Y-129565298D01*
X159621087Y-129581658D01*
X159621091Y-129581658D01*
X159621092Y-129581659D01*
X159766079Y-129610500D01*
X159766082Y-129610500D01*
X159913920Y-129610500D01*
X160011462Y-129591096D01*
X160058913Y-129581658D01*
X160195495Y-129525084D01*
X160318416Y-129442951D01*
X160422951Y-129338416D01*
X160505084Y-129215495D01*
X160561658Y-129078913D01*
X160590500Y-128933918D01*
X160590500Y-128786082D01*
X160590500Y-128786079D01*
X160561659Y-128641092D01*
X160561658Y-128641091D01*
X160561658Y-128641087D01*
X160541366Y-128592098D01*
X160505087Y-128504511D01*
X160505080Y-128504498D01*
X160422951Y-128381584D01*
X160422948Y-128381580D01*
X160318419Y-128277051D01*
X160318415Y-128277048D01*
X160195501Y-128194919D01*
X160195488Y-128194912D01*
X160058917Y-128138343D01*
X160058907Y-128138340D01*
X159913920Y-128109500D01*
X159913918Y-128109500D01*
X159766082Y-128109500D01*
X159766080Y-128109500D01*
X159621092Y-128138340D01*
X159621082Y-128138343D01*
X159484511Y-128194912D01*
X159484498Y-128194919D01*
X159361584Y-128277048D01*
X159361580Y-128277051D01*
X159257051Y-128381580D01*
X159257048Y-128381584D01*
X159174919Y-128504498D01*
X159174912Y-128504511D01*
X159118343Y-128641082D01*
X159118340Y-128641092D01*
X159089500Y-128786079D01*
X159089500Y-128786082D01*
X159089500Y-128933918D01*
X159089500Y-128933920D01*
X159089499Y-128933920D01*
X158200554Y-128933920D01*
X158210500Y-128883918D01*
X158210500Y-128736082D01*
X158210500Y-128736079D01*
X158181659Y-128591092D01*
X158181658Y-128591091D01*
X158181658Y-128591087D01*
X158174097Y-128572832D01*
X158125087Y-128454511D01*
X158125080Y-128454498D01*
X158042951Y-128331584D01*
X158042948Y-128331580D01*
X157986273Y-128274905D01*
X157986267Y-128274900D01*
X157938416Y-128227049D01*
X157880311Y-128188224D01*
X157880303Y-128188218D01*
X157815501Y-128144919D01*
X157815488Y-128144912D01*
X157678917Y-128088343D01*
X157678907Y-128088340D01*
X157533920Y-128059500D01*
X157533918Y-128059500D01*
X157386082Y-128059500D01*
X157386080Y-128059500D01*
X157241092Y-128088340D01*
X157241082Y-128088343D01*
X157104511Y-128144912D01*
X157104498Y-128144919D01*
X156981584Y-128227048D01*
X156981580Y-128227051D01*
X156877051Y-128331580D01*
X156877048Y-128331584D01*
X156794919Y-128454498D01*
X156794912Y-128454511D01*
X156738343Y-128591082D01*
X156738340Y-128591092D01*
X156709500Y-128736079D01*
X156709500Y-128736082D01*
X156709500Y-128883918D01*
X156709500Y-128883920D01*
X156709499Y-128883920D01*
X156738340Y-129028907D01*
X156738343Y-129028917D01*
X156794912Y-129165488D01*
X156794919Y-129165501D01*
X156877048Y-129288415D01*
X156877051Y-129288419D01*
X156981580Y-129392948D01*
X156981584Y-129392951D01*
X157104498Y-129475080D01*
X157104511Y-129475087D01*
X157216462Y-129521458D01*
X157270866Y-129565298D01*
X157292931Y-129631593D01*
X157275652Y-129699292D01*
X157224515Y-129746903D01*
X157193203Y-129757636D01*
X157144778Y-129767268D01*
X157144769Y-129767271D01*
X157008198Y-129823840D01*
X157008185Y-129823847D01*
X156885271Y-129905976D01*
X156885267Y-129905979D01*
X156780738Y-130010508D01*
X156780735Y-130010512D01*
X156698606Y-130133426D01*
X156698599Y-130133439D01*
X156642030Y-130270010D01*
X156642027Y-130270020D01*
X156613187Y-130415007D01*
X156613187Y-130415010D01*
X156613187Y-130562846D01*
X156613187Y-130562848D01*
X156613186Y-130562848D01*
X153837217Y-130562848D01*
X153784290Y-130483638D01*
X153784287Y-130483634D01*
X153672793Y-130372140D01*
X153672789Y-130372137D01*
X153541686Y-130284536D01*
X153541673Y-130284529D01*
X153396002Y-130224191D01*
X153395990Y-130224188D01*
X153241346Y-130193427D01*
X153241343Y-130193427D01*
X153083659Y-130193427D01*
X153083656Y-130193427D01*
X152929011Y-130224188D01*
X152928999Y-130224191D01*
X152783328Y-130284529D01*
X152783315Y-130284536D01*
X152652212Y-130372137D01*
X152652208Y-130372140D01*
X152540714Y-130483634D01*
X152540711Y-130483638D01*
X152453110Y-130614741D01*
X152453103Y-130614754D01*
X152392765Y-130760425D01*
X152392762Y-130760437D01*
X152362001Y-130915080D01*
X149147159Y-130915080D01*
X149130292Y-130898213D01*
X149130288Y-130898210D01*
X148999185Y-130810609D01*
X148999172Y-130810602D01*
X148853501Y-130750264D01*
X148853489Y-130750261D01*
X148698845Y-130719500D01*
X148698842Y-130719500D01*
X148541158Y-130719500D01*
X148541155Y-130719500D01*
X148386510Y-130750261D01*
X148386498Y-130750264D01*
X148240827Y-130810602D01*
X148240814Y-130810609D01*
X148109711Y-130898210D01*
X148109707Y-130898213D01*
X147998213Y-131009707D01*
X147998208Y-131009713D01*
X147977601Y-131040554D01*
X147923988Y-131085359D01*
X147854663Y-131094065D01*
X147791636Y-131063909D01*
X147754918Y-131004466D01*
X147750500Y-130971662D01*
X147750500Y-129406058D01*
X147770185Y-129339019D01*
X147822989Y-129293264D01*
X147892147Y-129283320D01*
X147955703Y-129312345D01*
X147977602Y-129337167D01*
X148063210Y-129465288D01*
X148063213Y-129465292D01*
X148174707Y-129576786D01*
X148174711Y-129576789D01*
X148305814Y-129664390D01*
X148305827Y-129664397D01*
X148451498Y-129724735D01*
X148451503Y-129724737D01*
X148606153Y-129755499D01*
X148606156Y-129755500D01*
X148606158Y-129755500D01*
X148763844Y-129755500D01*
X148763845Y-129755499D01*
X148918497Y-129724737D01*
X149064179Y-129664394D01*
X149195289Y-129576789D01*
X149306789Y-129465289D01*
X149394394Y-129334179D01*
X149454737Y-129188497D01*
X149485500Y-129033842D01*
X149485500Y-128876158D01*
X149485500Y-128876155D01*
X149485499Y-128876153D01*
X149470013Y-128798302D01*
X149454737Y-128721503D01*
X149416953Y-128630284D01*
X149394397Y-128575827D01*
X149394390Y-128575814D01*
X149306789Y-128444711D01*
X149306786Y-128444707D01*
X149195292Y-128333213D01*
X149195288Y-128333210D01*
X149064185Y-128245609D01*
X149064172Y-128245602D01*
X148918501Y-128185264D01*
X148918489Y-128185261D01*
X148763845Y-128154500D01*
X148763842Y-128154500D01*
X148606158Y-128154500D01*
X148606155Y-128154500D01*
X148451510Y-128185261D01*
X148451498Y-128185264D01*
X148305827Y-128245602D01*
X148305814Y-128245609D01*
X148174711Y-128333210D01*
X148174707Y-128333213D01*
X148063213Y-128444707D01*
X148063210Y-128444711D01*
X147977602Y-128572832D01*
X147923989Y-128617637D01*
X147854664Y-128626344D01*
X147791637Y-128596189D01*
X147754918Y-128536746D01*
X147750500Y-128503941D01*
X147750500Y-127535212D01*
X157813253Y-127535212D01*
X157842094Y-127680199D01*
X157842097Y-127680209D01*
X157898666Y-127816780D01*
X157898673Y-127816793D01*
X157980802Y-127939707D01*
X157980805Y-127939711D01*
X158037479Y-127996385D01*
X158037484Y-127996389D01*
X158085338Y-128044243D01*
X158143445Y-128083068D01*
X158143449Y-128083072D01*
X158208252Y-128126372D01*
X158208265Y-128126379D01*
X158344836Y-128182948D01*
X158344841Y-128182950D01*
X158344845Y-128182950D01*
X158344846Y-128182951D01*
X158489833Y-128211792D01*
X158489836Y-128211792D01*
X158637674Y-128211792D01*
X158735216Y-128192388D01*
X158782667Y-128182950D01*
X158919249Y-128126376D01*
X159042170Y-128044243D01*
X159146705Y-127939708D01*
X159228838Y-127816787D01*
X159285412Y-127680205D01*
X159294850Y-127632754D01*
X159309538Y-127558920D01*
X161032999Y-127558920D01*
X161061840Y-127703907D01*
X161061843Y-127703917D01*
X161118412Y-127840488D01*
X161118419Y-127840501D01*
X161200548Y-127963415D01*
X161200551Y-127963419D01*
X161305080Y-128067948D01*
X161305084Y-128067951D01*
X161427998Y-128150080D01*
X161428011Y-128150087D01*
X161536239Y-128194916D01*
X161564587Y-128206658D01*
X161564591Y-128206658D01*
X161564592Y-128206659D01*
X161709579Y-128235500D01*
X161709582Y-128235500D01*
X161857420Y-128235500D01*
X161976603Y-128211792D01*
X162002413Y-128206658D01*
X162138995Y-128150084D01*
X162261916Y-128067951D01*
X162366451Y-127963416D01*
X162448584Y-127840495D01*
X162505158Y-127703913D01*
X162514596Y-127656462D01*
X162534000Y-127558920D01*
X162534000Y-127521153D01*
X168274500Y-127521153D01*
X168274500Y-127678846D01*
X168305261Y-127833489D01*
X168305264Y-127833501D01*
X168365602Y-127979172D01*
X168365609Y-127979185D01*
X168453210Y-128110288D01*
X168453213Y-128110292D01*
X168564707Y-128221786D01*
X168564711Y-128221789D01*
X168695814Y-128309390D01*
X168695827Y-128309397D01*
X168841498Y-128369735D01*
X168841503Y-128369737D01*
X168996153Y-128400499D01*
X168996156Y-128400500D01*
X168996158Y-128400500D01*
X169153844Y-128400500D01*
X169153845Y-128400499D01*
X169308497Y-128369737D01*
X169454179Y-128309394D01*
X169585289Y-128221789D01*
X169696789Y-128110289D01*
X169784394Y-127979179D01*
X169844737Y-127833497D01*
X169875500Y-127678842D01*
X169875500Y-127521158D01*
X169875500Y-127521155D01*
X169875499Y-127521153D01*
X169844737Y-127366503D01*
X169813703Y-127291580D01*
X169801395Y-127261866D01*
X176934787Y-127261866D01*
X176963628Y-127406853D01*
X176963631Y-127406863D01*
X177020200Y-127543434D01*
X177020207Y-127543447D01*
X177102336Y-127666361D01*
X177102339Y-127666365D01*
X177206868Y-127770894D01*
X177206872Y-127770897D01*
X177329786Y-127853026D01*
X177329799Y-127853033D01*
X177466370Y-127909602D01*
X177466375Y-127909604D01*
X177466379Y-127909604D01*
X177466380Y-127909605D01*
X177611367Y-127938446D01*
X177611370Y-127938446D01*
X177759208Y-127938446D01*
X177856750Y-127919042D01*
X177904201Y-127909604D01*
X178040783Y-127853030D01*
X178163704Y-127770897D01*
X178268239Y-127666362D01*
X178350372Y-127543441D01*
X178406946Y-127406859D01*
X178431248Y-127284690D01*
X178435788Y-127261866D01*
X178435788Y-127114025D01*
X178406947Y-126969038D01*
X178406946Y-126969037D01*
X178406946Y-126969033D01*
X178379201Y-126902051D01*
X178350375Y-126832457D01*
X178350368Y-126832444D01*
X178268239Y-126709530D01*
X178268236Y-126709526D01*
X178163707Y-126604997D01*
X178163703Y-126604994D01*
X178040789Y-126522865D01*
X178040776Y-126522858D01*
X177904205Y-126466289D01*
X177904195Y-126466286D01*
X177759208Y-126437446D01*
X177759206Y-126437446D01*
X177611370Y-126437446D01*
X177611368Y-126437446D01*
X177466380Y-126466286D01*
X177466370Y-126466289D01*
X177329799Y-126522858D01*
X177329786Y-126522865D01*
X177206872Y-126604994D01*
X177206868Y-126604997D01*
X177102339Y-126709526D01*
X177102336Y-126709530D01*
X177020207Y-126832444D01*
X177020200Y-126832457D01*
X176963631Y-126969028D01*
X176963628Y-126969038D01*
X176934788Y-127114025D01*
X176934788Y-127114028D01*
X176934788Y-127261864D01*
X176934788Y-127261866D01*
X176934787Y-127261866D01*
X169801395Y-127261866D01*
X169784397Y-127220827D01*
X169784387Y-127220809D01*
X169755000Y-127176828D01*
X169754999Y-127176827D01*
X169696789Y-127089711D01*
X169696786Y-127089707D01*
X169585292Y-126978213D01*
X169585288Y-126978210D01*
X169454185Y-126890609D01*
X169454172Y-126890602D01*
X169308501Y-126830264D01*
X169308489Y-126830261D01*
X169153845Y-126799500D01*
X169153842Y-126799500D01*
X168996158Y-126799500D01*
X168996155Y-126799500D01*
X168841510Y-126830261D01*
X168841498Y-126830264D01*
X168695827Y-126890602D01*
X168695814Y-126890609D01*
X168564711Y-126978210D01*
X168564707Y-126978213D01*
X168453213Y-127089707D01*
X168453210Y-127089711D01*
X168365609Y-127220814D01*
X168365602Y-127220827D01*
X168305264Y-127366498D01*
X168305261Y-127366510D01*
X168274500Y-127521153D01*
X162534000Y-127521153D01*
X162534000Y-127411079D01*
X162505159Y-127266092D01*
X162505158Y-127266091D01*
X162505158Y-127266087D01*
X162495039Y-127241658D01*
X162448587Y-127129511D01*
X162448580Y-127129498D01*
X162366451Y-127006584D01*
X162366448Y-127006580D01*
X162261919Y-126902051D01*
X162261915Y-126902048D01*
X162139001Y-126819919D01*
X162138988Y-126819912D01*
X162002417Y-126763343D01*
X162002407Y-126763340D01*
X161857420Y-126734500D01*
X161857418Y-126734500D01*
X161709582Y-126734500D01*
X161709580Y-126734500D01*
X161564592Y-126763340D01*
X161564582Y-126763343D01*
X161428011Y-126819912D01*
X161427998Y-126819919D01*
X161305084Y-126902048D01*
X161305080Y-126902051D01*
X161200551Y-127006580D01*
X161200548Y-127006584D01*
X161118419Y-127129498D01*
X161118412Y-127129511D01*
X161061843Y-127266082D01*
X161061840Y-127266092D01*
X161033000Y-127411079D01*
X161033000Y-127411082D01*
X161033000Y-127558918D01*
X161033000Y-127558920D01*
X161032999Y-127558920D01*
X159309538Y-127558920D01*
X159314254Y-127535212D01*
X159314254Y-127387371D01*
X159285413Y-127242384D01*
X159285412Y-127242383D01*
X159285412Y-127242379D01*
X159276485Y-127220827D01*
X159228841Y-127105803D01*
X159228834Y-127105790D01*
X159146705Y-126982876D01*
X159146702Y-126982872D01*
X159042173Y-126878343D01*
X159042169Y-126878340D01*
X158919255Y-126796211D01*
X158919242Y-126796204D01*
X158782671Y-126739635D01*
X158782661Y-126739632D01*
X158637674Y-126710792D01*
X158637672Y-126710792D01*
X158489836Y-126710792D01*
X158489834Y-126710792D01*
X158344846Y-126739632D01*
X158344836Y-126739635D01*
X158208265Y-126796204D01*
X158208252Y-126796211D01*
X158085338Y-126878340D01*
X158085334Y-126878343D01*
X157980805Y-126982872D01*
X157980802Y-126982876D01*
X157898673Y-127105790D01*
X157898666Y-127105803D01*
X157842097Y-127242374D01*
X157842094Y-127242384D01*
X157813254Y-127387371D01*
X157813254Y-127387374D01*
X157813254Y-127535210D01*
X157813254Y-127535212D01*
X157813253Y-127535212D01*
X147750500Y-127535212D01*
X147750500Y-126978338D01*
X147770185Y-126911299D01*
X147822989Y-126865544D01*
X147892147Y-126855600D01*
X147955703Y-126884625D01*
X147977602Y-126909448D01*
X148037045Y-126998411D01*
X148037051Y-126998419D01*
X148141580Y-127102948D01*
X148141584Y-127102951D01*
X148264498Y-127185080D01*
X148264511Y-127185087D01*
X148385496Y-127235200D01*
X148401087Y-127241658D01*
X148401091Y-127241658D01*
X148401092Y-127241659D01*
X148546079Y-127270500D01*
X148546082Y-127270500D01*
X148693920Y-127270500D01*
X148791462Y-127251096D01*
X148838913Y-127241658D01*
X148970751Y-127187049D01*
X148975488Y-127185087D01*
X148975488Y-127185086D01*
X148975495Y-127185084D01*
X149098416Y-127102951D01*
X149202951Y-126998416D01*
X149285084Y-126875495D01*
X149341658Y-126738913D01*
X149354990Y-126671890D01*
X149370500Y-126593920D01*
X149370500Y-126446079D01*
X149341659Y-126301092D01*
X149341658Y-126301091D01*
X149341658Y-126301087D01*
X149319039Y-126246479D01*
X149285087Y-126164511D01*
X149285080Y-126164498D01*
X149202951Y-126041584D01*
X149202948Y-126041580D01*
X149175513Y-126014145D01*
X153324805Y-126014145D01*
X153353646Y-126159130D01*
X153353649Y-126159142D01*
X153410218Y-126295713D01*
X153410225Y-126295726D01*
X153492354Y-126418640D01*
X153492357Y-126418644D01*
X153596886Y-126523173D01*
X153596890Y-126523176D01*
X153719804Y-126605305D01*
X153719817Y-126605312D01*
X153856388Y-126661881D01*
X153856393Y-126661883D01*
X153856397Y-126661883D01*
X153856398Y-126661884D01*
X154001385Y-126690725D01*
X154001388Y-126690725D01*
X154149226Y-126690725D01*
X154246768Y-126671321D01*
X154294219Y-126661883D01*
X154430801Y-126605309D01*
X154553722Y-126523176D01*
X154658257Y-126418641D01*
X154740390Y-126295720D01*
X154796964Y-126159138D01*
X154798840Y-126149711D01*
X154825806Y-126014145D01*
X154825806Y-125866304D01*
X154797483Y-125723920D01*
X168959499Y-125723920D01*
X168988340Y-125868907D01*
X168988343Y-125868917D01*
X169044912Y-126005488D01*
X169044919Y-126005501D01*
X169127048Y-126128415D01*
X169127051Y-126128419D01*
X169231580Y-126232948D01*
X169231584Y-126232951D01*
X169354498Y-126315080D01*
X169354511Y-126315087D01*
X169491082Y-126371656D01*
X169491087Y-126371658D01*
X169491091Y-126371658D01*
X169491092Y-126371659D01*
X169636079Y-126400500D01*
X169636082Y-126400500D01*
X169783920Y-126400500D01*
X169881462Y-126381096D01*
X169928913Y-126371658D01*
X170065495Y-126315084D01*
X170188416Y-126232951D01*
X170292951Y-126128416D01*
X170375084Y-126005495D01*
X170385894Y-125979397D01*
X170410939Y-125918934D01*
X170454780Y-125864530D01*
X170521074Y-125842465D01*
X170588773Y-125859744D01*
X170636384Y-125910881D01*
X170649500Y-125966386D01*
X170649500Y-126041346D01*
X170680261Y-126195989D01*
X170680264Y-126196001D01*
X170740602Y-126341672D01*
X170740609Y-126341685D01*
X170828210Y-126472788D01*
X170828213Y-126472792D01*
X170939707Y-126584286D01*
X170939711Y-126584289D01*
X171070814Y-126671890D01*
X171070827Y-126671897D01*
X171196899Y-126724117D01*
X171216503Y-126732237D01*
X171371153Y-126762999D01*
X171371156Y-126763000D01*
X171371158Y-126763000D01*
X171528844Y-126763000D01*
X171528845Y-126762999D01*
X171683497Y-126732237D01*
X171829179Y-126671894D01*
X171960289Y-126584289D01*
X172071789Y-126472789D01*
X172159394Y-126341679D01*
X172216887Y-126202877D01*
X173050175Y-126202877D01*
X173155436Y-126246478D01*
X173155440Y-126246479D01*
X173300326Y-126275299D01*
X173300329Y-126275300D01*
X173448071Y-126275300D01*
X173448073Y-126275299D01*
X173592960Y-126246479D01*
X173592975Y-126246475D01*
X173698224Y-126202878D01*
X173698224Y-126202877D01*
X174150175Y-126202877D01*
X174255436Y-126246478D01*
X174255440Y-126246479D01*
X174400326Y-126275299D01*
X174400329Y-126275300D01*
X174548071Y-126275300D01*
X174548073Y-126275299D01*
X174692960Y-126246479D01*
X174692975Y-126246475D01*
X174798224Y-126202878D01*
X174798224Y-126202877D01*
X174474201Y-125878854D01*
X174474200Y-125878854D01*
X174150175Y-126202877D01*
X173698224Y-126202877D01*
X173374201Y-125878854D01*
X173374200Y-125878854D01*
X173050175Y-126202877D01*
X172216887Y-126202877D01*
X172219737Y-126195997D01*
X172244700Y-126070500D01*
X172250500Y-126041344D01*
X172250500Y-125884500D01*
X172252468Y-125877796D01*
X172251246Y-125870917D01*
X172262185Y-125844705D01*
X172270185Y-125817461D01*
X172275464Y-125812886D01*
X172278156Y-125806437D01*
X172301530Y-125790299D01*
X172322989Y-125771706D01*
X172331287Y-125769756D01*
X172335654Y-125766742D01*
X172362452Y-125762435D01*
X172370404Y-125760568D01*
X172372461Y-125760500D01*
X172528842Y-125760500D01*
X172560005Y-125754301D01*
X172570144Y-125753966D01*
X172594538Y-125760261D01*
X172619635Y-125762506D01*
X172627794Y-125768843D01*
X172637797Y-125771425D01*
X172654916Y-125789910D01*
X172674814Y-125805366D01*
X172683269Y-125820526D01*
X172685271Y-125822688D01*
X172685643Y-125824783D01*
X172688801Y-125830445D01*
X172696621Y-125849324D01*
X173050483Y-125495463D01*
X173224200Y-125495463D01*
X173224200Y-125555137D01*
X173247036Y-125610268D01*
X173289232Y-125652464D01*
X173344363Y-125675300D01*
X173404037Y-125675300D01*
X173459168Y-125652464D01*
X173501364Y-125610268D01*
X173524200Y-125555137D01*
X173524200Y-125525300D01*
X173727754Y-125525300D01*
X173924200Y-125721746D01*
X174120646Y-125525300D01*
X174090809Y-125495463D01*
X174324200Y-125495463D01*
X174324200Y-125555137D01*
X174347036Y-125610268D01*
X174389232Y-125652464D01*
X174444363Y-125675300D01*
X174504037Y-125675300D01*
X174559168Y-125652464D01*
X174601364Y-125610268D01*
X174624200Y-125555137D01*
X174624200Y-125525299D01*
X174827754Y-125525299D01*
X174827754Y-125525301D01*
X175151777Y-125849324D01*
X175151778Y-125849324D01*
X175195375Y-125744075D01*
X175195379Y-125744060D01*
X175224199Y-125599173D01*
X175224200Y-125599171D01*
X175224200Y-125451428D01*
X175224199Y-125451426D01*
X175195379Y-125306540D01*
X175195378Y-125306536D01*
X175171512Y-125248920D01*
X176249499Y-125248920D01*
X176278340Y-125393907D01*
X176278343Y-125393917D01*
X176334912Y-125530488D01*
X176334919Y-125530501D01*
X176417048Y-125653415D01*
X176417051Y-125653419D01*
X176521580Y-125757948D01*
X176521584Y-125757951D01*
X176644498Y-125840080D01*
X176644511Y-125840087D01*
X176738104Y-125878854D01*
X176781087Y-125896658D01*
X176781091Y-125896658D01*
X176781092Y-125896659D01*
X176926079Y-125925500D01*
X176926082Y-125925500D01*
X177073920Y-125925500D01*
X177171462Y-125906096D01*
X177218913Y-125896658D01*
X177355495Y-125840084D01*
X177478416Y-125757951D01*
X177582951Y-125653416D01*
X177665084Y-125530495D01*
X177667236Y-125525301D01*
X177690022Y-125470289D01*
X177721658Y-125393913D01*
X177741432Y-125294505D01*
X177750500Y-125248920D01*
X177750500Y-125101079D01*
X177721659Y-124956092D01*
X177721658Y-124956091D01*
X177721658Y-124956087D01*
X177696802Y-124896079D01*
X177665087Y-124819511D01*
X177665080Y-124819498D01*
X177582951Y-124696584D01*
X177582948Y-124696580D01*
X177478419Y-124592051D01*
X177478415Y-124592048D01*
X177355501Y-124509919D01*
X177355488Y-124509912D01*
X177218917Y-124453343D01*
X177218907Y-124453340D01*
X177073920Y-124424500D01*
X177073918Y-124424500D01*
X176926082Y-124424500D01*
X176926080Y-124424500D01*
X176781092Y-124453340D01*
X176781082Y-124453343D01*
X176644511Y-124509912D01*
X176644498Y-124509919D01*
X176521584Y-124592048D01*
X176521580Y-124592051D01*
X176417051Y-124696580D01*
X176417048Y-124696584D01*
X176334919Y-124819498D01*
X176334912Y-124819511D01*
X176278343Y-124956082D01*
X176278340Y-124956092D01*
X176249500Y-125101079D01*
X176249500Y-125101082D01*
X176249500Y-125248918D01*
X176249500Y-125248920D01*
X176249499Y-125248920D01*
X175171512Y-125248920D01*
X175151777Y-125201275D01*
X174827754Y-125525299D01*
X174624200Y-125525299D01*
X174624200Y-125495463D01*
X174601364Y-125440332D01*
X174559168Y-125398136D01*
X174504037Y-125375300D01*
X174444363Y-125375300D01*
X174389232Y-125398136D01*
X174347036Y-125440332D01*
X174324200Y-125495463D01*
X174090809Y-125495463D01*
X173924200Y-125328854D01*
X173727754Y-125525300D01*
X173524200Y-125525300D01*
X173524200Y-125495463D01*
X173501364Y-125440332D01*
X173459168Y-125398136D01*
X173404037Y-125375300D01*
X173344363Y-125375300D01*
X173289232Y-125398136D01*
X173247036Y-125440332D01*
X173224200Y-125495463D01*
X173050483Y-125495463D01*
X173159689Y-125386257D01*
X173698224Y-124847721D01*
X173698222Y-124847720D01*
X174150174Y-124847720D01*
X174150174Y-124847721D01*
X174474200Y-125171746D01*
X174474201Y-125171746D01*
X174798224Y-124847721D01*
X174692967Y-124804122D01*
X174692959Y-124804120D01*
X174548072Y-124775300D01*
X174400328Y-124775300D01*
X174255440Y-124804120D01*
X174255428Y-124804123D01*
X174150174Y-124847720D01*
X173698222Y-124847720D01*
X173592967Y-124804122D01*
X173592959Y-124804120D01*
X173448072Y-124775300D01*
X173322803Y-124775300D01*
X173303621Y-124769667D01*
X173283644Y-124768954D01*
X173270784Y-124760025D01*
X173255764Y-124755615D01*
X173242674Y-124740508D01*
X173226251Y-124729106D01*
X173212041Y-124705156D01*
X173210009Y-124702811D01*
X173208255Y-124698784D01*
X173164820Y-124593922D01*
X173157352Y-124524455D01*
X173188627Y-124461976D01*
X173231925Y-124431913D01*
X173318243Y-124396160D01*
X173441164Y-124314027D01*
X173545699Y-124209492D01*
X173627832Y-124086571D01*
X173636748Y-124065045D01*
X173680586Y-124010643D01*
X173746879Y-123988576D01*
X173814579Y-124005853D01*
X173838990Y-124024816D01*
X173871520Y-124057346D01*
X173871524Y-124057349D01*
X174002627Y-124144950D01*
X174002640Y-124144957D01*
X174148311Y-124205295D01*
X174148316Y-124205297D01*
X174302966Y-124236059D01*
X174302969Y-124236060D01*
X174302971Y-124236060D01*
X174460657Y-124236060D01*
X174460658Y-124236059D01*
X174615310Y-124205297D01*
X174760992Y-124144954D01*
X174892102Y-124057349D01*
X175003602Y-123945849D01*
X175091207Y-123814739D01*
X175093204Y-123809919D01*
X175116639Y-123753340D01*
X175151550Y-123669057D01*
X175182313Y-123514402D01*
X175182313Y-123356718D01*
X175182313Y-123356715D01*
X175182312Y-123356713D01*
X175161614Y-123252660D01*
X175151550Y-123202063D01*
X175151548Y-123202058D01*
X175091210Y-123056387D01*
X175091203Y-123056374D01*
X175003602Y-122925271D01*
X175003599Y-122925267D01*
X174892105Y-122813773D01*
X174892101Y-122813770D01*
X174760998Y-122726169D01*
X174760985Y-122726162D01*
X174615314Y-122665824D01*
X174615302Y-122665821D01*
X174460658Y-122635060D01*
X174460655Y-122635060D01*
X174302971Y-122635060D01*
X174302968Y-122635060D01*
X174148323Y-122665821D01*
X174148311Y-122665824D01*
X174002640Y-122726162D01*
X174002627Y-122726169D01*
X173871524Y-122813770D01*
X173871520Y-122813773D01*
X173760026Y-122925267D01*
X173760023Y-122925271D01*
X173672422Y-123056374D01*
X173672414Y-123056389D01*
X173648831Y-123113323D01*
X173604990Y-123167726D01*
X173538695Y-123189790D01*
X173470996Y-123172510D01*
X173446590Y-123153550D01*
X173441167Y-123148127D01*
X173441163Y-123148124D01*
X173318249Y-123065995D01*
X173318236Y-123065988D01*
X173181665Y-123009419D01*
X173181655Y-123009416D01*
X173036668Y-122980576D01*
X173036666Y-122980576D01*
X172888830Y-122980576D01*
X172888828Y-122980576D01*
X172743840Y-123009416D01*
X172743830Y-123009419D01*
X172607259Y-123065988D01*
X172607246Y-123065995D01*
X172484332Y-123148124D01*
X172484328Y-123148127D01*
X172379799Y-123252656D01*
X172379796Y-123252660D01*
X172309413Y-123357996D01*
X172255801Y-123402801D01*
X172230504Y-123410722D01*
X172166987Y-123423356D01*
X172166981Y-123423358D01*
X172030408Y-123479928D01*
X172030395Y-123479935D01*
X171907481Y-123562064D01*
X171907477Y-123562067D01*
X171802948Y-123666596D01*
X171802945Y-123666600D01*
X171720816Y-123789514D01*
X171720809Y-123789527D01*
X171664240Y-123926098D01*
X171664237Y-123926108D01*
X171635397Y-124071095D01*
X171635397Y-124071098D01*
X171635397Y-124218934D01*
X171635397Y-124218936D01*
X171635396Y-124218936D01*
X171664237Y-124363923D01*
X171664240Y-124363933D01*
X171720810Y-124500506D01*
X171723062Y-124504719D01*
X171737301Y-124573122D01*
X171728262Y-124610620D01*
X171680264Y-124726498D01*
X171680261Y-124726510D01*
X171649500Y-124881153D01*
X171649500Y-125038000D01*
X171629815Y-125105039D01*
X171577011Y-125150794D01*
X171525500Y-125162000D01*
X171371155Y-125162000D01*
X171216510Y-125192761D01*
X171216498Y-125192764D01*
X171070827Y-125253102D01*
X171070814Y-125253109D01*
X170939711Y-125340710D01*
X170939707Y-125340713D01*
X170828213Y-125452207D01*
X170828210Y-125452211D01*
X170740609Y-125583314D01*
X170740602Y-125583327D01*
X170699061Y-125683619D01*
X170655220Y-125738023D01*
X170588926Y-125760088D01*
X170521227Y-125742809D01*
X170473616Y-125691672D01*
X170460500Y-125636167D01*
X170460500Y-125576079D01*
X170431659Y-125431092D01*
X170431658Y-125431091D01*
X170431658Y-125431087D01*
X170419069Y-125400695D01*
X170375087Y-125294511D01*
X170375080Y-125294498D01*
X170292951Y-125171584D01*
X170292948Y-125171580D01*
X170188419Y-125067051D01*
X170188415Y-125067048D01*
X170065501Y-124984919D01*
X170065488Y-124984912D01*
X169928917Y-124928343D01*
X169928907Y-124928340D01*
X169783920Y-124899500D01*
X169783918Y-124899500D01*
X169636082Y-124899500D01*
X169636080Y-124899500D01*
X169491092Y-124928340D01*
X169491082Y-124928343D01*
X169354511Y-124984912D01*
X169354498Y-124984919D01*
X169231584Y-125067048D01*
X169231580Y-125067051D01*
X169127051Y-125171580D01*
X169127048Y-125171584D01*
X169044919Y-125294498D01*
X169044912Y-125294511D01*
X168988343Y-125431082D01*
X168988340Y-125431092D01*
X168959500Y-125576079D01*
X168959500Y-125576082D01*
X168959500Y-125723918D01*
X168959500Y-125723920D01*
X168959499Y-125723920D01*
X154797483Y-125723920D01*
X154796965Y-125721317D01*
X154796964Y-125721316D01*
X154796964Y-125721312D01*
X154750534Y-125609220D01*
X154740393Y-125584735D01*
X154740386Y-125584723D01*
X154658257Y-125461809D01*
X154658254Y-125461805D01*
X154553725Y-125357276D01*
X154553721Y-125357273D01*
X154430807Y-125275144D01*
X154430794Y-125275137D01*
X154294223Y-125218568D01*
X154294213Y-125218565D01*
X154149226Y-125189725D01*
X154149224Y-125189725D01*
X154001388Y-125189725D01*
X154001386Y-125189725D01*
X153856398Y-125218565D01*
X153856388Y-125218568D01*
X153719817Y-125275137D01*
X153719804Y-125275144D01*
X153596890Y-125357273D01*
X153596886Y-125357276D01*
X153492357Y-125461805D01*
X153492354Y-125461809D01*
X153410225Y-125584723D01*
X153410218Y-125584736D01*
X153353649Y-125721307D01*
X153353646Y-125721317D01*
X153324806Y-125866304D01*
X153324806Y-125866307D01*
X153324806Y-126014143D01*
X153324806Y-126014145D01*
X153324805Y-126014145D01*
X149175513Y-126014145D01*
X149098419Y-125937051D01*
X149098415Y-125937048D01*
X148975501Y-125854919D01*
X148975488Y-125854912D01*
X148838917Y-125798343D01*
X148838907Y-125798340D01*
X148693920Y-125769500D01*
X148693918Y-125769500D01*
X148546082Y-125769500D01*
X148546080Y-125769500D01*
X148401092Y-125798340D01*
X148401082Y-125798343D01*
X148264511Y-125854912D01*
X148264498Y-125854919D01*
X148141584Y-125937048D01*
X148141580Y-125937051D01*
X148037051Y-126041580D01*
X148037048Y-126041584D01*
X147977602Y-126130552D01*
X147923990Y-126175357D01*
X147854665Y-126184064D01*
X147791637Y-126153910D01*
X147754918Y-126094467D01*
X147750500Y-126061661D01*
X147750500Y-124173919D01*
X151489499Y-124173919D01*
X151518340Y-124318906D01*
X151518343Y-124318916D01*
X151574914Y-124455492D01*
X151574916Y-124455496D01*
X151607148Y-124503734D01*
X151628026Y-124570411D01*
X151618607Y-124620076D01*
X151564343Y-124751082D01*
X151564340Y-124751092D01*
X151535500Y-124896079D01*
X151535500Y-124896082D01*
X151535500Y-125043918D01*
X151535500Y-125043920D01*
X151535499Y-125043920D01*
X151564340Y-125188907D01*
X151564343Y-125188917D01*
X151620912Y-125325488D01*
X151620919Y-125325501D01*
X151703048Y-125448415D01*
X151703051Y-125448419D01*
X151807580Y-125552948D01*
X151807584Y-125552951D01*
X151930498Y-125635080D01*
X151930511Y-125635087D01*
X152027595Y-125675300D01*
X152067087Y-125691658D01*
X152067091Y-125691658D01*
X152067092Y-125691659D01*
X152212079Y-125720500D01*
X152212082Y-125720500D01*
X152359920Y-125720500D01*
X152457462Y-125701096D01*
X152504913Y-125691658D01*
X152610547Y-125647902D01*
X152641488Y-125635087D01*
X152641488Y-125635086D01*
X152641495Y-125635084D01*
X152764416Y-125552951D01*
X152868951Y-125448416D01*
X152951084Y-125325495D01*
X153007658Y-125188913D01*
X153021541Y-125119120D01*
X153036500Y-125043920D01*
X153036500Y-124896079D01*
X153007659Y-124751092D01*
X153007658Y-124751091D01*
X153007658Y-124751087D01*
X152988633Y-124705156D01*
X152951085Y-124614507D01*
X152918851Y-124566265D01*
X152897973Y-124499587D01*
X152907392Y-124449921D01*
X152961658Y-124318912D01*
X152976411Y-124244746D01*
X152990500Y-124173919D01*
X152990500Y-124093920D01*
X155000499Y-124093920D01*
X155029340Y-124238907D01*
X155029343Y-124238917D01*
X155085912Y-124375488D01*
X155085919Y-124375501D01*
X155168048Y-124498415D01*
X155168051Y-124498419D01*
X155272580Y-124602948D01*
X155272584Y-124602951D01*
X155395498Y-124685080D01*
X155395511Y-124685087D01*
X155532082Y-124741656D01*
X155532087Y-124741658D01*
X155532091Y-124741658D01*
X155532092Y-124741659D01*
X155677079Y-124770500D01*
X155677082Y-124770500D01*
X155824920Y-124770500D01*
X155922537Y-124751082D01*
X155969913Y-124741658D01*
X156075547Y-124697902D01*
X156106488Y-124685087D01*
X156106488Y-124685086D01*
X156106495Y-124685084D01*
X156229416Y-124602951D01*
X156283447Y-124548920D01*
X160136999Y-124548920D01*
X160165840Y-124693907D01*
X160165843Y-124693917D01*
X160222412Y-124830488D01*
X160222419Y-124830501D01*
X160304548Y-124953415D01*
X160304551Y-124953419D01*
X160409080Y-125057948D01*
X160409084Y-125057951D01*
X160531998Y-125140080D01*
X160532011Y-125140087D01*
X160668582Y-125196656D01*
X160668587Y-125196658D01*
X160668591Y-125196658D01*
X160668592Y-125196659D01*
X160813579Y-125225500D01*
X160813582Y-125225500D01*
X160961420Y-125225500D01*
X161083202Y-125201275D01*
X161106413Y-125196658D01*
X161242307Y-125140368D01*
X161311774Y-125132900D01*
X161358649Y-125151828D01*
X161479498Y-125232577D01*
X161479511Y-125232584D01*
X161582244Y-125275137D01*
X161616087Y-125289155D01*
X161616091Y-125289155D01*
X161616092Y-125289156D01*
X161761079Y-125317997D01*
X161761082Y-125317997D01*
X161908920Y-125317997D01*
X162027017Y-125294505D01*
X162053913Y-125289155D01*
X162190495Y-125232581D01*
X162313416Y-125150448D01*
X162417951Y-125045913D01*
X162500084Y-124922992D01*
X162556658Y-124786410D01*
X162568576Y-124726498D01*
X162585500Y-124641417D01*
X162585500Y-124493576D01*
X162556659Y-124348589D01*
X162556658Y-124348588D01*
X162556658Y-124348584D01*
X162556224Y-124347537D01*
X162500087Y-124212008D01*
X162500080Y-124211995D01*
X162417951Y-124089081D01*
X162417948Y-124089077D01*
X162313419Y-123984548D01*
X162313415Y-123984545D01*
X162190501Y-123902416D01*
X162190488Y-123902409D01*
X162053917Y-123845840D01*
X162053907Y-123845837D01*
X161908920Y-123816997D01*
X161908918Y-123816997D01*
X161761082Y-123816997D01*
X161761080Y-123816997D01*
X161616092Y-123845837D01*
X161616082Y-123845840D01*
X161480193Y-123902127D01*
X161410724Y-123909596D01*
X161363850Y-123890668D01*
X161243001Y-123809919D01*
X161242988Y-123809912D01*
X161106417Y-123753343D01*
X161106407Y-123753340D01*
X160961420Y-123724500D01*
X160961418Y-123724500D01*
X160813582Y-123724500D01*
X160813580Y-123724500D01*
X160668592Y-123753340D01*
X160668582Y-123753343D01*
X160532011Y-123809912D01*
X160531998Y-123809919D01*
X160409084Y-123892048D01*
X160409080Y-123892051D01*
X160304551Y-123996580D01*
X160304548Y-123996584D01*
X160222419Y-124119498D01*
X160222412Y-124119511D01*
X160165843Y-124256082D01*
X160165840Y-124256092D01*
X160137000Y-124401079D01*
X160137000Y-124401082D01*
X160137000Y-124548918D01*
X160137000Y-124548920D01*
X160136999Y-124548920D01*
X156283447Y-124548920D01*
X156333951Y-124498416D01*
X156416084Y-124375495D01*
X156472658Y-124238913D01*
X156486734Y-124168148D01*
X156501500Y-124093920D01*
X156501500Y-123946079D01*
X156472659Y-123801092D01*
X156472658Y-123801091D01*
X156472658Y-123801087D01*
X156452882Y-123753343D01*
X156416087Y-123664511D01*
X156416080Y-123664498D01*
X156333951Y-123541584D01*
X156333948Y-123541580D01*
X156229419Y-123437051D01*
X156229415Y-123437048D01*
X156106501Y-123354919D01*
X156106488Y-123354912D01*
X155969917Y-123298343D01*
X155969907Y-123298340D01*
X155824920Y-123269500D01*
X155824918Y-123269500D01*
X155677082Y-123269500D01*
X155677080Y-123269500D01*
X155532092Y-123298340D01*
X155532082Y-123298343D01*
X155395511Y-123354912D01*
X155395498Y-123354919D01*
X155272584Y-123437048D01*
X155272580Y-123437051D01*
X155168051Y-123541580D01*
X155168048Y-123541584D01*
X155085919Y-123664498D01*
X155085912Y-123664511D01*
X155029343Y-123801082D01*
X155029340Y-123801092D01*
X155000500Y-123946079D01*
X155000500Y-123946082D01*
X155000500Y-124093918D01*
X155000500Y-124093920D01*
X155000499Y-124093920D01*
X152990500Y-124093920D01*
X152990500Y-124026078D01*
X152990499Y-124026076D01*
X152978188Y-123964181D01*
X152961659Y-123881091D01*
X152961658Y-123881090D01*
X152961658Y-123881086D01*
X152947058Y-123845839D01*
X152905087Y-123744510D01*
X152905080Y-123744497D01*
X152822951Y-123621583D01*
X152822948Y-123621579D01*
X152718419Y-123517050D01*
X152718415Y-123517047D01*
X152595501Y-123434918D01*
X152595488Y-123434911D01*
X152458917Y-123378342D01*
X152458907Y-123378339D01*
X152313920Y-123349499D01*
X152313918Y-123349499D01*
X152166082Y-123349499D01*
X152166080Y-123349499D01*
X152021092Y-123378339D01*
X152021082Y-123378342D01*
X151884511Y-123434911D01*
X151884498Y-123434918D01*
X151761584Y-123517047D01*
X151761580Y-123517050D01*
X151657051Y-123621579D01*
X151657048Y-123621583D01*
X151574919Y-123744497D01*
X151574912Y-123744510D01*
X151518343Y-123881081D01*
X151518340Y-123881091D01*
X151489500Y-124026078D01*
X151489500Y-124026081D01*
X151489500Y-124173917D01*
X151489500Y-124173919D01*
X151489499Y-124173919D01*
X147750500Y-124173919D01*
X147750500Y-120803394D01*
X154289943Y-120803394D01*
X154318784Y-120948381D01*
X154318787Y-120948391D01*
X154375356Y-121084962D01*
X154375363Y-121084975D01*
X154457492Y-121207889D01*
X154457495Y-121207893D01*
X154562024Y-121312422D01*
X154562028Y-121312425D01*
X154684942Y-121394554D01*
X154684955Y-121394561D01*
X154818214Y-121449758D01*
X154821531Y-121451132D01*
X154821535Y-121451132D01*
X154821536Y-121451133D01*
X154966523Y-121479974D01*
X154966526Y-121479974D01*
X155114364Y-121479974D01*
X155233557Y-121456264D01*
X155259357Y-121451132D01*
X155262686Y-121449753D01*
X159287000Y-121449753D01*
X159287000Y-121607446D01*
X159317761Y-121762089D01*
X159317764Y-121762101D01*
X159378102Y-121907772D01*
X159378109Y-121907785D01*
X159465710Y-122038888D01*
X159465713Y-122038892D01*
X159577207Y-122150386D01*
X159577211Y-122150389D01*
X159708314Y-122237990D01*
X159708327Y-122237997D01*
X159820218Y-122284343D01*
X159854003Y-122298337D01*
X160008653Y-122329099D01*
X160008656Y-122329100D01*
X160008658Y-122329100D01*
X160166344Y-122329100D01*
X160166345Y-122329099D01*
X160320997Y-122298337D01*
X160466679Y-122237994D01*
X160597789Y-122150389D01*
X160709289Y-122038889D01*
X160796894Y-121907779D01*
X160857237Y-121762097D01*
X160888000Y-121607442D01*
X160888000Y-121449758D01*
X160888000Y-121449755D01*
X160887999Y-121449753D01*
X160882736Y-121423293D01*
X160857237Y-121295103D01*
X160836311Y-121244582D01*
X160796897Y-121149427D01*
X160796890Y-121149414D01*
X160709289Y-121018311D01*
X160709286Y-121018307D01*
X160597792Y-120906813D01*
X160597788Y-120906810D01*
X160466685Y-120819209D01*
X160466672Y-120819202D01*
X160321001Y-120758864D01*
X160320989Y-120758861D01*
X160166345Y-120728100D01*
X160166342Y-120728100D01*
X160008658Y-120728100D01*
X160008655Y-120728100D01*
X159854010Y-120758861D01*
X159853998Y-120758864D01*
X159708327Y-120819202D01*
X159708314Y-120819209D01*
X159577211Y-120906810D01*
X159577207Y-120906813D01*
X159465713Y-121018307D01*
X159465710Y-121018311D01*
X159378109Y-121149414D01*
X159378102Y-121149427D01*
X159317764Y-121295098D01*
X159317761Y-121295110D01*
X159287000Y-121449753D01*
X155262686Y-121449753D01*
X155374250Y-121403542D01*
X155395932Y-121394561D01*
X155395932Y-121394560D01*
X155395939Y-121394558D01*
X155429520Y-121372120D01*
X155476748Y-121340564D01*
X155498662Y-121325920D01*
X155518860Y-121312425D01*
X155623395Y-121207890D01*
X155705528Y-121084969D01*
X155711173Y-121071342D01*
X155723119Y-121042500D01*
X155762102Y-120948387D01*
X155787798Y-120819209D01*
X155790944Y-120803394D01*
X155790944Y-120655553D01*
X155762103Y-120510566D01*
X155762102Y-120510565D01*
X155762102Y-120510561D01*
X155758449Y-120501742D01*
X155705531Y-120373985D01*
X155705524Y-120373972D01*
X155623395Y-120251058D01*
X155623392Y-120251054D01*
X155518863Y-120146525D01*
X155518859Y-120146522D01*
X155395945Y-120064393D01*
X155395932Y-120064386D01*
X155259361Y-120007817D01*
X155259351Y-120007814D01*
X155114364Y-119978974D01*
X155114362Y-119978974D01*
X154966526Y-119978974D01*
X154966524Y-119978974D01*
X154821536Y-120007814D01*
X154821526Y-120007817D01*
X154684955Y-120064386D01*
X154684942Y-120064393D01*
X154562028Y-120146522D01*
X154562024Y-120146525D01*
X154457495Y-120251054D01*
X154457492Y-120251058D01*
X154375363Y-120373972D01*
X154375356Y-120373985D01*
X154318787Y-120510556D01*
X154318784Y-120510566D01*
X154289944Y-120655553D01*
X154289944Y-120655556D01*
X154289944Y-120803392D01*
X154289944Y-120803394D01*
X154289943Y-120803394D01*
X147750500Y-120803394D01*
X147750500Y-119911120D01*
X161403099Y-119911120D01*
X161431940Y-120056107D01*
X161431943Y-120056117D01*
X161488512Y-120192688D01*
X161488519Y-120192701D01*
X161570647Y-120315614D01*
X161570648Y-120315615D01*
X161570649Y-120315616D01*
X161599776Y-120344743D01*
X161633261Y-120406064D01*
X161628277Y-120475756D01*
X161599778Y-120520103D01*
X161581677Y-120538204D01*
X161581673Y-120538209D01*
X161499544Y-120661123D01*
X161499537Y-120661136D01*
X161442968Y-120797707D01*
X161442965Y-120797717D01*
X161414125Y-120942704D01*
X161414125Y-120942707D01*
X161414125Y-121090543D01*
X161414125Y-121090545D01*
X161414124Y-121090545D01*
X161442965Y-121235532D01*
X161442968Y-121235542D01*
X161499537Y-121372113D01*
X161499544Y-121372126D01*
X161581673Y-121495040D01*
X161581676Y-121495044D01*
X161686205Y-121599573D01*
X161686209Y-121599576D01*
X161809123Y-121681705D01*
X161809136Y-121681712D01*
X161945707Y-121738281D01*
X161945712Y-121738283D01*
X161945716Y-121738283D01*
X161945717Y-121738284D01*
X162090704Y-121767125D01*
X162244635Y-121767125D01*
X162244635Y-121768829D01*
X162305282Y-121780323D01*
X162355998Y-121828382D01*
X162370420Y-121866522D01*
X162399340Y-122011907D01*
X162399343Y-122011917D01*
X162455912Y-122148488D01*
X162455919Y-122148501D01*
X162538048Y-122271415D01*
X162538051Y-122271419D01*
X162642580Y-122375948D01*
X162642584Y-122375951D01*
X162765498Y-122458080D01*
X162765511Y-122458087D01*
X162895501Y-122511930D01*
X162902087Y-122514658D01*
X162902091Y-122514658D01*
X162902092Y-122514659D01*
X163047079Y-122543500D01*
X163047082Y-122543500D01*
X163194920Y-122543500D01*
X163292462Y-122524096D01*
X163339913Y-122514658D01*
X163476495Y-122458084D01*
X163504912Y-122439096D01*
X163571587Y-122418218D01*
X163638968Y-122436701D01*
X163685659Y-122488679D01*
X163696837Y-122557649D01*
X163688365Y-122589649D01*
X163667142Y-122640887D01*
X163667140Y-122640892D01*
X163638300Y-122785879D01*
X163638300Y-122785882D01*
X163638300Y-122933718D01*
X163638300Y-122933720D01*
X163638299Y-122933720D01*
X163667140Y-123078707D01*
X163667143Y-123078717D01*
X163723712Y-123215288D01*
X163723719Y-123215301D01*
X163805848Y-123338215D01*
X163805851Y-123338219D01*
X163910380Y-123442748D01*
X163910384Y-123442751D01*
X164033298Y-123524880D01*
X164033311Y-123524887D01*
X164169882Y-123581456D01*
X164169887Y-123581458D01*
X164169891Y-123581458D01*
X164169892Y-123581459D01*
X164314879Y-123610300D01*
X164402239Y-123610300D01*
X164469278Y-123629985D01*
X164515033Y-123682789D01*
X164525642Y-123746449D01*
X164525125Y-123751700D01*
X164525125Y-123899543D01*
X164553965Y-124044532D01*
X164553968Y-124044542D01*
X164610537Y-124181113D01*
X164610544Y-124181126D01*
X164692673Y-124304040D01*
X164692676Y-124304044D01*
X164797205Y-124408573D01*
X164797209Y-124408576D01*
X164920123Y-124490705D01*
X164920136Y-124490712D01*
X165001600Y-124524455D01*
X165056712Y-124547283D01*
X165056716Y-124547283D01*
X165056717Y-124547284D01*
X165201704Y-124576125D01*
X165201707Y-124576125D01*
X165349545Y-124576125D01*
X165486318Y-124548918D01*
X165494538Y-124547283D01*
X165600172Y-124503527D01*
X165631113Y-124490712D01*
X165631113Y-124490711D01*
X165631120Y-124490709D01*
X165754041Y-124408576D01*
X165858576Y-124304041D01*
X165940709Y-124181120D01*
X165997283Y-124044538D01*
X166026125Y-123899543D01*
X166026125Y-123751707D01*
X166026125Y-123751704D01*
X166022944Y-123735715D01*
X167049499Y-123735715D01*
X167078340Y-123880702D01*
X167078343Y-123880712D01*
X167134912Y-124017283D01*
X167134919Y-124017296D01*
X167217048Y-124140210D01*
X167217051Y-124140214D01*
X167321580Y-124244743D01*
X167321584Y-124244746D01*
X167444498Y-124326875D01*
X167444511Y-124326882D01*
X167561889Y-124375501D01*
X167581087Y-124383453D01*
X167581091Y-124383453D01*
X167581092Y-124383454D01*
X167726079Y-124412295D01*
X167726082Y-124412295D01*
X167873920Y-124412295D01*
X167971462Y-124392891D01*
X168018913Y-124383453D01*
X168155495Y-124326879D01*
X168278416Y-124244746D01*
X168382951Y-124140211D01*
X168465084Y-124017290D01*
X168521658Y-123880708D01*
X168537497Y-123801082D01*
X168550500Y-123735715D01*
X168550500Y-123587874D01*
X168521659Y-123442887D01*
X168521658Y-123442886D01*
X168521658Y-123442882D01*
X168521604Y-123442751D01*
X168465087Y-123306306D01*
X168465080Y-123306293D01*
X168382951Y-123183379D01*
X168382948Y-123183375D01*
X168278419Y-123078846D01*
X168278415Y-123078843D01*
X168155501Y-122996714D01*
X168155488Y-122996707D01*
X168021816Y-122941339D01*
X169848698Y-122941339D01*
X169877539Y-123086326D01*
X169877542Y-123086336D01*
X169934111Y-123222907D01*
X169934118Y-123222920D01*
X170016247Y-123345834D01*
X170016250Y-123345838D01*
X170120779Y-123450367D01*
X170120783Y-123450370D01*
X170243697Y-123532499D01*
X170243710Y-123532506D01*
X170361887Y-123581456D01*
X170380286Y-123589077D01*
X170380290Y-123589077D01*
X170380291Y-123589078D01*
X170525278Y-123617919D01*
X170525281Y-123617919D01*
X170673119Y-123617919D01*
X170770661Y-123598515D01*
X170818112Y-123589077D01*
X170923746Y-123545321D01*
X170954687Y-123532506D01*
X170954687Y-123532505D01*
X170954694Y-123532503D01*
X171077615Y-123450370D01*
X171182150Y-123345835D01*
X171264283Y-123222914D01*
X171320857Y-123086332D01*
X171320857Y-123086330D01*
X171321558Y-123084639D01*
X171365398Y-123030235D01*
X171431692Y-123008170D01*
X171460306Y-123010473D01*
X171501904Y-123018748D01*
X171515190Y-123021391D01*
X171515191Y-123021391D01*
X171663029Y-123021391D01*
X171760571Y-123001987D01*
X171808022Y-122992549D01*
X171944604Y-122935975D01*
X172067525Y-122853842D01*
X172172060Y-122749307D01*
X172254193Y-122626386D01*
X172310767Y-122489804D01*
X172320205Y-122442353D01*
X172339609Y-122344811D01*
X172339609Y-122196970D01*
X172310768Y-122051983D01*
X172310767Y-122051982D01*
X172310767Y-122051978D01*
X172310479Y-122051282D01*
X172254196Y-121915402D01*
X172254189Y-121915389D01*
X172172060Y-121792475D01*
X172172057Y-121792471D01*
X172067528Y-121687942D01*
X172067524Y-121687939D01*
X171944610Y-121605810D01*
X171944597Y-121605803D01*
X171808026Y-121549234D01*
X171808016Y-121549231D01*
X171663029Y-121520391D01*
X171663027Y-121520391D01*
X171515191Y-121520391D01*
X171465886Y-121530198D01*
X171434380Y-121527377D01*
X171402775Y-121526313D01*
X171399843Y-121524286D01*
X171396295Y-121523969D01*
X171371319Y-121504567D01*
X171345302Y-121486581D01*
X171342842Y-121482445D01*
X171341118Y-121481106D01*
X171327231Y-121456264D01*
X171301650Y-121394505D01*
X171300330Y-121392530D01*
X171269342Y-121346153D01*
X172974500Y-121346153D01*
X172974500Y-121503846D01*
X173005261Y-121658489D01*
X173005264Y-121658501D01*
X173065602Y-121804172D01*
X173065609Y-121804185D01*
X173153210Y-121935288D01*
X173153213Y-121935292D01*
X173264707Y-122046786D01*
X173264711Y-122046789D01*
X173395814Y-122134390D01*
X173395827Y-122134397D01*
X173541464Y-122194721D01*
X173541503Y-122194737D01*
X173696153Y-122225499D01*
X173696156Y-122225500D01*
X173696158Y-122225500D01*
X173853844Y-122225500D01*
X173853845Y-122225499D01*
X173986462Y-122199120D01*
X179463699Y-122199120D01*
X179492540Y-122344107D01*
X179492543Y-122344117D01*
X179549112Y-122480688D01*
X179549119Y-122480701D01*
X179631248Y-122603615D01*
X179631251Y-122603619D01*
X179735780Y-122708148D01*
X179735784Y-122708151D01*
X179801554Y-122752098D01*
X179846359Y-122805711D01*
X179855066Y-122875036D01*
X179824911Y-122938063D01*
X179801554Y-122958302D01*
X179735784Y-123002248D01*
X179735780Y-123002251D01*
X179631251Y-123106780D01*
X179631248Y-123106784D01*
X179549119Y-123229698D01*
X179549112Y-123229711D01*
X179492543Y-123366282D01*
X179492540Y-123366292D01*
X179463700Y-123511279D01*
X179463700Y-123511282D01*
X179463700Y-123659118D01*
X179463700Y-123659120D01*
X179463699Y-123659120D01*
X179492540Y-123804107D01*
X179492543Y-123804117D01*
X179549112Y-123940688D01*
X179549119Y-123940701D01*
X179631248Y-124063615D01*
X179631251Y-124063619D01*
X179735780Y-124168148D01*
X179735784Y-124168151D01*
X179801554Y-124212098D01*
X179846359Y-124265711D01*
X179855066Y-124335036D01*
X179824911Y-124398063D01*
X179801554Y-124418302D01*
X179735784Y-124462248D01*
X179735780Y-124462251D01*
X179631251Y-124566780D01*
X179631248Y-124566784D01*
X179549119Y-124689698D01*
X179549112Y-124689711D01*
X179492543Y-124826282D01*
X179492540Y-124826292D01*
X179463700Y-124971279D01*
X179463700Y-124971282D01*
X179463700Y-125119118D01*
X179463700Y-125119120D01*
X179463699Y-125119120D01*
X179492540Y-125264107D01*
X179492543Y-125264117D01*
X179549112Y-125400688D01*
X179549119Y-125400701D01*
X179631248Y-125523615D01*
X179631251Y-125523619D01*
X179735780Y-125628148D01*
X179735784Y-125628151D01*
X179801554Y-125672098D01*
X179846359Y-125725711D01*
X179855066Y-125795036D01*
X179824911Y-125858063D01*
X179801554Y-125878302D01*
X179735784Y-125922248D01*
X179735780Y-125922251D01*
X179631251Y-126026780D01*
X179631248Y-126026784D01*
X179549119Y-126149698D01*
X179549112Y-126149711D01*
X179492543Y-126286282D01*
X179492540Y-126286292D01*
X179463700Y-126431279D01*
X179463700Y-126431282D01*
X179463700Y-126579118D01*
X179463700Y-126579120D01*
X179463699Y-126579120D01*
X179492540Y-126724107D01*
X179492543Y-126724117D01*
X179549112Y-126860688D01*
X179549119Y-126860701D01*
X179631248Y-126983615D01*
X179631251Y-126983619D01*
X179735780Y-127088148D01*
X179735784Y-127088151D01*
X179801554Y-127132098D01*
X179846359Y-127185711D01*
X179855066Y-127255036D01*
X179824911Y-127318063D01*
X179801554Y-127338302D01*
X179735784Y-127382248D01*
X179735780Y-127382251D01*
X179631251Y-127486780D01*
X179631248Y-127486784D01*
X179549119Y-127609698D01*
X179549112Y-127609711D01*
X179492543Y-127746282D01*
X179492540Y-127746292D01*
X179463700Y-127891279D01*
X179463700Y-127891282D01*
X179463700Y-128039118D01*
X179463700Y-128039120D01*
X179463699Y-128039120D01*
X179492540Y-128184107D01*
X179492543Y-128184117D01*
X179549112Y-128320688D01*
X179549119Y-128320701D01*
X179631248Y-128443615D01*
X179631251Y-128443619D01*
X179735780Y-128548148D01*
X179735784Y-128548151D01*
X179801554Y-128592098D01*
X179846359Y-128645711D01*
X179855066Y-128715036D01*
X179824911Y-128778063D01*
X179801554Y-128798302D01*
X179735784Y-128842248D01*
X179735780Y-128842251D01*
X179631251Y-128946780D01*
X179631248Y-128946784D01*
X179549119Y-129069698D01*
X179549112Y-129069711D01*
X179492543Y-129206282D01*
X179492540Y-129206292D01*
X179463700Y-129351279D01*
X179463700Y-129351282D01*
X179463700Y-129499118D01*
X179463700Y-129499120D01*
X179463699Y-129499120D01*
X179492540Y-129644107D01*
X179492543Y-129644117D01*
X179549112Y-129780688D01*
X179549119Y-129780701D01*
X179631248Y-129903615D01*
X179631251Y-129903619D01*
X179735780Y-130008148D01*
X179735784Y-130008151D01*
X179801554Y-130052098D01*
X179846359Y-130105711D01*
X179855066Y-130175036D01*
X179824911Y-130238063D01*
X179801554Y-130258302D01*
X179735784Y-130302248D01*
X179735780Y-130302251D01*
X179631251Y-130406780D01*
X179631248Y-130406784D01*
X179549119Y-130529698D01*
X179549112Y-130529711D01*
X179492543Y-130666282D01*
X179492540Y-130666292D01*
X179463700Y-130811279D01*
X179463700Y-130811282D01*
X179463700Y-130959118D01*
X179463700Y-130959120D01*
X179463699Y-130959120D01*
X179492540Y-131104107D01*
X179492543Y-131104117D01*
X179549112Y-131240688D01*
X179549119Y-131240701D01*
X179631248Y-131363615D01*
X179631251Y-131363619D01*
X179735780Y-131468148D01*
X179735784Y-131468151D01*
X179858698Y-131550280D01*
X179858711Y-131550287D01*
X179995282Y-131606856D01*
X179995287Y-131606858D01*
X179995291Y-131606858D01*
X179995292Y-131606859D01*
X180140279Y-131635700D01*
X180140282Y-131635700D01*
X180288120Y-131635700D01*
X180388597Y-131615713D01*
X180433113Y-131606858D01*
X180569695Y-131550284D01*
X180692616Y-131468151D01*
X180797151Y-131363616D01*
X180879284Y-131240695D01*
X180935858Y-131104113D01*
X180964700Y-130959118D01*
X180964700Y-130811282D01*
X180964700Y-130811279D01*
X180935859Y-130666292D01*
X180935858Y-130666291D01*
X180935858Y-130666287D01*
X180918964Y-130625501D01*
X180879287Y-130529711D01*
X180879280Y-130529698D01*
X180797151Y-130406784D01*
X180797148Y-130406780D01*
X180692616Y-130302248D01*
X180626845Y-130258302D01*
X180582040Y-130204690D01*
X180573333Y-130135365D01*
X180603487Y-130072338D01*
X180626845Y-130052098D01*
X180692616Y-130008151D01*
X180797148Y-129903619D01*
X180797151Y-129903616D01*
X180879284Y-129780695D01*
X180935858Y-129644113D01*
X180949250Y-129576789D01*
X180964700Y-129499120D01*
X180964700Y-129351279D01*
X180935859Y-129206292D01*
X180935858Y-129206291D01*
X180935858Y-129206287D01*
X180918964Y-129165501D01*
X180879287Y-129069711D01*
X180879280Y-129069698D01*
X180797151Y-128946784D01*
X180797148Y-128946780D01*
X180692616Y-128842248D01*
X180626845Y-128798302D01*
X180582040Y-128744690D01*
X180573333Y-128675365D01*
X180603487Y-128612338D01*
X180626845Y-128592098D01*
X180692616Y-128548151D01*
X180797148Y-128443619D01*
X180797151Y-128443616D01*
X180879284Y-128320695D01*
X180935858Y-128184113D01*
X180954908Y-128088343D01*
X180964700Y-128039120D01*
X180964700Y-127891279D01*
X180935859Y-127746292D01*
X180935858Y-127746291D01*
X180935858Y-127746287D01*
X180918304Y-127703907D01*
X180879287Y-127609711D01*
X180879280Y-127609698D01*
X180797151Y-127486784D01*
X180797148Y-127486780D01*
X180692616Y-127382248D01*
X180626845Y-127338302D01*
X180582040Y-127284690D01*
X180573333Y-127215365D01*
X180603487Y-127152338D01*
X180626845Y-127132098D01*
X180692616Y-127088151D01*
X180797148Y-126983619D01*
X180797151Y-126983616D01*
X180879284Y-126860695D01*
X180935858Y-126724113D01*
X180959491Y-126605305D01*
X180964700Y-126579120D01*
X180964700Y-126431279D01*
X180935859Y-126286292D01*
X180935858Y-126286291D01*
X180935858Y-126286287D01*
X180919369Y-126246478D01*
X180879287Y-126149711D01*
X180879280Y-126149698D01*
X180797151Y-126026784D01*
X180797148Y-126026780D01*
X180692616Y-125922248D01*
X180626845Y-125878302D01*
X180582040Y-125824690D01*
X180573333Y-125755365D01*
X180603487Y-125692338D01*
X180626845Y-125672098D01*
X180692616Y-125628151D01*
X180797148Y-125523619D01*
X180797151Y-125523616D01*
X180879284Y-125400695D01*
X180935858Y-125264113D01*
X180950818Y-125188907D01*
X180964700Y-125119120D01*
X180964700Y-124971279D01*
X180935859Y-124826292D01*
X180935858Y-124826291D01*
X180935858Y-124826287D01*
X180931338Y-124815375D01*
X180879287Y-124689711D01*
X180879280Y-124689698D01*
X180797151Y-124566784D01*
X180797148Y-124566780D01*
X180692616Y-124462248D01*
X180626845Y-124418302D01*
X180582040Y-124364690D01*
X180573333Y-124295365D01*
X180603487Y-124232338D01*
X180626845Y-124212098D01*
X180692616Y-124168151D01*
X180797148Y-124063619D01*
X180797151Y-124063616D01*
X180879284Y-123940695D01*
X180935858Y-123804113D01*
X180949464Y-123735713D01*
X180964700Y-123659120D01*
X180964700Y-123511279D01*
X180935859Y-123366292D01*
X180935858Y-123366291D01*
X180935858Y-123366287D01*
X180932424Y-123357996D01*
X180879287Y-123229711D01*
X180879280Y-123229698D01*
X180797151Y-123106784D01*
X180797148Y-123106780D01*
X180692616Y-123002248D01*
X180626845Y-122958302D01*
X180582040Y-122904690D01*
X180573333Y-122835365D01*
X180603487Y-122772338D01*
X180626845Y-122752098D01*
X180692616Y-122708151D01*
X180797148Y-122603619D01*
X180797151Y-122603616D01*
X180879284Y-122480695D01*
X180935858Y-122344113D01*
X180950319Y-122271415D01*
X180964700Y-122199120D01*
X180964700Y-122051279D01*
X180935859Y-121906292D01*
X180935858Y-121906291D01*
X180935858Y-121906287D01*
X180888714Y-121792471D01*
X180879287Y-121769711D01*
X180879280Y-121769698D01*
X180797151Y-121646784D01*
X180797148Y-121646780D01*
X180692619Y-121542251D01*
X180692615Y-121542248D01*
X180569701Y-121460119D01*
X180569688Y-121460112D01*
X180433117Y-121403543D01*
X180433107Y-121403540D01*
X180288120Y-121374700D01*
X180288118Y-121374700D01*
X180140282Y-121374700D01*
X180140280Y-121374700D01*
X179995292Y-121403540D01*
X179995282Y-121403543D01*
X179858711Y-121460112D01*
X179858698Y-121460119D01*
X179735784Y-121542248D01*
X179735780Y-121542251D01*
X179631251Y-121646780D01*
X179631248Y-121646784D01*
X179549119Y-121769698D01*
X179549112Y-121769711D01*
X179492543Y-121906282D01*
X179492540Y-121906292D01*
X179463700Y-122051279D01*
X179463700Y-122051282D01*
X179463700Y-122199118D01*
X179463700Y-122199120D01*
X179463699Y-122199120D01*
X173986462Y-122199120D01*
X174008497Y-122194737D01*
X174145128Y-122138143D01*
X174154172Y-122134397D01*
X174154172Y-122134396D01*
X174154179Y-122134394D01*
X174285289Y-122046789D01*
X174320171Y-122011907D01*
X174374570Y-121957509D01*
X174396786Y-121935292D01*
X174396789Y-121935289D01*
X174484394Y-121804179D01*
X174544737Y-121658497D01*
X174575500Y-121503842D01*
X174575500Y-121346158D01*
X174575500Y-121346155D01*
X174575499Y-121346153D01*
X174555295Y-121244582D01*
X174544737Y-121191503D01*
X174534608Y-121167049D01*
X174484397Y-121045827D01*
X174484390Y-121045814D01*
X174396789Y-120914711D01*
X174396786Y-120914707D01*
X174285292Y-120803213D01*
X174285288Y-120803210D01*
X174154185Y-120715609D01*
X174154172Y-120715602D01*
X174008504Y-120655265D01*
X174008486Y-120655260D01*
X173853845Y-120624500D01*
X173853842Y-120624500D01*
X173696158Y-120624500D01*
X173696155Y-120624500D01*
X173541510Y-120655261D01*
X173541498Y-120655264D01*
X173395827Y-120715602D01*
X173395814Y-120715609D01*
X173264711Y-120803210D01*
X173264707Y-120803213D01*
X173153213Y-120914707D01*
X173153210Y-120914711D01*
X173065609Y-121045814D01*
X173065602Y-121045827D01*
X173005264Y-121191498D01*
X173005261Y-121191510D01*
X172974500Y-121346153D01*
X171269342Y-121346153D01*
X171219517Y-121271584D01*
X171219514Y-121271580D01*
X171114985Y-121167051D01*
X171114981Y-121167048D01*
X170992067Y-121084919D01*
X170992054Y-121084912D01*
X170855483Y-121028343D01*
X170855473Y-121028340D01*
X170710486Y-120999500D01*
X170710484Y-120999500D01*
X170562648Y-120999500D01*
X170562646Y-120999500D01*
X170417658Y-121028340D01*
X170417648Y-121028343D01*
X170281077Y-121084912D01*
X170281064Y-121084919D01*
X170158150Y-121167048D01*
X170158146Y-121167051D01*
X170053617Y-121271580D01*
X170053614Y-121271584D01*
X169971485Y-121394498D01*
X169971478Y-121394511D01*
X169914909Y-121531082D01*
X169914906Y-121531092D01*
X169886066Y-121676079D01*
X169886066Y-121676082D01*
X169886066Y-121823918D01*
X169886066Y-121823920D01*
X169886065Y-121823920D01*
X169914906Y-121968907D01*
X169914909Y-121968917D01*
X169971478Y-122105488D01*
X169971485Y-122105501D01*
X170046432Y-122217666D01*
X170067310Y-122284343D01*
X170048826Y-122351724D01*
X170031014Y-122374236D01*
X170016247Y-122389003D01*
X169934118Y-122511917D01*
X169934111Y-122511930D01*
X169877542Y-122648501D01*
X169877539Y-122648511D01*
X169848699Y-122793498D01*
X169848699Y-122793501D01*
X169848699Y-122941337D01*
X169848699Y-122941339D01*
X169848698Y-122941339D01*
X168021816Y-122941339D01*
X168018917Y-122940138D01*
X168018907Y-122940135D01*
X167873920Y-122911295D01*
X167873918Y-122911295D01*
X167726082Y-122911295D01*
X167726080Y-122911295D01*
X167581092Y-122940135D01*
X167581082Y-122940138D01*
X167444511Y-122996707D01*
X167444498Y-122996714D01*
X167321584Y-123078843D01*
X167321580Y-123078846D01*
X167217051Y-123183375D01*
X167217048Y-123183379D01*
X167134919Y-123306293D01*
X167134912Y-123306306D01*
X167078343Y-123442877D01*
X167078340Y-123442887D01*
X167049500Y-123587874D01*
X167049500Y-123587877D01*
X167049500Y-123735713D01*
X167049500Y-123735715D01*
X167049499Y-123735715D01*
X166022944Y-123735715D01*
X165997284Y-123606716D01*
X165997281Y-123606707D01*
X165940712Y-123470136D01*
X165940705Y-123470123D01*
X165858576Y-123347209D01*
X165858573Y-123347205D01*
X165754044Y-123242676D01*
X165754040Y-123242673D01*
X165631126Y-123160544D01*
X165631113Y-123160537D01*
X165494542Y-123103968D01*
X165494532Y-123103965D01*
X165349545Y-123075125D01*
X165349543Y-123075125D01*
X165262186Y-123075125D01*
X165195147Y-123055440D01*
X165149392Y-123002636D01*
X165138783Y-122938976D01*
X165139300Y-122933724D01*
X165139300Y-122785879D01*
X165110459Y-122640892D01*
X165110458Y-122640891D01*
X165110458Y-122640887D01*
X165095020Y-122603616D01*
X165053887Y-122504311D01*
X165053880Y-122504298D01*
X164971751Y-122381384D01*
X164971748Y-122381380D01*
X164867219Y-122276851D01*
X164867215Y-122276848D01*
X164744301Y-122194719D01*
X164744288Y-122194712D01*
X164607717Y-122138143D01*
X164607707Y-122138140D01*
X164462720Y-122109300D01*
X164462718Y-122109300D01*
X164314882Y-122109300D01*
X164314880Y-122109300D01*
X164169892Y-122138140D01*
X164169882Y-122138143D01*
X164033311Y-122194712D01*
X164033295Y-122194721D01*
X164004885Y-122213704D01*
X163938208Y-122234581D01*
X163870828Y-122216096D01*
X163824138Y-122164116D01*
X163812963Y-122095146D01*
X163821432Y-122063155D01*
X163842658Y-122011913D01*
X163863372Y-121907779D01*
X163871500Y-121866920D01*
X163871500Y-121719079D01*
X163842659Y-121574092D01*
X163842658Y-121574091D01*
X163842658Y-121574087D01*
X163823310Y-121527377D01*
X163786087Y-121437511D01*
X163786080Y-121437498D01*
X163703951Y-121314584D01*
X163703948Y-121314580D01*
X163599419Y-121210051D01*
X163599415Y-121210048D01*
X163476501Y-121127919D01*
X163476488Y-121127912D01*
X163339917Y-121071343D01*
X163339907Y-121071340D01*
X163194920Y-121042500D01*
X163194918Y-121042500D01*
X163047082Y-121042500D01*
X163040990Y-121042500D01*
X163040990Y-121040802D01*
X162980313Y-121029286D01*
X162929610Y-120981214D01*
X162915204Y-120943102D01*
X162886284Y-120797717D01*
X162886283Y-120797716D01*
X162886283Y-120797712D01*
X162870191Y-120758863D01*
X162829712Y-120661136D01*
X162829705Y-120661123D01*
X162751409Y-120543946D01*
X175576707Y-120543946D01*
X175576707Y-120701639D01*
X175607468Y-120856282D01*
X175607471Y-120856294D01*
X175667809Y-121001965D01*
X175667816Y-121001978D01*
X175755417Y-121133081D01*
X175755420Y-121133085D01*
X175866914Y-121244579D01*
X175866918Y-121244582D01*
X175998021Y-121332183D01*
X175998034Y-121332190D01*
X176100664Y-121374700D01*
X176143710Y-121392530D01*
X176298360Y-121423292D01*
X176298363Y-121423293D01*
X176298365Y-121423293D01*
X176456051Y-121423293D01*
X176456052Y-121423292D01*
X176610704Y-121392530D01*
X176756386Y-121332187D01*
X176887496Y-121244582D01*
X176998996Y-121133082D01*
X177086601Y-121001972D01*
X177146944Y-120856290D01*
X177177707Y-120701635D01*
X177177707Y-120543951D01*
X177177707Y-120543948D01*
X177177706Y-120543946D01*
X177155159Y-120430595D01*
X177146944Y-120389296D01*
X177146942Y-120389291D01*
X177086604Y-120243620D01*
X177086597Y-120243607D01*
X176998996Y-120112504D01*
X176998993Y-120112500D01*
X176894103Y-120007610D01*
X176860618Y-119946287D01*
X176865602Y-119876595D01*
X176907474Y-119820662D01*
X176972938Y-119796245D01*
X176981784Y-119795929D01*
X176983415Y-119795929D01*
X176983416Y-119795928D01*
X177138068Y-119765166D01*
X177283750Y-119704823D01*
X177414860Y-119617218D01*
X177526360Y-119505718D01*
X177527642Y-119503800D01*
X178001157Y-119503800D01*
X178972272Y-119503800D01*
X178880386Y-119541860D01*
X178810060Y-119612186D01*
X178772000Y-119704072D01*
X178772000Y-119803528D01*
X178810060Y-119895414D01*
X178880386Y-119965740D01*
X178972272Y-120003800D01*
X178001157Y-120003800D01*
X178012350Y-120060074D01*
X178012351Y-120060076D01*
X178091500Y-120251158D01*
X178091505Y-120251168D01*
X178206410Y-120423135D01*
X178206413Y-120423139D01*
X178352660Y-120569386D01*
X178352664Y-120569389D01*
X178524631Y-120684294D01*
X178524641Y-120684299D01*
X178715725Y-120763449D01*
X178715733Y-120763451D01*
X178918579Y-120803799D01*
X178918583Y-120803800D01*
X179122000Y-120803800D01*
X179122000Y-120003800D01*
X179622000Y-120003800D01*
X179622000Y-120803800D01*
X179825417Y-120803800D01*
X179825420Y-120803799D01*
X180028266Y-120763451D01*
X180028274Y-120763449D01*
X180219358Y-120684299D01*
X180219368Y-120684294D01*
X180391335Y-120569389D01*
X180391339Y-120569386D01*
X180537586Y-120423139D01*
X180537589Y-120423135D01*
X180652494Y-120251168D01*
X180652499Y-120251158D01*
X180731648Y-120060076D01*
X180731649Y-120060074D01*
X180742843Y-120003800D01*
X179771728Y-120003800D01*
X179863614Y-119965740D01*
X179933940Y-119895414D01*
X179972000Y-119803528D01*
X179972000Y-119704072D01*
X179933940Y-119612186D01*
X179863614Y-119541860D01*
X179771728Y-119503800D01*
X180742842Y-119503800D01*
X180742843Y-119503798D01*
X180731651Y-119447533D01*
X180731648Y-119447523D01*
X180652499Y-119256441D01*
X180652494Y-119256431D01*
X180537589Y-119084464D01*
X180537586Y-119084460D01*
X180391339Y-118938213D01*
X180391335Y-118938210D01*
X180219368Y-118823305D01*
X180219358Y-118823300D01*
X180116052Y-118780509D01*
X180061649Y-118736668D01*
X180039584Y-118670373D01*
X180056863Y-118602674D01*
X180060403Y-118597057D01*
X180082413Y-118564117D01*
X180145947Y-118469032D01*
X180203275Y-118330630D01*
X180232500Y-118183703D01*
X180232500Y-118033897D01*
X180203275Y-117886970D01*
X180145947Y-117748568D01*
X180145946Y-117748567D01*
X180145943Y-117748561D01*
X180062719Y-117624009D01*
X180062716Y-117624005D01*
X179956794Y-117518083D01*
X179956790Y-117518080D01*
X179832238Y-117434856D01*
X179832229Y-117434851D01*
X179693830Y-117377525D01*
X179693822Y-117377523D01*
X179546907Y-117348300D01*
X179546903Y-117348300D01*
X179397097Y-117348300D01*
X179397092Y-117348300D01*
X179250177Y-117377523D01*
X179250169Y-117377525D01*
X179111770Y-117434851D01*
X179111761Y-117434856D01*
X178987209Y-117518080D01*
X178987205Y-117518083D01*
X178881283Y-117624005D01*
X178881280Y-117624009D01*
X178798056Y-117748561D01*
X178798051Y-117748570D01*
X178740725Y-117886969D01*
X178740723Y-117886977D01*
X178711500Y-118033892D01*
X178711500Y-118183707D01*
X178740723Y-118330622D01*
X178740725Y-118330630D01*
X178798051Y-118469029D01*
X178798053Y-118469032D01*
X178847554Y-118543116D01*
X178868432Y-118609792D01*
X178849948Y-118677172D01*
X178797969Y-118723863D01*
X178768644Y-118733623D01*
X178715732Y-118744148D01*
X178715725Y-118744150D01*
X178524641Y-118823300D01*
X178524631Y-118823305D01*
X178352664Y-118938210D01*
X178352660Y-118938213D01*
X178206413Y-119084460D01*
X178206410Y-119084464D01*
X178091505Y-119256431D01*
X178091500Y-119256441D01*
X178012351Y-119447523D01*
X178012350Y-119447525D01*
X178001157Y-119503800D01*
X177527642Y-119503800D01*
X177613965Y-119374608D01*
X177620520Y-119358784D01*
X177664130Y-119253497D01*
X177674308Y-119228926D01*
X177705071Y-119074271D01*
X177705071Y-118916587D01*
X177705071Y-118916584D01*
X177705070Y-118916582D01*
X177692919Y-118855495D01*
X177674308Y-118761932D01*
X177666942Y-118744148D01*
X177613968Y-118616256D01*
X177613961Y-118616243D01*
X177526360Y-118485140D01*
X177526357Y-118485136D01*
X177414863Y-118373642D01*
X177414859Y-118373639D01*
X177283756Y-118286038D01*
X177283743Y-118286031D01*
X177138072Y-118225693D01*
X177138060Y-118225690D01*
X176983416Y-118194929D01*
X176983413Y-118194929D01*
X176825729Y-118194929D01*
X176825726Y-118194929D01*
X176671081Y-118225690D01*
X176671069Y-118225693D01*
X176525398Y-118286031D01*
X176525385Y-118286038D01*
X176394282Y-118373639D01*
X176394278Y-118373642D01*
X176282784Y-118485136D01*
X176282781Y-118485140D01*
X176195180Y-118616243D01*
X176195173Y-118616256D01*
X176134835Y-118761927D01*
X176134832Y-118761939D01*
X176104071Y-118916582D01*
X176104071Y-119074275D01*
X176134832Y-119228918D01*
X176134835Y-119228930D01*
X176195173Y-119374601D01*
X176195180Y-119374614D01*
X176282781Y-119505717D01*
X176282784Y-119505721D01*
X176387675Y-119610612D01*
X176421160Y-119671935D01*
X176416176Y-119741627D01*
X176374304Y-119797560D01*
X176308840Y-119821977D01*
X176299994Y-119822293D01*
X176298362Y-119822293D01*
X176143717Y-119853054D01*
X176143705Y-119853057D01*
X175998034Y-119913395D01*
X175998021Y-119913402D01*
X175866918Y-120001003D01*
X175866914Y-120001006D01*
X175755420Y-120112500D01*
X175755417Y-120112504D01*
X175667816Y-120243607D01*
X175667809Y-120243620D01*
X175607471Y-120389291D01*
X175607468Y-120389303D01*
X175576707Y-120543946D01*
X162751409Y-120543946D01*
X162747576Y-120538209D01*
X162747573Y-120538205D01*
X162718449Y-120509081D01*
X162684964Y-120447758D01*
X162689948Y-120378066D01*
X162718449Y-120333719D01*
X162736548Y-120315619D01*
X162736551Y-120315616D01*
X162818684Y-120192695D01*
X162875258Y-120056113D01*
X162904100Y-119911118D01*
X162904100Y-119911104D01*
X162904613Y-119905901D01*
X162930767Y-119841112D01*
X162987797Y-119800747D01*
X163003814Y-119796428D01*
X163048913Y-119787458D01*
X163081597Y-119773920D01*
X170874499Y-119773920D01*
X170903340Y-119918907D01*
X170903343Y-119918917D01*
X170959912Y-120055488D01*
X170959919Y-120055501D01*
X171042048Y-120178415D01*
X171042051Y-120178419D01*
X171146580Y-120282948D01*
X171146584Y-120282951D01*
X171269498Y-120365080D01*
X171269511Y-120365087D01*
X171402449Y-120420151D01*
X171406087Y-120421658D01*
X171406091Y-120421658D01*
X171406092Y-120421659D01*
X171551079Y-120450500D01*
X171551082Y-120450500D01*
X171698920Y-120450500D01*
X171798985Y-120430595D01*
X171843913Y-120421658D01*
X171980495Y-120365084D01*
X172103416Y-120282951D01*
X172207951Y-120178416D01*
X172290084Y-120055495D01*
X172346658Y-119918913D01*
X172359758Y-119853056D01*
X172375500Y-119773920D01*
X172375500Y-119626079D01*
X172346659Y-119481092D01*
X172346658Y-119481091D01*
X172346658Y-119481087D01*
X172341337Y-119468240D01*
X172290087Y-119344511D01*
X172290080Y-119344498D01*
X172207951Y-119221584D01*
X172207948Y-119221580D01*
X172103419Y-119117051D01*
X172103415Y-119117048D01*
X171980501Y-119034919D01*
X171980488Y-119034912D01*
X171843917Y-118978343D01*
X171843907Y-118978340D01*
X171698920Y-118949500D01*
X171698918Y-118949500D01*
X171551082Y-118949500D01*
X171551080Y-118949500D01*
X171406092Y-118978340D01*
X171406082Y-118978343D01*
X171269511Y-119034912D01*
X171269498Y-119034919D01*
X171146584Y-119117048D01*
X171146580Y-119117051D01*
X171042051Y-119221580D01*
X171042048Y-119221584D01*
X170959919Y-119344498D01*
X170959912Y-119344511D01*
X170903343Y-119481082D01*
X170903340Y-119481092D01*
X170874500Y-119626079D01*
X170874500Y-119626082D01*
X170874500Y-119773918D01*
X170874500Y-119773920D01*
X170874499Y-119773920D01*
X163081597Y-119773920D01*
X163185495Y-119730884D01*
X163308416Y-119648751D01*
X163412951Y-119544216D01*
X163495084Y-119421295D01*
X163551658Y-119284713D01*
X163564201Y-119221656D01*
X163580500Y-119139720D01*
X163580500Y-118996720D01*
X165568699Y-118996720D01*
X165597540Y-119141707D01*
X165597543Y-119141717D01*
X165654112Y-119278288D01*
X165654119Y-119278301D01*
X165736248Y-119401215D01*
X165736251Y-119401219D01*
X165840780Y-119505748D01*
X165840784Y-119505751D01*
X165963698Y-119587880D01*
X165963711Y-119587887D01*
X166055916Y-119626079D01*
X166100287Y-119644458D01*
X166100291Y-119644458D01*
X166100292Y-119644459D01*
X166245279Y-119673300D01*
X166245282Y-119673300D01*
X166393120Y-119673300D01*
X166516546Y-119648748D01*
X166538113Y-119644458D01*
X166674695Y-119587884D01*
X166703949Y-119568337D01*
X166780949Y-119516888D01*
X166788015Y-119512165D01*
X166797616Y-119505751D01*
X166902151Y-119401216D01*
X166984284Y-119278295D01*
X167040858Y-119141713D01*
X167062103Y-119034912D01*
X167069700Y-118996720D01*
X167069700Y-118848879D01*
X167040859Y-118703892D01*
X167040858Y-118703891D01*
X167040858Y-118703887D01*
X167014738Y-118640827D01*
X166984287Y-118567311D01*
X166984280Y-118567298D01*
X166902151Y-118444384D01*
X166902148Y-118444380D01*
X166797619Y-118339851D01*
X166797615Y-118339848D01*
X166674701Y-118257719D01*
X166674688Y-118257712D01*
X166538117Y-118201143D01*
X166538107Y-118201140D01*
X166393120Y-118172300D01*
X166393118Y-118172300D01*
X166245282Y-118172300D01*
X166245280Y-118172300D01*
X166100292Y-118201140D01*
X166100282Y-118201143D01*
X165963711Y-118257712D01*
X165963698Y-118257719D01*
X165840784Y-118339848D01*
X165840780Y-118339851D01*
X165736251Y-118444380D01*
X165736248Y-118444384D01*
X165654119Y-118567298D01*
X165654112Y-118567311D01*
X165597543Y-118703882D01*
X165597540Y-118703892D01*
X165568700Y-118848879D01*
X165568700Y-118848882D01*
X165568700Y-118996718D01*
X165568700Y-118996720D01*
X165568699Y-118996720D01*
X163580500Y-118996720D01*
X163580500Y-118991879D01*
X163555656Y-118866982D01*
X163551658Y-118846889D01*
X163551658Y-118846887D01*
X163541888Y-118823300D01*
X163495087Y-118710311D01*
X163495080Y-118710298D01*
X163412951Y-118587384D01*
X163412948Y-118587380D01*
X163308419Y-118482851D01*
X163308415Y-118482848D01*
X163185501Y-118400719D01*
X163185488Y-118400712D01*
X163048917Y-118344143D01*
X163048907Y-118344140D01*
X162903920Y-118315300D01*
X162903918Y-118315300D01*
X162756082Y-118315300D01*
X162756080Y-118315300D01*
X162611092Y-118344140D01*
X162611082Y-118344143D01*
X162474511Y-118400712D01*
X162474498Y-118400719D01*
X162351584Y-118482848D01*
X162351580Y-118482851D01*
X162247051Y-118587380D01*
X162247048Y-118587384D01*
X162164919Y-118710298D01*
X162164912Y-118710311D01*
X162108343Y-118846882D01*
X162108340Y-118846892D01*
X162079500Y-118991879D01*
X162078985Y-118997109D01*
X162052825Y-119061897D01*
X161995790Y-119102256D01*
X161979774Y-119106573D01*
X161934692Y-119115540D01*
X161934682Y-119115543D01*
X161798111Y-119172112D01*
X161798098Y-119172119D01*
X161675184Y-119254248D01*
X161675180Y-119254251D01*
X161570651Y-119358780D01*
X161570648Y-119358784D01*
X161488519Y-119481698D01*
X161488512Y-119481711D01*
X161431943Y-119618282D01*
X161431940Y-119618292D01*
X161403100Y-119763279D01*
X161403100Y-119763282D01*
X161403100Y-119911118D01*
X161403100Y-119911120D01*
X161403099Y-119911120D01*
X147750500Y-119911120D01*
X147750500Y-119568337D01*
X147770185Y-119501298D01*
X147822989Y-119455543D01*
X147892147Y-119445599D01*
X147955703Y-119474624D01*
X147977602Y-119499446D01*
X147998210Y-119530288D01*
X147998213Y-119530292D01*
X148109707Y-119641786D01*
X148109711Y-119641789D01*
X148240814Y-119729390D01*
X148240827Y-119729397D01*
X148381001Y-119787458D01*
X148386503Y-119789737D01*
X148541153Y-119820499D01*
X148541156Y-119820500D01*
X148541158Y-119820500D01*
X148698844Y-119820500D01*
X148698845Y-119820499D01*
X148853497Y-119789737D01*
X148995582Y-119730884D01*
X148999172Y-119729397D01*
X148999172Y-119729396D01*
X148999179Y-119729394D01*
X149083130Y-119673300D01*
X149111883Y-119654088D01*
X149119874Y-119648748D01*
X149130289Y-119641789D01*
X149241789Y-119530289D01*
X149329394Y-119399179D01*
X149339570Y-119374613D01*
X149352038Y-119344511D01*
X149389737Y-119253497D01*
X149420500Y-119098842D01*
X149420500Y-118941158D01*
X149420500Y-118941155D01*
X149420499Y-118941153D01*
X149405745Y-118866982D01*
X149389737Y-118786503D01*
X149379562Y-118761939D01*
X149329397Y-118640827D01*
X149329390Y-118640814D01*
X149284692Y-118573920D01*
X155449499Y-118573920D01*
X155478340Y-118718907D01*
X155478343Y-118718917D01*
X155534912Y-118855488D01*
X155534919Y-118855501D01*
X155617048Y-118978415D01*
X155617051Y-118978419D01*
X155721580Y-119082948D01*
X155721584Y-119082951D01*
X155844498Y-119165080D01*
X155844511Y-119165087D01*
X155980899Y-119221580D01*
X155981087Y-119221658D01*
X155981091Y-119221658D01*
X155981092Y-119221659D01*
X156126079Y-119250500D01*
X156126082Y-119250500D01*
X156273920Y-119250500D01*
X156382415Y-119228918D01*
X156418913Y-119221658D01*
X156555495Y-119165084D01*
X156678416Y-119082951D01*
X156782951Y-118978416D01*
X156865084Y-118855495D01*
X156867825Y-118848879D01*
X156885022Y-118807360D01*
X156921658Y-118718913D01*
X156942078Y-118616256D01*
X156950500Y-118573920D01*
X156950500Y-118426079D01*
X156921659Y-118281092D01*
X156921658Y-118281091D01*
X156921658Y-118281087D01*
X156911979Y-118257719D01*
X156871346Y-118159621D01*
X169519858Y-118159621D01*
X169548699Y-118304608D01*
X169548702Y-118304618D01*
X169605271Y-118441189D01*
X169605278Y-118441202D01*
X169687407Y-118564116D01*
X169687410Y-118564120D01*
X169791939Y-118668649D01*
X169791943Y-118668652D01*
X169914857Y-118750781D01*
X169914870Y-118750788D01*
X170051441Y-118807357D01*
X170051446Y-118807359D01*
X170051450Y-118807359D01*
X170051451Y-118807360D01*
X170196438Y-118836201D01*
X170196441Y-118836201D01*
X170344279Y-118836201D01*
X170441821Y-118816797D01*
X170489272Y-118807359D01*
X170625854Y-118750785D01*
X170748775Y-118668652D01*
X170853310Y-118564117D01*
X170935443Y-118441196D01*
X170992017Y-118304614D01*
X171012599Y-118201143D01*
X171020859Y-118159621D01*
X171020859Y-118011780D01*
X170992018Y-117866793D01*
X170992017Y-117866792D01*
X170992017Y-117866788D01*
X170992015Y-117866783D01*
X170935446Y-117730212D01*
X170935439Y-117730199D01*
X170853310Y-117607285D01*
X170853307Y-117607281D01*
X170748778Y-117502752D01*
X170748774Y-117502749D01*
X170625860Y-117420620D01*
X170625847Y-117420613D01*
X170489276Y-117364044D01*
X170489266Y-117364041D01*
X170344279Y-117335201D01*
X170344277Y-117335201D01*
X170196441Y-117335201D01*
X170196439Y-117335201D01*
X170051451Y-117364041D01*
X170051441Y-117364044D01*
X169914870Y-117420613D01*
X169914857Y-117420620D01*
X169791943Y-117502749D01*
X169791939Y-117502752D01*
X169687410Y-117607281D01*
X169687407Y-117607285D01*
X169605278Y-117730199D01*
X169605271Y-117730212D01*
X169548702Y-117866783D01*
X169548699Y-117866793D01*
X169519859Y-118011780D01*
X169519859Y-118011783D01*
X169519859Y-118159619D01*
X169519859Y-118159621D01*
X169519858Y-118159621D01*
X156871346Y-118159621D01*
X156865087Y-118144511D01*
X156865080Y-118144498D01*
X156782951Y-118021584D01*
X156782948Y-118021580D01*
X156678419Y-117917051D01*
X156678415Y-117917048D01*
X156555501Y-117834919D01*
X156555488Y-117834912D01*
X156418917Y-117778343D01*
X156418907Y-117778340D01*
X156273920Y-117749500D01*
X156273918Y-117749500D01*
X156126082Y-117749500D01*
X156126080Y-117749500D01*
X155981092Y-117778340D01*
X155981082Y-117778343D01*
X155844511Y-117834912D01*
X155844498Y-117834919D01*
X155721584Y-117917048D01*
X155721580Y-117917051D01*
X155617051Y-118021580D01*
X155617048Y-118021584D01*
X155534919Y-118144498D01*
X155534912Y-118144511D01*
X155478343Y-118281082D01*
X155478340Y-118281092D01*
X155449500Y-118426079D01*
X155449500Y-118426082D01*
X155449500Y-118573918D01*
X155449500Y-118573920D01*
X155449499Y-118573920D01*
X149284692Y-118573920D01*
X149241789Y-118509711D01*
X149241786Y-118509707D01*
X149130292Y-118398213D01*
X149130288Y-118398210D01*
X148999185Y-118310609D01*
X148999172Y-118310602D01*
X148853501Y-118250264D01*
X148853489Y-118250261D01*
X148698845Y-118219500D01*
X148698842Y-118219500D01*
X148541158Y-118219500D01*
X148541155Y-118219500D01*
X148386510Y-118250261D01*
X148386498Y-118250264D01*
X148240827Y-118310602D01*
X148240814Y-118310609D01*
X148109711Y-118398210D01*
X148109707Y-118398213D01*
X147998213Y-118509707D01*
X147998208Y-118509713D01*
X147977601Y-118540554D01*
X147923988Y-118585359D01*
X147854663Y-118594065D01*
X147791636Y-118563909D01*
X147754918Y-118504466D01*
X147750500Y-118471662D01*
X147750500Y-117305314D01*
X157480893Y-117305314D01*
X157509734Y-117450301D01*
X157509737Y-117450311D01*
X157566306Y-117586882D01*
X157566313Y-117586895D01*
X157648442Y-117709809D01*
X157648445Y-117709813D01*
X157752974Y-117814342D01*
X157752978Y-117814345D01*
X157875892Y-117896474D01*
X157875905Y-117896481D01*
X158012476Y-117953050D01*
X158012481Y-117953052D01*
X158012485Y-117953052D01*
X158012486Y-117953053D01*
X158157473Y-117981894D01*
X158157476Y-117981894D01*
X158305314Y-117981894D01*
X158402856Y-117962490D01*
X158450307Y-117953052D01*
X158586889Y-117896478D01*
X158709810Y-117814345D01*
X158814345Y-117709810D01*
X158896478Y-117586889D01*
X158953052Y-117450307D01*
X158970211Y-117364044D01*
X158981894Y-117305314D01*
X158981894Y-117157473D01*
X158953053Y-117012486D01*
X158953052Y-117012485D01*
X158953052Y-117012481D01*
X158938910Y-116978338D01*
X158896481Y-116875905D01*
X158896479Y-116875901D01*
X158896478Y-116875899D01*
X158840488Y-116792104D01*
X158819611Y-116725429D01*
X158838095Y-116658049D01*
X158890074Y-116611358D01*
X158919399Y-116601598D01*
X158991077Y-116587339D01*
X159069913Y-116571658D01*
X159206495Y-116515084D01*
X159329416Y-116432951D01*
X159433951Y-116328416D01*
X159516084Y-116205495D01*
X159572658Y-116068913D01*
X159598888Y-115937049D01*
X159601500Y-115923920D01*
X159601500Y-115776079D01*
X159593881Y-115737776D01*
X169903404Y-115737776D01*
X169932245Y-115882763D01*
X169932248Y-115882773D01*
X169988817Y-116019344D01*
X169988824Y-116019357D01*
X170070953Y-116142271D01*
X170070956Y-116142275D01*
X170175485Y-116246804D01*
X170175489Y-116246807D01*
X170298403Y-116328936D01*
X170298416Y-116328943D01*
X170434987Y-116385512D01*
X170434992Y-116385514D01*
X170434996Y-116385514D01*
X170434997Y-116385515D01*
X170579984Y-116414356D01*
X170579987Y-116414356D01*
X170727825Y-116414356D01*
X170825367Y-116394952D01*
X170872818Y-116385514D01*
X171009400Y-116328940D01*
X171132321Y-116246807D01*
X171236856Y-116142272D01*
X171318989Y-116019351D01*
X171375563Y-115882769D01*
X171392357Y-115798342D01*
X171404405Y-115737776D01*
X171404405Y-115589935D01*
X171375564Y-115444948D01*
X171375563Y-115444947D01*
X171375563Y-115444943D01*
X171345175Y-115371580D01*
X171318992Y-115308367D01*
X171318985Y-115308354D01*
X171236856Y-115185440D01*
X171236853Y-115185436D01*
X171132324Y-115080907D01*
X171132320Y-115080904D01*
X171009406Y-114998775D01*
X171009393Y-114998768D01*
X170872822Y-114942199D01*
X170872812Y-114942196D01*
X170727825Y-114913356D01*
X170727823Y-114913356D01*
X170579987Y-114913356D01*
X170579985Y-114913356D01*
X170434997Y-114942196D01*
X170434987Y-114942199D01*
X170298416Y-114998768D01*
X170298403Y-114998775D01*
X170175489Y-115080904D01*
X170175485Y-115080907D01*
X170070956Y-115185436D01*
X170070953Y-115185440D01*
X169988824Y-115308354D01*
X169988817Y-115308367D01*
X169932248Y-115444938D01*
X169932245Y-115444948D01*
X169903405Y-115589935D01*
X169903405Y-115589938D01*
X169903405Y-115737774D01*
X169903405Y-115737776D01*
X169903404Y-115737776D01*
X159593881Y-115737776D01*
X159572659Y-115631092D01*
X159572658Y-115631091D01*
X159572658Y-115631087D01*
X159555612Y-115589935D01*
X159516085Y-115494507D01*
X159516080Y-115494498D01*
X159433951Y-115371584D01*
X159433948Y-115371580D01*
X159329419Y-115267051D01*
X159329415Y-115267048D01*
X159206501Y-115184919D01*
X159206488Y-115184912D01*
X159069917Y-115128343D01*
X159069907Y-115128340D01*
X158924920Y-115099500D01*
X158924918Y-115099500D01*
X158777082Y-115099500D01*
X158777080Y-115099500D01*
X158632092Y-115128340D01*
X158632082Y-115128343D01*
X158495511Y-115184912D01*
X158495498Y-115184919D01*
X158372584Y-115267048D01*
X158372580Y-115267051D01*
X158268051Y-115371580D01*
X158268048Y-115371584D01*
X158185919Y-115494498D01*
X158185912Y-115494511D01*
X158129343Y-115631082D01*
X158129340Y-115631092D01*
X158100500Y-115776079D01*
X158100500Y-115776082D01*
X158100500Y-115923918D01*
X158100500Y-115923920D01*
X158100499Y-115923920D01*
X158129340Y-116068907D01*
X158129343Y-116068917D01*
X158185912Y-116205488D01*
X158185919Y-116205500D01*
X158241904Y-116289287D01*
X158262782Y-116355964D01*
X158244298Y-116423344D01*
X158192319Y-116470035D01*
X158162995Y-116479795D01*
X158012485Y-116509735D01*
X158012476Y-116509737D01*
X157875905Y-116566306D01*
X157875892Y-116566313D01*
X157752978Y-116648442D01*
X157752974Y-116648445D01*
X157648445Y-116752974D01*
X157648442Y-116752978D01*
X157566313Y-116875892D01*
X157566306Y-116875905D01*
X157509737Y-117012476D01*
X157509734Y-117012486D01*
X157480894Y-117157473D01*
X157480894Y-117157476D01*
X157480894Y-117305312D01*
X157480894Y-117305314D01*
X157480893Y-117305314D01*
X147750500Y-117305314D01*
X147750500Y-116978338D01*
X147770185Y-116911299D01*
X147822989Y-116865544D01*
X147892147Y-116855600D01*
X147955703Y-116884625D01*
X147977602Y-116909448D01*
X148037045Y-116998411D01*
X148037051Y-116998419D01*
X148141580Y-117102948D01*
X148141584Y-117102951D01*
X148264498Y-117185080D01*
X148264511Y-117185087D01*
X148401082Y-117241656D01*
X148401087Y-117241658D01*
X148401091Y-117241658D01*
X148401092Y-117241659D01*
X148546079Y-117270500D01*
X148546082Y-117270500D01*
X148693920Y-117270500D01*
X148791462Y-117251096D01*
X148838913Y-117241658D01*
X148975495Y-117185084D01*
X149098416Y-117102951D01*
X149098419Y-117102948D01*
X149137665Y-117063703D01*
X149202948Y-116998419D01*
X149202951Y-116998416D01*
X149285084Y-116875495D01*
X149341658Y-116738913D01*
X149367031Y-116611358D01*
X149370500Y-116593920D01*
X149370500Y-116446079D01*
X149341659Y-116301092D01*
X149341658Y-116301091D01*
X149341658Y-116301087D01*
X149319175Y-116246807D01*
X149285087Y-116164511D01*
X149285080Y-116164498D01*
X149202951Y-116041584D01*
X149202948Y-116041580D01*
X149098419Y-115937051D01*
X149098415Y-115937048D01*
X148975501Y-115854919D01*
X148975488Y-115854912D01*
X148838917Y-115798343D01*
X148838907Y-115798340D01*
X148693920Y-115769500D01*
X148693918Y-115769500D01*
X148546082Y-115769500D01*
X148546080Y-115769500D01*
X148401092Y-115798340D01*
X148401082Y-115798343D01*
X148264511Y-115854912D01*
X148264498Y-115854919D01*
X148141584Y-115937048D01*
X148141580Y-115937051D01*
X148037051Y-116041580D01*
X148037048Y-116041584D01*
X147977602Y-116130552D01*
X147923990Y-116175357D01*
X147854665Y-116184064D01*
X147791637Y-116153910D01*
X147754918Y-116094467D01*
X147750500Y-116061661D01*
X147750500Y-114478338D01*
X147770185Y-114411299D01*
X147822989Y-114365544D01*
X147892147Y-114355600D01*
X147955703Y-114384625D01*
X147977602Y-114409448D01*
X148037045Y-114498411D01*
X148037051Y-114498419D01*
X148141580Y-114602948D01*
X148141584Y-114602951D01*
X148264498Y-114685080D01*
X148264511Y-114685087D01*
X148381394Y-114733501D01*
X148401087Y-114741658D01*
X148401091Y-114741658D01*
X148401092Y-114741659D01*
X148546079Y-114770500D01*
X148546082Y-114770500D01*
X148693920Y-114770500D01*
X148791462Y-114751096D01*
X148838913Y-114741658D01*
X148975495Y-114685084D01*
X149098416Y-114602951D01*
X149202951Y-114498416D01*
X149285084Y-114375495D01*
X149341658Y-114238913D01*
X149351096Y-114191462D01*
X149370500Y-114093920D01*
X149370500Y-113946079D01*
X149341659Y-113801092D01*
X149341658Y-113801091D01*
X149341658Y-113801087D01*
X149312322Y-113730263D01*
X149285087Y-113664511D01*
X149285080Y-113664498D01*
X149202951Y-113541584D01*
X149202948Y-113541580D01*
X149098419Y-113437051D01*
X149098415Y-113437048D01*
X148975501Y-113354919D01*
X148975488Y-113354912D01*
X148838917Y-113298343D01*
X148838907Y-113298340D01*
X148693920Y-113269500D01*
X148693918Y-113269500D01*
X148546082Y-113269500D01*
X148546080Y-113269500D01*
X148401092Y-113298340D01*
X148401082Y-113298343D01*
X148264511Y-113354912D01*
X148264498Y-113354919D01*
X148141584Y-113437048D01*
X148141580Y-113437051D01*
X148037051Y-113541580D01*
X148037048Y-113541584D01*
X147977602Y-113630552D01*
X147923990Y-113675357D01*
X147854665Y-113684064D01*
X147791637Y-113653910D01*
X147754918Y-113594467D01*
X147750500Y-113561661D01*
X147750500Y-113051857D01*
X156330781Y-113051857D01*
X156359622Y-113196844D01*
X156359625Y-113196854D01*
X156416194Y-113333425D01*
X156416201Y-113333438D01*
X156498330Y-113456352D01*
X156498333Y-113456356D01*
X156602862Y-113560885D01*
X156602866Y-113560888D01*
X156725780Y-113643017D01*
X156725793Y-113643024D01*
X156836549Y-113688900D01*
X156890953Y-113732740D01*
X156913018Y-113799034D01*
X156895739Y-113866734D01*
X156876779Y-113891142D01*
X156778210Y-113989711D01*
X156690609Y-114120814D01*
X156690602Y-114120827D01*
X156630264Y-114266498D01*
X156630261Y-114266510D01*
X156599500Y-114421153D01*
X156599500Y-114578846D01*
X156630261Y-114733489D01*
X156630264Y-114733501D01*
X156690602Y-114879172D01*
X156690609Y-114879185D01*
X156778210Y-115010288D01*
X156778213Y-115010292D01*
X156889707Y-115121786D01*
X156889711Y-115121789D01*
X157020814Y-115209390D01*
X157020827Y-115209397D01*
X157160018Y-115267051D01*
X157166503Y-115269737D01*
X157321153Y-115300499D01*
X157321156Y-115300500D01*
X157321158Y-115300500D01*
X157478844Y-115300500D01*
X157478845Y-115300499D01*
X157633497Y-115269737D01*
X157779179Y-115209394D01*
X157910289Y-115121789D01*
X158021789Y-115010289D01*
X158109394Y-114879179D01*
X158169737Y-114733497D01*
X158200500Y-114578842D01*
X158200500Y-114421158D01*
X158200500Y-114421155D01*
X158200499Y-114421153D01*
X158191417Y-114375495D01*
X158169737Y-114266503D01*
X158158309Y-114238913D01*
X158109397Y-114120827D01*
X158109390Y-114120814D01*
X158021789Y-113989711D01*
X158021786Y-113989707D01*
X157910292Y-113878213D01*
X157910288Y-113878210D01*
X157779185Y-113790609D01*
X157779172Y-113790602D01*
X157633000Y-113730057D01*
X157578596Y-113686217D01*
X157556531Y-113619922D01*
X157573810Y-113552223D01*
X157592767Y-113527818D01*
X157664233Y-113456353D01*
X157746366Y-113333432D01*
X157769940Y-113276520D01*
X161403099Y-113276520D01*
X161431940Y-113421507D01*
X161431943Y-113421517D01*
X161488512Y-113558088D01*
X161488519Y-113558101D01*
X161570648Y-113681015D01*
X161570651Y-113681019D01*
X161675180Y-113785548D01*
X161675184Y-113785551D01*
X161798098Y-113867680D01*
X161798111Y-113867687D01*
X161934682Y-113924256D01*
X161934687Y-113924258D01*
X161934691Y-113924258D01*
X161934692Y-113924259D01*
X162079679Y-113953100D01*
X162079682Y-113953100D01*
X162227520Y-113953100D01*
X162325062Y-113933696D01*
X162372513Y-113924258D01*
X162509095Y-113867684D01*
X162632016Y-113785551D01*
X162736551Y-113681016D01*
X162818684Y-113558095D01*
X162875258Y-113421513D01*
X162899759Y-113298342D01*
X162904100Y-113276520D01*
X162904100Y-113128679D01*
X162875259Y-112983692D01*
X162875258Y-112983691D01*
X162875258Y-112983687D01*
X162842259Y-112904019D01*
X162818687Y-112847111D01*
X162818680Y-112847098D01*
X162736551Y-112724184D01*
X162736548Y-112724180D01*
X162632019Y-112619651D01*
X162632015Y-112619648D01*
X162509101Y-112537519D01*
X162509088Y-112537512D01*
X162372517Y-112480943D01*
X162372507Y-112480940D01*
X162227520Y-112452100D01*
X162227518Y-112452100D01*
X162079682Y-112452100D01*
X162079680Y-112452100D01*
X161934692Y-112480940D01*
X161934682Y-112480943D01*
X161798111Y-112537512D01*
X161798098Y-112537519D01*
X161675184Y-112619648D01*
X161675180Y-112619651D01*
X161570651Y-112724180D01*
X161570648Y-112724184D01*
X161488519Y-112847098D01*
X161488512Y-112847111D01*
X161431943Y-112983682D01*
X161431940Y-112983692D01*
X161403100Y-113128679D01*
X161403100Y-113128682D01*
X161403100Y-113276518D01*
X161403100Y-113276520D01*
X161403099Y-113276520D01*
X157769940Y-113276520D01*
X157802940Y-113196850D01*
X157831782Y-113051855D01*
X157831782Y-112904019D01*
X157831782Y-112904016D01*
X157802941Y-112759029D01*
X157802940Y-112759028D01*
X157802940Y-112759024D01*
X157787533Y-112721830D01*
X157780065Y-112652363D01*
X157811339Y-112589884D01*
X157814387Y-112586725D01*
X157907951Y-112493162D01*
X157990084Y-112370241D01*
X158046658Y-112233659D01*
X158072659Y-112102948D01*
X158075500Y-112088666D01*
X158075500Y-111940825D01*
X158046659Y-111795838D01*
X158046658Y-111795837D01*
X158046658Y-111795833D01*
X158000213Y-111683704D01*
X157990087Y-111659257D01*
X157990080Y-111659244D01*
X157907951Y-111536330D01*
X157907948Y-111536326D01*
X157803419Y-111431797D01*
X157803415Y-111431794D01*
X157680501Y-111349665D01*
X157680488Y-111349658D01*
X157543917Y-111293089D01*
X157543907Y-111293086D01*
X157398920Y-111264246D01*
X157398918Y-111264246D01*
X157251082Y-111264246D01*
X157251080Y-111264246D01*
X157106092Y-111293086D01*
X157106082Y-111293089D01*
X156969511Y-111349658D01*
X156969498Y-111349665D01*
X156846584Y-111431794D01*
X156846580Y-111431797D01*
X156742051Y-111536326D01*
X156742048Y-111536330D01*
X156659919Y-111659244D01*
X156659912Y-111659257D01*
X156603343Y-111795828D01*
X156603340Y-111795838D01*
X156574500Y-111940825D01*
X156574500Y-111940828D01*
X156574500Y-112088664D01*
X156574500Y-112088666D01*
X156574499Y-112088666D01*
X156603340Y-112233653D01*
X156603342Y-112233659D01*
X156606654Y-112241656D01*
X156618747Y-112270849D01*
X156626216Y-112340318D01*
X156594941Y-112402797D01*
X156591868Y-112405983D01*
X156498330Y-112499521D01*
X156416201Y-112622435D01*
X156416194Y-112622448D01*
X156359625Y-112759019D01*
X156359622Y-112759029D01*
X156330782Y-112904016D01*
X156330782Y-112904019D01*
X156330782Y-113051855D01*
X156330782Y-113051857D01*
X156330781Y-113051857D01*
X147750500Y-113051857D01*
X147750500Y-111978338D01*
X147770185Y-111911299D01*
X147822989Y-111865544D01*
X147892147Y-111855600D01*
X147955703Y-111884625D01*
X147977602Y-111909448D01*
X148037045Y-111998411D01*
X148037051Y-111998419D01*
X148141580Y-112102948D01*
X148141584Y-112102951D01*
X148264498Y-112185080D01*
X148264511Y-112185087D01*
X148381785Y-112233663D01*
X148401087Y-112241658D01*
X148401091Y-112241658D01*
X148401092Y-112241659D01*
X148546079Y-112270500D01*
X148546082Y-112270500D01*
X148693920Y-112270500D01*
X148791462Y-112251096D01*
X148838913Y-112241658D01*
X148975495Y-112185084D01*
X149098416Y-112102951D01*
X149202951Y-111998416D01*
X149285084Y-111875495D01*
X149341658Y-111738913D01*
X149370500Y-111593918D01*
X149370500Y-111446082D01*
X149370500Y-111446079D01*
X149341659Y-111301092D01*
X149341658Y-111301091D01*
X149341658Y-111301087D01*
X149293186Y-111184064D01*
X149285087Y-111164511D01*
X149285080Y-111164498D01*
X149202951Y-111041584D01*
X149202948Y-111041580D01*
X149098419Y-110937051D01*
X149098415Y-110937048D01*
X148975501Y-110854919D01*
X148975488Y-110854912D01*
X148838917Y-110798343D01*
X148838907Y-110798340D01*
X148693920Y-110769500D01*
X148693918Y-110769500D01*
X148546082Y-110769500D01*
X148546080Y-110769500D01*
X148401092Y-110798340D01*
X148401082Y-110798343D01*
X148264511Y-110854912D01*
X148264498Y-110854919D01*
X148141584Y-110937048D01*
X148141580Y-110937051D01*
X148037051Y-111041580D01*
X148037048Y-111041584D01*
X147977602Y-111130552D01*
X147923990Y-111175357D01*
X147854665Y-111184064D01*
X147791637Y-111153910D01*
X147754918Y-111094467D01*
X147750500Y-111061661D01*
X147750500Y-109478338D01*
X147770185Y-109411299D01*
X147822989Y-109365544D01*
X147892147Y-109355600D01*
X147955703Y-109384625D01*
X147977602Y-109409448D01*
X148037045Y-109498411D01*
X148037051Y-109498419D01*
X148141580Y-109602948D01*
X148141584Y-109602951D01*
X148264498Y-109685080D01*
X148264511Y-109685087D01*
X148355895Y-109722939D01*
X148401087Y-109741658D01*
X148401091Y-109741658D01*
X148401092Y-109741659D01*
X148546079Y-109770500D01*
X148546082Y-109770500D01*
X148693920Y-109770500D01*
X148802420Y-109748917D01*
X148838913Y-109741658D01*
X148975495Y-109685084D01*
X149096966Y-109603920D01*
X159289499Y-109603920D01*
X159318340Y-109748907D01*
X159318343Y-109748917D01*
X159374912Y-109885488D01*
X159374919Y-109885501D01*
X159457048Y-110008415D01*
X159457051Y-110008419D01*
X159561580Y-110112948D01*
X159561584Y-110112951D01*
X159684498Y-110195080D01*
X159684511Y-110195087D01*
X159821082Y-110251656D01*
X159821087Y-110251658D01*
X159821091Y-110251658D01*
X159821092Y-110251659D01*
X159966079Y-110280500D01*
X159966082Y-110280500D01*
X160113920Y-110280500D01*
X160211462Y-110261096D01*
X160258913Y-110251658D01*
X160395495Y-110195084D01*
X160518416Y-110112951D01*
X160525953Y-110105414D01*
X160538580Y-110092788D01*
X160622948Y-110008419D01*
X160622951Y-110008416D01*
X160705084Y-109885495D01*
X160761658Y-109748913D01*
X160768643Y-109713800D01*
X178001157Y-109713800D01*
X178972272Y-109713800D01*
X178880386Y-109751860D01*
X178810060Y-109822186D01*
X178772000Y-109914072D01*
X178772000Y-110013528D01*
X178810060Y-110105414D01*
X178880386Y-110175740D01*
X178972272Y-110213800D01*
X178001157Y-110213800D01*
X178012350Y-110270074D01*
X178012351Y-110270076D01*
X178091500Y-110461158D01*
X178091505Y-110461168D01*
X178206410Y-110633135D01*
X178206413Y-110633139D01*
X178352660Y-110779386D01*
X178352664Y-110779389D01*
X178524631Y-110894294D01*
X178524641Y-110894299D01*
X178715724Y-110973449D01*
X178768643Y-110983975D01*
X178830554Y-111016360D01*
X178865128Y-111077076D01*
X178861389Y-111146845D01*
X178847554Y-111174484D01*
X178798056Y-111248561D01*
X178798051Y-111248570D01*
X178740725Y-111386969D01*
X178740723Y-111386977D01*
X178711500Y-111533892D01*
X178711500Y-111683707D01*
X178740723Y-111830622D01*
X178740725Y-111830630D01*
X178798051Y-111969029D01*
X178798056Y-111969038D01*
X178881280Y-112093590D01*
X178881283Y-112093594D01*
X178987205Y-112199516D01*
X178987209Y-112199519D01*
X179111761Y-112282743D01*
X179111767Y-112282746D01*
X179111768Y-112282747D01*
X179250170Y-112340075D01*
X179397092Y-112369299D01*
X179397096Y-112369300D01*
X179397097Y-112369300D01*
X179546904Y-112369300D01*
X179546905Y-112369299D01*
X179693830Y-112340075D01*
X179832232Y-112282747D01*
X179956791Y-112199519D01*
X180062719Y-112093591D01*
X180145947Y-111969032D01*
X180203275Y-111830630D01*
X180232500Y-111683703D01*
X180232500Y-111533897D01*
X180203275Y-111386970D01*
X180145947Y-111248568D01*
X180145946Y-111248567D01*
X180145943Y-111248561D01*
X180060403Y-111120542D01*
X180039525Y-111053865D01*
X180058009Y-110986484D01*
X180109988Y-110939794D01*
X180116053Y-110937090D01*
X180219355Y-110894301D01*
X180219368Y-110894294D01*
X180391335Y-110779389D01*
X180391339Y-110779386D01*
X180537586Y-110633139D01*
X180537589Y-110633135D01*
X180652494Y-110461168D01*
X180652499Y-110461158D01*
X180731648Y-110270076D01*
X180731649Y-110270074D01*
X180742843Y-110213800D01*
X179771728Y-110213800D01*
X179863614Y-110175740D01*
X179933940Y-110105414D01*
X179972000Y-110013528D01*
X179972000Y-109914072D01*
X179933940Y-109822186D01*
X179863614Y-109751860D01*
X179771728Y-109713800D01*
X180742842Y-109713800D01*
X180742843Y-109713798D01*
X180731651Y-109657533D01*
X180731648Y-109657523D01*
X180652499Y-109466441D01*
X180652494Y-109466431D01*
X180537589Y-109294464D01*
X180537586Y-109294460D01*
X180391339Y-109148213D01*
X180391335Y-109148210D01*
X180219368Y-109033305D01*
X180219358Y-109033300D01*
X180028274Y-108954150D01*
X180028266Y-108954148D01*
X179825420Y-108913800D01*
X179622000Y-108913800D01*
X179622000Y-109713800D01*
X179122000Y-109713800D01*
X179122000Y-108913800D01*
X178918579Y-108913800D01*
X178715733Y-108954148D01*
X178715725Y-108954150D01*
X178524641Y-109033300D01*
X178524631Y-109033305D01*
X178352664Y-109148210D01*
X178352660Y-109148213D01*
X178206413Y-109294460D01*
X178206410Y-109294464D01*
X178091505Y-109466431D01*
X178091500Y-109466441D01*
X178012351Y-109657523D01*
X178012350Y-109657525D01*
X178001157Y-109713800D01*
X160768643Y-109713800D01*
X160774355Y-109685084D01*
X160790500Y-109603920D01*
X160790500Y-109456079D01*
X160761659Y-109311092D01*
X160761658Y-109311091D01*
X160761658Y-109311087D01*
X160757366Y-109300725D01*
X160705087Y-109174511D01*
X160705080Y-109174498D01*
X160622951Y-109051584D01*
X160622948Y-109051580D01*
X160518419Y-108947051D01*
X160518415Y-108947048D01*
X160395501Y-108864919D01*
X160395488Y-108864912D01*
X160258917Y-108808343D01*
X160258907Y-108808340D01*
X160113920Y-108779500D01*
X160113918Y-108779500D01*
X159966082Y-108779500D01*
X159966080Y-108779500D01*
X159821092Y-108808340D01*
X159821082Y-108808343D01*
X159684511Y-108864912D01*
X159684498Y-108864919D01*
X159561584Y-108947048D01*
X159561580Y-108947051D01*
X159457051Y-109051580D01*
X159457048Y-109051584D01*
X159374919Y-109174498D01*
X159374912Y-109174511D01*
X159318343Y-109311082D01*
X159318340Y-109311092D01*
X159289500Y-109456079D01*
X159289500Y-109456082D01*
X159289500Y-109603918D01*
X159289500Y-109603920D01*
X159289499Y-109603920D01*
X149096966Y-109603920D01*
X149098416Y-109602951D01*
X149202951Y-109498416D01*
X149261161Y-109411299D01*
X149281340Y-109381099D01*
X149281340Y-109381098D01*
X149285079Y-109375503D01*
X149285080Y-109375500D01*
X149285084Y-109375495D01*
X149341658Y-109238913D01*
X149359700Y-109148213D01*
X149370500Y-109093920D01*
X149370500Y-108946079D01*
X149341659Y-108801092D01*
X149341658Y-108801091D01*
X149341658Y-108801087D01*
X149334145Y-108782948D01*
X149285087Y-108664511D01*
X149285080Y-108664498D01*
X149202951Y-108541584D01*
X149202948Y-108541580D01*
X149098419Y-108437051D01*
X149098415Y-108437048D01*
X148975501Y-108354919D01*
X148975488Y-108354912D01*
X148838917Y-108298343D01*
X148838907Y-108298340D01*
X148693920Y-108269500D01*
X148693918Y-108269500D01*
X148546082Y-108269500D01*
X148546080Y-108269500D01*
X148401092Y-108298340D01*
X148401082Y-108298343D01*
X148264511Y-108354912D01*
X148264498Y-108354919D01*
X148141584Y-108437048D01*
X148141580Y-108437051D01*
X148037051Y-108541580D01*
X148037048Y-108541584D01*
X147977602Y-108630552D01*
X147923990Y-108675357D01*
X147854665Y-108684064D01*
X147791637Y-108653910D01*
X147754918Y-108594467D01*
X147750500Y-108561661D01*
X147750500Y-108141153D01*
X154529500Y-108141153D01*
X154529500Y-108298846D01*
X154560261Y-108453489D01*
X154560264Y-108453501D01*
X154620602Y-108599172D01*
X154620609Y-108599185D01*
X154708210Y-108730288D01*
X154708213Y-108730292D01*
X154819707Y-108841786D01*
X154819711Y-108841789D01*
X154950814Y-108929390D01*
X154950827Y-108929397D01*
X155096498Y-108989735D01*
X155096503Y-108989737D01*
X155251153Y-109020499D01*
X155251156Y-109020500D01*
X155251158Y-109020500D01*
X155408844Y-109020500D01*
X155408845Y-109020499D01*
X155563497Y-108989737D01*
X155709179Y-108929394D01*
X155840289Y-108841789D01*
X155951789Y-108730289D01*
X156039394Y-108599179D01*
X156099737Y-108453497D01*
X156130500Y-108298842D01*
X156130500Y-108273920D01*
X156729499Y-108273920D01*
X156758340Y-108418907D01*
X156758343Y-108418917D01*
X156814912Y-108555488D01*
X156814919Y-108555501D01*
X156897048Y-108678415D01*
X156897051Y-108678419D01*
X157001580Y-108782948D01*
X157001584Y-108782951D01*
X157124498Y-108865080D01*
X157124511Y-108865087D01*
X157215801Y-108902900D01*
X157261087Y-108921658D01*
X157261091Y-108921658D01*
X157261092Y-108921659D01*
X157406079Y-108950500D01*
X157406082Y-108950500D01*
X157553920Y-108950500D01*
X157660022Y-108929394D01*
X157698913Y-108921658D01*
X157835495Y-108865084D01*
X157958416Y-108782951D01*
X158062951Y-108678416D01*
X158145084Y-108555495D01*
X158201658Y-108418913D01*
X158221351Y-108319911D01*
X158230500Y-108273920D01*
X158230500Y-108126079D01*
X158201659Y-107981092D01*
X158201658Y-107981091D01*
X158201658Y-107981087D01*
X158201656Y-107981082D01*
X158145087Y-107844511D01*
X158145080Y-107844498D01*
X158062951Y-107721584D01*
X158062948Y-107721580D01*
X157958419Y-107617051D01*
X157958415Y-107617048D01*
X157835501Y-107534919D01*
X157835488Y-107534912D01*
X157698917Y-107478343D01*
X157698907Y-107478340D01*
X157553920Y-107449500D01*
X157553918Y-107449500D01*
X157406082Y-107449500D01*
X157406080Y-107449500D01*
X157261092Y-107478340D01*
X157261082Y-107478343D01*
X157124511Y-107534912D01*
X157124498Y-107534919D01*
X157001584Y-107617048D01*
X157001580Y-107617051D01*
X156897051Y-107721580D01*
X156897048Y-107721584D01*
X156814919Y-107844498D01*
X156814912Y-107844511D01*
X156758343Y-107981082D01*
X156758340Y-107981092D01*
X156729500Y-108126079D01*
X156729500Y-108126082D01*
X156729500Y-108273918D01*
X156729500Y-108273920D01*
X156729499Y-108273920D01*
X156130500Y-108273920D01*
X156130500Y-108141158D01*
X156130500Y-108141155D01*
X156130499Y-108141153D01*
X156118418Y-108080419D01*
X156099737Y-107986503D01*
X156051024Y-107868898D01*
X156039397Y-107840827D01*
X156039390Y-107840814D01*
X155951789Y-107709711D01*
X155951786Y-107709707D01*
X155840292Y-107598213D01*
X155840288Y-107598210D01*
X155709185Y-107510609D01*
X155709172Y-107510602D01*
X155563501Y-107450264D01*
X155563489Y-107450261D01*
X155408845Y-107419500D01*
X155408842Y-107419500D01*
X155251158Y-107419500D01*
X155251155Y-107419500D01*
X155096510Y-107450261D01*
X155096498Y-107450264D01*
X154950827Y-107510602D01*
X154950814Y-107510609D01*
X154819711Y-107598210D01*
X154819707Y-107598213D01*
X154708213Y-107709707D01*
X154708210Y-107709711D01*
X154620609Y-107840814D01*
X154620602Y-107840827D01*
X154560264Y-107986498D01*
X154560261Y-107986510D01*
X154529500Y-108141153D01*
X147750500Y-108141153D01*
X147750500Y-106403615D01*
X147770185Y-106336576D01*
X147822989Y-106290821D01*
X147892147Y-106280877D01*
X147955703Y-106309902D01*
X147986219Y-106349811D01*
X147988436Y-106354414D01*
X148001245Y-106381014D01*
X148059359Y-106473501D01*
X148171581Y-106652101D01*
X148371198Y-106902413D01*
X148597587Y-107128802D01*
X148847899Y-107328419D01*
X149118987Y-107498755D01*
X149407442Y-107637668D01*
X149709637Y-107743410D01*
X150021771Y-107814653D01*
X150339915Y-107850499D01*
X150339916Y-107850500D01*
X150339919Y-107850500D01*
X150660084Y-107850500D01*
X150660084Y-107850499D01*
X150978229Y-107814653D01*
X151290363Y-107743410D01*
X151592558Y-107637668D01*
X151881013Y-107498755D01*
X152152101Y-107328419D01*
X152402413Y-107128802D01*
X152628802Y-106902413D01*
X152828419Y-106652101D01*
X152998755Y-106381013D01*
X153058716Y-106256503D01*
X153104635Y-106161153D01*
X154529500Y-106161153D01*
X154529500Y-106318846D01*
X154560261Y-106473489D01*
X154560264Y-106473501D01*
X154620602Y-106619172D01*
X154620609Y-106619185D01*
X154708210Y-106750288D01*
X154708213Y-106750292D01*
X154819707Y-106861786D01*
X154819711Y-106861789D01*
X154950814Y-106949390D01*
X154950827Y-106949397D01*
X155050060Y-106990500D01*
X155096503Y-107009737D01*
X155251153Y-107040499D01*
X155251156Y-107040500D01*
X155251158Y-107040500D01*
X155408844Y-107040500D01*
X155408845Y-107040499D01*
X155563497Y-107009737D01*
X155709179Y-106949394D01*
X155840289Y-106861789D01*
X155951789Y-106750289D01*
X156039394Y-106619179D01*
X156099737Y-106473497D01*
X156130500Y-106318842D01*
X156130500Y-106313920D01*
X156729499Y-106313920D01*
X156758340Y-106458907D01*
X156758343Y-106458917D01*
X156814912Y-106595488D01*
X156814919Y-106595501D01*
X156897048Y-106718415D01*
X156897051Y-106718419D01*
X157001580Y-106822948D01*
X157001584Y-106822951D01*
X157124498Y-106905080D01*
X157124511Y-106905087D01*
X157231469Y-106949390D01*
X157261087Y-106961658D01*
X157261091Y-106961658D01*
X157261092Y-106961659D01*
X157406079Y-106990500D01*
X157533660Y-106990500D01*
X157600699Y-107010185D01*
X157621336Y-107026814D01*
X157688445Y-107093923D01*
X157706312Y-107111790D01*
X157837414Y-107199390D01*
X157837427Y-107199397D01*
X157951172Y-107246511D01*
X157983103Y-107259737D01*
X158137753Y-107290499D01*
X158137756Y-107290500D01*
X158137758Y-107290500D01*
X158146772Y-107290500D01*
X158213811Y-107310185D01*
X158259566Y-107362989D01*
X158261333Y-107367048D01*
X158297965Y-107455488D01*
X158297972Y-107455501D01*
X158380101Y-107578415D01*
X158380104Y-107578419D01*
X158484633Y-107682948D01*
X158484637Y-107682951D01*
X158607551Y-107765080D01*
X158607564Y-107765087D01*
X158742327Y-107820907D01*
X158744140Y-107821658D01*
X158744144Y-107821658D01*
X158744145Y-107821659D01*
X158889132Y-107850500D01*
X158889135Y-107850500D01*
X159036973Y-107850500D01*
X159134515Y-107831096D01*
X159181966Y-107821658D01*
X159318548Y-107765084D01*
X159441469Y-107682951D01*
X159456061Y-107668358D01*
X159517382Y-107634873D01*
X159587073Y-107639856D01*
X159643008Y-107681726D01*
X159665360Y-107731847D01*
X159682330Y-107817159D01*
X159682333Y-107817169D01*
X159738902Y-107953740D01*
X159738909Y-107953753D01*
X159821038Y-108076667D01*
X159821041Y-108076671D01*
X159925570Y-108181200D01*
X159925574Y-108181203D01*
X160048488Y-108263332D01*
X160048501Y-108263339D01*
X160185072Y-108319908D01*
X160185077Y-108319910D01*
X160185081Y-108319910D01*
X160185082Y-108319911D01*
X160330069Y-108348752D01*
X160330072Y-108348752D01*
X160477910Y-108348752D01*
X160575452Y-108329348D01*
X160622903Y-108319910D01*
X160759485Y-108263336D01*
X160882406Y-108181203D01*
X160986941Y-108076668D01*
X161069074Y-107953747D01*
X161095685Y-107889503D01*
X161822005Y-107889503D01*
X161850846Y-108034490D01*
X161850849Y-108034500D01*
X161907418Y-108171071D01*
X161907425Y-108171084D01*
X161989554Y-108293998D01*
X161989557Y-108294002D01*
X162094086Y-108398531D01*
X162094090Y-108398534D01*
X162217004Y-108480663D01*
X162217017Y-108480670D01*
X162353588Y-108537239D01*
X162353593Y-108537241D01*
X162353597Y-108537241D01*
X162353598Y-108537242D01*
X162498585Y-108566083D01*
X162498588Y-108566083D01*
X162646426Y-108566083D01*
X162743968Y-108546679D01*
X162791419Y-108537241D01*
X162928001Y-108480667D01*
X163050922Y-108398534D01*
X163155457Y-108293999D01*
X163237590Y-108171078D01*
X163294164Y-108034496D01*
X163310225Y-107953753D01*
X163323006Y-107889503D01*
X163323006Y-107741662D01*
X163309929Y-107675920D01*
X169649499Y-107675920D01*
X169678340Y-107820907D01*
X169678343Y-107820917D01*
X169734912Y-107957488D01*
X169734919Y-107957501D01*
X169817048Y-108080415D01*
X169817051Y-108080419D01*
X169921580Y-108184948D01*
X169921584Y-108184951D01*
X170044498Y-108267080D01*
X170044511Y-108267087D01*
X170172041Y-108319911D01*
X170181087Y-108323658D01*
X170181091Y-108323658D01*
X170181092Y-108323659D01*
X170326079Y-108352500D01*
X170326082Y-108352500D01*
X170473920Y-108352500D01*
X170571462Y-108333096D01*
X170618913Y-108323658D01*
X170724547Y-108279902D01*
X170755488Y-108267087D01*
X170755488Y-108267086D01*
X170755495Y-108267084D01*
X170878416Y-108184951D01*
X170982951Y-108080416D01*
X171020946Y-108023553D01*
X173708300Y-108023553D01*
X173708300Y-108181246D01*
X173739061Y-108335889D01*
X173739064Y-108335901D01*
X173799402Y-108481572D01*
X173799409Y-108481585D01*
X173887010Y-108612688D01*
X173887013Y-108612692D01*
X173998507Y-108724186D01*
X173998511Y-108724189D01*
X174129614Y-108811790D01*
X174129627Y-108811797D01*
X174275298Y-108872135D01*
X174275303Y-108872137D01*
X174429953Y-108902899D01*
X174429956Y-108902900D01*
X174429958Y-108902900D01*
X174587644Y-108902900D01*
X174587645Y-108902899D01*
X174742297Y-108872137D01*
X174887979Y-108811794D01*
X175019089Y-108724189D01*
X175130589Y-108612689D01*
X175218194Y-108481579D01*
X175218574Y-108480663D01*
X175278535Y-108335901D01*
X175278537Y-108335897D01*
X175309300Y-108181242D01*
X175309300Y-108023558D01*
X175309300Y-108023555D01*
X175309299Y-108023553D01*
X175295415Y-107953753D01*
X175278537Y-107868903D01*
X175257104Y-107817159D01*
X175218197Y-107723227D01*
X175218190Y-107723214D01*
X175130589Y-107592111D01*
X175130586Y-107592107D01*
X175019092Y-107480613D01*
X175019088Y-107480610D01*
X174887985Y-107393009D01*
X174887972Y-107393002D01*
X174742301Y-107332664D01*
X174742289Y-107332661D01*
X174587645Y-107301900D01*
X174587642Y-107301900D01*
X174429958Y-107301900D01*
X174429955Y-107301900D01*
X174275310Y-107332661D01*
X174275298Y-107332664D01*
X174129627Y-107393002D01*
X174129614Y-107393009D01*
X173998511Y-107480610D01*
X173998507Y-107480613D01*
X173887013Y-107592107D01*
X173887010Y-107592111D01*
X173799409Y-107723214D01*
X173799402Y-107723227D01*
X173739064Y-107868898D01*
X173739061Y-107868910D01*
X173708300Y-108023553D01*
X171020946Y-108023553D01*
X171065084Y-107957495D01*
X171066637Y-107953747D01*
X171101782Y-107868898D01*
X171121658Y-107820913D01*
X171137422Y-107741665D01*
X171150500Y-107675920D01*
X171150500Y-107528079D01*
X171121659Y-107383092D01*
X171121658Y-107383091D01*
X171121658Y-107383087D01*
X171120106Y-107379339D01*
X171065087Y-107246511D01*
X171065080Y-107246498D01*
X170982951Y-107123584D01*
X170982948Y-107123580D01*
X170878419Y-107019051D01*
X170878415Y-107019048D01*
X170755501Y-106936919D01*
X170755488Y-106936912D01*
X170618917Y-106880343D01*
X170618907Y-106880340D01*
X170473920Y-106851500D01*
X170473918Y-106851500D01*
X170326082Y-106851500D01*
X170326080Y-106851500D01*
X170181092Y-106880340D01*
X170181082Y-106880343D01*
X170044511Y-106936912D01*
X170044498Y-106936919D01*
X169921584Y-107019048D01*
X169921580Y-107019051D01*
X169817051Y-107123580D01*
X169817048Y-107123584D01*
X169734919Y-107246498D01*
X169734912Y-107246511D01*
X169678343Y-107383082D01*
X169678340Y-107383092D01*
X169649500Y-107528079D01*
X169649500Y-107528082D01*
X169649500Y-107675918D01*
X169649500Y-107675920D01*
X169649499Y-107675920D01*
X163309929Y-107675920D01*
X163294165Y-107596675D01*
X163294164Y-107596674D01*
X163294164Y-107596670D01*
X163263018Y-107521477D01*
X163237593Y-107460094D01*
X163237586Y-107460081D01*
X163155457Y-107337167D01*
X163155454Y-107337163D01*
X163050925Y-107232634D01*
X163050921Y-107232631D01*
X162928007Y-107150502D01*
X162927994Y-107150495D01*
X162791423Y-107093926D01*
X162791413Y-107093923D01*
X162646426Y-107065083D01*
X162646424Y-107065083D01*
X162498588Y-107065083D01*
X162498586Y-107065083D01*
X162353598Y-107093923D01*
X162353588Y-107093926D01*
X162217017Y-107150495D01*
X162217004Y-107150502D01*
X162094090Y-107232631D01*
X162094086Y-107232634D01*
X161989557Y-107337163D01*
X161989554Y-107337167D01*
X161907425Y-107460081D01*
X161907418Y-107460094D01*
X161850849Y-107596665D01*
X161850846Y-107596675D01*
X161822006Y-107741662D01*
X161822006Y-107741665D01*
X161822006Y-107889501D01*
X161822006Y-107889503D01*
X161822005Y-107889503D01*
X161095685Y-107889503D01*
X161125648Y-107817165D01*
X161136009Y-107765080D01*
X161146691Y-107711381D01*
X161146691Y-107711380D01*
X161154489Y-107672174D01*
X161154490Y-107672172D01*
X161154490Y-107524331D01*
X161125649Y-107379344D01*
X161125648Y-107379343D01*
X161125648Y-107379339D01*
X161106314Y-107332663D01*
X161069077Y-107242763D01*
X161069070Y-107242750D01*
X160986941Y-107119836D01*
X160986938Y-107119832D01*
X160882409Y-107015303D01*
X160882405Y-107015300D01*
X160759491Y-106933171D01*
X160759478Y-106933164D01*
X160622907Y-106876595D01*
X160622897Y-106876592D01*
X160477910Y-106847752D01*
X160477908Y-106847752D01*
X160330072Y-106847752D01*
X160330070Y-106847752D01*
X160185082Y-106876592D01*
X160185072Y-106876595D01*
X160048501Y-106933164D01*
X160048488Y-106933171D01*
X159925574Y-107015300D01*
X159910978Y-107029896D01*
X159849654Y-107063379D01*
X159779962Y-107058393D01*
X159724030Y-107016520D01*
X159701682Y-106966403D01*
X159689484Y-106905084D01*
X159684711Y-106881087D01*
X159670903Y-106847752D01*
X159628140Y-106744511D01*
X159628133Y-106744498D01*
X159546004Y-106621584D01*
X159546001Y-106621580D01*
X159505249Y-106580828D01*
X159471764Y-106519505D01*
X159476748Y-106449813D01*
X159518620Y-106393880D01*
X159568739Y-106371530D01*
X159573917Y-106370500D01*
X159573918Y-106370500D01*
X159718913Y-106341658D01*
X159855495Y-106285084D01*
X159978416Y-106202951D01*
X160082951Y-106098416D01*
X160165084Y-105975495D01*
X160221658Y-105838913D01*
X160243381Y-105729707D01*
X160250500Y-105693920D01*
X171249499Y-105693920D01*
X171278340Y-105838907D01*
X171278343Y-105838917D01*
X171334912Y-105975488D01*
X171334919Y-105975501D01*
X171417048Y-106098415D01*
X171417051Y-106098419D01*
X171521580Y-106202948D01*
X171521584Y-106202951D01*
X171644498Y-106285080D01*
X171644511Y-106285087D01*
X171768818Y-106336576D01*
X171781087Y-106341658D01*
X171781091Y-106341658D01*
X171781092Y-106341659D01*
X171926079Y-106370500D01*
X171926082Y-106370500D01*
X172073920Y-106370500D01*
X172177911Y-106349814D01*
X172218913Y-106341658D01*
X172355495Y-106285084D01*
X172478416Y-106202951D01*
X172582951Y-106098416D01*
X172665084Y-105975495D01*
X172721658Y-105838913D01*
X172743381Y-105729707D01*
X172750500Y-105693920D01*
X173749499Y-105693920D01*
X173778340Y-105838907D01*
X173778343Y-105838917D01*
X173834912Y-105975488D01*
X173834919Y-105975501D01*
X173917048Y-106098415D01*
X173917051Y-106098419D01*
X174021580Y-106202948D01*
X174021584Y-106202951D01*
X174144498Y-106285080D01*
X174144511Y-106285087D01*
X174268818Y-106336576D01*
X174281087Y-106341658D01*
X174281091Y-106341658D01*
X174281092Y-106341659D01*
X174426079Y-106370500D01*
X174426082Y-106370500D01*
X174573920Y-106370500D01*
X174677911Y-106349814D01*
X174718913Y-106341658D01*
X174855495Y-106285084D01*
X174978416Y-106202951D01*
X175082951Y-106098416D01*
X175165084Y-105975495D01*
X175221658Y-105838913D01*
X175243381Y-105729707D01*
X175250500Y-105693920D01*
X175250500Y-105546079D01*
X175221659Y-105401092D01*
X175221658Y-105401091D01*
X175221658Y-105401087D01*
X175221656Y-105401082D01*
X175165087Y-105264511D01*
X175165080Y-105264498D01*
X175082951Y-105141584D01*
X175082948Y-105141580D01*
X174978419Y-105037051D01*
X174978415Y-105037048D01*
X174855501Y-104954919D01*
X174855488Y-104954912D01*
X174718917Y-104898343D01*
X174718907Y-104898340D01*
X174573920Y-104869500D01*
X174573918Y-104869500D01*
X174426082Y-104869500D01*
X174426080Y-104869500D01*
X174281092Y-104898340D01*
X174281082Y-104898343D01*
X174144511Y-104954912D01*
X174144498Y-104954919D01*
X174021584Y-105037048D01*
X174021580Y-105037051D01*
X173917051Y-105141580D01*
X173917048Y-105141584D01*
X173834919Y-105264498D01*
X173834912Y-105264511D01*
X173778343Y-105401082D01*
X173778340Y-105401092D01*
X173749500Y-105546079D01*
X173749500Y-105546082D01*
X173749500Y-105693918D01*
X173749500Y-105693920D01*
X173749499Y-105693920D01*
X172750500Y-105693920D01*
X172750500Y-105546079D01*
X172721659Y-105401092D01*
X172721658Y-105401091D01*
X172721658Y-105401087D01*
X172721656Y-105401082D01*
X172665087Y-105264511D01*
X172665080Y-105264498D01*
X172582951Y-105141584D01*
X172582948Y-105141580D01*
X172478419Y-105037051D01*
X172478415Y-105037048D01*
X172355501Y-104954919D01*
X172355488Y-104954912D01*
X172218917Y-104898343D01*
X172218907Y-104898340D01*
X172073920Y-104869500D01*
X172073918Y-104869500D01*
X171926082Y-104869500D01*
X171926080Y-104869500D01*
X171781092Y-104898340D01*
X171781082Y-104898343D01*
X171644511Y-104954912D01*
X171644498Y-104954919D01*
X171521584Y-105037048D01*
X171521580Y-105037051D01*
X171417051Y-105141580D01*
X171417048Y-105141584D01*
X171334919Y-105264498D01*
X171334912Y-105264511D01*
X171278343Y-105401082D01*
X171278340Y-105401092D01*
X171249500Y-105546079D01*
X171249500Y-105546082D01*
X171249500Y-105693918D01*
X171249500Y-105693920D01*
X171249499Y-105693920D01*
X160250500Y-105693920D01*
X160250500Y-105546079D01*
X160221659Y-105401092D01*
X160221658Y-105401091D01*
X160221658Y-105401087D01*
X160221656Y-105401082D01*
X160165087Y-105264511D01*
X160165080Y-105264498D01*
X160082951Y-105141584D01*
X160082948Y-105141580D01*
X159978419Y-105037051D01*
X159978415Y-105037048D01*
X159855501Y-104954919D01*
X159855488Y-104954912D01*
X159718917Y-104898343D01*
X159718907Y-104898340D01*
X159573920Y-104869500D01*
X159573918Y-104869500D01*
X159426082Y-104869500D01*
X159426080Y-104869500D01*
X159281092Y-104898340D01*
X159281082Y-104898343D01*
X159144511Y-104954912D01*
X159144498Y-104954919D01*
X159021584Y-105037048D01*
X159021580Y-105037051D01*
X158917051Y-105141580D01*
X158917048Y-105141584D01*
X158834919Y-105264498D01*
X158834912Y-105264511D01*
X158778343Y-105401082D01*
X158778340Y-105401092D01*
X158749500Y-105546079D01*
X158749500Y-105658700D01*
X158729815Y-105725739D01*
X158677011Y-105771494D01*
X158607853Y-105781438D01*
X158578048Y-105773261D01*
X158450101Y-105720264D01*
X158450089Y-105720261D01*
X158295445Y-105689500D01*
X158295442Y-105689500D01*
X158137758Y-105689500D01*
X158080241Y-105700940D01*
X158010650Y-105694711D01*
X157968371Y-105667003D01*
X157958419Y-105657051D01*
X157958415Y-105657048D01*
X157835501Y-105574919D01*
X157835488Y-105574912D01*
X157698917Y-105518343D01*
X157698907Y-105518340D01*
X157553920Y-105489500D01*
X157553918Y-105489500D01*
X157406082Y-105489500D01*
X157406080Y-105489500D01*
X157261092Y-105518340D01*
X157261082Y-105518343D01*
X157124511Y-105574912D01*
X157124498Y-105574919D01*
X157001584Y-105657048D01*
X157001580Y-105657051D01*
X156897051Y-105761580D01*
X156897048Y-105761584D01*
X156814919Y-105884498D01*
X156814912Y-105884511D01*
X156758343Y-106021082D01*
X156758340Y-106021092D01*
X156729500Y-106166079D01*
X156729500Y-106166082D01*
X156729500Y-106313918D01*
X156729500Y-106313920D01*
X156729499Y-106313920D01*
X156130500Y-106313920D01*
X156130500Y-106161158D01*
X156130500Y-106161155D01*
X156130499Y-106161153D01*
X156118020Y-106098416D01*
X156099737Y-106006503D01*
X156049207Y-105884511D01*
X156039397Y-105860827D01*
X156039390Y-105860814D01*
X155951789Y-105729711D01*
X155951786Y-105729707D01*
X155840292Y-105618213D01*
X155840288Y-105618210D01*
X155709185Y-105530609D01*
X155709172Y-105530602D01*
X155563501Y-105470264D01*
X155563489Y-105470261D01*
X155408845Y-105439500D01*
X155408842Y-105439500D01*
X155251158Y-105439500D01*
X155251155Y-105439500D01*
X155096510Y-105470261D01*
X155096498Y-105470264D01*
X154950827Y-105530602D01*
X154950814Y-105530609D01*
X154819711Y-105618210D01*
X154819707Y-105618213D01*
X154708213Y-105729707D01*
X154708210Y-105729711D01*
X154620609Y-105860814D01*
X154620602Y-105860827D01*
X154560264Y-106006498D01*
X154560261Y-106006510D01*
X154529500Y-106161153D01*
X153104635Y-106161153D01*
X153133476Y-106101264D01*
X153133476Y-106101262D01*
X153137665Y-106092565D01*
X153137667Y-106092560D01*
X153137666Y-106092560D01*
X153137668Y-106092558D01*
X153243410Y-105790363D01*
X153314653Y-105478229D01*
X153350500Y-105160081D01*
X153350500Y-104839919D01*
X153314653Y-104521771D01*
X153243410Y-104209637D01*
X153137668Y-103907442D01*
X152998755Y-103618987D01*
X152828419Y-103347899D01*
X152628802Y-103097587D01*
X152402413Y-102871198D01*
X152152101Y-102671581D01*
X151943237Y-102540343D01*
X151881010Y-102501243D01*
X151849814Y-102486220D01*
X151797955Y-102439397D01*
X151779642Y-102371970D01*
X151800690Y-102305346D01*
X151854416Y-102260678D01*
X151903616Y-102250500D01*
X158957649Y-102250500D01*
X159024688Y-102270185D01*
G37*
%TD.AperFunction*%
%TD*%
M02*
