%TF.GenerationSoftware,KiCad,Pcbnew,9.0.4*%
%TF.CreationDate,2025-11-28T22:46:11-05:00*%
%TF.ProjectId,STM32H743VIT6 FC,53544d33-3248-4373-9433-564954362046,rev?*%
%TF.SameCoordinates,Original*%
%TF.FileFunction,Copper,L4,Bot*%
%TF.FilePolarity,Positive*%
%FSLAX46Y46*%
G04 Gerber Fmt 4.6, Leading zero omitted, Abs format (unit mm)*
G04 Created by KiCad (PCBNEW 9.0.4) date 2025-11-28 22:46:11*
%MOMM*%
%LPD*%
G01*
G04 APERTURE LIST*
G04 Aperture macros list*
%AMRoundRect*
0 Rectangle with rounded corners*
0 $1 Rounding radius*
0 $2 $3 $4 $5 $6 $7 $8 $9 X,Y pos of 4 corners*
0 Add a 4 corners polygon primitive as box body*
4,1,4,$2,$3,$4,$5,$6,$7,$8,$9,$2,$3,0*
0 Add four circle primitives for the rounded corners*
1,1,$1+$1,$2,$3*
1,1,$1+$1,$4,$5*
1,1,$1+$1,$6,$7*
1,1,$1+$1,$8,$9*
0 Add four rect primitives between the rounded corners*
20,1,$1+$1,$2,$3,$4,$5,0*
20,1,$1+$1,$4,$5,$6,$7,0*
20,1,$1+$1,$6,$7,$8,$9,0*
20,1,$1+$1,$8,$9,$2,$3,0*%
G04 Aperture macros list end*
%TA.AperFunction,ComponentPad*%
%ADD10C,4.700000*%
%TD*%
%TA.AperFunction,HeatsinkPad*%
%ADD11C,0.500000*%
%TD*%
%TA.AperFunction,HeatsinkPad*%
%ADD12R,1.600000X0.500000*%
%TD*%
%TA.AperFunction,ComponentPad*%
%ADD13O,1.800000X1.100000*%
%TD*%
%TA.AperFunction,SMDPad,CuDef*%
%ADD14RoundRect,0.237500X0.250000X0.237500X-0.250000X0.237500X-0.250000X-0.237500X0.250000X-0.237500X0*%
%TD*%
%TA.AperFunction,SMDPad,CuDef*%
%ADD15RoundRect,0.237500X-0.300000X-0.237500X0.300000X-0.237500X0.300000X0.237500X-0.300000X0.237500X0*%
%TD*%
%TA.AperFunction,SMDPad,CuDef*%
%ADD16R,0.600000X1.550000*%
%TD*%
%TA.AperFunction,SMDPad,CuDef*%
%ADD17R,1.200000X1.800000*%
%TD*%
%TA.AperFunction,SMDPad,CuDef*%
%ADD18RoundRect,0.237500X0.300000X0.237500X-0.300000X0.237500X-0.300000X-0.237500X0.300000X-0.237500X0*%
%TD*%
%TA.AperFunction,SMDPad,CuDef*%
%ADD19RoundRect,0.150000X0.512500X0.150000X-0.512500X0.150000X-0.512500X-0.150000X0.512500X-0.150000X0*%
%TD*%
%TA.AperFunction,SMDPad,CuDef*%
%ADD20RoundRect,0.150000X-0.512500X-0.150000X0.512500X-0.150000X0.512500X0.150000X-0.512500X0.150000X0*%
%TD*%
%TA.AperFunction,SMDPad,CuDef*%
%ADD21RoundRect,0.250000X-0.600000X-2.550000X0.600000X-2.550000X0.600000X2.550000X-0.600000X2.550000X0*%
%TD*%
%TA.AperFunction,SMDPad,CuDef*%
%ADD22RoundRect,0.237500X-0.250000X-0.237500X0.250000X-0.237500X0.250000X0.237500X-0.250000X0.237500X0*%
%TD*%
%TA.AperFunction,ViaPad*%
%ADD23C,0.600000*%
%TD*%
%TA.AperFunction,ViaPad*%
%ADD24C,0.500000*%
%TD*%
%TA.AperFunction,Conductor*%
%ADD25C,0.300000*%
%TD*%
%TA.AperFunction,Conductor*%
%ADD26C,0.500000*%
%TD*%
%TA.AperFunction,Conductor*%
%ADD27C,0.200000*%
%TD*%
G04 APERTURE END LIST*
D10*
%TO.P,H1,*%
%TO.N,*%
X150500000Y-105000000D03*
%TD*%
D11*
%TO.P,U_3V1,7,EP*%
%TO.N,GND*%
X173374200Y-125525300D03*
D12*
X173924200Y-125525300D03*
D11*
X174474200Y-125525300D03*
%TD*%
D10*
%TO.P,H3,*%
%TO.N,*%
X150500000Y-135500000D03*
%TD*%
D13*
%TO.P,J1,SH1,SHELL_GND*%
%TO.N,GND*%
X182372000Y-119753800D03*
%TO.P,J1,SH2,SHELL_GND*%
X182372000Y-109963800D03*
%TO.P,J1,SH3,SHELL_GND*%
X179372000Y-119753800D03*
%TO.P,J1,SH4,SHELL_GND*%
X179372000Y-109963800D03*
%TD*%
D10*
%TO.P,,*%
%TO.N,*%
X181000000Y-135500000D03*
%TD*%
%TO.P,H2,*%
%TO.N,*%
X181000000Y-105000000D03*
%TD*%
%TO.P,H4,*%
%TO.N,*%
X181000000Y-135500000D03*
%TD*%
D14*
%TO.P,ADC_R2,1*%
%TO.N,ADC_VBAT*%
X154075000Y-128869600D03*
%TO.P,ADC_R2,2*%
%TO.N,GND*%
X152250000Y-128869600D03*
%TD*%
D15*
%TO.P,5V_C8,1*%
%TO.N,BAT*%
X159284500Y-129794000D03*
%TO.P,5V_C8,2*%
%TO.N,GND*%
X161009500Y-129794000D03*
%TD*%
D16*
%TO.P,VTX_J1,1,Pin_1*%
%TO.N,9V_REG*%
X173730000Y-133865000D03*
%TO.P,VTX_J1,2,Pin_2*%
%TO.N,GND*%
X172730000Y-133865000D03*
%TO.P,VTX_J1,3,Pin_3*%
%TO.N,UART3_TX*%
X171730000Y-133865000D03*
%TO.P,VTX_J1,4,Pin_4*%
%TO.N,UART3_RX*%
X170730000Y-133865000D03*
%TO.P,VTX_J1,5,Pin_5*%
%TO.N,GND*%
X169730000Y-133865000D03*
%TO.P,VTX_J1,6,Pin_6*%
%TO.N,UART5_RX*%
X168730000Y-133865000D03*
D17*
%TO.P,VTX_J1,7*%
%TO.N,N/C*%
X175030000Y-137740000D03*
%TO.P,VTX_J1,8*%
X167430000Y-137740000D03*
%TD*%
D18*
%TO.P,9V_C11,1*%
%TO.N,9V_REG*%
X172569150Y-120528900D03*
%TO.P,9V_C11,2*%
%TO.N,GND*%
X170844150Y-120528900D03*
%TD*%
D19*
%TO.P,U3,1,GND*%
%TO.N,GND*%
X169534150Y-115448900D03*
%TO.P,U3,2,SW*%
%TO.N,Net-(U3-SW)*%
X169534150Y-116398900D03*
%TO.P,U3,3,VIN*%
%TO.N,BAT*%
X169534150Y-117348900D03*
%TO.P,U3,4,FB*%
%TO.N,Net-(U3-FB)*%
X167259150Y-117348900D03*
%TO.P,U3,5,EN*%
%TO.N,unconnected-(U3-EN-Pad5)*%
X167259150Y-116398900D03*
%TO.P,U3,6,BOOT*%
%TO.N,Net-(U3-BOOT)*%
X167259150Y-115448900D03*
%TD*%
D18*
%TO.P,9V_C8,1*%
%TO.N,BAT*%
X169259150Y-119065700D03*
%TO.P,9V_C8,2*%
%TO.N,GND*%
X167534150Y-119065700D03*
%TD*%
D14*
%TO.P,USB_R0,1*%
%TO.N,Net-(USB_D1-K)*%
X180236500Y-123585200D03*
%TO.P,USB_R0,2*%
%TO.N,GND*%
X178411500Y-123585200D03*
%TD*%
%TO.P,9V_R0,1*%
%TO.N,Net-(9V_D1-K)*%
X180236500Y-126505200D03*
%TO.P,9V_R0,2*%
%TO.N,GND*%
X178411500Y-126505200D03*
%TD*%
D20*
%TO.P,U1,1,GND*%
%TO.N,GND*%
X157775000Y-128100000D03*
%TO.P,U1,2,SW*%
%TO.N,Net-(U1-SW)*%
X157775000Y-127150000D03*
%TO.P,U1,3,VIN*%
%TO.N,BAT*%
X157775000Y-126200000D03*
%TO.P,U1,4,FB*%
%TO.N,Net-(U1-FB)*%
X160050000Y-126200000D03*
%TO.P,U1,5,EN*%
%TO.N,unconnected-(U1-EN-Pad5)*%
X160050000Y-127150000D03*
%TO.P,U1,6,BOOT*%
%TO.N,Net-(U1-BOOT)*%
X160050000Y-128100000D03*
%TD*%
D18*
%TO.P,5V_C12,1*%
%TO.N,5V_REG*%
X160037500Y-123001800D03*
%TO.P,5V_C12,2*%
%TO.N,Net-(U1-FB)*%
X158312500Y-123001800D03*
%TD*%
D15*
%TO.P,5V_C7,1*%
%TO.N,BAT*%
X159284500Y-131267200D03*
%TO.P,5V_C7,2*%
%TO.N,GND*%
X161009500Y-131267200D03*
%TD*%
D18*
%TO.P,5V_C10,1*%
%TO.N,5V_REG*%
X163381350Y-123009800D03*
%TO.P,5V_C10,2*%
%TO.N,GND*%
X161656350Y-123009800D03*
%TD*%
%TO.P,9V_C7,1*%
%TO.N,BAT*%
X169259150Y-120538900D03*
%TO.P,9V_C7,2*%
%TO.N,GND*%
X167534150Y-120538900D03*
%TD*%
D15*
%TO.P,5V_C9,1*%
%TO.N,Net-(U1-BOOT)*%
X159162500Y-124475000D03*
%TO.P,5V_C9,2*%
%TO.N,Net-(U1-SW)*%
X160887500Y-124475000D03*
%TD*%
D18*
%TO.P,ADC_C1,1*%
%TO.N,ADC_VBAT*%
X154025000Y-130342800D03*
%TO.P,ADC_C1,2*%
%TO.N,GND*%
X152300000Y-130342800D03*
%TD*%
D14*
%TO.P,3.3V_R2,1*%
%TO.N,Net-(MCU_D2-K)*%
X180236500Y-129425200D03*
%TO.P,3.3V_R2,2*%
%TO.N,GND*%
X178411500Y-129425200D03*
%TD*%
%TO.P,5V_R7,1*%
%TO.N,5V_REG*%
X160087500Y-121528600D03*
%TO.P,5V_R7,2*%
%TO.N,Net-(U1-FB)*%
X158262500Y-121528600D03*
%TD*%
D21*
%TO.P,5V_L1,1,1*%
%TO.N,Net-(U1-SW)*%
X163327300Y-127161200D03*
%TO.P,5V_L1,2,2*%
%TO.N,5V_REG*%
X167227300Y-127161200D03*
%TD*%
D18*
%TO.P,9V_C12,1*%
%TO.N,9V_REG*%
X169269150Y-112255700D03*
%TO.P,9V_C12,2*%
%TO.N,Net-(U3-FB)*%
X167544150Y-112255700D03*
%TD*%
D15*
%TO.P,9V_C9,1*%
%TO.N,Net-(U3-BOOT)*%
X167544150Y-113728900D03*
%TO.P,9V_C9,2*%
%TO.N,Net-(U3-SW)*%
X169269150Y-113728900D03*
%TD*%
D22*
%TO.P,5V_R8,1*%
%TO.N,Net-(U1-FB)*%
X158262500Y-120055400D03*
%TO.P,5V_R8,2*%
%TO.N,GND*%
X160087500Y-120055400D03*
%TD*%
D14*
%TO.P,9V_R7,1*%
%TO.N,9V_REG*%
X169319150Y-110782500D03*
%TO.P,9V_R7,2*%
%TO.N,Net-(U3-FB)*%
X167494150Y-110782500D03*
%TD*%
%TO.P,3.3V_R1,1*%
%TO.N,Net-(MCU_D1-K)*%
X180236500Y-130885200D03*
%TO.P,3.3V_R1,2*%
%TO.N,GND*%
X178411500Y-130885200D03*
%TD*%
%TO.P,3.3V_R3,1*%
%TO.N,Net-(MCU_D3-K)*%
X180236500Y-127965200D03*
%TO.P,3.3V_R3,2*%
%TO.N,GND*%
X178411500Y-127965200D03*
%TD*%
D22*
%TO.P,9V_R8,1*%
%TO.N,Net-(U3-FB)*%
X167494150Y-109309300D03*
%TO.P,9V_R8,2*%
%TO.N,GND*%
X169319150Y-109309300D03*
%TD*%
D14*
%TO.P,3V3_R0,1*%
%TO.N,Net-(3V3_D1-K)*%
X180236500Y-122125200D03*
%TO.P,3V3_R0,2*%
%TO.N,GND*%
X178411500Y-122125200D03*
%TD*%
D18*
%TO.P,MCU_C2,1*%
%TO.N,3.3V*%
X154025000Y-131800000D03*
%TO.P,MCU_C2,2*%
%TO.N,GND*%
X152300000Y-131800000D03*
%TD*%
%TO.P,5V_C11,1*%
%TO.N,5V_REG*%
X164337500Y-130975000D03*
%TO.P,5V_C11,2*%
%TO.N,GND*%
X162612500Y-130975000D03*
%TD*%
D22*
%TO.P,ADC_R1,1*%
%TO.N,BAT*%
X152250000Y-127396400D03*
%TO.P,ADC_R1,2*%
%TO.N,ADC_VBAT*%
X154075000Y-127396400D03*
%TD*%
D18*
%TO.P,9V_C10,1*%
%TO.N,9V_REG*%
X172569150Y-112258900D03*
%TO.P,9V_C10,2*%
%TO.N,GND*%
X170844150Y-112258900D03*
%TD*%
D14*
%TO.P,5V_R0,1*%
%TO.N,Net-(5V_D1-K)*%
X180236500Y-125045200D03*
%TO.P,5V_R0,2*%
%TO.N,GND*%
X178411500Y-125045200D03*
%TD*%
D16*
%TO.P,ESC_J1,1,Pin_1*%
%TO.N,GND*%
X162250000Y-106631200D03*
%TO.P,ESC_J1,2,Pin_2*%
%TO.N,BAT*%
X163250000Y-106631200D03*
%TO.P,ESC_J1,3,Pin_3*%
%TO.N,MOTOR1*%
X164250000Y-106631200D03*
%TO.P,ESC_J1,4,Pin_4*%
%TO.N,MOTOR2*%
X165250000Y-106631200D03*
%TO.P,ESC_J1,5,Pin_5*%
%TO.N,MOTOR3*%
X166250000Y-106631200D03*
%TO.P,ESC_J1,6,Pin_6*%
%TO.N,MOTOR4*%
X167250000Y-106631200D03*
%TO.P,ESC_J1,7,Pin_7*%
%TO.N,ADC_CURR*%
X168250000Y-106631200D03*
%TO.P,ESC_J1,8,Pin_8*%
%TO.N,UART7_RX*%
X169250000Y-106631200D03*
D17*
%TO.P,ESC_J1,9*%
%TO.N,N/C*%
X160950000Y-102755200D03*
%TO.P,ESC_J1,10*%
X170550000Y-102755200D03*
%TD*%
D16*
%TO.P,GPS_J1,1,Pin_1*%
%TO.N,I2C1_SDA*%
X162770000Y-133865000D03*
%TO.P,GPS_J1,2,Pin_2*%
%TO.N,I2C1_SCL*%
X161770000Y-133865000D03*
%TO.P,GPS_J1,3,Pin_3*%
%TO.N,5V*%
X160770000Y-133865000D03*
%TO.P,GPS_J1,4,Pin_4*%
%TO.N,GND*%
X159770000Y-133865000D03*
%TO.P,GPS_J1,5,Pin_5*%
%TO.N,UART8_TX*%
X158770000Y-133865000D03*
%TO.P,GPS_J1,6,Pin_6*%
%TO.N,UART8_RX*%
X157770000Y-133865000D03*
D17*
%TO.P,GPS_J1,7*%
%TO.N,N/C*%
X164070000Y-137740000D03*
%TO.P,GPS_J1,8*%
X156470000Y-137740000D03*
%TD*%
D21*
%TO.P,9V_L1,1,1*%
%TO.N,Net-(U3-SW)*%
X172546650Y-116398900D03*
%TO.P,9V_L1,2,2*%
%TO.N,9V_REG*%
X176446650Y-116398900D03*
%TD*%
D23*
%TO.N,GND*%
X150400000Y-113300000D03*
D24*
%TO.N,UART3_TX*%
X170599199Y-122867419D03*
X166369998Y-137380000D03*
%TO.N,UART5_RX*%
X165750000Y-133300000D03*
X159500000Y-137380000D03*
X169710000Y-125650000D03*
%TO.N,UART3_RX*%
X171589109Y-122270891D03*
X170730000Y-135750421D03*
X165119111Y-136740498D03*
%TO.N,GYRO_CLKIN*%
X161783500Y-127485000D03*
X166319200Y-118922800D03*
%TO.N,GYRO_INT1*%
X157059998Y-133282000D03*
X167800000Y-123661795D03*
%TO.N,GYRO_CS*%
X152286000Y-124970000D03*
X157460000Y-128810000D03*
%TO.N,GYRO_SCK*%
X155751000Y-124020000D03*
X157363687Y-130488928D03*
%TO.N,SPI2_NSS*%
X162830000Y-119065800D03*
X176150000Y-131680000D03*
X170636566Y-121750000D03*
X172385897Y-124145016D03*
%TO.N,Net-(USB_D1-K)*%
X180214200Y-123585200D03*
%TO.N,UART2_TX*%
X174500000Y-105620000D03*
%TO.N,UART2_RX*%
X158963053Y-107100000D03*
X160040000Y-109530000D03*
X172000000Y-105620000D03*
%TO.N,UART1_RX*%
X170653905Y-115663856D03*
X182880000Y-127770000D03*
%TO.N,UART1_TX*%
X182880000Y-130270000D03*
X170270359Y-118085701D03*
%TO.N,LED_STRIP*%
X148620000Y-126520000D03*
X152240000Y-124099999D03*
%TO.N,BEEPER*%
X162572506Y-107815583D03*
X148620000Y-109020000D03*
X160403990Y-107598252D03*
%TO.N,LED2*%
X171625000Y-119700000D03*
X177685288Y-127187946D03*
%TO.N,LED1*%
X177000000Y-125175000D03*
X172962748Y-123731076D03*
%TO.N,UART8_TX*%
X158779001Y-133636903D03*
X155040444Y-120729474D03*
%TO.N,UART8_RX*%
X156200000Y-118500000D03*
X159500000Y-135100000D03*
%TO.N,MOTOR2*%
X163121000Y-121793000D03*
X164500000Y-103124000D03*
%TO.N,MOTOR1*%
X162010002Y-103124000D03*
X161835000Y-124567497D03*
%TO.N,UART7_RX*%
X170400000Y-107602000D03*
X174500000Y-103124000D03*
X159840000Y-128860000D03*
%TO.N,ADC_CURR*%
X162153600Y-113202600D03*
X162153600Y-119837200D03*
X162164625Y-121016625D03*
X172000000Y-103124000D03*
%TO.N,MOTOR4*%
X165275625Y-123825625D03*
X169362000Y-103262000D03*
%TO.N,MOTOR3*%
X164388800Y-122859800D03*
X167000000Y-103124000D03*
%TO.N,I2C1_SCL*%
X168826260Y-135690000D03*
X158231394Y-117231394D03*
%TO.N,I2C1_SDA*%
X172009769Y-135100002D03*
X158851000Y-115850000D03*
X170768208Y-136621011D03*
%TO.N,CAM*%
X148620000Y-111520000D03*
X159500000Y-105620000D03*
%TO.N,UART4_TX*%
X148620000Y-114020000D03*
X157325000Y-112014746D03*
%TO.N,UART4_RX*%
X157081282Y-112977937D03*
X148620000Y-116520000D03*
%TO.N,ADC_VBAT*%
X154075306Y-125940225D03*
%TO.N,Net-(9V_D1-K)*%
X180214200Y-126505200D03*
D23*
%TO.N,9V_REG*%
X172000000Y-137380000D03*
D24*
%TO.N,Net-(5V_D1-K)*%
X180214200Y-125045200D03*
D23*
%TO.N,5V_REG*%
X148685000Y-128955000D03*
X160087500Y-121528600D03*
X148620000Y-119020000D03*
X173775000Y-121425000D03*
X158216600Y-106490000D03*
X157400000Y-114500000D03*
D24*
%TO.N,Net-(U1-SW)*%
X158563754Y-127461292D03*
X160887500Y-124475000D03*
D23*
%TO.N,BAT*%
X159500000Y-103124000D03*
D24*
%TO.N,Net-(3V3_D1-K)*%
X180214200Y-122125200D03*
D23*
%TO.N,3.3V*%
X171450000Y-125962500D03*
X176377207Y-120622793D03*
X153162501Y-130993927D03*
X174508800Y-108102400D03*
X169075000Y-127600000D03*
X148620000Y-131520000D03*
%TO.N,5V*%
X182880000Y-125270000D03*
X167000000Y-134876800D03*
X172450000Y-124960000D03*
X167600000Y-132650000D03*
X174381813Y-123435560D03*
D24*
%TO.N,Net-(MCU_D3-K)*%
X180214200Y-127965200D03*
%TO.N,Net-(MCU_D2-K)*%
X180214200Y-129425200D03*
%TO.N,Net-(MCU_D1-K)*%
X180214200Y-130885200D03*
D23*
%TO.N,GND*%
X160172400Y-130530600D03*
X170844150Y-120528900D03*
X150270000Y-129530000D03*
X162000000Y-105620000D03*
X176816000Y-134366000D03*
X161837755Y-131947902D03*
X155750000Y-124850000D03*
X162000000Y-137380000D03*
X172855800Y-130378200D03*
X164500000Y-134876800D03*
X175120000Y-109650000D03*
X174410000Y-130378200D03*
X177300000Y-121800000D03*
X162560000Y-123825000D03*
X171625000Y-113200000D03*
X164780000Y-132950000D03*
X176250000Y-126000000D03*
X158102500Y-130782660D03*
X154900000Y-116900000D03*
X173830000Y-110850000D03*
X171460000Y-130378200D03*
X175768000Y-120015000D03*
X152041230Y-126461400D03*
X176450506Y-127683808D03*
X151290000Y-131810000D03*
X172855800Y-131770000D03*
X152235000Y-121485000D03*
X169500000Y-137380000D03*
X159800000Y-133600000D03*
X152200000Y-110061130D03*
X153061862Y-129876573D03*
X152896372Y-128207929D03*
X165917300Y-129576601D03*
X161925600Y-128540000D03*
X178409600Y-132080000D03*
X169754169Y-105443991D03*
X158822688Y-128122395D03*
X160087500Y-120055400D03*
X157000000Y-103124000D03*
X176500000Y-110940000D03*
X168760000Y-108530000D03*
X170927107Y-114252107D03*
X166879200Y-121175000D03*
X149890000Y-118850000D03*
X163370666Y-132741860D03*
X171080000Y-118820000D03*
X153820000Y-108835000D03*
X172855800Y-129130000D03*
X171577000Y-124283300D03*
X169500000Y-133550000D03*
X148620000Y-124020000D03*
X148620000Y-121520000D03*
X172008800Y-108102400D03*
X182880000Y-122770000D03*
X162540000Y-108960000D03*
X165800000Y-124400000D03*
%TO.N,3.3V*%
X155330000Y-106240000D03*
X155330000Y-108220000D03*
D24*
%TO.N,BOOT0*%
X157480000Y-106240000D03*
X157480000Y-108200000D03*
D23*
%TO.N,GND*%
X174130000Y-115270000D03*
X156115001Y-109684149D03*
%TO.N,9V_REG*%
X178260000Y-133240000D03*
X176904571Y-118995429D03*
%TD*%
D25*
%TO.N,GND*%
X159770000Y-133696800D02*
X159770000Y-133865000D01*
X159800000Y-133600000D02*
X159800000Y-133666800D01*
X159800000Y-133666800D02*
X159770000Y-133696800D01*
%TO.N,MOTOR4*%
X169362000Y-103262000D02*
X167250000Y-105374000D01*
X167250000Y-105374000D02*
X167250000Y-106631200D01*
%TO.N,GND*%
X178386300Y-122100000D02*
X178411500Y-122125200D01*
D26*
X177300000Y-121800000D02*
X177600000Y-122100000D01*
X177600000Y-122100000D02*
X178386300Y-122100000D01*
%TO.N,5V*%
X174381813Y-123435560D02*
X174564440Y-123435560D01*
X174564440Y-123435560D02*
X176666207Y-121333793D01*
X176671713Y-121333793D02*
X177005506Y-121000000D01*
X176666207Y-121333793D02*
X176671713Y-121333793D01*
X177005506Y-121000000D02*
X180910000Y-121000000D01*
X180910000Y-121000000D02*
X181500000Y-121590000D01*
X181500000Y-121590000D02*
X181500000Y-123890000D01*
X181500000Y-123890000D02*
X182880000Y-125270000D01*
%TO.N,3.3V*%
X178108000Y-111364294D02*
X174846106Y-108102400D01*
X176377207Y-120622793D02*
X178108000Y-118892000D01*
X178108000Y-118892000D02*
X178108000Y-111364294D01*
X174846106Y-108102400D02*
X174508800Y-108102400D01*
D27*
%TO.N,UART8_RX*%
X156200000Y-118500000D02*
X156045000Y-118500000D01*
X154525000Y-120020000D02*
X154525000Y-125375000D01*
X154525000Y-125375000D02*
X154873500Y-125723500D01*
X156502224Y-133900000D02*
X157735000Y-133900000D01*
X154873500Y-132271276D02*
X156502224Y-133900000D01*
X156045000Y-118500000D02*
X154525000Y-120020000D01*
X157735000Y-133900000D02*
X157770000Y-133865000D01*
X154873500Y-125723500D02*
X154873500Y-132271276D01*
%TO.N,UART4_RX*%
X157081282Y-112977937D02*
X157049219Y-113010000D01*
X157049219Y-113010000D02*
X151490000Y-113010000D01*
X151490000Y-113010000D02*
X148620000Y-115880000D01*
X148620000Y-115880000D02*
X148620000Y-116520000D01*
%TO.N,UART4_TX*%
X156889746Y-112450000D02*
X150190000Y-112450000D01*
X157325000Y-112014746D02*
X156889746Y-112450000D01*
X150190000Y-112450000D02*
X148620000Y-114020000D01*
D26*
%TO.N,BAT*%
X152250000Y-127396400D02*
X152946000Y-126700400D01*
X152946000Y-126700400D02*
X152946000Y-120054000D01*
X161477500Y-111522500D02*
X161477500Y-111502500D01*
X152946000Y-120054000D02*
X161477500Y-111522500D01*
%TO.N,5V_REG*%
X157400000Y-114500000D02*
X153140000Y-114500000D01*
X153140000Y-114500000D02*
X148620000Y-119020000D01*
X157400000Y-113592600D02*
X158190000Y-112802600D01*
X157400000Y-114500000D02*
X157400000Y-113592600D01*
X158190000Y-112802600D02*
X158190000Y-106516600D01*
X158190000Y-106516600D02*
X158216600Y-106490000D01*
%TO.N,Net-(U3-SW)*%
X169267700Y-113730100D02*
X168400000Y-114597800D01*
X168880201Y-116397100D02*
X169542700Y-116397100D01*
X168400000Y-114597800D02*
X168400000Y-115916899D01*
X168400000Y-115916899D02*
X168880201Y-116397100D01*
%TO.N,Net-(U3-FB)*%
X167259150Y-117348900D02*
X166749120Y-117348900D01*
X166749120Y-117348900D02*
X166189025Y-116788805D01*
X166194200Y-116783630D02*
X166000000Y-116589430D01*
X167492700Y-112206900D02*
X167492700Y-109310500D01*
X166000000Y-116589430D02*
X166000000Y-113799600D01*
X166000000Y-113799600D02*
X167542700Y-112256900D01*
X167542700Y-112256900D02*
X167492700Y-112206900D01*
%TO.N,GND*%
X172730000Y-133865000D02*
X172730000Y-131895800D01*
X172730000Y-131895800D02*
X172855800Y-131770000D01*
%TO.N,5V*%
X172450000Y-124960000D02*
X172430000Y-124980000D01*
X172430000Y-127820000D02*
X167600000Y-132650000D01*
X172430000Y-124980000D02*
X172430000Y-127820000D01*
D27*
%TO.N,SPI2_NSS*%
X175782400Y-131312400D02*
X175780000Y-131312400D01*
X175525000Y-125603626D02*
X174278934Y-124357560D01*
X176150000Y-131680000D02*
X175782400Y-131312400D01*
X175780000Y-131312400D02*
X175525000Y-131057400D01*
X173945648Y-124303300D02*
X172544181Y-124303300D01*
X175525000Y-131057400D02*
X175525000Y-125603626D01*
X174278934Y-124357560D02*
X173999907Y-124357560D01*
X173999907Y-124357560D02*
X173945648Y-124303300D01*
X172544181Y-124303300D02*
X172385897Y-124145016D01*
%TO.N,LED1*%
X177000000Y-125175000D02*
X175800000Y-125175000D01*
X175800000Y-125175000D02*
X174617873Y-123992873D01*
X174617873Y-123992873D02*
X174614187Y-123996560D01*
X174614187Y-123996560D02*
X174149439Y-123996560D01*
X174149439Y-123996560D02*
X173883955Y-123731076D01*
X173883955Y-123731076D02*
X172962748Y-123731076D01*
D25*
%TO.N,GND*%
X169500000Y-133550000D02*
X169500000Y-133697620D01*
X169500000Y-133697620D02*
X169667380Y-133865000D01*
X169667380Y-133865000D02*
X169730000Y-133865000D01*
D26*
%TO.N,5V_REG*%
X173775000Y-121425000D02*
X173775000Y-121465000D01*
X173775000Y-121465000D02*
X172190000Y-123050000D01*
X172190000Y-123050000D02*
X171350000Y-123050000D01*
X171350000Y-123050000D02*
X167238800Y-127161200D01*
X167238800Y-127161200D02*
X167227300Y-127161200D01*
D27*
%TO.N,BOOT0*%
X157480000Y-106240000D02*
X157480000Y-108200000D01*
D25*
%TO.N,3.3V*%
X155330000Y-108220000D02*
X155330000Y-106240000D01*
%TO.N,GND*%
X163370666Y-132741860D02*
X163285402Y-132656596D01*
D26*
X162471550Y-123825000D02*
X161656350Y-123009800D01*
D25*
X178411500Y-132078100D02*
X178409600Y-132080000D01*
D26*
X169319150Y-109309300D02*
X169319150Y-109089150D01*
D25*
X167316350Y-120737850D02*
X167335200Y-120737850D01*
D26*
X162250000Y-105870000D02*
X162000000Y-105620000D01*
D25*
X163285402Y-132656596D02*
X163285402Y-131947902D01*
X167534150Y-120538900D02*
X167534150Y-119065700D01*
X178411500Y-122125200D02*
X178411500Y-123585200D01*
D26*
X160272900Y-130530600D02*
X161009500Y-131267200D01*
X169319150Y-109089150D02*
X168760000Y-108530000D01*
X161009500Y-129794000D02*
X160909000Y-129794000D01*
D25*
X178411500Y-125045200D02*
X178411500Y-126505200D01*
D26*
X151300000Y-131800000D02*
X151290000Y-131810000D01*
D25*
X161301700Y-130975000D02*
X161009500Y-131267200D01*
D26*
X152300000Y-131800000D02*
X151300000Y-131800000D01*
X152250000Y-128869600D02*
X152250000Y-128854301D01*
D25*
X178411500Y-126505200D02*
X178411500Y-127965200D01*
D26*
X152595635Y-130342800D02*
X153061862Y-129876573D01*
D25*
X161837755Y-131947902D02*
X161939598Y-131947902D01*
X162612500Y-131275000D02*
X162612500Y-130975000D01*
X170572893Y-114252107D02*
X169534150Y-115290850D01*
D26*
X157797395Y-128122395D02*
X158822688Y-128122395D01*
X170844150Y-112258900D02*
X170844150Y-112419150D01*
D25*
X167335200Y-120737850D02*
X167534150Y-120538900D01*
D26*
X152300000Y-130342800D02*
X152595635Y-130342800D01*
X152250000Y-129064711D02*
X153061862Y-129876573D01*
D25*
X178411500Y-129425200D02*
X178411500Y-130885200D01*
X162612500Y-130975000D02*
X161301700Y-130975000D01*
X169534150Y-115290850D02*
X169534150Y-115448900D01*
X170927107Y-114252107D02*
X170572893Y-114252107D01*
X178411500Y-127965200D02*
X178411500Y-129425200D01*
X163285402Y-131947902D02*
X162612500Y-131275000D01*
D26*
X162250000Y-106631200D02*
X162250000Y-105870000D01*
X152250000Y-128854301D02*
X152896372Y-128207929D01*
D25*
X161939598Y-131947902D02*
X162612500Y-131275000D01*
D26*
X160909000Y-129794000D02*
X160172400Y-130530600D01*
D25*
X178411500Y-123585200D02*
X178411500Y-125045200D01*
D26*
X170844150Y-112419150D02*
X171625000Y-113200000D01*
X160172400Y-130530600D02*
X160272900Y-130530600D01*
X152250000Y-128869600D02*
X152250000Y-129064711D01*
D25*
X178411500Y-130885200D02*
X178411500Y-132078100D01*
D26*
X157775000Y-128100000D02*
X157797395Y-128122395D01*
D25*
X166879200Y-121175000D02*
X167316350Y-120737850D01*
D26*
X162560000Y-123825000D02*
X162471550Y-123825000D01*
D25*
X172840000Y-133479998D02*
X172730000Y-133589998D01*
D26*
%TO.N,5V*%
X160770000Y-135140000D02*
X161217800Y-135587800D01*
X161217800Y-135587800D02*
X166289000Y-135587800D01*
X166289000Y-135587800D02*
X167000000Y-134876800D01*
X160770000Y-133865000D02*
X160770000Y-135140000D01*
D25*
%TO.N,3.3V*%
X153162501Y-130993927D02*
X153968573Y-131800000D01*
X153968573Y-131800000D02*
X154025000Y-131800000D01*
D26*
X171450000Y-125962500D02*
X170712500Y-125962500D01*
X170712500Y-125962500D02*
X169075000Y-127600000D01*
%TO.N,BAT*%
X159500000Y-103124000D02*
X159500000Y-103924000D01*
X157509204Y-129794000D02*
X156701500Y-128986296D01*
X159269752Y-129813078D02*
X159269752Y-131286278D01*
X159500000Y-103924000D02*
X159986000Y-104410000D01*
X164978400Y-118090000D02*
X168019648Y-118090000D01*
X157211000Y-119695702D02*
X161131702Y-115775000D01*
X162303800Y-104410000D02*
X163250000Y-105356200D01*
X168019648Y-118090000D02*
X169259150Y-119329502D01*
X161131702Y-115775000D02*
X161163000Y-115775000D01*
X169267700Y-120537300D02*
X169267700Y-117622100D01*
X163250000Y-109730000D02*
X163250000Y-106631200D01*
X169267700Y-117622100D02*
X169542700Y-117347100D01*
X157775000Y-126200000D02*
X157211000Y-125636000D01*
X157775000Y-126200000D02*
X158285030Y-126200000D01*
X159284500Y-129794000D02*
X157509204Y-129794000D01*
X161163000Y-115775000D02*
X161163000Y-111817000D01*
X161477500Y-111502500D02*
X163250000Y-109730000D01*
X157264970Y-126200000D02*
X157775000Y-126200000D01*
X156701500Y-128986296D02*
X156701500Y-126763470D01*
X161163000Y-115775000D02*
X161163000Y-114274600D01*
X161163000Y-114274600D02*
X164978400Y-118090000D01*
X156701500Y-126763470D02*
X157264970Y-126200000D01*
X159986000Y-104410000D02*
X162303800Y-104410000D01*
X169259150Y-119329502D02*
X169259150Y-120538900D01*
X163250000Y-105356200D02*
X163250000Y-106631200D01*
X157211000Y-125636000D02*
X157211000Y-119695702D01*
X161163000Y-111817000D02*
X161477500Y-111502500D01*
%TO.N,Net-(U1-BOOT)*%
X160050000Y-128100000D02*
X160560030Y-128100000D01*
X160671030Y-125361000D02*
X159986000Y-125361000D01*
X160560030Y-128100000D02*
X161123500Y-127536530D01*
X159986000Y-125361000D02*
X159162500Y-124537500D01*
X161123500Y-125813470D02*
X160671030Y-125361000D01*
X161123500Y-127536530D02*
X161123500Y-125813470D01*
X159162500Y-124537500D02*
X159162500Y-124475000D01*
D25*
%TO.N,Net-(U1-SW)*%
X163046966Y-129403034D02*
X163033999Y-129403034D01*
D26*
X160887500Y-124475000D02*
X160887500Y-124642674D01*
X157775000Y-127150000D02*
X158252462Y-127150000D01*
X158252462Y-127150000D02*
X158563754Y-127461292D01*
X163327300Y-127082474D02*
X163327300Y-127161200D01*
X160887500Y-124642674D02*
X163327300Y-127082474D01*
%TO.N,5V_REG*%
X164337500Y-130975000D02*
X165575000Y-130975000D01*
X165575000Y-130975000D02*
X167227300Y-129322700D01*
X167227300Y-127161200D02*
X167227300Y-126855750D01*
X167227300Y-126855750D02*
X163381350Y-123009800D01*
D27*
X160037500Y-121578600D02*
X160087500Y-121528600D01*
D26*
X167227300Y-129322700D02*
X167227300Y-127161200D01*
X163381350Y-123009800D02*
X162121550Y-121750000D01*
X160308900Y-121750000D02*
X160087500Y-121528600D01*
X162121550Y-121750000D02*
X160308900Y-121750000D01*
X160037500Y-123001800D02*
X160037500Y-121578600D01*
%TO.N,Net-(U1-FB)*%
X157872000Y-123442300D02*
X158312500Y-123001800D01*
D27*
X158312500Y-121578600D02*
X158262500Y-121528600D01*
X158262500Y-120055400D02*
X158262500Y-121528600D01*
D26*
X159235030Y-126200000D02*
X157872000Y-124836970D01*
D27*
X158312500Y-123001800D02*
X158312500Y-121578600D01*
D26*
X160050000Y-126200000D02*
X159235030Y-126200000D01*
X157872000Y-124836970D02*
X157872000Y-123442300D01*
%TO.N,Net-(U3-BOOT)*%
X167267700Y-114005100D02*
X167542700Y-113730100D01*
X167267700Y-115447100D02*
X167267700Y-114005100D01*
%TO.N,Net-(U3-SW)*%
X170205199Y-116397100D02*
X169542700Y-116397100D01*
X172508800Y-116397100D02*
X172520000Y-116408300D01*
X169542700Y-116397100D02*
X172508800Y-116397100D01*
%TO.N,9V_REG*%
X179290000Y-132210000D02*
X178260000Y-133240000D01*
X173980000Y-134115000D02*
X173730000Y-133865000D01*
X171100850Y-110783700D02*
X169317700Y-110783700D01*
X169317700Y-112206900D02*
X169267700Y-112256900D01*
X176420000Y-116691350D02*
X176420000Y-116408300D01*
X169317700Y-110783700D02*
X169317700Y-112206900D01*
X172574050Y-120537300D02*
X176420000Y-116691350D01*
D25*
X173730000Y-133240000D02*
X173730000Y-133865000D01*
D26*
X176420000Y-116102850D02*
X176420000Y-116408300D01*
X173980000Y-135400000D02*
X173980000Y-134115000D01*
X176420000Y-116880000D02*
X176420000Y-116408300D01*
X176420000Y-115944600D02*
X176420000Y-116408300D01*
X172574050Y-112256900D02*
X171100850Y-110783700D01*
X169319150Y-112205700D02*
X169269150Y-112255700D01*
X172574050Y-112256900D02*
X176420000Y-116102850D01*
X178260000Y-133240000D02*
X173730000Y-133240000D01*
X172000000Y-137380000D02*
X173980000Y-135400000D01*
%TO.N,Net-(U3-FB)*%
X167267700Y-117347100D02*
X166757670Y-117347100D01*
X167494150Y-112205700D02*
X167544150Y-112255700D01*
D25*
%TO.N,ADC_VBAT*%
X154025000Y-130342800D02*
X154025000Y-128919600D01*
X154075000Y-128869600D02*
X154075000Y-127396400D01*
X154025000Y-128919600D02*
X154075000Y-128869600D01*
X154075000Y-127396400D02*
X154075000Y-125940531D01*
X154075000Y-125940531D02*
X154075306Y-125940225D01*
%TO.N,CAM*%
X159490000Y-105630000D02*
X154530000Y-105630000D01*
X154530000Y-105630000D02*
X148640000Y-111520000D01*
X148640000Y-111520000D02*
X148620000Y-111520000D01*
X159500000Y-105620000D02*
X159490000Y-105630000D01*
D27*
%TO.N,I2C1_SDA*%
X162680037Y-133775037D02*
X162770000Y-133865000D01*
X156672000Y-125231906D02*
X156670000Y-125233906D01*
X158833480Y-115867520D02*
X158833480Y-117350558D01*
X158441644Y-117742394D02*
X156672000Y-119512038D01*
X156670000Y-126010000D02*
X156120000Y-126560000D01*
X161715532Y-132825000D02*
X162327000Y-132825000D01*
X168500002Y-135100002D02*
X167940000Y-134540000D01*
X156120000Y-126560000D02*
X156120000Y-131110591D01*
X167435000Y-133865000D02*
X162770000Y-133865000D01*
X167940000Y-134370000D02*
X167435000Y-133865000D01*
X157059408Y-132050000D02*
X160940532Y-132050000D01*
X158851000Y-115850000D02*
X158833480Y-115867520D01*
X158443058Y-117742394D02*
X158441644Y-117742394D01*
X170768208Y-136621011D02*
X169247199Y-135100002D01*
X158742394Y-117441644D02*
X158742394Y-117443058D01*
X158742394Y-117443058D02*
X158443058Y-117742394D01*
X167940000Y-134540000D02*
X167940000Y-134370000D01*
X162327000Y-132825000D02*
X162770000Y-133268000D01*
X158833480Y-117350558D02*
X158742394Y-117441644D01*
X156672000Y-119512038D02*
X156672000Y-125231906D01*
X162770000Y-133268000D02*
X162770000Y-133865000D01*
X160940532Y-132050000D02*
X161715532Y-132825000D01*
X156670000Y-125233906D02*
X156670000Y-126010000D01*
X169247199Y-135100002D02*
X168500002Y-135100002D01*
X156120000Y-131110591D02*
X157059408Y-132050000D01*
%TO.N,I2C1_SCL*%
X156309000Y-125084374D02*
X156311000Y-125082374D01*
X161770000Y-134340000D02*
X162331000Y-134901000D01*
X161770000Y-133865000D02*
X161770000Y-134340000D01*
X155740000Y-131241123D02*
X155740000Y-126410000D01*
X168796262Y-135660002D02*
X168330002Y-135660002D01*
X164357426Y-134226000D02*
X163682426Y-134901000D01*
X156311000Y-125082374D02*
X156311000Y-119151788D01*
X168826260Y-135690000D02*
X168796262Y-135660002D01*
X161770000Y-133390000D02*
X160791000Y-132411000D01*
X156909877Y-132411000D02*
X155740000Y-131241123D01*
X167561000Y-134637000D02*
X167150000Y-134226000D01*
X162331000Y-134901000D02*
X163682426Y-134901000D01*
X161770000Y-133865000D02*
X161770000Y-133390000D01*
X168330002Y-135660002D02*
X167561000Y-134891000D01*
X156309000Y-125841000D02*
X156309000Y-125084374D01*
X160791000Y-132411000D02*
X156909877Y-132411000D01*
X156311000Y-119151788D02*
X158231394Y-117231394D01*
X161770000Y-133380000D02*
X161770000Y-133865000D01*
X167561000Y-134891000D02*
X167561000Y-134637000D01*
X167150000Y-134226000D02*
X164357426Y-134226000D01*
X155740000Y-126410000D02*
X156309000Y-125841000D01*
X163682426Y-134901000D02*
X164267626Y-134315800D01*
D25*
%TO.N,MOTOR3*%
X166250000Y-106631200D02*
X166250000Y-103874000D01*
X166250000Y-103874000D02*
X167000000Y-103124000D01*
D27*
%TO.N,ADC_CURR*%
X162153600Y-113202600D02*
X168250000Y-107106200D01*
X170770000Y-104600000D02*
X172000000Y-103370000D01*
X162153600Y-121005600D02*
X162164625Y-121016625D01*
X162164625Y-121016625D02*
X162153600Y-121027650D01*
X168250000Y-106156200D02*
X169806200Y-104600000D01*
X168250000Y-106631200D02*
X168250000Y-106156200D01*
X172000000Y-103370000D02*
X172000000Y-103124000D01*
X168250000Y-107106200D02*
X168250000Y-106631200D01*
X169806200Y-104600000D02*
X170770000Y-104600000D01*
X162153600Y-119837200D02*
X162153600Y-121005600D01*
%TO.N,UART7_RX*%
X173310531Y-103124000D02*
X174500000Y-103124000D01*
X169429200Y-106631200D02*
X170400000Y-107602000D01*
X169250000Y-106631200D02*
X169429200Y-106631200D01*
X169250000Y-106631200D02*
X169803331Y-106631200D01*
X169803331Y-106631200D02*
X173310531Y-103124000D01*
D25*
%TO.N,MOTOR1*%
X164250000Y-106631200D02*
X164250000Y-105363998D01*
X164250000Y-105363998D02*
X162010002Y-103124000D01*
%TO.N,MOTOR2*%
X165250000Y-103874000D02*
X164500000Y-103124000D01*
X165250000Y-106631200D02*
X165250000Y-103874000D01*
%TO.N,UART8_RX*%
X159500000Y-135100000D02*
X157930000Y-135100000D01*
X157930000Y-135100000D02*
X157770000Y-134940000D01*
X157770000Y-134940000D02*
X157770000Y-133865000D01*
D27*
%TO.N,UART8_TX*%
X158274000Y-132772000D02*
X158779001Y-133277001D01*
X155040444Y-120729474D02*
X155040444Y-120729556D01*
X156760346Y-132772000D02*
X158274000Y-132772000D01*
X155284500Y-125252874D02*
X155284500Y-131296154D01*
X158779001Y-133277001D02*
X158779001Y-133636903D01*
X155039000Y-125007374D02*
X155284500Y-125252874D01*
X155284500Y-131296154D02*
X156760346Y-132772000D01*
X155039000Y-120731000D02*
X155039000Y-125007374D01*
X155040444Y-120729556D02*
X155039000Y-120731000D01*
%TO.N,BEEPER*%
X162476923Y-107720000D02*
X162572506Y-107815583D01*
X160525738Y-107720000D02*
X162476923Y-107720000D01*
X160403990Y-107598252D02*
X160525738Y-107720000D01*
%TO.N,LED_STRIP*%
X152240000Y-124099999D02*
X151040001Y-124099999D01*
X151040001Y-124099999D02*
X148620000Y-126520000D01*
%TO.N,UART2_RX*%
X158963053Y-107100000D02*
X158963053Y-108453053D01*
X158963053Y-108453053D02*
X160040000Y-109530000D01*
%TO.N,SPI2_NSS*%
X170636566Y-121750000D02*
X165514200Y-121750000D01*
X165514200Y-121750000D02*
X162830000Y-119065800D01*
%TO.N,UART3_RX*%
X170730000Y-135750421D02*
X170730000Y-133865000D01*
%TO.N,UART5_RX*%
X168879002Y-133405248D02*
X168879002Y-133715998D01*
X168730000Y-133865000D02*
X168145000Y-133280000D01*
X168879002Y-133715998D02*
X168730000Y-133865000D01*
X169675000Y-125650000D02*
X168514000Y-126811000D01*
X169710000Y-125650000D02*
X169675000Y-125650000D01*
X168145000Y-133280000D02*
X165770000Y-133280000D01*
X168514000Y-130536000D02*
X165750000Y-133300000D01*
X165770000Y-133280000D02*
X165750000Y-133300000D01*
X168514000Y-126811000D02*
X168514000Y-130536000D01*
%TO.N,UART3_TX*%
X166369998Y-136778002D02*
X166569000Y-136579000D01*
X171000582Y-137182011D02*
X171449769Y-136732824D01*
X170535834Y-137182011D02*
X171000582Y-137182011D01*
X169932823Y-136579000D02*
X170535834Y-137182011D01*
X171449769Y-134145231D02*
X171730000Y-133865000D01*
X171449769Y-136732824D02*
X171449769Y-134145231D01*
X166569000Y-136579000D02*
X169932823Y-136579000D01*
X166369998Y-137380000D02*
X166369998Y-136778002D01*
D26*
%TO.N,unconnected-(U3-EN-Pad5)*%
X167777730Y-116397100D02*
X167267700Y-116397100D01*
%TD*%
M02*
