%TF.GenerationSoftware,KiCad,Pcbnew,9.0.4*%
%TF.CreationDate,2025-11-28T22:46:10-05:00*%
%TF.ProjectId,STM32H743VIT6 FC,53544d33-3248-4373-9433-564954362046,rev?*%
%TF.SameCoordinates,Original*%
%TF.FileFunction,Copper,L1,Top*%
%TF.FilePolarity,Positive*%
%FSLAX46Y46*%
G04 Gerber Fmt 4.6, Leading zero omitted, Abs format (unit mm)*
G04 Created by KiCad (PCBNEW 9.0.4) date 2025-11-28 22:46:10*
%MOMM*%
%LPD*%
G01*
G04 APERTURE LIST*
G04 Aperture macros list*
%AMRoundRect*
0 Rectangle with rounded corners*
0 $1 Rounding radius*
0 $2 $3 $4 $5 $6 $7 $8 $9 X,Y pos of 4 corners*
0 Add a 4 corners polygon primitive as box body*
4,1,4,$2,$3,$4,$5,$6,$7,$8,$9,$2,$3,0*
0 Add four circle primitives for the rounded corners*
1,1,$1+$1,$2,$3*
1,1,$1+$1,$4,$5*
1,1,$1+$1,$6,$7*
1,1,$1+$1,$8,$9*
0 Add four rect primitives between the rounded corners*
20,1,$1+$1,$2,$3,$4,$5,0*
20,1,$1+$1,$4,$5,$6,$7,0*
20,1,$1+$1,$6,$7,$8,$9,0*
20,1,$1+$1,$8,$9,$2,$3,0*%
G04 Aperture macros list end*
%TA.AperFunction,SMDPad,CuDef*%
%ADD10RoundRect,0.250000X0.550000X-0.550000X0.550000X0.550000X-0.550000X0.550000X-0.550000X-0.550000X0*%
%TD*%
%TA.AperFunction,SMDPad,CuDef*%
%ADD11RoundRect,0.250000X-0.550000X0.550000X-0.550000X-0.550000X0.550000X-0.550000X0.550000X0.550000X0*%
%TD*%
%TA.AperFunction,SMDPad,CuDef*%
%ADD12RoundRect,0.250000X-0.550000X-0.550000X0.550000X-0.550000X0.550000X0.550000X-0.550000X0.550000X0*%
%TD*%
%TA.AperFunction,SMDPad,CuDef*%
%ADD13RoundRect,0.250000X0.550000X0.550000X-0.550000X0.550000X-0.550000X-0.550000X0.550000X-0.550000X0*%
%TD*%
%TA.AperFunction,SMDPad,CuDef*%
%ADD14RoundRect,0.237500X-0.250000X-0.237500X0.250000X-0.237500X0.250000X0.237500X-0.250000X0.237500X0*%
%TD*%
%TA.AperFunction,SMDPad,CuDef*%
%ADD15RoundRect,0.237500X-0.300000X-0.237500X0.300000X-0.237500X0.300000X0.237500X-0.300000X0.237500X0*%
%TD*%
%TA.AperFunction,ComponentPad*%
%ADD16C,4.700000*%
%TD*%
%TA.AperFunction,ConnectorPad*%
%ADD17C,5.000000*%
%TD*%
%TA.AperFunction,SMDPad,CuDef*%
%ADD18RoundRect,0.150000X0.512500X0.150000X-0.512500X0.150000X-0.512500X-0.150000X0.512500X-0.150000X0*%
%TD*%
%TA.AperFunction,SMDPad,CuDef*%
%ADD19RoundRect,0.237500X0.287500X0.237500X-0.287500X0.237500X-0.287500X-0.237500X0.287500X-0.237500X0*%
%TD*%
%TA.AperFunction,SMDPad,CuDef*%
%ADD20RoundRect,0.093750X0.106250X-0.093750X0.106250X0.093750X-0.106250X0.093750X-0.106250X-0.093750X0*%
%TD*%
%TA.AperFunction,HeatsinkPad*%
%ADD21C,0.500000*%
%TD*%
%TA.AperFunction,HeatsinkPad*%
%ADD22R,1.600000X1.000000*%
%TD*%
%TA.AperFunction,SMDPad,CuDef*%
%ADD23RoundRect,0.237500X0.237500X-0.300000X0.237500X0.300000X-0.237500X0.300000X-0.237500X-0.300000X0*%
%TD*%
%TA.AperFunction,SMDPad,CuDef*%
%ADD24RoundRect,0.237500X0.237500X-0.250000X0.237500X0.250000X-0.237500X0.250000X-0.237500X-0.250000X0*%
%TD*%
%TA.AperFunction,SMDPad,CuDef*%
%ADD25RoundRect,0.052500X0.417500X0.157500X-0.417500X0.157500X-0.417500X-0.157500X0.417500X-0.157500X0*%
%TD*%
%TA.AperFunction,SMDPad,CuDef*%
%ADD26R,4.700000X4.600000*%
%TD*%
%TA.AperFunction,SMDPad,CuDef*%
%ADD27R,1.550000X0.600000*%
%TD*%
%TA.AperFunction,SMDPad,CuDef*%
%ADD28R,1.550000X0.300000*%
%TD*%
%TA.AperFunction,ComponentPad*%
%ADD29O,1.800000X1.100000*%
%TD*%
%TA.AperFunction,SMDPad,CuDef*%
%ADD30RoundRect,0.237500X-0.237500X0.300000X-0.237500X-0.300000X0.237500X-0.300000X0.237500X0.300000X0*%
%TD*%
%TA.AperFunction,SMDPad,CuDef*%
%ADD31R,1.900000X0.400000*%
%TD*%
%TA.AperFunction,SMDPad,CuDef*%
%ADD32RoundRect,0.237500X0.300000X0.237500X-0.300000X0.237500X-0.300000X-0.237500X0.300000X-0.237500X0*%
%TD*%
%TA.AperFunction,SMDPad,CuDef*%
%ADD33RoundRect,0.087500X-0.207500X-0.087500X0.207500X-0.087500X0.207500X0.087500X-0.207500X0.087500X0*%
%TD*%
%TA.AperFunction,SMDPad,CuDef*%
%ADD34RoundRect,0.087500X-0.087500X-0.207500X0.087500X-0.207500X0.087500X0.207500X-0.087500X0.207500X0*%
%TD*%
%TA.AperFunction,SMDPad,CuDef*%
%ADD35R,0.650000X1.050000*%
%TD*%
%TA.AperFunction,SMDPad,CuDef*%
%ADD36RoundRect,0.237500X-0.237500X0.250000X-0.237500X-0.250000X0.237500X-0.250000X0.237500X0.250000X0*%
%TD*%
%TA.AperFunction,SMDPad,CuDef*%
%ADD37RoundRect,0.150000X-0.150000X0.587500X-0.150000X-0.587500X0.150000X-0.587500X0.150000X0.587500X0*%
%TD*%
%TA.AperFunction,SMDPad,CuDef*%
%ADD38RoundRect,0.075000X-0.725000X-0.075000X0.725000X-0.075000X0.725000X0.075000X-0.725000X0.075000X0*%
%TD*%
%TA.AperFunction,SMDPad,CuDef*%
%ADD39RoundRect,0.075000X-0.075000X-0.725000X0.075000X-0.725000X0.075000X0.725000X-0.075000X0.725000X0*%
%TD*%
%TA.AperFunction,ViaPad*%
%ADD40C,0.600000*%
%TD*%
%TA.AperFunction,ViaPad*%
%ADD41C,0.500000*%
%TD*%
%TA.AperFunction,Conductor*%
%ADD42C,0.500000*%
%TD*%
%TA.AperFunction,Conductor*%
%ADD43C,0.300000*%
%TD*%
%TA.AperFunction,Conductor*%
%ADD44C,0.200000*%
%TD*%
G04 APERTURE END LIST*
D10*
%TO.P,AVTX_J2,1,Pin_1*%
%TO.N,BEEPER*%
X148620000Y-109020000D03*
%TO.P,AVTX_J2,2,Pin_2*%
%TO.N,CAM*%
X148620000Y-111520000D03*
%TO.P,AVTX_J2,3,Pin_3*%
%TO.N,UART4_TX*%
X148620000Y-114020000D03*
%TO.P,AVTX_J2,4,Pin_4*%
%TO.N,UART4_RX*%
X148620000Y-116520000D03*
%TO.P,AVTX_J2,5,Pin_5*%
%TO.N,5V_REG*%
X148620000Y-119020000D03*
%TO.P,AVTX_J2,6,Pin_6*%
%TO.N,GND*%
X148620000Y-121520000D03*
%TD*%
D11*
%TO.P,OTHER_J2,1,Pin_1*%
%TO.N,3.3V*%
X148620000Y-131520000D03*
%TO.P,OTHER_J2,2,Pin_2*%
%TO.N,5V_REG*%
X148620000Y-129020000D03*
%TO.P,OTHER_J2,3,Pin_3*%
%TO.N,LED_STRIP*%
X148620000Y-126520000D03*
%TO.P,OTHER_J2,4,Pin_4*%
%TO.N,GND*%
X148620000Y-124020000D03*
%TD*%
D12*
%TO.P,GPS_J2,1,Pin_1*%
%TO.N,I2C1_SDA*%
X172000000Y-134876800D03*
%TO.P,GPS_J2,2,Pin_2*%
%TO.N,I2C1_SCL*%
X169500000Y-134876800D03*
%TO.P,GPS_J2,3,Pin_3*%
%TO.N,5V*%
X167000000Y-134876800D03*
%TO.P,GPS_J2,4,Pin_4*%
%TO.N,GND*%
X164500000Y-134876800D03*
%TO.P,GPS_J2,5,Pin_5*%
%TO.N,UART8_TX*%
X162000000Y-134876800D03*
%TO.P,GPS_J2,6,Pin_6*%
%TO.N,UART8_RX*%
X159500000Y-134876800D03*
%TD*%
%TO.P,VTX_J2,1,Pin_1*%
%TO.N,9V_REG*%
X172000000Y-137380000D03*
%TO.P,VTX_J2,2,Pin_2*%
%TO.N,GND*%
X169500000Y-137380000D03*
%TO.P,VTX_J2,3,Pin_3*%
%TO.N,UART3_TX*%
X167000000Y-137380000D03*
%TO.P,VTX_J2,4,Pin_4*%
%TO.N,UART3_RX*%
X164500000Y-137380000D03*
%TO.P,VTX_J2,5,Pin_5*%
%TO.N,GND*%
X162000000Y-137380000D03*
%TO.P,VTX_J2,6,Pin_6*%
%TO.N,UART5_RX*%
X159500000Y-137380000D03*
%TD*%
D11*
%TO.P,RX_J2,1,Pin_1*%
%TO.N,UART1_TX*%
X182880000Y-130270000D03*
%TO.P,RX_J2,2,Pin_2*%
%TO.N,UART1_RX*%
X182880000Y-127770000D03*
%TO.P,RX_J2,3,Pin_3*%
%TO.N,5V*%
X182880000Y-125270000D03*
%TO.P,RX_J2,4,Pin_4*%
%TO.N,GND*%
X182880000Y-122770000D03*
%TD*%
D13*
%TO.P,DEBUG_J2,1,Pin_1*%
%TO.N,SWCLK*%
X164508800Y-108102400D03*
%TO.P,DEBUG_J2,2,Pin_2*%
%TO.N,SWDIO*%
X167008800Y-108102400D03*
%TO.P,DEBUG_J2,3,Pin_3*%
%TO.N,GND*%
X172008800Y-108102400D03*
%TO.P,DEBUG_J2,4,Pin_4*%
%TO.N,3.3V*%
X174508800Y-108102400D03*
%TD*%
%TO.P,CAM_J2,1,Pin_1*%
%TO.N,CAM*%
X159500000Y-105620000D03*
%TO.P,CAM_J2,2,Pin_2*%
%TO.N,GND*%
X162000000Y-105620000D03*
%TO.P,CAM_J2,3,Pin_3*%
%TO.N,5V_REG*%
X164500000Y-105620000D03*
%TD*%
D12*
%TO.P,UART2_J2,3,Pin_3*%
%TO.N,5V_REG*%
X167000000Y-105620000D03*
%TO.P,UART2_J2,1,Pin_1*%
%TO.N,UART2_TX*%
X174500000Y-105620000D03*
%TO.P,UART2_J2,2,Pin_2*%
%TO.N,UART2_RX*%
X172000000Y-105620000D03*
%TO.P,UART2_J2,4,Pin_4*%
%TO.N,GND*%
X169500000Y-105620000D03*
%TD*%
D14*
%TO.P,MCU_R1,1*%
%TO.N,BOOT0*%
X159844100Y-108407200D03*
%TO.P,MCU_R1,2*%
%TO.N,GND*%
X161669100Y-108407200D03*
%TD*%
D15*
%TO.P,FLASH_C1,1*%
%TO.N,3.3V*%
X174041900Y-134366000D03*
%TO.P,FLASH_C1,2*%
%TO.N,GND*%
X175766900Y-134366000D03*
%TD*%
D14*
%TO.P,USB_R3,1*%
%TO.N,USB_D+*%
X171030000Y-112315400D03*
%TO.P,USB_R3,2*%
%TO.N,Net-(U2-I{slash}O2-Pad4)*%
X172855000Y-112315400D03*
%TD*%
D16*
%TO.P,H1,*%
%TO.N,*%
X150500000Y-105000000D03*
D17*
X150500000Y-105000000D03*
%TD*%
D18*
%TO.P,U2,1,I/O1*%
%TO.N,/DN*%
X175130000Y-115800000D03*
%TO.P,U2,2,GND*%
%TO.N,GND*%
X175130000Y-114850000D03*
%TO.P,U2,3,I/O2*%
%TO.N,/DP*%
X175130000Y-113900000D03*
%TO.P,U2,4,I/O2*%
%TO.N,Net-(U2-I{slash}O2-Pad4)*%
X172855000Y-113900000D03*
%TO.P,U2,5,VBUS*%
%TO.N,5V_USB*%
X172855000Y-114850000D03*
%TO.P,U2,6,I/O1*%
%TO.N,Net-(U2-I{slash}O1-Pad6)*%
X172855000Y-115800000D03*
%TD*%
D19*
%TO.P,5V_D1,1,K*%
%TO.N,Net-(5V_D1-K)*%
X180214200Y-125045200D03*
%TO.P,5V_D1,2,A*%
%TO.N,5V_REG*%
X178464200Y-125045200D03*
%TD*%
%TO.P,3V3_D1,1,K*%
%TO.N,Net-(3V3_D1-K)*%
X180214200Y-122125200D03*
%TO.P,3V3_D1,2,A*%
%TO.N,3.3V*%
X178464200Y-122125200D03*
%TD*%
D15*
%TO.P,USB_C1,1*%
%TO.N,GND*%
X171080000Y-118820000D03*
%TO.P,USB_C1,2*%
%TO.N,5V_USB*%
X172805000Y-118820000D03*
%TD*%
D20*
%TO.P,U_3V1,1,OUT*%
%TO.N,3.3V*%
X173274200Y-126412800D03*
%TO.P,U_3V1,2,NC*%
%TO.N,unconnected-(U_3V1-NC-Pad2)*%
X173924200Y-126412800D03*
%TO.P,U_3V1,3,PG*%
%TO.N,unconnected-(U_3V1-PG-Pad3)*%
X174574200Y-126412800D03*
%TO.P,U_3V1,4,EN*%
%TO.N,5V*%
X174574200Y-124637800D03*
%TO.P,U_3V1,5,GND*%
%TO.N,GND*%
X173924200Y-124637800D03*
%TO.P,U_3V1,6,IN*%
%TO.N,5V*%
X173274200Y-124637800D03*
D21*
%TO.P,U_3V1,7,EP*%
%TO.N,GND*%
X173374200Y-125525300D03*
D22*
X173924200Y-125525300D03*
D21*
X174474200Y-125525300D03*
%TD*%
D23*
%TO.P,MCU_C3,1*%
%TO.N,3.3V*%
X153820000Y-110560000D03*
%TO.P,MCU_C3,2*%
%TO.N,GND*%
X153820000Y-108835000D03*
%TD*%
D19*
%TO.P,MCU_D1,1,K*%
%TO.N,Net-(MCU_D1-K)*%
X180214200Y-130885200D03*
%TO.P,MCU_D1,2,A*%
%TO.N,LED0*%
X178464200Y-130885200D03*
%TD*%
%TO.P,MCU_D3,1,K*%
%TO.N,Net-(MCU_D3-K)*%
X180214200Y-127965200D03*
%TO.P,MCU_D3,2,A*%
%TO.N,LED2*%
X178464200Y-127965200D03*
%TD*%
%TO.P,9V_D1,1,K*%
%TO.N,Net-(9V_D1-K)*%
X180214200Y-126505200D03*
%TO.P,9V_D1,2,A*%
%TO.N,9V_REG*%
X178464200Y-126505200D03*
%TD*%
D24*
%TO.P,USB_R1,1*%
%TO.N,GND*%
X175130000Y-119197900D03*
%TO.P,USB_R1,2*%
%TO.N,Net-(J1-CC1)*%
X175130000Y-117372900D03*
%TD*%
D16*
%TO.P,H3,*%
%TO.N,*%
X150500000Y-135500000D03*
D17*
%TO.P,H3,1*%
%TO.N,N/C*%
X150500000Y-135500000D03*
%TD*%
D15*
%TO.P,MCU_C14,1*%
%TO.N,Net-(MCU_C14-Pad1)*%
X171080000Y-110850000D03*
%TO.P,MCU_C14,2*%
%TO.N,GND*%
X172805000Y-110850000D03*
%TD*%
D23*
%TO.P,MCU_C6,1*%
%TO.N,3.3V*%
X151173630Y-115098630D03*
%TO.P,MCU_C6,2*%
%TO.N,GND*%
X151173630Y-113373630D03*
%TD*%
D25*
%TO.P,U_FLASH1,1,/CS*%
%TO.N,SPI2_NSS*%
X176750800Y-132283200D03*
%TO.P,U_FLASH1,2,DO(IO1)*%
%TO.N,SPI2_MISO*%
X176750800Y-131013200D03*
%TO.P,U_FLASH1,3,/WP(IO2)*%
%TO.N,Net-(U_FLASH1-{slash}WP(IO2))*%
X176750800Y-129743200D03*
%TO.P,U_FLASH1,4,GND*%
%TO.N,GND*%
X176750800Y-128473200D03*
%TO.P,U_FLASH1,5,DI(IO0)*%
%TO.N,SPI2_MOSI*%
X168960800Y-128473200D03*
%TO.P,U_FLASH1,6,CLK*%
%TO.N,SPI2_SCK*%
X168960800Y-129743200D03*
%TO.P,U_FLASH1,7,/HOLD(IO3)*%
%TO.N,Net-(U_FLASH1-{slash}HOLD(IO3))*%
X168960800Y-131013200D03*
%TO.P,U_FLASH1,8,VCC*%
%TO.N,3.3V*%
X168960800Y-132283200D03*
D26*
%TO.P,U_FLASH1,9*%
%TO.N,GND*%
X172855800Y-130378200D03*
%TD*%
D27*
%TO.P,J1,A1/B12,GND_A*%
%TO.N,GND*%
X177397000Y-118058800D03*
%TO.P,J1,A4/B9,VBUS_A*%
%TO.N,5V_USB*%
X177397000Y-117258800D03*
D28*
%TO.P,J1,A5,CC1*%
%TO.N,Net-(J1-CC1)*%
X177397000Y-116108800D03*
%TO.P,J1,A6,DP1*%
%TO.N,unconnected-(J1-DP1-PadA6)*%
X177397000Y-115108800D03*
%TO.P,J1,A7,DN1*%
%TO.N,unconnected-(J1-DN1-PadA7)*%
X177397000Y-114608800D03*
%TO.P,J1,A8,SBU1*%
%TO.N,unconnected-(J1-SBU1-PadA8)*%
X177397000Y-113608800D03*
D27*
%TO.P,J1,B1/A12,GND_B*%
%TO.N,GND*%
X177397000Y-111658800D03*
%TO.P,J1,B4/A9,VBUS_B*%
%TO.N,5V_USB*%
X177397000Y-112458800D03*
D28*
%TO.P,J1,B5,CC2*%
%TO.N,Net-(J1-CC2)*%
X177397000Y-113108800D03*
%TO.P,J1,B6,DP2*%
%TO.N,/DP*%
X177397000Y-114108800D03*
%TO.P,J1,B7,DN2*%
%TO.N,/DN*%
X177397000Y-115608800D03*
%TO.P,J1,B8,SBU2*%
%TO.N,unconnected-(J1-SBU2-PadB8)*%
X177397000Y-116608800D03*
D29*
%TO.P,J1,SH1,SHELL_GND*%
%TO.N,GND*%
X182372000Y-119753800D03*
%TO.P,J1,SH2,SHELL_GND*%
X182372000Y-109963800D03*
%TO.P,J1,SH3,SHELL_GND*%
X179372000Y-119753800D03*
%TO.P,J1,SH4,SHELL_GND*%
X179372000Y-109963800D03*
%TD*%
D30*
%TO.P,IMU_C1,1*%
%TO.N,3.3V*%
X163310955Y-130222902D03*
%TO.P,IMU_C1,2*%
%TO.N,GND*%
X163310955Y-131947902D03*
%TD*%
%TO.P,MCU_C11,1*%
%TO.N,Net-(U_STM32-NRST)*%
X151240000Y-127780000D03*
%TO.P,MCU_C11,2*%
%TO.N,GND*%
X151240000Y-129505000D03*
%TD*%
D16*
%TO.P,,*%
%TO.N,*%
X181000000Y-135500000D03*
%TD*%
D31*
%TO.P,Y_MCU1,1*%
%TO.N,Net-(U_STM32-PH0)*%
X151240000Y-117160000D03*
%TO.P,Y_MCU1,2*%
%TO.N,GND*%
X151240000Y-118360000D03*
%TO.P,Y_MCU1,3*%
%TO.N,Net-(U_STM32-PH1)*%
X151240000Y-119560000D03*
%TD*%
D32*
%TO.P,MCU_C13,1*%
%TO.N,Net-(MCU_C13-Pad1)*%
X163650600Y-128540000D03*
%TO.P,MCU_C13,2*%
%TO.N,GND*%
X161925600Y-128540000D03*
%TD*%
D19*
%TO.P,USB_D1,1,K*%
%TO.N,Net-(USB_D1-K)*%
X180214200Y-123585200D03*
%TO.P,USB_D1,2,A*%
%TO.N,5V_USB*%
X178464200Y-123585200D03*
%TD*%
D15*
%TO.P,MCU_C5,1*%
%TO.N,3.3V*%
X165228100Y-128540000D03*
%TO.P,MCU_C5,2*%
%TO.N,GND*%
X166953100Y-128540000D03*
%TD*%
D23*
%TO.P,MCU_C1,1*%
%TO.N,3.3V*%
X151173630Y-111786130D03*
%TO.P,MCU_C1,2*%
%TO.N,GND*%
X151173630Y-110061130D03*
%TD*%
D16*
%TO.P,H2,*%
%TO.N,*%
X181000000Y-105000000D03*
D17*
%TO.P,H2,1*%
%TO.N,N/C*%
X181000000Y-105000000D03*
%TD*%
D30*
%TO.P,IMU_C3,1*%
%TO.N,3.3V*%
X161837755Y-130222902D03*
%TO.P,IMU_C3,2*%
%TO.N,GND*%
X161837755Y-131947902D03*
%TD*%
D33*
%TO.P,U_IMU1,1,AP_SDO/AP_AD0*%
%TO.N,GYRO_MISO*%
X156527500Y-129755200D03*
%TO.P,U_IMU1,2,RESV_2*%
%TO.N,unconnected-(U_IMU1-RESV_2-Pad2)*%
X156527500Y-130255200D03*
%TO.P,U_IMU1,3,RESV_3*%
%TO.N,unconnected-(U_IMU1-RESV_3-Pad3)*%
X156527500Y-130755200D03*
%TO.P,U_IMU1,4,INT1/INT*%
%TO.N,GYRO_INT1*%
X156527500Y-131255200D03*
D34*
%TO.P,U_IMU1,5,VDDIO*%
%TO.N,3.3V*%
X157192500Y-131420200D03*
%TO.P,U_IMU1,6,GND*%
%TO.N,GND*%
X157692500Y-131420200D03*
%TO.P,U_IMU1,7,RESV_7*%
X158192500Y-131420200D03*
D33*
%TO.P,U_IMU1,8,VDD*%
%TO.N,3.3V*%
X158857500Y-131255200D03*
%TO.P,U_IMU1,9,INT2/FSYNC/CLKIN*%
%TO.N,GYRO_CLKIN*%
X158857500Y-130755200D03*
%TO.P,U_IMU1,10,RESV_10*%
%TO.N,unconnected-(U_IMU1-RESV_10-Pad10)*%
X158857500Y-130255200D03*
%TO.P,U_IMU1,11,RESV_11*%
%TO.N,unconnected-(U_IMU1-RESV_11-Pad11)*%
X158857500Y-129755200D03*
D34*
%TO.P,U_IMU1,12,AP_CS*%
%TO.N,GYRO_CS*%
X158192500Y-129590200D03*
%TO.P,U_IMU1,13,AP_SCL/AP_SCLK*%
%TO.N,GYRO_SCK*%
X157692500Y-129590200D03*
%TO.P,U_IMU1,14,AP_SDA/AP_SDIO/AP_SDI*%
%TO.N,GYRO_MOSI*%
X157192500Y-129590200D03*
%TD*%
D23*
%TO.P,3V3_C2,1*%
%TO.N,3.3V*%
X171450000Y-125962500D03*
%TO.P,3V3_C2,2*%
%TO.N,GND*%
X171450000Y-124237500D03*
%TD*%
D24*
%TO.P,USB_R2,1*%
%TO.N,Net-(J1-CC2)*%
X175130000Y-112307900D03*
%TO.P,USB_R2,2*%
%TO.N,GND*%
X175130000Y-110482900D03*
%TD*%
D16*
%TO.P,H4,*%
%TO.N,*%
X181000000Y-135500000D03*
D17*
%TO.P,H4,1*%
%TO.N,N/C*%
X181000000Y-135500000D03*
%TD*%
D30*
%TO.P,IMU_C2,1*%
%TO.N,3.3V*%
X164784155Y-130222902D03*
%TO.P,IMU_C2,2*%
%TO.N,GND*%
X164784155Y-131947902D03*
%TD*%
D23*
%TO.P,MCU_C9,1*%
%TO.N,3.3VA*%
X151240000Y-122912500D03*
%TO.P,MCU_C9,2*%
%TO.N,GND*%
X151240000Y-121187500D03*
%TD*%
D35*
%TO.P,SW2,1,1*%
%TO.N,BOOT0*%
X157480000Y-105150000D03*
X157480000Y-109300000D03*
%TO.P,SW2,2,2*%
%TO.N,3.3V*%
X155330000Y-105150000D03*
X155330000Y-109300000D03*
%TD*%
D14*
%TO.P,FLASH_R1,1*%
%TO.N,3.3V*%
X173991900Y-135824800D03*
%TO.P,FLASH_R1,2*%
%TO.N,Net-(U_FLASH1-{slash}HOLD(IO3))*%
X175816900Y-135824800D03*
%TD*%
D23*
%TO.P,3v3_C1,1*%
%TO.N,GND*%
X176199800Y-126008300D03*
%TO.P,3v3_C1,2*%
%TO.N,5V*%
X176199800Y-124283300D03*
%TD*%
D36*
%TO.P,FB1,1*%
%TO.N,3.3VA*%
X153800000Y-126887500D03*
%TO.P,FB1,2*%
%TO.N,3.3V*%
X153800000Y-128712500D03*
%TD*%
D14*
%TO.P,USB_R4,1*%
%TO.N,USB_D-*%
X171030000Y-117365400D03*
%TO.P,USB_R4,2*%
%TO.N,Net-(U2-I{slash}O1-Pad6)*%
X172855000Y-117365400D03*
%TD*%
%TO.P,FLASH_R2,1*%
%TO.N,3.3V*%
X173991900Y-137287000D03*
%TO.P,FLASH_R2,2*%
%TO.N,Net-(U_FLASH1-{slash}WP(IO2))*%
X175816900Y-137287000D03*
%TD*%
D19*
%TO.P,MCU_D2,1,K*%
%TO.N,Net-(MCU_D2-K)*%
X180214200Y-129425200D03*
%TO.P,MCU_D2,2,A*%
%TO.N,LED1*%
X178464200Y-129425200D03*
%TD*%
D23*
%TO.P,MCU_C4,1*%
%TO.N,3.3V*%
X169494200Y-110209500D03*
%TO.P,MCU_C4,2*%
%TO.N,GND*%
X169494200Y-108484500D03*
%TD*%
D37*
%TO.P,D0,1*%
%TO.N,5V_USB*%
X174855000Y-121081800D03*
%TO.P,D0,2*%
%TO.N,5V_REG*%
X172955000Y-121081800D03*
%TO.P,D0,3*%
%TO.N,5V*%
X173905000Y-122956800D03*
%TD*%
D38*
%TO.P,U_STM32,1,PE2*%
%TO.N,unconnected-(U_STM32-PE2-Pad1)*%
X153660000Y-112600000D03*
%TO.P,U_STM32,2,PE3*%
%TO.N,unconnected-(U_STM32-PE3-Pad2)*%
X153660000Y-113100000D03*
%TO.P,U_STM32,3,PE4*%
%TO.N,unconnected-(U_STM32-PE4-Pad3)*%
X153660000Y-113600000D03*
%TO.P,U_STM32,4,PE5*%
%TO.N,unconnected-(U_STM32-PE5-Pad4)*%
X153660000Y-114100000D03*
%TO.P,U_STM32,5,PE6*%
%TO.N,unconnected-(U_STM32-PE6-Pad5)*%
X153660000Y-114600000D03*
%TO.P,U_STM32,6,VBAT*%
%TO.N,3.3V*%
X153660000Y-115100000D03*
%TO.P,U_STM32,7,PC13*%
%TO.N,unconnected-(U_STM32-PC13-Pad7)*%
X153660000Y-115600000D03*
%TO.P,U_STM32,8,PC14*%
%TO.N,unconnected-(U_STM32-PC14-Pad8)*%
X153660000Y-116100000D03*
%TO.P,U_STM32,9,PC15*%
%TO.N,unconnected-(U_STM32-PC15-Pad9)*%
X153660000Y-116600000D03*
%TO.P,U_STM32,10,VSS*%
%TO.N,GND*%
X153660000Y-117100000D03*
%TO.P,U_STM32,11,VDD*%
%TO.N,3.3V*%
X153660000Y-117600000D03*
%TO.P,U_STM32,12,PH0*%
%TO.N,Net-(U_STM32-PH0)*%
X153660000Y-118100000D03*
%TO.P,U_STM32,13,PH1*%
%TO.N,Net-(U_STM32-PH1)*%
X153660000Y-118600000D03*
%TO.P,U_STM32,14,NRST*%
%TO.N,Net-(U_STM32-NRST)*%
X153660000Y-119100000D03*
%TO.P,U_STM32,15,PC0*%
%TO.N,unconnected-(U_STM32-PC0-Pad15)*%
X153660000Y-119600000D03*
%TO.P,U_STM32,16,PC1*%
%TO.N,unconnected-(U_STM32-PC1-Pad16)*%
X153660000Y-120100000D03*
%TO.P,U_STM32,17,PC2_C*%
%TO.N,unconnected-(U_STM32-PC2_C-Pad17)*%
X153660000Y-120600000D03*
%TO.P,U_STM32,18,PC3_C*%
%TO.N,SPI2_MOSI*%
X153660000Y-121100000D03*
%TO.P,U_STM32,19,VSSA*%
%TO.N,GND*%
X153660000Y-121600000D03*
%TO.P,U_STM32,20,VREF+*%
%TO.N,3.3VA*%
X153660000Y-122100000D03*
%TO.P,U_STM32,21,VDDA*%
X153660000Y-122600000D03*
%TO.P,U_STM32,22,PA0*%
%TO.N,unconnected-(U_STM32-PA0-Pad22)*%
X153660000Y-123100000D03*
%TO.P,U_STM32,23,PA1*%
%TO.N,unconnected-(U_STM32-PA1-Pad23)*%
X153660000Y-123600000D03*
%TO.P,U_STM32,24,PA2*%
%TO.N,LED_STRIP*%
X153660000Y-124100000D03*
%TO.P,U_STM32,25,PA3*%
%TO.N,GYRO_CS*%
X153660000Y-124600000D03*
D39*
%TO.P,U_STM32,26,VSS*%
%TO.N,GND*%
X155335000Y-126275000D03*
%TO.P,U_STM32,27,VDD*%
%TO.N,3.3V*%
X155835000Y-126275000D03*
%TO.P,U_STM32,28,PA4*%
%TO.N,unconnected-(U_STM32-PA4-Pad28)*%
X156335000Y-126275000D03*
%TO.P,U_STM32,29,PA5*%
%TO.N,GYRO_SCK*%
X156835000Y-126275000D03*
%TO.P,U_STM32,30,PA6*%
%TO.N,GYRO_MISO*%
X157335000Y-126275000D03*
%TO.P,U_STM32,31,PA7*%
%TO.N,GYRO_MOSI*%
X157835000Y-126275000D03*
%TO.P,U_STM32,32,PC4*%
%TO.N,ADC_VBAT*%
X158335000Y-126275000D03*
%TO.P,U_STM32,33,PC5*%
%TO.N,ADC_CURR*%
X158835000Y-126275000D03*
%TO.P,U_STM32,34,PB0*%
%TO.N,unconnected-(U_STM32-PB0-Pad34)*%
X159335000Y-126275000D03*
%TO.P,U_STM32,35,PB1*%
%TO.N,unconnected-(U_STM32-PB1-Pad35)*%
X159835000Y-126275000D03*
%TO.P,U_STM32,36,PB2*%
%TO.N,unconnected-(U_STM32-PB2-Pad36)*%
X160335000Y-126275000D03*
%TO.P,U_STM32,37,PE7*%
%TO.N,UART7_RX*%
X160835000Y-126275000D03*
%TO.P,U_STM32,38,PE8*%
%TO.N,unconnected-(U_STM32-PE8-Pad38)*%
X161335000Y-126275000D03*
%TO.P,U_STM32,39,PE9*%
%TO.N,MOTOR1*%
X161835000Y-126275000D03*
%TO.P,U_STM32,40,PE10*%
%TO.N,unconnected-(U_STM32-PE10-Pad40)*%
X162335000Y-126275000D03*
%TO.P,U_STM32,41,PE11*%
%TO.N,MOTOR2*%
X162835000Y-126275000D03*
%TO.P,U_STM32,42,PE12*%
%TO.N,unconnected-(U_STM32-PE12-Pad42)*%
X163335000Y-126275000D03*
%TO.P,U_STM32,43,PE13*%
%TO.N,MOTOR3*%
X163835000Y-126275000D03*
%TO.P,U_STM32,44,PE14*%
%TO.N,MOTOR4*%
X164335000Y-126275000D03*
%TO.P,U_STM32,45,PE15*%
%TO.N,unconnected-(U_STM32-PE15-Pad45)*%
X164835000Y-126275000D03*
%TO.P,U_STM32,46,PB10*%
%TO.N,unconnected-(U_STM32-PB10-Pad46)*%
X165335000Y-126275000D03*
%TO.P,U_STM32,47,PB11*%
%TO.N,unconnected-(U_STM32-PB11-Pad47)*%
X165835000Y-126275000D03*
%TO.P,U_STM32,48,VCAP*%
%TO.N,Net-(MCU_C13-Pad1)*%
X166335000Y-126275000D03*
%TO.P,U_STM32,49,VSS*%
%TO.N,GND*%
X166835000Y-126275000D03*
%TO.P,U_STM32,50,VDD*%
%TO.N,3.3V*%
X167335000Y-126275000D03*
D38*
%TO.P,U_STM32,51,PB12*%
%TO.N,UART5_RX*%
X169010000Y-124600000D03*
%TO.P,U_STM32,52,PB13*%
%TO.N,unconnected-(U_STM32-PB13-Pad52)*%
X169010000Y-124100000D03*
%TO.P,U_STM32,53,PB14*%
%TO.N,SPI2_MISO*%
X169010000Y-123600000D03*
%TO.P,U_STM32,54,PB15*%
%TO.N,LED0*%
X169010000Y-123100000D03*
%TO.P,U_STM32,55,PD8*%
%TO.N,UART3_TX*%
X169010000Y-122600000D03*
%TO.P,U_STM32,56,PD9*%
%TO.N,UART3_RX*%
X169010000Y-122100000D03*
%TO.P,U_STM32,57,PD10*%
%TO.N,unconnected-(U_STM32-PD10-Pad57)*%
X169010000Y-121600000D03*
%TO.P,U_STM32,58,PD11*%
%TO.N,LED1*%
X169010000Y-121100000D03*
%TO.P,U_STM32,59,PD12*%
%TO.N,unconnected-(U_STM32-PD12-Pad59)*%
X169010000Y-120600000D03*
%TO.P,U_STM32,60,PD13*%
%TO.N,unconnected-(U_STM32-PD13-Pad60)*%
X169010000Y-120100000D03*
%TO.P,U_STM32,61,PD14*%
%TO.N,unconnected-(U_STM32-PD14-Pad61)*%
X169010000Y-119600000D03*
%TO.P,U_STM32,62,PD15*%
%TO.N,LED2*%
X169010000Y-119100000D03*
%TO.P,U_STM32,63,PC6*%
%TO.N,GYRO_INT1*%
X169010000Y-118600000D03*
%TO.P,U_STM32,64,PC7*%
%TO.N,GYRO_CLKIN*%
X169010000Y-118100000D03*
%TO.P,U_STM32,65,PC8*%
%TO.N,unconnected-(U_STM32-PC8-Pad65)*%
X169010000Y-117600000D03*
%TO.P,U_STM32,66,PC9*%
%TO.N,unconnected-(U_STM32-PC9-Pad66)*%
X169010000Y-117100000D03*
%TO.P,U_STM32,67,PA8*%
%TO.N,unconnected-(U_STM32-PA8-Pad67)*%
X169010000Y-116600000D03*
%TO.P,U_STM32,68,PA9*%
%TO.N,UART1_TX*%
X169010000Y-116100000D03*
%TO.P,U_STM32,69,PA10*%
%TO.N,UART1_RX*%
X169010000Y-115600000D03*
%TO.P,U_STM32,70,PA11*%
%TO.N,USB_D-*%
X169010000Y-115100000D03*
%TO.P,U_STM32,71,PA12*%
%TO.N,USB_D+*%
X169010000Y-114600000D03*
%TO.P,U_STM32,72,PA13*%
%TO.N,SWDIO*%
X169010000Y-114100000D03*
%TO.P,U_STM32,73,VCAP*%
%TO.N,Net-(MCU_C14-Pad1)*%
X169010000Y-113600000D03*
%TO.P,U_STM32,74,VSS*%
%TO.N,GND*%
X169010000Y-113100000D03*
%TO.P,U_STM32,75,VDD*%
%TO.N,3.3V*%
X169010000Y-112600000D03*
D39*
%TO.P,U_STM32,76,PA14*%
%TO.N,SWCLK*%
X167335000Y-110925000D03*
%TO.P,U_STM32,77,PA15*%
%TO.N,BEEPER*%
X166835000Y-110925000D03*
%TO.P,U_STM32,78,PC10*%
%TO.N,unconnected-(U_STM32-PC10-Pad78)*%
X166335000Y-110925000D03*
%TO.P,U_STM32,79,PC11*%
%TO.N,unconnected-(U_STM32-PC11-Pad79)*%
X165835000Y-110925000D03*
%TO.P,U_STM32,80,PC12*%
%TO.N,unconnected-(U_STM32-PC12-Pad80)*%
X165335000Y-110925000D03*
%TO.P,U_STM32,81,PD0*%
%TO.N,unconnected-(U_STM32-PD0-Pad81)*%
X164835000Y-110925000D03*
%TO.P,U_STM32,82,PD1*%
%TO.N,unconnected-(U_STM32-PD1-Pad82)*%
X164335000Y-110925000D03*
%TO.P,U_STM32,83,PD2*%
%TO.N,unconnected-(U_STM32-PD2-Pad83)*%
X163835000Y-110925000D03*
%TO.P,U_STM32,84,PD3*%
%TO.N,SPI2_SCK*%
X163335000Y-110925000D03*
%TO.P,U_STM32,85,PD4*%
%TO.N,SPI2_NSS*%
X162835000Y-110925000D03*
%TO.P,U_STM32,86,PD5*%
%TO.N,UART2_TX*%
X162335000Y-110925000D03*
%TO.P,U_STM32,87,PD6*%
%TO.N,UART2_RX*%
X161835000Y-110925000D03*
%TO.P,U_STM32,88,PD7*%
%TO.N,unconnected-(U_STM32-PD7-Pad88)*%
X161335000Y-110925000D03*
%TO.P,U_STM32,89,PB3*%
%TO.N,unconnected-(U_STM32-PB3-Pad89)*%
X160835000Y-110925000D03*
%TO.P,U_STM32,90,PB4*%
%TO.N,unconnected-(U_STM32-PB4-Pad90)*%
X160335000Y-110925000D03*
%TO.P,U_STM32,91,PB5*%
%TO.N,unconnected-(U_STM32-PB5-Pad91)*%
X159835000Y-110925000D03*
%TO.P,U_STM32,92,PB6*%
%TO.N,I2C1_SCL*%
X159335000Y-110925000D03*
%TO.P,U_STM32,93,PB7*%
%TO.N,I2C1_SDA*%
X158835000Y-110925000D03*
%TO.P,U_STM32,94,BOOT0*%
%TO.N,BOOT0*%
X158335000Y-110925000D03*
%TO.P,U_STM32,95,PB8*%
%TO.N,UART4_RX*%
X157835000Y-110925000D03*
%TO.P,U_STM32,96,PB9*%
%TO.N,UART4_TX*%
X157335000Y-110925000D03*
%TO.P,U_STM32,97,PE0*%
%TO.N,UART8_RX*%
X156835000Y-110925000D03*
%TO.P,U_STM32,98,PE1*%
%TO.N,UART8_TX*%
X156335000Y-110925000D03*
%TO.P,U_STM32,99,VSS*%
%TO.N,GND*%
X155835000Y-110925000D03*
%TO.P,U_STM32,100,VDD*%
%TO.N,3.3V*%
X155335000Y-110925000D03*
%TD*%
D30*
%TO.P,MCU_C10,1*%
%TO.N,3.3VA*%
X151240000Y-124480000D03*
%TO.P,MCU_C10,2*%
%TO.N,GND*%
X151240000Y-126205000D03*
%TD*%
D13*
%TO.P,ESC_J2,1,Pin_1*%
%TO.N,GND*%
X157000000Y-103124000D03*
%TO.P,ESC_J2,2,Pin_2*%
%TO.N,BAT*%
X159500000Y-103124000D03*
%TO.P,ESC_J2,3,Pin_3*%
%TO.N,MOTOR1*%
X162000000Y-103124000D03*
%TO.P,ESC_J2,4,Pin_4*%
%TO.N,MOTOR2*%
X164500000Y-103124000D03*
%TO.P,ESC_J2,5,Pin_5*%
%TO.N,MOTOR3*%
X167000000Y-103124000D03*
%TO.P,ESC_J2,6,Pin_6*%
%TO.N,MOTOR4*%
X169500000Y-103124000D03*
%TO.P,ESC_J2,7,Pin_7*%
%TO.N,ADC_CURR*%
X172000000Y-103124000D03*
%TO.P,ESC_J2,8,Pin_8*%
%TO.N,UART7_RX*%
X174500000Y-103124000D03*
%TD*%
D40*
%TO.N,GND*%
X150400000Y-113300000D03*
D41*
%TO.N,UART3_TX*%
X170599199Y-122867419D03*
X166369998Y-137380000D03*
%TO.N,UART5_RX*%
X165750000Y-133300000D03*
X159500000Y-137380000D03*
X169710000Y-125650000D03*
%TO.N,UART3_RX*%
X171589109Y-122270891D03*
X170730000Y-135750421D03*
X165119111Y-136740498D03*
%TO.N,GYRO_CLKIN*%
X161783500Y-127485000D03*
X166319200Y-118922800D03*
%TO.N,GYRO_INT1*%
X157059998Y-133282000D03*
X167800000Y-123661795D03*
%TO.N,GYRO_CS*%
X152286000Y-124970000D03*
X157460000Y-128810000D03*
%TO.N,GYRO_SCK*%
X155751000Y-124020000D03*
X157363687Y-130488928D03*
%TO.N,SPI2_NSS*%
X162830000Y-119065800D03*
X176150000Y-131680000D03*
X170636566Y-121750000D03*
X172385897Y-124145016D03*
%TO.N,Net-(USB_D1-K)*%
X180214200Y-123585200D03*
%TO.N,UART2_TX*%
X174500000Y-105620000D03*
%TO.N,UART2_RX*%
X158963053Y-107100000D03*
X160040000Y-109530000D03*
X172000000Y-105620000D03*
%TO.N,UART1_RX*%
X170653905Y-115663856D03*
X182880000Y-127770000D03*
%TO.N,UART1_TX*%
X182880000Y-130270000D03*
X170270359Y-118085701D03*
%TO.N,LED_STRIP*%
X148620000Y-126520000D03*
X152240000Y-124099999D03*
%TO.N,BEEPER*%
X162572506Y-107815583D03*
X148620000Y-109020000D03*
X160403990Y-107598252D03*
%TO.N,LED2*%
X171625000Y-119700000D03*
X177685288Y-127187946D03*
%TO.N,LED1*%
X177000000Y-125175000D03*
X172962748Y-123731076D03*
%TO.N,UART8_TX*%
X158779001Y-133636903D03*
X155040444Y-120729474D03*
%TO.N,UART8_RX*%
X156200000Y-118500000D03*
X159500000Y-135100000D03*
%TO.N,MOTOR2*%
X163121000Y-121793000D03*
X164500000Y-103124000D03*
%TO.N,MOTOR1*%
X162010002Y-103124000D03*
X161835000Y-124567497D03*
%TO.N,UART7_RX*%
X170400000Y-107602000D03*
X174500000Y-103124000D03*
X159840000Y-128860000D03*
%TO.N,ADC_CURR*%
X162153600Y-113202600D03*
X162153600Y-119837200D03*
X162164625Y-121016625D03*
X172000000Y-103124000D03*
%TO.N,MOTOR4*%
X165275625Y-123825625D03*
X169362000Y-103262000D03*
%TO.N,MOTOR3*%
X164388800Y-122859800D03*
X167000000Y-103124000D03*
%TO.N,I2C1_SCL*%
X168826260Y-135690000D03*
X158231394Y-117231394D03*
%TO.N,I2C1_SDA*%
X172009769Y-135100002D03*
X158851000Y-115850000D03*
X170768208Y-136621011D03*
%TO.N,CAM*%
X148620000Y-111520000D03*
X159500000Y-105620000D03*
%TO.N,UART4_TX*%
X148620000Y-114020000D03*
X157325000Y-112014746D03*
%TO.N,UART4_RX*%
X157081282Y-112977937D03*
X148620000Y-116520000D03*
%TO.N,ADC_VBAT*%
X154075306Y-125940225D03*
%TO.N,Net-(9V_D1-K)*%
X180214200Y-126505200D03*
D40*
%TO.N,9V_REG*%
X172000000Y-137380000D03*
D41*
%TO.N,Net-(5V_D1-K)*%
X180214200Y-125045200D03*
D40*
%TO.N,5V_REG*%
X148685000Y-128955000D03*
X160087500Y-121528600D03*
X148620000Y-119020000D03*
X173775000Y-121425000D03*
X158216600Y-106490000D03*
X157400000Y-114500000D03*
D41*
%TO.N,Net-(U1-SW)*%
X158563754Y-127461292D03*
X160887500Y-124475000D03*
D40*
%TO.N,BAT*%
X159500000Y-103124000D03*
D41*
%TO.N,Net-(3V3_D1-K)*%
X180214200Y-122125200D03*
D40*
%TO.N,3.3V*%
X171450000Y-125962500D03*
X176377207Y-120622793D03*
X153162501Y-130993927D03*
X174508800Y-108102400D03*
X169075000Y-127600000D03*
X148620000Y-131520000D03*
%TO.N,5V*%
X182880000Y-125270000D03*
X167000000Y-134876800D03*
X172450000Y-124960000D03*
X167600000Y-132650000D03*
X174381813Y-123435560D03*
D41*
%TO.N,Net-(MCU_D3-K)*%
X180214200Y-127965200D03*
%TO.N,Net-(MCU_D2-K)*%
X180214200Y-129425200D03*
%TO.N,Net-(MCU_D1-K)*%
X180214200Y-130885200D03*
D40*
%TO.N,GND*%
X160172400Y-130530600D03*
X170844150Y-120528900D03*
X150270000Y-129530000D03*
X162000000Y-105620000D03*
X176816000Y-134366000D03*
X161837755Y-131947902D03*
X155750000Y-124850000D03*
X162000000Y-137380000D03*
X172855800Y-130378200D03*
X164500000Y-134876800D03*
X175120000Y-109650000D03*
X174410000Y-130378200D03*
X177300000Y-121800000D03*
X162560000Y-123825000D03*
X171625000Y-113200000D03*
X164780000Y-132950000D03*
X176250000Y-126000000D03*
X158102500Y-130782660D03*
X154900000Y-116900000D03*
X173830000Y-110850000D03*
X171460000Y-130378200D03*
X175768000Y-120015000D03*
X152041230Y-126461400D03*
X176450506Y-127683808D03*
X151290000Y-131810000D03*
X172855800Y-131770000D03*
X152235000Y-121485000D03*
X169500000Y-137380000D03*
X159800000Y-133600000D03*
X152200000Y-110061130D03*
X153061862Y-129876573D03*
X152896372Y-128207929D03*
X165917300Y-129576601D03*
X161925600Y-128540000D03*
X178409600Y-132080000D03*
X169754169Y-105443991D03*
X158822688Y-128122395D03*
X160087500Y-120055400D03*
X157000000Y-103124000D03*
X176500000Y-110940000D03*
X168760000Y-108530000D03*
X170927107Y-114252107D03*
X166879200Y-121175000D03*
X149890000Y-118850000D03*
X163370666Y-132741860D03*
X171080000Y-118820000D03*
X153820000Y-108835000D03*
X172855800Y-129130000D03*
X171577000Y-124283300D03*
X169500000Y-133550000D03*
X148620000Y-124020000D03*
X148620000Y-121520000D03*
X172008800Y-108102400D03*
X182880000Y-122770000D03*
X162540000Y-108960000D03*
X165800000Y-124400000D03*
%TO.N,3.3V*%
X155330000Y-106240000D03*
X155330000Y-108220000D03*
D41*
%TO.N,BOOT0*%
X157480000Y-106240000D03*
X157480000Y-108200000D03*
D40*
%TO.N,GND*%
X174130000Y-115270000D03*
X156115001Y-109684149D03*
%TO.N,9V_REG*%
X178260000Y-133240000D03*
X176904571Y-118995429D03*
%TD*%
D42*
%TO.N,GND*%
X150400000Y-113300000D02*
X150473630Y-113373630D01*
X150473630Y-113373630D02*
X151173630Y-113373630D01*
X151173630Y-110061130D02*
X152200000Y-110061130D01*
D43*
%TO.N,3.3V*%
X153820000Y-110560000D02*
X152840000Y-110560000D01*
X152840000Y-110560000D02*
X151497500Y-111902500D01*
X151497500Y-111902500D02*
X151297500Y-111902500D01*
X151589349Y-115100000D02*
X153660000Y-115100000D01*
X151173630Y-111786130D02*
X151386130Y-111786130D01*
X152812036Y-115100000D02*
X153660000Y-115100000D01*
X151386130Y-111786130D02*
X152549000Y-112949000D01*
X152549000Y-112949000D02*
X152549000Y-114836964D01*
X152549000Y-114836964D02*
X152812036Y-115100000D01*
X151173630Y-111786130D02*
X151173630Y-112086130D01*
D42*
%TO.N,GND*%
X151173630Y-113673630D02*
X151173630Y-113373630D01*
D43*
X165990000Y-124590000D02*
X165997964Y-124590000D01*
X165997964Y-124590000D02*
X166835000Y-125427036D01*
X165800000Y-124400000D02*
X165990000Y-124590000D01*
X166835000Y-125427036D02*
X166835000Y-126275000D01*
D44*
%TO.N,UART8_TX*%
X158779001Y-133636903D02*
X159376904Y-133039000D01*
X159376904Y-133039000D02*
X160162200Y-133039000D01*
X160162200Y-133039000D02*
X162000000Y-134876800D01*
D42*
%TO.N,3.3V*%
X176377207Y-120622793D02*
X176400000Y-120600000D01*
X176400000Y-120600000D02*
X177414000Y-120600000D01*
X177414000Y-120600000D02*
X178464200Y-121650200D01*
X178464200Y-121650200D02*
X178464200Y-122125200D01*
D43*
%TO.N,GND*%
X153660000Y-117100000D02*
X154700000Y-117100000D01*
X154700000Y-117100000D02*
X154900000Y-116900000D01*
D44*
%TO.N,UART8_TX*%
X155040444Y-120729474D02*
X155050000Y-120719918D01*
X155700000Y-112337254D02*
X156335000Y-111702254D01*
X155050000Y-120719918D02*
X155050000Y-118650000D01*
X155050000Y-118650000D02*
X155700000Y-118000000D01*
X155700000Y-118000000D02*
X155700000Y-112337254D01*
X156335000Y-111702254D02*
X156335000Y-110925000D01*
%TO.N,UART8_RX*%
X156200000Y-118500000D02*
X156200000Y-112347786D01*
X156200000Y-112347786D02*
X156835000Y-111712786D01*
X156835000Y-111712786D02*
X156835000Y-110925000D01*
%TO.N,UART4_RX*%
X157081282Y-112977937D02*
X157225894Y-112977937D01*
X157225894Y-112977937D02*
X157835000Y-112368831D01*
X157835000Y-112368831D02*
X157835000Y-110925000D01*
%TO.N,UART4_TX*%
X157325000Y-112014746D02*
X157325000Y-110935000D01*
X157325000Y-110935000D02*
X157335000Y-110925000D01*
D42*
%TO.N,5V_REG*%
X157400000Y-114500000D02*
X156925000Y-114975000D01*
X156925000Y-114975000D02*
X156925000Y-118366100D01*
X156925000Y-118366100D02*
X160087500Y-121528600D01*
%TO.N,9V_REG*%
X178260000Y-133240000D02*
X179400000Y-132100000D01*
X180448098Y-132100000D02*
X181400000Y-131148098D01*
X181400000Y-131148098D02*
X181400000Y-121600000D01*
X179400000Y-132100000D02*
X180448098Y-132100000D01*
X180600000Y-120800000D02*
X179400000Y-120800000D01*
X181400000Y-121600000D02*
X180600000Y-120800000D01*
D43*
X178464200Y-126505200D02*
X179300000Y-125669400D01*
X179300000Y-125669400D02*
X179300000Y-120900000D01*
X179300000Y-120900000D02*
X179400000Y-120800000D01*
D42*
X178709142Y-120800000D02*
X179400000Y-120800000D01*
X176904571Y-118995429D02*
X178709142Y-120800000D01*
D44*
%TO.N,UART3_RX*%
X165179609Y-136680000D02*
X165200000Y-136680000D01*
X170230421Y-136250000D02*
X170730000Y-135750421D01*
X165119111Y-136740498D02*
X165120000Y-136741387D01*
X165120000Y-136760000D02*
X164500000Y-137380000D01*
X165119111Y-136740498D02*
X165179609Y-136680000D01*
X165120000Y-136741387D02*
X165120000Y-136760000D01*
X165200000Y-136680000D02*
X165630000Y-136250000D01*
X165630000Y-136250000D02*
X170230421Y-136250000D01*
D43*
%TO.N,5V_REG*%
X178464200Y-125045200D02*
X176279000Y-122860000D01*
X176279000Y-122860000D02*
X175210000Y-122860000D01*
X175210000Y-122860000D02*
X173775000Y-121425000D01*
D42*
X173775000Y-121425000D02*
X173431800Y-121081800D01*
X173431800Y-121081800D02*
X172955000Y-121081800D01*
D44*
%TO.N,GND*%
X156115001Y-109684149D02*
X156115001Y-109805999D01*
X156115001Y-109805999D02*
X155835000Y-110086000D01*
X155835000Y-110086000D02*
X155835000Y-110925000D01*
D43*
%TO.N,5V*%
X173274200Y-124637800D02*
X173274200Y-124375005D01*
X173274200Y-124375005D02*
X173263200Y-124364005D01*
%TO.N,3.3V*%
X168960800Y-132283200D02*
X169113200Y-132283200D01*
X169113200Y-132283200D02*
X170595800Y-133765800D01*
X170595800Y-133765800D02*
X173441700Y-133765800D01*
X173441700Y-133765800D02*
X174041900Y-134366000D01*
D44*
%TO.N,BOOT0*%
X157480000Y-108200000D02*
X157480000Y-109300000D01*
X157480000Y-105150000D02*
X157480000Y-106240000D01*
D43*
%TO.N,3.3V*%
X155320000Y-108230000D02*
X155320000Y-109290000D01*
X155330000Y-108220000D02*
X155320000Y-108230000D01*
X155320000Y-109290000D02*
X155330000Y-109300000D01*
X155330000Y-105150000D02*
X155330000Y-106240000D01*
D42*
%TO.N,GND*%
X177397000Y-118058800D02*
X177677000Y-118058800D01*
X177677000Y-118058800D02*
X179372000Y-119753800D01*
D44*
%TO.N,MOTOR4*%
X165275625Y-123825625D02*
X165275625Y-123854375D01*
X164335000Y-124795000D02*
X164335000Y-126275000D01*
X165275625Y-123854375D02*
X164335000Y-124795000D01*
D42*
%TO.N,GND*%
X173830000Y-110850000D02*
X172805000Y-110850000D01*
D43*
X155335000Y-125265000D02*
X155750000Y-124850000D01*
D42*
X176450506Y-128172906D02*
X176450506Y-127683808D01*
X163310955Y-132682149D02*
X163370666Y-132741860D01*
X176750800Y-128473200D02*
X176450506Y-128172906D01*
X157937200Y-130947960D02*
X157937200Y-131495800D01*
X175120000Y-110472900D02*
X175130000Y-110482900D01*
X175120000Y-109650000D02*
X175120000Y-110472900D01*
D43*
X155335000Y-126275000D02*
X155335000Y-125265000D01*
D42*
X151240000Y-129505000D02*
X150295000Y-129505000D01*
X152041230Y-126461400D02*
X151784830Y-126205000D01*
X151784830Y-126205000D02*
X151240000Y-126205000D01*
D43*
X155835000Y-110925000D02*
X155835000Y-110125001D01*
D42*
X175130000Y-119377000D02*
X175768000Y-120015000D01*
D43*
X168760000Y-108530000D02*
X168708200Y-108581800D01*
X151937500Y-121187500D02*
X152235000Y-121485000D01*
X168708200Y-111410296D02*
X167899000Y-112219496D01*
D42*
X161669100Y-108407200D02*
X161987200Y-108407200D01*
X164780000Y-132918310D02*
X164784155Y-132914155D01*
X176816000Y-134366000D02*
X175766900Y-134366000D01*
X150295000Y-129505000D02*
X150270000Y-129530000D01*
X164780000Y-132950000D02*
X164780000Y-132918310D01*
D43*
X153660000Y-121600000D02*
X152350000Y-121600000D01*
D42*
X150380000Y-118360000D02*
X149890000Y-118850000D01*
D43*
X168162036Y-113100000D02*
X169010000Y-113100000D01*
D42*
X177218800Y-111658800D02*
X176500000Y-110940000D01*
D43*
X168805500Y-108484500D02*
X168760000Y-108530000D01*
D42*
X177397000Y-111658800D02*
X177218800Y-111658800D01*
D43*
X152235000Y-121485000D02*
X152350000Y-121600000D01*
X151240000Y-121187500D02*
X151937500Y-121187500D01*
X166953100Y-128540801D02*
X166953100Y-128540000D01*
D42*
X164784155Y-132914155D02*
X164784155Y-131947902D01*
D43*
X173924200Y-124637800D02*
X173924200Y-125525300D01*
X168708200Y-108581800D02*
X168708200Y-111410296D01*
X167899000Y-112219496D02*
X167899000Y-112836964D01*
D42*
X161987200Y-108407200D02*
X162540000Y-108960000D01*
X158102500Y-130782660D02*
X157937200Y-130947960D01*
D43*
X165917300Y-129576601D02*
X166953100Y-128540801D01*
X169494200Y-108484500D02*
X168805500Y-108484500D01*
D42*
X163310955Y-131947902D02*
X163310955Y-132682149D01*
X175130000Y-119197900D02*
X175130000Y-119377000D01*
X151240000Y-118360000D02*
X150380000Y-118360000D01*
D43*
X167899000Y-112836964D02*
X168162036Y-113100000D01*
D42*
%TO.N,5V*%
X174585200Y-124305200D02*
X174585200Y-124364005D01*
X173905000Y-122956800D02*
X173905000Y-123625000D01*
X173905000Y-122956800D02*
X173905000Y-123722205D01*
X167000000Y-133250000D02*
X167600000Y-132650000D01*
X176199800Y-124283300D02*
X175231500Y-124283300D01*
X167000000Y-134876800D02*
X167000000Y-133250000D01*
X173905000Y-122956800D02*
X174585200Y-123637000D01*
X175231500Y-124283300D02*
X174585200Y-123637000D01*
X173905000Y-123625000D02*
X174585200Y-124305200D01*
X173905000Y-123722205D02*
X173263200Y-124364005D01*
D43*
%TO.N,3.3V*%
X158857500Y-131255200D02*
X158869500Y-131267200D01*
X171531200Y-125962500D02*
X171981500Y-126412800D01*
X148620000Y-131520000D02*
X149065000Y-131075000D01*
X167335000Y-127305000D02*
X166886000Y-127754000D01*
X169075000Y-127600000D02*
X168660000Y-127600000D01*
X160793457Y-131267200D02*
X161837755Y-130222902D01*
X149065000Y-131075000D02*
X153081428Y-131075000D01*
D44*
X153800000Y-128712500D02*
X154197499Y-128712500D01*
D43*
X155330000Y-109300000D02*
X155330000Y-110920000D01*
X168660000Y-127600000D02*
X167335000Y-126275000D01*
X154245464Y-128712500D02*
X153800000Y-128712500D01*
X157192500Y-131781190D02*
X157468110Y-132056800D01*
X165633324Y-128540000D02*
X165228100Y-128540000D01*
X158416890Y-132056800D02*
X158857500Y-131616190D01*
X155835000Y-126275000D02*
X155835000Y-127122964D01*
X165120000Y-129887057D02*
X165120000Y-128648100D01*
X174041900Y-134366000D02*
X174040000Y-134367900D01*
X169494200Y-110209500D02*
X170019300Y-109684400D01*
X164784155Y-130222902D02*
X165120000Y-129887057D01*
X155350000Y-109280000D02*
X155330000Y-109300000D01*
X158869500Y-131267200D02*
X160793457Y-131267200D01*
X166100000Y-131525000D02*
X164797902Y-130222902D01*
X171450000Y-125962500D02*
X171531200Y-125962500D01*
X169010000Y-112600000D02*
X169180000Y-112430000D01*
X168960800Y-132283200D02*
X168202600Y-131525000D01*
X157468110Y-132056800D02*
X158416890Y-132056800D01*
X172926800Y-109684400D02*
X174508800Y-108102400D01*
X153081428Y-131075000D02*
X153800000Y-130356428D01*
X167335000Y-126275000D02*
X167335000Y-127305000D01*
X166886000Y-127754000D02*
X166419324Y-127754000D01*
X164797902Y-130222902D02*
X164784155Y-130222902D01*
X161837755Y-130222902D02*
X164784155Y-130222902D01*
X153800000Y-130356428D02*
X153800000Y-128712500D01*
X155335000Y-110925000D02*
X154185000Y-110925000D01*
X157192500Y-131420200D02*
X157192500Y-131781190D01*
X170019300Y-109684400D02*
X172926800Y-109684400D01*
X166419324Y-127754000D02*
X165633324Y-128540000D01*
X171981500Y-126412800D02*
X173274200Y-126412800D01*
X165120000Y-128648100D02*
X165228100Y-128540000D01*
X158857500Y-131616190D02*
X158857500Y-131255200D01*
X174040000Y-134367900D02*
X174040000Y-137235100D01*
X169180000Y-110523700D02*
X169494200Y-110209500D01*
X168202600Y-131525000D02*
X166100000Y-131525000D01*
X155835000Y-127122964D02*
X154245464Y-128712500D01*
X169180000Y-112430000D02*
X169180000Y-110523700D01*
X154185000Y-110925000D02*
X153820000Y-110560000D01*
D44*
X174041900Y-137237000D02*
X173991900Y-137287000D01*
D43*
X174040000Y-137235100D02*
X174041900Y-137237000D01*
D42*
%TO.N,5V_REG*%
X148620000Y-119020000D02*
X149936200Y-120336200D01*
D44*
X148685000Y-128955000D02*
X148620000Y-129020000D01*
D42*
X158216600Y-106490000D02*
X158216600Y-104861678D01*
X162830722Y-104335000D02*
X162847922Y-104317800D01*
X161152078Y-104317800D02*
X161169278Y-104335000D01*
X160347922Y-104317800D02*
X161152078Y-104317800D01*
X162847922Y-104317800D02*
X163197800Y-104317800D01*
X163197800Y-104317800D02*
X164500000Y-105620000D01*
X149936200Y-120336200D02*
X149936200Y-127703800D01*
X158743278Y-104335000D02*
X160330722Y-104335000D01*
X160330722Y-104335000D02*
X160347922Y-104317800D01*
X149936200Y-127703800D02*
X148685000Y-128955000D01*
D43*
X178386800Y-125170000D02*
X178464200Y-125092600D01*
D42*
X161169278Y-104335000D02*
X162830722Y-104335000D01*
X158216600Y-104861678D02*
X158743278Y-104335000D01*
D43*
X178464200Y-125092600D02*
X178464200Y-125045200D01*
D42*
X164041722Y-105620000D02*
X164500000Y-105620000D01*
X164500000Y-105620000D02*
X167000000Y-105620000D01*
D43*
%TO.N,ADC_VBAT*%
X154075306Y-125940225D02*
X154775000Y-125240531D01*
X154775000Y-124045000D02*
X155460000Y-123360000D01*
X155460000Y-123360000D02*
X156267964Y-123360000D01*
X158335000Y-125427036D02*
X158335000Y-126275000D01*
X154775000Y-125240531D02*
X154775000Y-124045000D01*
X156267964Y-123360000D02*
X158335000Y-125427036D01*
%TO.N,UART4_RX*%
X148620000Y-116520000D02*
X148673921Y-116520000D01*
D44*
%TO.N,I2C1_SDA*%
X172009769Y-135100002D02*
X172009769Y-135099002D01*
X172009769Y-135100002D02*
X172010769Y-135101002D01*
X172009769Y-135099002D02*
X172000000Y-135089233D01*
X172000000Y-135089233D02*
X172000000Y-134876800D01*
X172010769Y-135378450D02*
X170768208Y-136621011D01*
X158850000Y-115849000D02*
X158850000Y-110940000D01*
X172010769Y-135101002D02*
X172010769Y-135378450D01*
X158851000Y-115850000D02*
X158850000Y-115849000D01*
X158850000Y-110940000D02*
X158835000Y-110925000D01*
%TO.N,I2C1_SCL*%
X168945002Y-135690000D02*
X169500000Y-135135002D01*
X168826260Y-135690000D02*
X168945002Y-135690000D01*
X159335000Y-111585000D02*
X159370000Y-111620000D01*
X158231394Y-117231394D02*
X158243606Y-117231394D01*
X159335000Y-110925000D02*
X159335000Y-111585000D01*
X158243606Y-117231394D02*
X159361000Y-116114000D01*
X159361000Y-116114000D02*
X159361000Y-110951000D01*
X169500000Y-135135002D02*
X169500000Y-134876800D01*
X159361000Y-110951000D02*
X159335000Y-110925000D01*
D42*
%TO.N,5V_USB*%
X176211000Y-117347800D02*
X176211000Y-117703098D01*
X173325600Y-118299400D02*
X172805000Y-118820000D01*
X178494000Y-112458800D02*
X178910000Y-112874800D01*
X174617302Y-111409400D02*
X175850400Y-111409400D01*
X172855000Y-114850000D02*
X173517499Y-114850000D01*
X178910000Y-112874800D02*
X178910000Y-116842800D01*
X177397000Y-117258800D02*
X176300000Y-117258800D01*
X175614698Y-118299400D02*
X173325600Y-118299400D01*
X176211000Y-117703098D02*
X175614698Y-118299400D01*
X172805000Y-118820000D02*
X172805000Y-119031800D01*
X173517499Y-114850000D02*
X174056500Y-114310999D01*
X174056500Y-114310999D02*
X174056500Y-111970202D01*
X174855000Y-121081800D02*
X174855000Y-120675000D01*
X176300000Y-112458800D02*
X177397000Y-112458800D01*
X174056500Y-111970202D02*
X174617302Y-111409400D01*
X178910000Y-116842800D02*
X178494000Y-117258800D01*
X172805000Y-119031800D02*
X174855000Y-121081800D01*
X173000000Y-118820000D02*
X172805000Y-118820000D01*
X176300000Y-117258800D02*
X176211000Y-117347800D01*
X177397000Y-112458800D02*
X178494000Y-112458800D01*
X178494000Y-117258800D02*
X177397000Y-117258800D01*
X175850400Y-111409400D02*
X176211000Y-111770000D01*
X176211000Y-112369800D02*
X176300000Y-112458800D01*
X176211000Y-111770000D02*
X176211000Y-112369800D01*
D44*
%TO.N,SWDIO*%
X167008800Y-108102400D02*
X167746000Y-108839600D01*
X168210001Y-114100000D02*
X169010000Y-114100000D01*
X167488000Y-113007206D02*
X167500000Y-113019206D01*
X167746000Y-111791254D02*
X167488000Y-112049254D01*
X167500000Y-113389999D02*
X168210001Y-114100000D01*
X167488000Y-112049254D02*
X167488000Y-113007206D01*
X167746000Y-108839600D02*
X167746000Y-111791254D01*
X167500000Y-113019206D02*
X167500000Y-113389999D01*
%TO.N,SWCLK*%
X164508800Y-108102400D02*
X165566400Y-109160000D01*
X167335000Y-109815000D02*
X167335000Y-110925000D01*
X166240210Y-109163400D02*
X166683400Y-109163400D01*
X166683400Y-109163400D02*
X167335000Y-109815000D01*
X166236810Y-109160000D02*
X166240210Y-109163400D01*
X165566400Y-109160000D02*
X166236810Y-109160000D01*
%TO.N,MOTOR3*%
X164388800Y-122859800D02*
X163835000Y-123413600D01*
X163835000Y-123413600D02*
X163835000Y-126275000D01*
%TO.N,ADC_CURR*%
X162164625Y-121016625D02*
X162164625Y-121019975D01*
X162164625Y-121019975D02*
X158835000Y-124349600D01*
X162153600Y-113202600D02*
X162153600Y-119837200D01*
X158835000Y-124349600D02*
X158835000Y-126275000D01*
D43*
%TO.N,UART7_RX*%
X159840000Y-128778758D02*
X159840000Y-128860000D01*
X160835000Y-126275000D02*
X160835000Y-127783758D01*
X160835000Y-127783758D02*
X159840000Y-128778758D01*
D44*
%TO.N,MOTOR1*%
X161835000Y-124567497D02*
X161835000Y-126275000D01*
%TO.N,MOTOR2*%
X163121000Y-124057374D02*
X162835000Y-124343374D01*
X163121000Y-121793000D02*
X163121000Y-124057374D01*
X162835000Y-124343374D02*
X162835000Y-126275000D01*
%TO.N,Net-(U_FLASH1-{slash}WP(IO2))*%
X177680000Y-135423900D02*
X177680000Y-131337566D01*
X175816900Y-137287000D02*
X177680000Y-135423900D01*
X177678200Y-130670600D02*
X176750800Y-129743200D01*
X177680000Y-131337566D02*
X177678200Y-131335766D01*
X177678200Y-131335766D02*
X177678200Y-130670600D01*
D43*
%TO.N,UART8_RX*%
X159500000Y-134876800D02*
X159500000Y-135100000D01*
D44*
%TO.N,Net-(U_STM32-NRST)*%
X150469600Y-127009600D02*
X151240000Y-127780000D01*
X150469600Y-120670400D02*
X150469600Y-127009600D01*
X153660000Y-119100000D02*
X152700000Y-119100000D01*
X152140000Y-120300000D02*
X150840000Y-120300000D01*
X152570000Y-119230000D02*
X152570000Y-119870000D01*
X150840000Y-120300000D02*
X150469600Y-120670400D01*
X152700000Y-119100000D02*
X152570000Y-119230000D01*
X152570000Y-119870000D02*
X152140000Y-120300000D01*
D43*
%TO.N,Net-(MCU_C13-Pad1)*%
X166335000Y-127122964D02*
X166335000Y-126275000D01*
X164804600Y-127386000D02*
X166071964Y-127386000D01*
X163650600Y-128540000D02*
X164804600Y-127386000D01*
X166071964Y-127386000D02*
X166335000Y-127122964D01*
%TO.N,Net-(MCU_C14-Pad1)*%
X169900000Y-113600000D02*
X169010000Y-113600000D01*
X171080000Y-110850000D02*
X170200000Y-111730000D01*
X170200000Y-111730000D02*
X170200000Y-113300000D01*
X170200000Y-113300000D02*
X169900000Y-113600000D01*
D44*
%TO.N,LED0*%
X177590000Y-129430000D02*
X177590000Y-130011000D01*
X177590000Y-130011000D02*
X178464200Y-130885200D01*
X178464200Y-130885200D02*
X178465200Y-130885200D01*
X177310000Y-129150000D02*
X177590000Y-129430000D01*
X170110531Y-123100000D02*
X170680000Y-123669469D01*
X169010000Y-123100000D02*
X170110531Y-123100000D01*
X178465200Y-130885200D02*
X178490000Y-130910000D01*
X175380532Y-127260000D02*
X175891000Y-127770468D01*
X175891000Y-128851000D02*
X176190000Y-129150000D01*
X170680000Y-123669469D02*
X170680000Y-126530000D01*
X175891000Y-127770468D02*
X175891000Y-128851000D01*
X170680000Y-126530000D02*
X171410000Y-127260000D01*
X171410000Y-127260000D02*
X175380532Y-127260000D01*
X176190000Y-129150000D02*
X177310000Y-129150000D01*
%TO.N,LED1*%
X172551672Y-123320000D02*
X172551672Y-122001672D01*
X177600000Y-128250000D02*
X177600000Y-128561000D01*
X177010000Y-127660000D02*
X177600000Y-128250000D01*
X177010000Y-125185000D02*
X177010000Y-127660000D01*
X172962748Y-123731076D02*
X172551672Y-123320000D01*
X177000000Y-125175000D02*
X177010000Y-125185000D01*
X172551672Y-122001672D02*
X171650000Y-121100000D01*
X177600000Y-128561000D02*
X178464200Y-129425200D01*
X171650000Y-121100000D02*
X169010000Y-121100000D01*
%TO.N,LED2*%
X170710934Y-119700000D02*
X171625000Y-119700000D01*
X169010000Y-119100000D02*
X170110934Y-119100000D01*
X177685288Y-127187946D02*
X177686946Y-127187946D01*
X177686946Y-127187946D02*
X178464200Y-127965200D01*
X170110934Y-119100000D02*
X170710934Y-119700000D01*
%TO.N,BOOT0*%
X157480000Y-105150000D02*
X157490000Y-105150000D01*
X157480000Y-109300000D02*
X158005000Y-109300000D01*
X158005000Y-109300000D02*
X158335000Y-109630000D01*
X158335000Y-109635000D02*
X158335000Y-110925000D01*
X159844100Y-108407200D02*
X159562800Y-108407200D01*
X159562800Y-108407200D02*
X158335000Y-109635000D01*
X158335000Y-109630000D02*
X158335000Y-110925000D01*
%TO.N,BEEPER*%
X160392242Y-107610000D02*
X153583802Y-107610000D01*
X166299999Y-109590000D02*
X166835000Y-110125001D01*
X164166810Y-109590000D02*
X166299999Y-109590000D01*
X162572506Y-107995696D02*
X164166810Y-109590000D01*
X148620000Y-109020000D02*
X148771000Y-109020000D01*
X152173802Y-109020000D02*
X148620000Y-109020000D01*
X162572506Y-107815583D02*
X162572506Y-107995696D01*
X160403990Y-107598252D02*
X160392242Y-107610000D01*
X153583802Y-107610000D02*
X152173802Y-109020000D01*
X166835000Y-110125001D02*
X166835000Y-110925000D01*
%TO.N,LED_STRIP*%
X152240001Y-124100000D02*
X153660000Y-124100000D01*
X152240000Y-124099999D02*
X152240001Y-124100000D01*
%TO.N,UART1_TX*%
X170270359Y-118085701D02*
X170269999Y-118085341D01*
X169787254Y-116100000D02*
X169010000Y-116100000D01*
X170269999Y-116582745D02*
X169787254Y-116100000D01*
X170269999Y-118085341D02*
X170269999Y-116582745D01*
%TO.N,UART1_RX*%
X170653905Y-115663856D02*
X170653905Y-115635133D01*
X170618772Y-115600000D02*
X169010000Y-115600000D01*
X170653905Y-115635133D02*
X170618772Y-115600000D01*
%TO.N,Net-(U2-I{slash}O1-Pad6)*%
X172855000Y-115800000D02*
X172855000Y-117365400D01*
%TO.N,Net-(U2-I{slash}O2-Pad4)*%
X172855000Y-112315400D02*
X172855000Y-113900000D01*
%TO.N,UART2_RX*%
X158963053Y-107100000D02*
X159382053Y-106681000D01*
X160040000Y-109530000D02*
X160081000Y-109571000D01*
X161536254Y-109571000D02*
X161835000Y-109869746D01*
X161835000Y-109869746D02*
X161835000Y-110925000D01*
X159382053Y-106681000D02*
X170939000Y-106681000D01*
X170939000Y-106681000D02*
X172000000Y-105620000D01*
X160081000Y-109571000D02*
X161536254Y-109571000D01*
%TO.N,UART2_TX*%
X161835234Y-107042000D02*
X160920600Y-107956634D01*
X162335000Y-110925000D02*
X162417600Y-110842400D01*
X162335000Y-109755000D02*
X162335000Y-110925000D01*
X160920600Y-108857766D02*
X161272834Y-109210000D01*
X161272834Y-109210000D02*
X161790000Y-109210000D01*
X171089132Y-107041400D02*
X171088531Y-107042000D01*
X161790000Y-109210000D02*
X162335000Y-109755000D01*
X160920600Y-107956634D02*
X160920600Y-108857766D01*
X173078600Y-107041400D02*
X171089132Y-107041400D01*
X174500000Y-105620000D02*
X173078600Y-107041400D01*
X171088531Y-107042000D02*
X161835234Y-107042000D01*
%TO.N,USB_D-*%
X171275000Y-115100000D02*
X171575000Y-115400000D01*
X171575000Y-115400000D02*
X171575000Y-116820400D01*
X169010000Y-115100000D02*
X171275000Y-115100000D01*
X171575000Y-116820400D02*
X171030000Y-117365400D01*
%TO.N,USB_D+*%
X171030000Y-112315400D02*
X171030000Y-113357254D01*
X171030000Y-113357254D02*
X169787254Y-114600000D01*
X169787254Y-114600000D02*
X169010000Y-114600000D01*
%TO.N,SPI2_MOSI*%
X155680000Y-122090000D02*
X160370000Y-122090000D01*
X154690000Y-121100000D02*
X155680000Y-122090000D01*
X169551800Y-128473200D02*
X168960800Y-128473200D01*
X162777253Y-120440000D02*
X169814000Y-127476746D01*
X153660000Y-121100000D02*
X154690000Y-121100000D01*
X169814000Y-127476746D02*
X169814000Y-128211000D01*
X169814000Y-128211000D02*
X169551800Y-128473200D01*
X160370000Y-122090000D02*
X162020000Y-120440000D01*
X162020000Y-120440000D02*
X162777253Y-120440000D01*
%TO.N,SPI2_NSS*%
X171789468Y-121750000D02*
X172190672Y-122151204D01*
X162830000Y-119065800D02*
X162830000Y-112410000D01*
X162830000Y-112410000D02*
X162835000Y-112405000D01*
X176150000Y-131682400D02*
X176750800Y-132283200D01*
X172190672Y-122151204D02*
X172190672Y-123949791D01*
X172190672Y-123949791D02*
X172385897Y-124145016D01*
X176150000Y-131680000D02*
X176150000Y-131682400D01*
X162835000Y-112405000D02*
X162835000Y-110925000D01*
X170636566Y-121750000D02*
X171789468Y-121750000D01*
%TO.N,SPI2_MISO*%
X175530000Y-130060000D02*
X175530000Y-127920000D01*
X175280000Y-127670000D02*
X171260000Y-127670000D01*
X176483200Y-131013200D02*
X175530000Y-130060000D01*
X171260000Y-127670000D02*
X170220000Y-126630000D01*
X176750800Y-131013200D02*
X176483200Y-131013200D01*
X170220000Y-123720000D02*
X170100000Y-123600000D01*
X170100000Y-123600000D02*
X169010000Y-123600000D01*
X175530000Y-127920000D02*
X175280000Y-127670000D01*
X170220000Y-126630000D02*
X170220000Y-123720000D01*
%TO.N,SPI2_SCK*%
X168960800Y-129743200D02*
X170175000Y-128529000D01*
X163391000Y-120543215D02*
X163391000Y-120521000D01*
X170175000Y-127327215D02*
X163391000Y-120543215D01*
X170175000Y-128529000D02*
X170175000Y-127327215D01*
X163391000Y-120521000D02*
X163391000Y-110981000D01*
X163391000Y-110981000D02*
X163335000Y-110925000D01*
%TO.N,GYRO_MISO*%
X156527500Y-127952500D02*
X157335000Y-127145000D01*
X157335000Y-127145000D02*
X157335000Y-126275000D01*
X156527500Y-129755200D02*
X156527500Y-127952500D01*
%TO.N,GYRO_MOSI*%
X157835000Y-127165000D02*
X157835000Y-126275000D01*
X157192500Y-129590200D02*
X156950000Y-129347700D01*
X156950000Y-129347700D02*
X156950000Y-128050000D01*
X156950000Y-128050000D02*
X157835000Y-127165000D01*
%TO.N,GYRO_SCK*%
X157692500Y-129590200D02*
X157692500Y-130160115D01*
X156835000Y-125104000D02*
X155751000Y-124020000D01*
X156835000Y-126275000D02*
X156835000Y-125104000D01*
X157692500Y-130160115D02*
X157363687Y-130488928D01*
%TO.N,GYRO_CS*%
X152286000Y-124970000D02*
X152656000Y-124600000D01*
X152656000Y-124600000D02*
X153660000Y-124600000D01*
X157785000Y-128810000D02*
X158192500Y-129217500D01*
X158192500Y-129217500D02*
X158192500Y-129590200D01*
X157460000Y-128810000D02*
X157785000Y-128810000D01*
%TO.N,GYRO_INT1*%
X167425000Y-120927426D02*
X167425000Y-119229746D01*
X156527500Y-132818300D02*
X156527500Y-131255200D01*
X167425000Y-121422574D02*
X167440200Y-121407374D01*
X167440200Y-121407374D02*
X167440200Y-120942626D01*
X157059998Y-133282000D02*
X156991200Y-133282000D01*
X167800000Y-123661795D02*
X167425000Y-123286795D01*
X168054746Y-118600000D02*
X169010000Y-118600000D01*
X156991200Y-133282000D02*
X156527500Y-132818300D01*
X167425000Y-119229746D02*
X168054746Y-118600000D01*
X167425000Y-123286795D02*
X167425000Y-121422574D01*
X167440200Y-120942626D02*
X167425000Y-120927426D01*
%TO.N,GYRO_CLKIN*%
X166319200Y-118922800D02*
X167142000Y-118100000D01*
X160400000Y-129507699D02*
X159152499Y-130755200D01*
X159152499Y-130755200D02*
X158857500Y-130755200D01*
X167142000Y-118100000D02*
X169010000Y-118100000D01*
X160400000Y-128800000D02*
X160400000Y-129507699D01*
X161783500Y-127485000D02*
X161715000Y-127485000D01*
X161715000Y-127485000D02*
X160400000Y-128800000D01*
%TO.N,UART3_RX*%
X171589109Y-122270891D02*
X170348546Y-122270891D01*
X170348546Y-122270891D02*
X170177655Y-122100000D01*
X170177655Y-122100000D02*
X169010000Y-122100000D01*
%TO.N,unconnected-(U_STM32-PB3-Pad89)*%
X160850000Y-110925000D02*
X160900000Y-110975000D01*
X160835000Y-110925000D02*
X160850000Y-110925000D01*
%TO.N,Net-(U_STM32-PH0)*%
X151240000Y-117160000D02*
X151700000Y-117160000D01*
X152640000Y-118100000D02*
X153660000Y-118100000D01*
X151700000Y-117160000D02*
X152640000Y-118100000D01*
%TO.N,Net-(U_STM32-PH1)*%
X151240000Y-119560000D02*
X151670000Y-119560000D01*
X151670000Y-119560000D02*
X152630000Y-118600000D01*
X152630000Y-118600000D02*
X153660000Y-118600000D01*
%TO.N,UART5_RX*%
X169710000Y-125650000D02*
X169470000Y-125650000D01*
X160690000Y-136190000D02*
X159500000Y-137380000D01*
X165016390Y-136190000D02*
X160690000Y-136190000D01*
X169010000Y-125190000D02*
X169010000Y-124600000D01*
X169470000Y-125650000D02*
X169010000Y-125190000D01*
X165750000Y-135456390D02*
X165016390Y-136190000D01*
X165750000Y-133300000D02*
X165750000Y-135456390D01*
%TO.N,UART3_TX*%
X169041891Y-122631891D02*
X170363671Y-122631891D01*
X166369998Y-137380000D02*
X167000000Y-137380000D01*
X170363671Y-122631891D02*
X170599199Y-122867419D01*
X169010000Y-122600000D02*
X169041891Y-122631891D01*
%TO.N,/DP*%
X175338800Y-114108800D02*
X177397000Y-114108800D01*
X175130000Y-113900000D02*
X175338800Y-114108800D01*
%TO.N,/DN*%
X175321200Y-115608800D02*
X177397000Y-115608800D01*
X175130000Y-115800000D02*
X175321200Y-115608800D01*
%TO.N,Net-(J1-CC1)*%
X176394100Y-116108800D02*
X177397000Y-116108800D01*
X175130000Y-117372900D02*
X176394100Y-116108800D01*
%TO.N,Net-(J1-CC2)*%
X175930900Y-113108800D02*
X177397000Y-113108800D01*
X175130000Y-112307900D02*
X175930900Y-113108800D01*
D43*
%TO.N,3.3VA*%
X151240000Y-122912500D02*
X151240000Y-124480000D01*
X153660000Y-122100000D02*
X153660000Y-122350000D01*
X153330000Y-126887500D02*
X153800000Y-126887500D01*
X151240000Y-124480000D02*
X151240000Y-124797500D01*
X151802500Y-122350000D02*
X153660000Y-122350000D01*
X151240000Y-122912500D02*
X151802500Y-122350000D01*
X151240000Y-124797500D02*
X153330000Y-126887500D01*
X153660000Y-122350000D02*
X153660000Y-122600000D01*
D44*
%TO.N,Net-(U_FLASH1-{slash}HOLD(IO3))*%
X168960800Y-131013200D02*
X169243200Y-131013200D01*
X169870000Y-132450000D02*
X170770000Y-133350000D01*
X169243200Y-131013200D02*
X169870000Y-131640000D01*
X174560000Y-133350000D02*
X174910000Y-133700000D01*
X169870000Y-131640000D02*
X169870000Y-132450000D01*
X170770000Y-133350000D02*
X174560000Y-133350000D01*
X174910000Y-133700000D02*
X174910000Y-134917900D01*
X174910000Y-134917900D02*
X175816900Y-135824800D01*
D42*
%TO.N,5V*%
X173235129Y-124392076D02*
X173905000Y-123722205D01*
X173073633Y-124392076D02*
X173235129Y-124392076D01*
X172505709Y-124960000D02*
X173073633Y-124392076D01*
X172450000Y-124960000D02*
X172505709Y-124960000D01*
D43*
%TO.N,GND*%
X174575000Y-114850000D02*
X175130000Y-114850000D01*
X174155000Y-115270000D02*
X174575000Y-114850000D01*
X174130000Y-115270000D02*
X174155000Y-115270000D01*
D42*
%TO.N,5V_USB*%
X174855000Y-121081800D02*
X175481800Y-121081800D01*
X175481800Y-121081800D02*
X177985200Y-123585200D01*
X177985200Y-123585200D02*
X178464200Y-123585200D01*
D43*
%TO.N,3.3V*%
X151173630Y-115098630D02*
X152549000Y-116474000D01*
X152549000Y-116474000D02*
X152549000Y-117336964D01*
X152549000Y-117336964D02*
X152812036Y-117600000D01*
X152812036Y-117600000D02*
X153660000Y-117600000D01*
%TD*%
M02*
