%TF.GenerationSoftware,KiCad,Pcbnew,9.0.4*%
%TF.CreationDate,2025-11-28T22:46:10-05:00*%
%TF.ProjectId,STM32H743VIT6 FC,53544d33-3248-4373-9433-564954362046,rev?*%
%TF.SameCoordinates,Original*%
%TF.FileFunction,Copper,L2,Inr*%
%TF.FilePolarity,Positive*%
%FSLAX46Y46*%
G04 Gerber Fmt 4.6, Leading zero omitted, Abs format (unit mm)*
G04 Created by KiCad (PCBNEW 9.0.4) date 2025-11-28 22:46:10*
%MOMM*%
%LPD*%
G01*
G04 APERTURE LIST*
%TA.AperFunction,ComponentPad*%
%ADD10C,4.700000*%
%TD*%
%TA.AperFunction,HeatsinkPad*%
%ADD11C,0.500000*%
%TD*%
%TA.AperFunction,ComponentPad*%
%ADD12O,1.800000X1.100000*%
%TD*%
%TA.AperFunction,ViaPad*%
%ADD13C,0.600000*%
%TD*%
%TA.AperFunction,ViaPad*%
%ADD14C,0.500000*%
%TD*%
%TA.AperFunction,Conductor*%
%ADD15C,0.200000*%
%TD*%
%TA.AperFunction,Conductor*%
%ADD16C,0.500000*%
%TD*%
G04 APERTURE END LIST*
D10*
%TO.N,*%
%TO.C,H1*%
X150500000Y-105000000D03*
%TD*%
D11*
%TO.N,GND*%
%TO.C,U_3V1*%
X173374200Y-125525300D03*
X174474200Y-125525300D03*
%TD*%
D10*
%TO.N,*%
%TO.C,H3*%
X150500000Y-135500000D03*
%TD*%
D12*
%TO.N,GND*%
%TO.C,J1*%
X182372000Y-119753800D03*
X182372000Y-109963800D03*
X179372000Y-119753800D03*
X179372000Y-109963800D03*
%TD*%
D10*
%TO.N,*%
%TO.C,*%
X181000000Y-135500000D03*
%TD*%
%TO.N,*%
%TO.C,H2*%
X181000000Y-105000000D03*
%TD*%
%TO.N,*%
%TO.C,H4*%
X181000000Y-135500000D03*
%TD*%
D13*
%TO.N,GND*%
X150400000Y-113300000D03*
D14*
%TO.N,UART3_TX*%
X170599199Y-122867419D03*
X166369998Y-137380000D03*
%TO.N,UART5_RX*%
X165750000Y-133300000D03*
X159500000Y-137380000D03*
X169710000Y-125650000D03*
%TO.N,UART3_RX*%
X171589109Y-122270891D03*
X170730000Y-135750421D03*
X165119111Y-136740498D03*
%TO.N,GYRO_CLKIN*%
X161783500Y-127485000D03*
X166319200Y-118922800D03*
%TO.N,GYRO_INT1*%
X157059998Y-133282000D03*
X167800000Y-123661795D03*
%TO.N,GYRO_CS*%
X152286000Y-124970000D03*
X157460000Y-128810000D03*
%TO.N,GYRO_SCK*%
X155751000Y-124020000D03*
X157363687Y-130488928D03*
%TO.N,SPI2_NSS*%
X162830000Y-119065800D03*
X176150000Y-131680000D03*
X170636566Y-121750000D03*
X172385897Y-124145016D03*
%TO.N,Net-(USB_D1-K)*%
X180214200Y-123585200D03*
%TO.N,UART2_TX*%
X174500000Y-105620000D03*
%TO.N,UART2_RX*%
X158963053Y-107100000D03*
X160040000Y-109530000D03*
X172000000Y-105620000D03*
%TO.N,UART1_RX*%
X170653905Y-115663856D03*
X182880000Y-127770000D03*
%TO.N,UART1_TX*%
X182880000Y-130270000D03*
X170270359Y-118085701D03*
%TO.N,LED_STRIP*%
X148620000Y-126520000D03*
X152240000Y-124099999D03*
%TO.N,BEEPER*%
X162572506Y-107815583D03*
X148620000Y-109020000D03*
X160403990Y-107598252D03*
%TO.N,LED2*%
X171625000Y-119700000D03*
X177685288Y-127187946D03*
%TO.N,LED1*%
X177000000Y-125175000D03*
X172962748Y-123731076D03*
%TO.N,UART8_TX*%
X158779001Y-133636903D03*
X155040444Y-120729474D03*
%TO.N,UART8_RX*%
X156200000Y-118500000D03*
X159500000Y-135100000D03*
%TO.N,MOTOR2*%
X163121000Y-121793000D03*
X164500000Y-103124000D03*
%TO.N,MOTOR1*%
X162010002Y-103124000D03*
X161835000Y-124567497D03*
%TO.N,UART7_RX*%
X170400000Y-107602000D03*
X174500000Y-103124000D03*
X159840000Y-128860000D03*
%TO.N,ADC_CURR*%
X162153600Y-113202600D03*
X162153600Y-119837200D03*
X162164625Y-121016625D03*
X172000000Y-103124000D03*
%TO.N,MOTOR4*%
X165275625Y-123825625D03*
X169362000Y-103262000D03*
%TO.N,MOTOR3*%
X164388800Y-122859800D03*
X167000000Y-103124000D03*
%TO.N,I2C1_SCL*%
X168826260Y-135690000D03*
X158231394Y-117231394D03*
%TO.N,I2C1_SDA*%
X172009769Y-135100002D03*
X158851000Y-115850000D03*
X170768208Y-136621011D03*
%TO.N,CAM*%
X148620000Y-111520000D03*
X159500000Y-105620000D03*
%TO.N,UART4_TX*%
X148620000Y-114020000D03*
X157325000Y-112014746D03*
%TO.N,UART4_RX*%
X157081282Y-112977937D03*
X148620000Y-116520000D03*
%TO.N,ADC_VBAT*%
X154075306Y-125940225D03*
%TO.N,Net-(9V_D1-K)*%
X180214200Y-126505200D03*
D13*
%TO.N,9V_REG*%
X172000000Y-137380000D03*
D14*
%TO.N,Net-(5V_D1-K)*%
X180214200Y-125045200D03*
D13*
%TO.N,5V_REG*%
X148685000Y-128955000D03*
X160087500Y-121528600D03*
X148620000Y-119020000D03*
X173775000Y-121425000D03*
X158216600Y-106490000D03*
X157400000Y-114500000D03*
D14*
%TO.N,Net-(U1-SW)*%
X158563754Y-127461292D03*
X160887500Y-124475000D03*
D13*
%TO.N,BAT*%
X159500000Y-103124000D03*
D14*
%TO.N,Net-(3V3_D1-K)*%
X180214200Y-122125200D03*
D13*
%TO.N,3.3V*%
X171450000Y-125962500D03*
X176377207Y-120622793D03*
X153162501Y-130993927D03*
X174508800Y-108102400D03*
X169075000Y-127600000D03*
X148620000Y-131520000D03*
%TO.N,5V*%
X182880000Y-125270000D03*
X167000000Y-134876800D03*
X172450000Y-124960000D03*
X167600000Y-132650000D03*
X174381813Y-123435560D03*
D14*
%TO.N,Net-(MCU_D3-K)*%
X180214200Y-127965200D03*
%TO.N,Net-(MCU_D2-K)*%
X180214200Y-129425200D03*
%TO.N,Net-(MCU_D1-K)*%
X180214200Y-130885200D03*
D13*
%TO.N,GND*%
X160172400Y-130530600D03*
X170844150Y-120528900D03*
X150270000Y-129530000D03*
X162000000Y-105620000D03*
X176816000Y-134366000D03*
X161837755Y-131947902D03*
X155750000Y-124850000D03*
X162000000Y-137380000D03*
X172855800Y-130378200D03*
X164500000Y-134876800D03*
X175120000Y-109650000D03*
X174410000Y-130378200D03*
X177300000Y-121800000D03*
X162560000Y-123825000D03*
X171625000Y-113200000D03*
X164780000Y-132950000D03*
X176250000Y-126000000D03*
X158102500Y-130782660D03*
X154900000Y-116900000D03*
X173830000Y-110850000D03*
X171460000Y-130378200D03*
X175768000Y-120015000D03*
X152041230Y-126461400D03*
X176450506Y-127683808D03*
X151290000Y-131810000D03*
X172855800Y-131770000D03*
X152235000Y-121485000D03*
X169500000Y-137380000D03*
X159800000Y-133600000D03*
X152200000Y-110061130D03*
X153061862Y-129876573D03*
X152896372Y-128207929D03*
X165917300Y-129576601D03*
X161925600Y-128540000D03*
X178409600Y-132080000D03*
X169754169Y-105443991D03*
X158822688Y-128122395D03*
X160087500Y-120055400D03*
X157000000Y-103124000D03*
X176500000Y-110940000D03*
X168760000Y-108530000D03*
X170927107Y-114252107D03*
X166879200Y-121175000D03*
X149890000Y-118850000D03*
X163370666Y-132741860D03*
X171080000Y-118820000D03*
X153820000Y-108835000D03*
X172855800Y-129130000D03*
X171577000Y-124283300D03*
X169500000Y-133550000D03*
X148620000Y-124020000D03*
X148620000Y-121520000D03*
X172008800Y-108102400D03*
X182880000Y-122770000D03*
X162540000Y-108960000D03*
X165800000Y-124400000D03*
%TO.N,3.3V*%
X155330000Y-106240000D03*
X155330000Y-108220000D03*
D14*
%TO.N,BOOT0*%
X157480000Y-106240000D03*
X157480000Y-108200000D03*
D13*
%TO.N,GND*%
X174130000Y-115270000D03*
X156115001Y-109684149D03*
%TO.N,9V_REG*%
X178260000Y-133240000D03*
X176904571Y-118995429D03*
%TD*%
D15*
%TO.N,MOTOR4*%
X169362000Y-103262000D02*
X168200000Y-104424000D01*
X168200000Y-104424000D02*
X168200000Y-120920000D01*
X168200000Y-120920000D02*
X165294375Y-123825625D01*
X165294375Y-123825625D02*
X165275625Y-123825625D01*
%TO.N,UART7_RX*%
X170400000Y-107602000D02*
X170400000Y-108442785D01*
X167239000Y-122751000D02*
X167239000Y-124090685D01*
X170400000Y-108442785D02*
X169625000Y-109217785D01*
X160131000Y-129151000D02*
X159840000Y-128860000D01*
X169625000Y-120365000D02*
X167239000Y-122751000D01*
X169625000Y-109217785D02*
X169625000Y-120365000D01*
X167239000Y-124090685D02*
X162178685Y-129151000D01*
X162178685Y-129151000D02*
X160131000Y-129151000D01*
%TO.N,GYRO_CLKIN*%
X161783500Y-127485000D02*
X161783500Y-126596500D01*
X161783500Y-126596500D02*
X166319200Y-122060800D01*
X166319200Y-122060800D02*
X166319200Y-118922800D01*
D16*
%TO.N,Net-(U1-SW)*%
X160887500Y-125137546D02*
X158563754Y-127461292D01*
X160887500Y-124475000D02*
X160887500Y-125137546D01*
D15*
%TO.N,MOTOR3*%
X164400000Y-122848600D02*
X164388800Y-122859800D01*
X164400000Y-105724000D02*
X164400000Y-122848600D01*
X167000000Y-103124000D02*
X164400000Y-105724000D01*
%TO.N,MOTOR1*%
X161835000Y-124567497D02*
X161108100Y-123840597D01*
X161108100Y-123840597D02*
X161108100Y-104025902D01*
X161108100Y-104025902D02*
X162010002Y-103124000D01*
%TO.N,MOTOR2*%
X163425000Y-104199000D02*
X164500000Y-103124000D01*
X163425000Y-121489000D02*
X163425000Y-104199000D01*
X163121000Y-121793000D02*
X163425000Y-121489000D01*
%TO.N,LED2*%
X171625000Y-119700000D02*
X173002374Y-119700000D01*
X177685288Y-124382914D02*
X177685288Y-127187946D01*
X173002374Y-119700000D02*
X177685288Y-124382914D01*
%TO.N,UART1_TX*%
X170270359Y-118085701D02*
X170284750Y-118100092D01*
X170284750Y-118100092D02*
X172546428Y-118100092D01*
X172546428Y-118100092D02*
X182319000Y-127872664D01*
X182319000Y-129709000D02*
X182880000Y-130270000D01*
X182319000Y-127872664D02*
X182319000Y-129709000D01*
%TO.N,UART1_RX*%
X178090200Y-121543826D02*
X178090200Y-122198536D01*
X172521374Y-115975000D02*
X178090200Y-121543826D01*
X170682628Y-115663856D02*
X170993772Y-115975000D01*
X170993772Y-115975000D02*
X172521374Y-115975000D01*
X178090200Y-122198536D02*
X182880000Y-126988336D01*
X170653905Y-115663856D02*
X170682628Y-115663856D01*
X182880000Y-126988336D02*
X182880000Y-127770000D01*
%TO.N,GYRO_SCK*%
X157971000Y-129881615D02*
X157363687Y-130488928D01*
X155751000Y-124020000D02*
X157971000Y-126240000D01*
X157971000Y-126240000D02*
X157971000Y-129881615D01*
%TO.N,GYRO_CS*%
X156130000Y-128780000D02*
X153851225Y-126501225D01*
X152311707Y-124970000D02*
X152286000Y-124970000D01*
X153842932Y-126501225D02*
X152311707Y-124970000D01*
X157460000Y-128810000D02*
X157430000Y-128780000D01*
X153851225Y-126501225D02*
X153842932Y-126501225D01*
X157430000Y-128780000D02*
X156130000Y-128780000D01*
%TO.N,GYRO_INT1*%
X167800000Y-124325000D02*
X167800000Y-123661795D01*
X157059998Y-133282000D02*
X157105200Y-133282000D01*
X158990665Y-133125903D02*
X158994881Y-133130119D01*
X158994881Y-133130119D02*
X167800000Y-124325000D01*
X157105200Y-133282000D02*
X157261297Y-133125903D01*
X157261297Y-133125903D02*
X158990665Y-133125903D01*
%TO.N,UART3_RX*%
X171589109Y-122861775D02*
X171589109Y-122270891D01*
X170730000Y-135750421D02*
X170730000Y-123720884D01*
X170730000Y-123720884D02*
X171589109Y-122861775D01*
%TO.N,UART3_TX*%
X166369998Y-137355002D02*
X168414000Y-135311000D01*
X166369998Y-137380000D02*
X166369998Y-137355002D01*
X168414000Y-125052618D02*
X168414000Y-135311000D01*
X170599199Y-122867419D02*
X168414000Y-125052618D01*
%TD*%
%TA.AperFunction,Conductor*%
%TO.N,GND*%
G36*
X159024688Y-102270185D02*
G01*
X159070443Y-102322989D01*
X159080387Y-102392147D01*
X159051362Y-102455703D01*
X159026540Y-102477602D01*
X158989711Y-102502210D01*
X158989707Y-102502213D01*
X158878213Y-102613707D01*
X158878210Y-102613711D01*
X158790609Y-102744814D01*
X158790602Y-102744827D01*
X158730264Y-102890498D01*
X158730261Y-102890510D01*
X158699500Y-103045153D01*
X158699500Y-103202846D01*
X158730261Y-103357489D01*
X158730264Y-103357501D01*
X158790602Y-103503172D01*
X158790609Y-103503185D01*
X158878210Y-103634288D01*
X158878213Y-103634292D01*
X158989707Y-103745786D01*
X158989711Y-103745789D01*
X159120814Y-103833390D01*
X159120827Y-103833397D01*
X159220060Y-103874500D01*
X159266503Y-103893737D01*
X159421153Y-103924499D01*
X159421156Y-103924500D01*
X159421158Y-103924500D01*
X159578844Y-103924500D01*
X159578845Y-103924499D01*
X159733497Y-103893737D01*
X159879179Y-103833394D01*
X160010289Y-103745789D01*
X160121789Y-103634289D01*
X160209394Y-103503179D01*
X160269737Y-103357497D01*
X160300500Y-103202842D01*
X160300500Y-103045158D01*
X160300500Y-103045155D01*
X160300499Y-103045153D01*
X160272920Y-102906505D01*
X160269737Y-102890503D01*
X160225450Y-102783584D01*
X160209397Y-102744827D01*
X160209390Y-102744814D01*
X160121789Y-102613711D01*
X160121786Y-102613707D01*
X160010292Y-102502213D01*
X160010288Y-102502210D01*
X159973460Y-102477602D01*
X159928655Y-102423989D01*
X159919948Y-102354664D01*
X159950103Y-102291637D01*
X160009546Y-102254918D01*
X160042351Y-102250500D01*
X161557649Y-102250500D01*
X161624688Y-102270185D01*
X161670443Y-102322989D01*
X161680387Y-102392147D01*
X161651362Y-102455703D01*
X161626540Y-102477602D01*
X161531586Y-102541048D01*
X161531582Y-102541051D01*
X161427053Y-102645580D01*
X161427050Y-102645584D01*
X161344921Y-102768498D01*
X161344914Y-102768511D01*
X161288344Y-102905084D01*
X161288342Y-102905092D01*
X161273002Y-102982210D01*
X161240617Y-103044121D01*
X161239066Y-103045699D01*
X160739386Y-103545380D01*
X160627581Y-103657184D01*
X160627575Y-103657192D01*
X160582671Y-103734970D01*
X160582671Y-103734971D01*
X160548523Y-103794117D01*
X160507599Y-103946845D01*
X160507599Y-103946847D01*
X160507599Y-104114948D01*
X160507600Y-104114961D01*
X160507600Y-106723752D01*
X160487915Y-106790791D01*
X160435111Y-106836546D01*
X160383600Y-106847752D01*
X160330070Y-106847752D01*
X160185082Y-106876592D01*
X160185072Y-106876595D01*
X160048501Y-106933164D01*
X160048488Y-106933171D01*
X159925574Y-107015300D01*
X159910978Y-107029896D01*
X159849654Y-107063379D01*
X159779962Y-107058393D01*
X159724030Y-107016520D01*
X159701682Y-106966403D01*
X159689484Y-106905084D01*
X159684711Y-106881087D01*
X159666262Y-106836546D01*
X159628140Y-106744511D01*
X159628133Y-106744498D01*
X159546004Y-106621584D01*
X159546001Y-106621580D01*
X159505249Y-106580828D01*
X159471764Y-106519505D01*
X159476748Y-106449813D01*
X159518620Y-106393880D01*
X159568739Y-106371530D01*
X159573917Y-106370500D01*
X159573918Y-106370500D01*
X159718913Y-106341658D01*
X159855495Y-106285084D01*
X159978416Y-106202951D01*
X160082951Y-106098416D01*
X160165084Y-105975495D01*
X160221658Y-105838913D01*
X160243381Y-105729707D01*
X160250500Y-105693920D01*
X160250500Y-105546079D01*
X160221659Y-105401092D01*
X160221658Y-105401091D01*
X160221658Y-105401087D01*
X160221656Y-105401082D01*
X160165087Y-105264511D01*
X160165080Y-105264498D01*
X160082951Y-105141584D01*
X160082948Y-105141580D01*
X159978419Y-105037051D01*
X159978415Y-105037048D01*
X159855501Y-104954919D01*
X159855488Y-104954912D01*
X159718917Y-104898343D01*
X159718907Y-104898340D01*
X159573920Y-104869500D01*
X159573918Y-104869500D01*
X159426082Y-104869500D01*
X159426080Y-104869500D01*
X159281092Y-104898340D01*
X159281082Y-104898343D01*
X159144511Y-104954912D01*
X159144498Y-104954919D01*
X159021584Y-105037048D01*
X159021580Y-105037051D01*
X158917051Y-105141580D01*
X158917048Y-105141584D01*
X158834919Y-105264498D01*
X158834912Y-105264511D01*
X158778343Y-105401082D01*
X158778340Y-105401092D01*
X158749500Y-105546079D01*
X158749500Y-105658700D01*
X158729815Y-105725739D01*
X158677011Y-105771494D01*
X158607853Y-105781438D01*
X158578048Y-105773261D01*
X158450101Y-105720264D01*
X158450089Y-105720261D01*
X158295445Y-105689500D01*
X158295442Y-105689500D01*
X158137758Y-105689500D01*
X158080241Y-105700940D01*
X158010650Y-105694711D01*
X157968371Y-105667003D01*
X157958419Y-105657051D01*
X157958415Y-105657048D01*
X157835501Y-105574919D01*
X157835488Y-105574912D01*
X157698917Y-105518343D01*
X157698907Y-105518340D01*
X157553920Y-105489500D01*
X157553918Y-105489500D01*
X157406082Y-105489500D01*
X157406080Y-105489500D01*
X157261092Y-105518340D01*
X157261082Y-105518343D01*
X157124511Y-105574912D01*
X157124498Y-105574919D01*
X157001584Y-105657048D01*
X157001580Y-105657051D01*
X156897051Y-105761580D01*
X156897048Y-105761584D01*
X156814919Y-105884498D01*
X156814912Y-105884511D01*
X156758343Y-106021082D01*
X156758340Y-106021092D01*
X156729500Y-106166079D01*
X156729500Y-106166082D01*
X156729500Y-106313918D01*
X156729500Y-106313920D01*
X156729499Y-106313920D01*
X156758340Y-106458907D01*
X156758343Y-106458917D01*
X156814912Y-106595488D01*
X156814919Y-106595501D01*
X156897048Y-106718415D01*
X156897051Y-106718419D01*
X157001580Y-106822948D01*
X157001584Y-106822951D01*
X157124498Y-106905080D01*
X157124511Y-106905087D01*
X157261082Y-106961656D01*
X157261087Y-106961658D01*
X157261091Y-106961658D01*
X157261092Y-106961659D01*
X157406079Y-106990500D01*
X157533660Y-106990500D01*
X157600699Y-107010185D01*
X157621336Y-107026814D01*
X157665549Y-107071027D01*
X157706312Y-107111790D01*
X157837414Y-107199390D01*
X157837427Y-107199397D01*
X157951172Y-107246511D01*
X157983103Y-107259737D01*
X158137753Y-107290499D01*
X158137756Y-107290500D01*
X158137758Y-107290500D01*
X158146772Y-107290500D01*
X158213811Y-107310185D01*
X158259566Y-107362989D01*
X158261333Y-107367048D01*
X158297965Y-107455488D01*
X158297972Y-107455501D01*
X158380101Y-107578415D01*
X158380104Y-107578419D01*
X158484633Y-107682948D01*
X158484637Y-107682951D01*
X158607551Y-107765080D01*
X158607564Y-107765087D01*
X158742327Y-107820907D01*
X158744140Y-107821658D01*
X158744144Y-107821658D01*
X158744145Y-107821659D01*
X158889132Y-107850500D01*
X158889135Y-107850500D01*
X159036973Y-107850500D01*
X159134515Y-107831096D01*
X159181966Y-107821658D01*
X159318548Y-107765084D01*
X159441469Y-107682951D01*
X159456061Y-107668358D01*
X159517382Y-107634873D01*
X159587073Y-107639856D01*
X159643008Y-107681726D01*
X159665360Y-107731847D01*
X159682330Y-107817159D01*
X159682333Y-107817169D01*
X159738902Y-107953740D01*
X159738909Y-107953753D01*
X159821038Y-108076667D01*
X159821041Y-108076671D01*
X159925570Y-108181200D01*
X159925574Y-108181203D01*
X160048488Y-108263332D01*
X160048501Y-108263339D01*
X160185072Y-108319908D01*
X160185077Y-108319910D01*
X160185081Y-108319910D01*
X160185082Y-108319911D01*
X160330069Y-108348752D01*
X160383600Y-108348752D01*
X160450639Y-108368437D01*
X160496394Y-108421241D01*
X160507600Y-108472752D01*
X160507600Y-108725772D01*
X160487915Y-108792811D01*
X160435111Y-108838566D01*
X160365953Y-108848510D01*
X160336148Y-108840333D01*
X160258917Y-108808343D01*
X160258907Y-108808340D01*
X160113920Y-108779500D01*
X160113918Y-108779500D01*
X159966082Y-108779500D01*
X159966080Y-108779500D01*
X159821092Y-108808340D01*
X159821082Y-108808343D01*
X159684511Y-108864912D01*
X159684498Y-108864919D01*
X159561584Y-108947048D01*
X159561580Y-108947051D01*
X159457051Y-109051580D01*
X159457048Y-109051584D01*
X159374919Y-109174498D01*
X159374912Y-109174511D01*
X159318343Y-109311082D01*
X159318340Y-109311092D01*
X159289500Y-109456079D01*
X159289500Y-109456082D01*
X159289500Y-109603918D01*
X159289500Y-109603920D01*
X159289499Y-109603920D01*
X159318340Y-109748907D01*
X159318343Y-109748917D01*
X159374912Y-109885488D01*
X159374919Y-109885501D01*
X159457048Y-110008415D01*
X159457051Y-110008419D01*
X159561580Y-110112948D01*
X159561584Y-110112951D01*
X159684498Y-110195080D01*
X159684511Y-110195087D01*
X159743851Y-110219666D01*
X159821087Y-110251658D01*
X159821091Y-110251658D01*
X159821092Y-110251659D01*
X159966079Y-110280500D01*
X159966082Y-110280500D01*
X160113920Y-110280500D01*
X160211462Y-110261096D01*
X160258913Y-110251658D01*
X160336149Y-110219665D01*
X160405616Y-110212197D01*
X160468095Y-110243472D01*
X160503748Y-110303560D01*
X160507600Y-110334227D01*
X160507600Y-120650577D01*
X160487915Y-120717616D01*
X160435111Y-120763371D01*
X160365953Y-120773315D01*
X160336150Y-120765139D01*
X160321001Y-120758864D01*
X160320989Y-120758861D01*
X160166345Y-120728100D01*
X160166342Y-120728100D01*
X160008658Y-120728100D01*
X160008655Y-120728100D01*
X159854010Y-120758861D01*
X159853998Y-120758864D01*
X159708327Y-120819202D01*
X159708314Y-120819209D01*
X159577211Y-120906810D01*
X159577207Y-120906813D01*
X159465713Y-121018307D01*
X159465710Y-121018311D01*
X159378109Y-121149414D01*
X159378102Y-121149427D01*
X159317764Y-121295098D01*
X159317761Y-121295110D01*
X159287000Y-121449753D01*
X159287000Y-121607446D01*
X159317761Y-121762089D01*
X159317764Y-121762101D01*
X159378102Y-121907772D01*
X159378109Y-121907785D01*
X159465710Y-122038888D01*
X159465713Y-122038892D01*
X159577207Y-122150386D01*
X159577211Y-122150389D01*
X159708314Y-122237990D01*
X159708327Y-122237997D01*
X159853998Y-122298335D01*
X159854003Y-122298337D01*
X160008653Y-122329099D01*
X160008656Y-122329100D01*
X160008658Y-122329100D01*
X160166344Y-122329100D01*
X160166345Y-122329099D01*
X160320997Y-122298337D01*
X160336146Y-122292061D01*
X160405614Y-122284592D01*
X160468094Y-122315865D01*
X160503748Y-122375954D01*
X160507600Y-122406622D01*
X160507600Y-123753948D01*
X160507599Y-123759964D01*
X160506499Y-123763707D01*
X160506842Y-123767621D01*
X160506841Y-123767630D01*
X160505393Y-123767469D01*
X160498601Y-123790588D01*
X160487914Y-123826982D01*
X160487905Y-123826990D01*
X160487903Y-123827000D01*
X160487858Y-123827038D01*
X160452491Y-123863045D01*
X160409080Y-123892051D01*
X160304551Y-123996580D01*
X160304548Y-123996584D01*
X160222419Y-124119498D01*
X160222412Y-124119511D01*
X160165843Y-124256082D01*
X160165840Y-124256092D01*
X160137000Y-124401079D01*
X160137000Y-124775316D01*
X160117315Y-124842355D01*
X160100681Y-124862997D01*
X158772233Y-126191444D01*
X158766904Y-126194353D01*
X158763501Y-126199382D01*
X158736595Y-126210903D01*
X158710910Y-126224929D01*
X158704854Y-126224495D01*
X158699273Y-126226886D01*
X158670414Y-126222032D01*
X158641218Y-126219945D01*
X158636356Y-126216305D01*
X158630371Y-126215299D01*
X158608717Y-126195614D01*
X158585285Y-126178073D01*
X158582014Y-126171340D01*
X158578671Y-126168301D01*
X158564778Y-126135859D01*
X158538269Y-126036923D01*
X158530577Y-126008215D01*
X158480944Y-125922249D01*
X158451520Y-125871284D01*
X158339716Y-125759480D01*
X158339715Y-125759479D01*
X158335385Y-125755149D01*
X158335374Y-125755139D01*
X156521934Y-123941699D01*
X156488449Y-123880376D01*
X156488010Y-123878269D01*
X156472658Y-123801087D01*
X156467867Y-123789521D01*
X156416087Y-123664511D01*
X156416080Y-123664498D01*
X156333951Y-123541584D01*
X156333948Y-123541580D01*
X156229419Y-123437051D01*
X156229415Y-123437048D01*
X156106501Y-123354919D01*
X156106488Y-123354912D01*
X155969917Y-123298343D01*
X155969907Y-123298340D01*
X155824920Y-123269500D01*
X155824918Y-123269500D01*
X155677082Y-123269500D01*
X155677080Y-123269500D01*
X155532092Y-123298340D01*
X155532082Y-123298343D01*
X155395511Y-123354912D01*
X155395498Y-123354919D01*
X155272584Y-123437048D01*
X155272580Y-123437051D01*
X155168051Y-123541580D01*
X155168048Y-123541584D01*
X155085919Y-123664498D01*
X155085912Y-123664511D01*
X155029343Y-123801082D01*
X155029340Y-123801092D01*
X155000500Y-123946079D01*
X155000500Y-123946082D01*
X155000500Y-124093918D01*
X155000500Y-124093920D01*
X155000499Y-124093920D01*
X155029340Y-124238907D01*
X155029343Y-124238917D01*
X155085912Y-124375488D01*
X155085919Y-124375501D01*
X155168048Y-124498415D01*
X155168051Y-124498419D01*
X155272580Y-124602948D01*
X155272584Y-124602951D01*
X155395498Y-124685080D01*
X155395511Y-124685087D01*
X155532082Y-124741656D01*
X155532087Y-124741658D01*
X155609212Y-124756999D01*
X155671119Y-124789382D01*
X155672699Y-124790934D01*
X157334181Y-126452416D01*
X157367666Y-126513739D01*
X157370500Y-126540097D01*
X157370500Y-127960835D01*
X157350815Y-128027874D01*
X157298011Y-128073629D01*
X157293457Y-128075600D01*
X157282400Y-128080123D01*
X157241087Y-128088342D01*
X157104505Y-128144916D01*
X157073641Y-128165538D01*
X157062089Y-128170265D01*
X157039255Y-128172619D01*
X157017347Y-128179480D01*
X157015132Y-128179500D01*
X156430098Y-128179500D01*
X156363059Y-128159815D01*
X156342417Y-128143181D01*
X155537538Y-127338302D01*
X154714039Y-126514804D01*
X154680555Y-126453482D01*
X154685539Y-126383790D01*
X154698614Y-126358241D01*
X154740390Y-126295720D01*
X154796964Y-126159138D01*
X154798841Y-126149705D01*
X154825806Y-126014145D01*
X154825806Y-125866304D01*
X154796965Y-125721317D01*
X154796964Y-125721316D01*
X154796964Y-125721312D01*
X154786452Y-125695934D01*
X154740393Y-125584736D01*
X154740386Y-125584723D01*
X154658257Y-125461809D01*
X154658254Y-125461805D01*
X154553725Y-125357276D01*
X154553721Y-125357273D01*
X154430807Y-125275144D01*
X154430794Y-125275137D01*
X154294223Y-125218568D01*
X154294213Y-125218565D01*
X154149226Y-125189725D01*
X154149224Y-125189725D01*
X154001388Y-125189725D01*
X154001386Y-125189725D01*
X153856398Y-125218565D01*
X153856388Y-125218568D01*
X153719817Y-125275137D01*
X153719806Y-125275143D01*
X153652324Y-125320233D01*
X153585646Y-125341110D01*
X153518266Y-125322625D01*
X153495753Y-125304811D01*
X153050551Y-124859609D01*
X153017066Y-124798286D01*
X153016637Y-124796231D01*
X153007658Y-124751087D01*
X152988633Y-124705156D01*
X152951085Y-124614507D01*
X152918851Y-124566265D01*
X152897973Y-124499587D01*
X152907392Y-124449921D01*
X152961658Y-124318912D01*
X152974156Y-124256082D01*
X152990500Y-124173919D01*
X152990500Y-124026078D01*
X152961659Y-123881091D01*
X152961658Y-123881090D01*
X152961658Y-123881086D01*
X152947058Y-123845839D01*
X152905087Y-123744510D01*
X152905080Y-123744497D01*
X152822951Y-123621583D01*
X152822948Y-123621579D01*
X152718419Y-123517050D01*
X152718415Y-123517047D01*
X152595501Y-123434918D01*
X152595488Y-123434911D01*
X152458917Y-123378342D01*
X152458907Y-123378339D01*
X152313920Y-123349499D01*
X152313918Y-123349499D01*
X152166082Y-123349499D01*
X152166080Y-123349499D01*
X152021092Y-123378339D01*
X152021082Y-123378342D01*
X151884511Y-123434911D01*
X151884498Y-123434918D01*
X151761584Y-123517047D01*
X151761580Y-123517050D01*
X151657051Y-123621579D01*
X151657048Y-123621583D01*
X151574919Y-123744497D01*
X151574912Y-123744510D01*
X151518343Y-123881081D01*
X151518340Y-123881091D01*
X151489500Y-124026078D01*
X151489500Y-124026081D01*
X151489500Y-124173917D01*
X151489500Y-124173919D01*
X151489499Y-124173919D01*
X151518340Y-124318906D01*
X151518343Y-124318916D01*
X151574914Y-124455492D01*
X151574916Y-124455496D01*
X151607148Y-124503734D01*
X151628026Y-124570411D01*
X151618607Y-124620076D01*
X151564343Y-124751082D01*
X151564340Y-124751092D01*
X151535500Y-124896079D01*
X151535500Y-124896082D01*
X151535500Y-125043918D01*
X151535500Y-125043920D01*
X151535499Y-125043920D01*
X151564340Y-125188907D01*
X151564343Y-125188917D01*
X151620912Y-125325488D01*
X151620919Y-125325501D01*
X151703048Y-125448415D01*
X151703051Y-125448419D01*
X151807580Y-125552948D01*
X151807584Y-125552951D01*
X151930498Y-125635080D01*
X151930511Y-125635087D01*
X152027595Y-125675300D01*
X152067087Y-125691658D01*
X152067091Y-125691658D01*
X152067092Y-125691659D01*
X152176302Y-125713383D01*
X152238213Y-125745768D01*
X152239791Y-125747319D01*
X153362410Y-126869938D01*
X153362412Y-126869941D01*
X153474216Y-126981745D01*
X153492261Y-126992163D01*
X153502809Y-127002117D01*
X153503366Y-127003070D01*
X153505383Y-127004618D01*
X155761284Y-129260520D01*
X155761286Y-129260521D01*
X155761290Y-129260524D01*
X155898209Y-129339573D01*
X155898216Y-129339577D01*
X156050943Y-129380501D01*
X156050945Y-129380501D01*
X156216654Y-129380501D01*
X156216670Y-129380500D01*
X156925334Y-129380500D01*
X156992373Y-129400185D01*
X156994225Y-129401398D01*
X157104498Y-129475080D01*
X157104511Y-129475087D01*
X157216462Y-129521458D01*
X157270866Y-129565298D01*
X157292931Y-129631593D01*
X157275652Y-129699292D01*
X157224515Y-129746903D01*
X157193202Y-129757636D01*
X157144779Y-129767268D01*
X157144771Y-129767270D01*
X157008198Y-129823840D01*
X157008185Y-129823847D01*
X156885271Y-129905976D01*
X156885267Y-129905979D01*
X156780738Y-130010508D01*
X156780735Y-130010512D01*
X156698606Y-130133426D01*
X156698599Y-130133439D01*
X156642030Y-130270010D01*
X156642027Y-130270020D01*
X156613187Y-130415007D01*
X156613187Y-130415010D01*
X156613187Y-130562846D01*
X156613187Y-130562848D01*
X156613186Y-130562848D01*
X156642027Y-130707835D01*
X156642030Y-130707845D01*
X156698599Y-130844416D01*
X156698606Y-130844429D01*
X156780735Y-130967343D01*
X156780738Y-130967347D01*
X156885267Y-131071876D01*
X156885271Y-131071879D01*
X157008185Y-131154008D01*
X157008198Y-131154015D01*
X157123041Y-131201584D01*
X157144774Y-131210586D01*
X157144778Y-131210586D01*
X157144779Y-131210587D01*
X157289766Y-131239428D01*
X157289769Y-131239428D01*
X157437607Y-131239428D01*
X157535149Y-131220024D01*
X157582600Y-131210586D01*
X157719182Y-131154012D01*
X157842103Y-131071879D01*
X157946638Y-130967344D01*
X158028771Y-130844423D01*
X158085345Y-130707841D01*
X158100686Y-130630714D01*
X158133068Y-130568807D01*
X158134563Y-130567285D01*
X158329506Y-130372343D01*
X158329511Y-130372339D01*
X158339714Y-130362135D01*
X158339716Y-130362135D01*
X158451520Y-130250331D01*
X158466612Y-130224191D01*
X158518278Y-130134703D01*
X158518279Y-130134701D01*
X158523269Y-130126056D01*
X158530577Y-130113400D01*
X158571500Y-129960673D01*
X158571500Y-129802558D01*
X158571500Y-128326718D01*
X158591185Y-128259679D01*
X158643989Y-128213924D01*
X158671309Y-128205101D01*
X158782667Y-128182950D01*
X158919249Y-128126376D01*
X158978489Y-128086793D01*
X159042170Y-128044244D01*
X161470451Y-125615962D01*
X161474101Y-125610500D01*
X161552584Y-125493041D01*
X161596499Y-125387019D01*
X161640337Y-125332621D01*
X161706631Y-125310555D01*
X161735251Y-125312859D01*
X161761080Y-125317997D01*
X161913405Y-125317997D01*
X161980444Y-125337682D01*
X162026199Y-125390486D01*
X162036143Y-125459644D01*
X162007118Y-125523200D01*
X162001086Y-125529678D01*
X161302981Y-126227782D01*
X161302977Y-126227787D01*
X161260998Y-126300499D01*
X161260998Y-126300500D01*
X161223923Y-126364714D01*
X161222062Y-126371659D01*
X161182999Y-126517443D01*
X161182999Y-126517445D01*
X161182999Y-126685546D01*
X161183000Y-126685559D01*
X161183000Y-126995232D01*
X161163315Y-127062271D01*
X161162103Y-127064122D01*
X161118414Y-127129508D01*
X161061843Y-127266082D01*
X161061840Y-127266092D01*
X161033000Y-127411079D01*
X161033000Y-127411082D01*
X161033000Y-127558918D01*
X161033000Y-127558920D01*
X161032999Y-127558920D01*
X161061840Y-127703907D01*
X161061843Y-127703917D01*
X161118412Y-127840488D01*
X161118419Y-127840501D01*
X161200548Y-127963415D01*
X161200551Y-127963419D01*
X161305080Y-128067948D01*
X161305084Y-128067951D01*
X161427998Y-128150080D01*
X161428011Y-128150087D01*
X161536239Y-128194916D01*
X161564587Y-128206658D01*
X161564591Y-128206658D01*
X161564592Y-128206659D01*
X161709579Y-128235500D01*
X161709582Y-128235500D01*
X161857419Y-128235500D01*
X161893423Y-128228338D01*
X161940256Y-128219022D01*
X162009847Y-128225249D01*
X162065025Y-128268111D01*
X162088270Y-128334001D01*
X162072203Y-128401998D01*
X162052130Y-128428320D01*
X161966267Y-128514182D01*
X161904947Y-128547666D01*
X161878588Y-128550500D01*
X160602097Y-128550500D01*
X160535058Y-128530815D01*
X160498995Y-128495391D01*
X160422951Y-128381584D01*
X160422948Y-128381580D01*
X160318419Y-128277051D01*
X160318415Y-128277048D01*
X160195501Y-128194919D01*
X160195488Y-128194912D01*
X160058917Y-128138343D01*
X160058907Y-128138340D01*
X159913920Y-128109500D01*
X159913918Y-128109500D01*
X159766082Y-128109500D01*
X159766080Y-128109500D01*
X159621092Y-128138340D01*
X159621082Y-128138343D01*
X159484511Y-128194912D01*
X159484498Y-128194919D01*
X159361584Y-128277048D01*
X159361580Y-128277051D01*
X159257051Y-128381580D01*
X159257048Y-128381584D01*
X159174919Y-128504498D01*
X159174912Y-128504511D01*
X159118343Y-128641082D01*
X159118340Y-128641092D01*
X159089500Y-128786079D01*
X159089500Y-128786082D01*
X159089500Y-128933918D01*
X159089500Y-128933920D01*
X159089499Y-128933920D01*
X159118340Y-129078907D01*
X159118343Y-129078917D01*
X159174912Y-129215488D01*
X159174919Y-129215501D01*
X159257048Y-129338415D01*
X159257051Y-129338419D01*
X159361580Y-129442948D01*
X159361584Y-129442951D01*
X159484498Y-129525080D01*
X159484511Y-129525087D01*
X159581590Y-129565298D01*
X159621087Y-129581658D01*
X159698213Y-129596999D01*
X159739561Y-129613354D01*
X159751638Y-129620874D01*
X159762284Y-129631520D01*
X159849095Y-129681639D01*
X159850857Y-129682656D01*
X159850887Y-129682675D01*
X159891187Y-129705941D01*
X159899215Y-129710577D01*
X160051943Y-129751500D01*
X161224903Y-129751500D01*
X161291942Y-129771185D01*
X161337697Y-129823989D01*
X161347641Y-129893147D01*
X161318616Y-129956703D01*
X161312584Y-129963181D01*
X158786681Y-132489084D01*
X158725358Y-132522569D01*
X158699000Y-132525403D01*
X157182237Y-132525403D01*
X157174405Y-132527502D01*
X157140008Y-132530322D01*
X157140008Y-132531500D01*
X156986078Y-132531500D01*
X156841090Y-132560340D01*
X156841080Y-132560343D01*
X156704509Y-132616912D01*
X156704496Y-132616919D01*
X156581582Y-132699048D01*
X156581578Y-132699051D01*
X156477049Y-132803580D01*
X156477046Y-132803584D01*
X156394917Y-132926498D01*
X156394910Y-132926511D01*
X156338341Y-133063082D01*
X156338338Y-133063092D01*
X156309498Y-133208079D01*
X156309498Y-133208082D01*
X156309498Y-133355918D01*
X156309498Y-133355920D01*
X156309497Y-133355920D01*
X156338338Y-133500907D01*
X156338341Y-133500917D01*
X156394910Y-133637488D01*
X156394917Y-133637501D01*
X156477046Y-133760415D01*
X156477049Y-133760419D01*
X156581578Y-133864948D01*
X156581582Y-133864951D01*
X156704496Y-133947080D01*
X156704509Y-133947087D01*
X156813884Y-133992391D01*
X156841085Y-134003658D01*
X156841089Y-134003658D01*
X156841090Y-134003659D01*
X156986077Y-134032500D01*
X156986080Y-134032500D01*
X157133918Y-134032500D01*
X157231460Y-134013096D01*
X157278911Y-134003658D01*
X157415493Y-133947084D01*
X157538414Y-133864951D01*
X157577153Y-133826212D01*
X157640644Y-133762722D01*
X157667571Y-133748018D01*
X157693390Y-133731426D01*
X157699590Y-133730534D01*
X157701967Y-133729237D01*
X157728325Y-133726403D01*
X157929837Y-133726403D01*
X157996876Y-133746088D01*
X158042631Y-133798892D01*
X158051454Y-133826212D01*
X158057341Y-133855808D01*
X158057344Y-133855820D01*
X158113913Y-133992391D01*
X158113920Y-133992404D01*
X158196049Y-134115318D01*
X158196052Y-134115322D01*
X158300581Y-134219851D01*
X158300585Y-134219854D01*
X158423499Y-134301983D01*
X158423512Y-134301990D01*
X158545629Y-134352572D01*
X158560088Y-134358561D01*
X158560092Y-134358561D01*
X158560093Y-134358562D01*
X158705080Y-134387403D01*
X158851867Y-134387403D01*
X158918906Y-134407088D01*
X158964661Y-134459892D01*
X158974605Y-134529050D01*
X158945580Y-134592606D01*
X158939548Y-134599084D01*
X158917051Y-134621580D01*
X158917048Y-134621584D01*
X158834919Y-134744498D01*
X158834912Y-134744511D01*
X158778343Y-134881082D01*
X158778340Y-134881092D01*
X158749500Y-135026079D01*
X158749500Y-135026081D01*
X158749500Y-135026082D01*
X158749500Y-135173918D01*
X158749500Y-135173920D01*
X158749499Y-135173920D01*
X158778340Y-135318907D01*
X158778343Y-135318917D01*
X158834912Y-135455488D01*
X158834919Y-135455501D01*
X158917048Y-135578415D01*
X158917051Y-135578419D01*
X159021580Y-135682948D01*
X159021584Y-135682951D01*
X159144498Y-135765080D01*
X159144511Y-135765087D01*
X159281082Y-135821656D01*
X159281087Y-135821658D01*
X159281091Y-135821658D01*
X159281092Y-135821659D01*
X159426079Y-135850500D01*
X159426082Y-135850500D01*
X159573920Y-135850500D01*
X159671462Y-135831096D01*
X159718913Y-135821658D01*
X159855495Y-135765084D01*
X159978416Y-135682951D01*
X160082951Y-135578416D01*
X160165084Y-135455495D01*
X160221658Y-135318913D01*
X160233247Y-135260653D01*
X160250500Y-135173920D01*
X160250500Y-135026079D01*
X160221659Y-134881092D01*
X160221658Y-134881089D01*
X160221658Y-134881087D01*
X160179270Y-134778752D01*
X160165087Y-134744511D01*
X160165080Y-134744498D01*
X160082951Y-134621584D01*
X160082948Y-134621580D01*
X159978419Y-134517051D01*
X159978415Y-134517048D01*
X159855501Y-134434919D01*
X159855488Y-134434912D01*
X159718917Y-134378343D01*
X159718907Y-134378340D01*
X159573920Y-134349500D01*
X159573918Y-134349500D01*
X159427134Y-134349500D01*
X159360095Y-134329815D01*
X159314340Y-134277011D01*
X159304396Y-134207853D01*
X159333421Y-134144297D01*
X159339453Y-134137819D01*
X159361949Y-134115322D01*
X159361952Y-134115319D01*
X159444085Y-133992398D01*
X159500659Y-133855816D01*
X159516055Y-133778416D01*
X159529501Y-133710823D01*
X159529501Y-133562984D01*
X159522812Y-133529359D01*
X159529038Y-133459768D01*
X159556746Y-133417487D01*
X159600313Y-133373920D01*
X164999499Y-133373920D01*
X165028340Y-133518907D01*
X165028343Y-133518917D01*
X165084912Y-133655488D01*
X165084919Y-133655501D01*
X165167048Y-133778415D01*
X165167051Y-133778419D01*
X165271580Y-133882948D01*
X165271584Y-133882951D01*
X165394498Y-133965080D01*
X165394511Y-133965087D01*
X165531082Y-134021656D01*
X165531087Y-134021658D01*
X165531091Y-134021658D01*
X165531092Y-134021659D01*
X165676079Y-134050500D01*
X165676082Y-134050500D01*
X165823920Y-134050500D01*
X165921462Y-134031096D01*
X165968913Y-134021658D01*
X166105495Y-133965084D01*
X166228416Y-133882951D01*
X166332951Y-133778416D01*
X166415084Y-133655495D01*
X166471658Y-133518913D01*
X166500500Y-133373918D01*
X166500500Y-133226082D01*
X166500500Y-133226079D01*
X166471659Y-133081092D01*
X166471658Y-133081091D01*
X166471658Y-133081087D01*
X166450154Y-133029172D01*
X166415087Y-132944511D01*
X166415080Y-132944498D01*
X166332951Y-132821584D01*
X166332948Y-132821580D01*
X166228419Y-132717051D01*
X166228415Y-132717048D01*
X166105501Y-132634919D01*
X166105488Y-132634912D01*
X165968917Y-132578343D01*
X165968907Y-132578340D01*
X165823920Y-132549500D01*
X165823918Y-132549500D01*
X165676082Y-132549500D01*
X165676080Y-132549500D01*
X165531092Y-132578340D01*
X165531082Y-132578343D01*
X165394511Y-132634912D01*
X165394498Y-132634919D01*
X165271584Y-132717048D01*
X165271580Y-132717051D01*
X165167051Y-132821580D01*
X165167048Y-132821584D01*
X165084919Y-132944498D01*
X165084912Y-132944511D01*
X165028343Y-133081082D01*
X165028340Y-133081092D01*
X164999500Y-133226079D01*
X164999500Y-133226082D01*
X164999500Y-133373918D01*
X164999500Y-133373920D01*
X164999499Y-133373920D01*
X159600313Y-133373920D01*
X167601821Y-125372413D01*
X167663142Y-125338930D01*
X167732834Y-125343914D01*
X167788767Y-125385786D01*
X167813184Y-125451250D01*
X167813500Y-125460096D01*
X167813500Y-131725949D01*
X167793815Y-131792988D01*
X167741011Y-131838743D01*
X167684934Y-131848092D01*
X167684934Y-131849500D01*
X167521155Y-131849500D01*
X167366510Y-131880261D01*
X167366498Y-131880264D01*
X167220827Y-131940602D01*
X167220814Y-131940609D01*
X167089711Y-132028210D01*
X167089707Y-132028213D01*
X166978213Y-132139707D01*
X166978210Y-132139711D01*
X166890609Y-132270814D01*
X166890602Y-132270827D01*
X166830264Y-132416498D01*
X166830261Y-132416510D01*
X166799500Y-132571153D01*
X166799500Y-132728846D01*
X166830261Y-132883489D01*
X166830264Y-132883501D01*
X166890602Y-133029172D01*
X166890609Y-133029185D01*
X166978210Y-133160288D01*
X166978213Y-133160292D01*
X167089707Y-133271786D01*
X167089711Y-133271789D01*
X167220814Y-133359390D01*
X167220827Y-133359397D01*
X167361066Y-133417485D01*
X167366503Y-133419737D01*
X167521153Y-133450499D01*
X167521156Y-133450500D01*
X167684934Y-133450500D01*
X167684934Y-133452088D01*
X167745985Y-133463662D01*
X167796698Y-133511724D01*
X167813500Y-133574050D01*
X167813500Y-134258859D01*
X167793815Y-134325898D01*
X167741011Y-134371653D01*
X167671853Y-134381597D01*
X167608297Y-134352572D01*
X167601819Y-134346540D01*
X167510292Y-134255013D01*
X167510288Y-134255010D01*
X167379185Y-134167409D01*
X167379172Y-134167402D01*
X167233501Y-134107064D01*
X167233489Y-134107061D01*
X167078845Y-134076300D01*
X167078842Y-134076300D01*
X166921158Y-134076300D01*
X166921155Y-134076300D01*
X166766510Y-134107061D01*
X166766498Y-134107064D01*
X166620827Y-134167402D01*
X166620814Y-134167409D01*
X166489711Y-134255010D01*
X166489707Y-134255013D01*
X166378213Y-134366507D01*
X166378210Y-134366511D01*
X166290609Y-134497614D01*
X166290602Y-134497627D01*
X166230264Y-134643298D01*
X166230261Y-134643310D01*
X166199500Y-134797953D01*
X166199500Y-134955646D01*
X166230261Y-135110289D01*
X166230264Y-135110301D01*
X166290602Y-135255972D01*
X166290609Y-135255985D01*
X166378210Y-135387088D01*
X166378213Y-135387092D01*
X166489707Y-135498586D01*
X166489711Y-135498589D01*
X166620814Y-135586190D01*
X166620827Y-135586197D01*
X166705029Y-135621074D01*
X166766503Y-135646537D01*
X166823830Y-135657940D01*
X166924925Y-135678050D01*
X166986836Y-135710435D01*
X167021411Y-135771151D01*
X167017671Y-135840920D01*
X166988415Y-135887348D01*
X166260492Y-136615271D01*
X166250245Y-136621703D01*
X166244999Y-136628411D01*
X166227446Y-136636016D01*
X166213670Y-136644665D01*
X166205492Y-136647518D01*
X166151085Y-136658342D01*
X166025871Y-136710206D01*
X166022522Y-136711376D01*
X165991018Y-136712958D01*
X165959645Y-136716331D01*
X165956382Y-136714698D01*
X165952741Y-136714881D01*
X165925380Y-136699178D01*
X165897166Y-136685055D01*
X165895304Y-136681918D01*
X165892142Y-136680103D01*
X165877616Y-136652105D01*
X165861514Y-136624966D01*
X165860046Y-136618493D01*
X165840770Y-136521590D01*
X165840769Y-136521589D01*
X165840769Y-136521585D01*
X165795542Y-136412396D01*
X165784198Y-136385009D01*
X165784191Y-136384996D01*
X165702062Y-136262082D01*
X165702059Y-136262078D01*
X165597530Y-136157549D01*
X165597526Y-136157546D01*
X165474612Y-136075417D01*
X165474599Y-136075410D01*
X165338028Y-136018841D01*
X165338018Y-136018838D01*
X165193031Y-135989998D01*
X165193029Y-135989998D01*
X165045193Y-135989998D01*
X165045191Y-135989998D01*
X164900203Y-136018838D01*
X164900193Y-136018841D01*
X164763622Y-136075410D01*
X164763609Y-136075417D01*
X164640695Y-136157546D01*
X164640691Y-136157549D01*
X164536162Y-136262078D01*
X164536159Y-136262082D01*
X164454030Y-136384996D01*
X164454023Y-136385009D01*
X164397454Y-136521580D01*
X164397451Y-136521590D01*
X164368611Y-136666577D01*
X164368611Y-136666580D01*
X164368611Y-136814416D01*
X164368611Y-136814418D01*
X164368610Y-136814418D01*
X164397451Y-136959405D01*
X164397454Y-136959415D01*
X164454023Y-137095986D01*
X164454030Y-137095999D01*
X164536159Y-137218913D01*
X164536162Y-137218917D01*
X164640691Y-137323446D01*
X164640695Y-137323449D01*
X164763609Y-137405578D01*
X164763622Y-137405585D01*
X164880314Y-137453920D01*
X164900198Y-137462156D01*
X164900202Y-137462156D01*
X164900203Y-137462157D01*
X165045190Y-137490998D01*
X165045193Y-137490998D01*
X165193031Y-137490998D01*
X165290573Y-137471594D01*
X165338024Y-137462156D01*
X165459992Y-137411634D01*
X165529462Y-137404166D01*
X165591941Y-137435441D01*
X165627593Y-137495530D01*
X165629062Y-137502003D01*
X165648338Y-137598908D01*
X165648341Y-137598917D01*
X165704910Y-137735488D01*
X165704917Y-137735501D01*
X165787046Y-137858415D01*
X165787049Y-137858419D01*
X165891578Y-137962948D01*
X165891582Y-137962951D01*
X165980550Y-138022398D01*
X166025355Y-138076010D01*
X166034062Y-138145335D01*
X166003908Y-138208363D01*
X165944465Y-138245082D01*
X165911659Y-138249500D01*
X159958339Y-138249500D01*
X159891300Y-138229815D01*
X159845545Y-138177011D01*
X159835601Y-138107853D01*
X159864626Y-138044297D01*
X159889448Y-138022398D01*
X159932189Y-137993838D01*
X159978416Y-137962951D01*
X160082951Y-137858416D01*
X160165084Y-137735495D01*
X160221658Y-137598913D01*
X160248861Y-137462157D01*
X160250500Y-137453920D01*
X160250500Y-137306079D01*
X160221659Y-137161092D01*
X160221658Y-137161091D01*
X160221658Y-137161087D01*
X160215615Y-137146498D01*
X160165087Y-137024511D01*
X160165080Y-137024498D01*
X160082951Y-136901584D01*
X160082948Y-136901580D01*
X159978419Y-136797051D01*
X159978415Y-136797048D01*
X159855501Y-136714919D01*
X159855488Y-136714912D01*
X159718917Y-136658343D01*
X159718907Y-136658340D01*
X159573920Y-136629500D01*
X159573918Y-136629500D01*
X159426082Y-136629500D01*
X159426080Y-136629500D01*
X159281092Y-136658340D01*
X159281082Y-136658343D01*
X159144511Y-136714912D01*
X159144498Y-136714919D01*
X159021584Y-136797048D01*
X159021580Y-136797051D01*
X158917051Y-136901580D01*
X158917048Y-136901584D01*
X158834919Y-137024498D01*
X158834912Y-137024511D01*
X158778343Y-137161082D01*
X158778340Y-137161092D01*
X158749500Y-137306079D01*
X158749500Y-137306082D01*
X158749500Y-137453918D01*
X158749500Y-137453920D01*
X158749499Y-137453920D01*
X158778340Y-137598907D01*
X158778343Y-137598917D01*
X158834912Y-137735488D01*
X158834919Y-137735501D01*
X158917048Y-137858415D01*
X158917051Y-137858419D01*
X159021580Y-137962948D01*
X159021584Y-137962951D01*
X159110552Y-138022398D01*
X159155357Y-138076010D01*
X159164064Y-138145335D01*
X159133910Y-138208363D01*
X159074467Y-138245082D01*
X159041661Y-138249500D01*
X151903616Y-138249500D01*
X151836577Y-138229815D01*
X151790822Y-138177011D01*
X151780878Y-138107853D01*
X151809903Y-138044297D01*
X151849814Y-138013780D01*
X151862650Y-138007598D01*
X151881013Y-137998755D01*
X152152101Y-137828419D01*
X152402413Y-137628802D01*
X152628802Y-137402413D01*
X152828419Y-137152101D01*
X152998755Y-136881013D01*
X153137668Y-136592558D01*
X153243410Y-136290363D01*
X153314653Y-135978229D01*
X153350500Y-135660081D01*
X153350500Y-135339919D01*
X153314653Y-135021771D01*
X153243410Y-134709637D01*
X153137668Y-134407442D01*
X153013780Y-134150186D01*
X152998756Y-134118989D01*
X152996450Y-134115319D01*
X152828419Y-133847899D01*
X152628802Y-133597587D01*
X152402413Y-133371198D01*
X152383252Y-133355918D01*
X152272378Y-133267499D01*
X152152101Y-133171581D01*
X151881013Y-133001245D01*
X151881010Y-133001243D01*
X151592559Y-132862332D01*
X151290364Y-132756590D01*
X151290362Y-132756589D01*
X151038261Y-132699049D01*
X150978229Y-132685347D01*
X150978225Y-132685346D01*
X150978216Y-132685345D01*
X150660085Y-132649500D01*
X150660081Y-132649500D01*
X150339919Y-132649500D01*
X150339914Y-132649500D01*
X150021783Y-132685345D01*
X150021771Y-132685347D01*
X149709637Y-132756589D01*
X149709635Y-132756590D01*
X149407440Y-132862332D01*
X149118989Y-133001243D01*
X148847900Y-133171580D01*
X148597587Y-133371197D01*
X148371197Y-133597587D01*
X148171580Y-133847900D01*
X148001243Y-134118989D01*
X147986220Y-134150186D01*
X147939397Y-134202045D01*
X147871970Y-134220358D01*
X147805346Y-134199310D01*
X147760678Y-134145584D01*
X147750500Y-134096384D01*
X147750500Y-132068337D01*
X147770185Y-132001298D01*
X147822989Y-131955543D01*
X147892147Y-131945599D01*
X147955703Y-131974624D01*
X147977602Y-131999446D01*
X147998210Y-132030288D01*
X147998213Y-132030292D01*
X148109707Y-132141786D01*
X148109711Y-132141789D01*
X148240814Y-132229390D01*
X148240827Y-132229397D01*
X148386498Y-132289735D01*
X148386503Y-132289737D01*
X148541153Y-132320499D01*
X148541156Y-132320500D01*
X148541158Y-132320500D01*
X148698844Y-132320500D01*
X148698845Y-132320499D01*
X148853497Y-132289737D01*
X148999179Y-132229394D01*
X149130289Y-132141789D01*
X149241789Y-132030289D01*
X149329394Y-131899179D01*
X149389737Y-131753497D01*
X149420500Y-131598842D01*
X149420500Y-131441158D01*
X149420500Y-131441155D01*
X149420499Y-131441153D01*
X149406965Y-131373112D01*
X149389737Y-131286503D01*
X149389735Y-131286498D01*
X149329397Y-131140827D01*
X149329390Y-131140814D01*
X149241789Y-131009711D01*
X149241786Y-131009707D01*
X149147159Y-130915080D01*
X152362001Y-130915080D01*
X152362001Y-131072773D01*
X152392762Y-131227416D01*
X152392765Y-131227428D01*
X152453103Y-131373099D01*
X152453110Y-131373112D01*
X152540711Y-131504215D01*
X152540714Y-131504219D01*
X152652208Y-131615713D01*
X152652212Y-131615716D01*
X152783315Y-131703317D01*
X152783328Y-131703324D01*
X152928999Y-131763662D01*
X152929004Y-131763664D01*
X153076425Y-131792988D01*
X153083654Y-131794426D01*
X153083657Y-131794427D01*
X153083659Y-131794427D01*
X153241345Y-131794427D01*
X153241346Y-131794426D01*
X153395998Y-131763664D01*
X153541680Y-131703321D01*
X153672790Y-131615716D01*
X153784290Y-131504216D01*
X153871895Y-131373106D01*
X153932238Y-131227424D01*
X153963001Y-131072769D01*
X153963001Y-130915085D01*
X153963001Y-130915082D01*
X153963000Y-130915080D01*
X153959645Y-130898213D01*
X153932238Y-130760430D01*
X153918945Y-130728338D01*
X153871898Y-130614754D01*
X153871891Y-130614741D01*
X153784290Y-130483638D01*
X153784287Y-130483634D01*
X153672793Y-130372140D01*
X153672789Y-130372137D01*
X153541686Y-130284536D01*
X153541673Y-130284529D01*
X153396002Y-130224191D01*
X153395990Y-130224188D01*
X153241346Y-130193427D01*
X153241343Y-130193427D01*
X153083659Y-130193427D01*
X153083656Y-130193427D01*
X152929011Y-130224188D01*
X152928999Y-130224191D01*
X152783328Y-130284529D01*
X152783315Y-130284536D01*
X152652212Y-130372137D01*
X152652208Y-130372140D01*
X152540714Y-130483634D01*
X152540711Y-130483638D01*
X152453110Y-130614741D01*
X152453103Y-130614754D01*
X152392765Y-130760425D01*
X152392762Y-130760437D01*
X152362001Y-130915080D01*
X149147159Y-130915080D01*
X149130292Y-130898213D01*
X149130288Y-130898210D01*
X148999185Y-130810609D01*
X148999172Y-130810602D01*
X148853501Y-130750264D01*
X148853489Y-130750261D01*
X148698845Y-130719500D01*
X148698842Y-130719500D01*
X148541158Y-130719500D01*
X148541155Y-130719500D01*
X148386510Y-130750261D01*
X148386498Y-130750264D01*
X148240827Y-130810602D01*
X148240814Y-130810609D01*
X148109711Y-130898210D01*
X148109707Y-130898213D01*
X147998213Y-131009707D01*
X147998208Y-131009713D01*
X147977601Y-131040554D01*
X147923988Y-131085359D01*
X147854663Y-131094065D01*
X147791636Y-131063909D01*
X147754918Y-131004466D01*
X147750500Y-130971662D01*
X147750500Y-129406058D01*
X147770185Y-129339019D01*
X147822989Y-129293264D01*
X147892147Y-129283320D01*
X147955703Y-129312345D01*
X147977602Y-129337167D01*
X148063210Y-129465288D01*
X148063213Y-129465292D01*
X148174707Y-129576786D01*
X148174711Y-129576789D01*
X148305814Y-129664390D01*
X148305827Y-129664397D01*
X148417317Y-129710577D01*
X148451503Y-129724737D01*
X148586044Y-129751499D01*
X148606153Y-129755499D01*
X148606156Y-129755500D01*
X148606158Y-129755500D01*
X148763844Y-129755500D01*
X148763845Y-129755499D01*
X148918497Y-129724737D01*
X149064179Y-129664394D01*
X149195289Y-129576789D01*
X149306789Y-129465289D01*
X149394394Y-129334179D01*
X149454737Y-129188497D01*
X149485500Y-129033842D01*
X149485500Y-128876158D01*
X149485500Y-128876155D01*
X149485499Y-128876153D01*
X149470013Y-128798302D01*
X149454737Y-128721503D01*
X149416467Y-128629110D01*
X149394397Y-128575827D01*
X149394390Y-128575814D01*
X149306789Y-128444711D01*
X149306786Y-128444707D01*
X149195292Y-128333213D01*
X149195288Y-128333210D01*
X149064185Y-128245609D01*
X149064172Y-128245602D01*
X148918501Y-128185264D01*
X148918489Y-128185261D01*
X148763845Y-128154500D01*
X148763842Y-128154500D01*
X148606158Y-128154500D01*
X148606155Y-128154500D01*
X148451510Y-128185261D01*
X148451498Y-128185264D01*
X148305827Y-128245602D01*
X148305814Y-128245609D01*
X148174711Y-128333210D01*
X148174707Y-128333213D01*
X148063213Y-128444707D01*
X148063210Y-128444711D01*
X147977602Y-128572832D01*
X147923989Y-128617637D01*
X147854664Y-128626344D01*
X147791637Y-128596189D01*
X147754918Y-128536746D01*
X147750500Y-128503941D01*
X147750500Y-126978338D01*
X147770185Y-126911299D01*
X147822989Y-126865544D01*
X147892147Y-126855600D01*
X147955703Y-126884625D01*
X147977602Y-126909448D01*
X148037045Y-126998411D01*
X148037051Y-126998419D01*
X148141580Y-127102948D01*
X148141584Y-127102951D01*
X148264498Y-127185080D01*
X148264511Y-127185087D01*
X148385496Y-127235200D01*
X148401087Y-127241658D01*
X148401091Y-127241658D01*
X148401092Y-127241659D01*
X148546079Y-127270500D01*
X148546082Y-127270500D01*
X148693920Y-127270500D01*
X148791462Y-127251096D01*
X148838913Y-127241658D01*
X148944547Y-127197902D01*
X148975488Y-127185087D01*
X148975488Y-127185086D01*
X148975495Y-127185084D01*
X149098416Y-127102951D01*
X149202951Y-126998416D01*
X149285084Y-126875495D01*
X149341658Y-126738913D01*
X149365387Y-126619622D01*
X149370500Y-126593920D01*
X149370500Y-126446079D01*
X149341659Y-126301092D01*
X149341658Y-126301091D01*
X149341658Y-126301087D01*
X149341415Y-126300500D01*
X149285087Y-126164511D01*
X149285080Y-126164498D01*
X149202951Y-126041584D01*
X149202948Y-126041580D01*
X149098419Y-125937051D01*
X149098415Y-125937048D01*
X148975501Y-125854919D01*
X148975488Y-125854912D01*
X148838917Y-125798343D01*
X148838907Y-125798340D01*
X148693920Y-125769500D01*
X148693918Y-125769500D01*
X148546082Y-125769500D01*
X148546080Y-125769500D01*
X148401092Y-125798340D01*
X148401082Y-125798343D01*
X148264511Y-125854912D01*
X148264498Y-125854919D01*
X148141584Y-125937048D01*
X148141580Y-125937051D01*
X148037051Y-126041580D01*
X148037048Y-126041584D01*
X147977602Y-126130552D01*
X147923990Y-126175357D01*
X147854665Y-126184064D01*
X147791637Y-126153910D01*
X147754918Y-126094467D01*
X147750500Y-126061661D01*
X147750500Y-120803394D01*
X154289943Y-120803394D01*
X154318784Y-120948381D01*
X154318787Y-120948391D01*
X154375356Y-121084962D01*
X154375363Y-121084975D01*
X154457492Y-121207889D01*
X154457495Y-121207893D01*
X154562024Y-121312422D01*
X154562028Y-121312425D01*
X154684942Y-121394554D01*
X154684955Y-121394561D01*
X154818202Y-121449753D01*
X154821531Y-121451132D01*
X154821535Y-121451132D01*
X154821536Y-121451133D01*
X154966523Y-121479974D01*
X154966526Y-121479974D01*
X155114364Y-121479974D01*
X155214213Y-121460112D01*
X155259357Y-121451132D01*
X155374250Y-121403542D01*
X155395932Y-121394561D01*
X155395932Y-121394560D01*
X155395939Y-121394558D01*
X155518860Y-121312425D01*
X155623395Y-121207890D01*
X155705528Y-121084969D01*
X155762102Y-120948387D01*
X155787798Y-120819209D01*
X155790944Y-120803394D01*
X155790944Y-120655553D01*
X155762103Y-120510566D01*
X155762102Y-120510565D01*
X155762102Y-120510561D01*
X155734555Y-120444057D01*
X155705531Y-120373985D01*
X155705524Y-120373972D01*
X155623395Y-120251058D01*
X155623392Y-120251054D01*
X155518863Y-120146525D01*
X155518859Y-120146522D01*
X155395945Y-120064393D01*
X155395932Y-120064386D01*
X155259361Y-120007817D01*
X155259351Y-120007814D01*
X155114364Y-119978974D01*
X155114362Y-119978974D01*
X154966526Y-119978974D01*
X154966524Y-119978974D01*
X154821536Y-120007814D01*
X154821526Y-120007817D01*
X154684955Y-120064386D01*
X154684942Y-120064393D01*
X154562028Y-120146522D01*
X154562024Y-120146525D01*
X154457495Y-120251054D01*
X154457492Y-120251058D01*
X154375363Y-120373972D01*
X154375356Y-120373985D01*
X154318787Y-120510556D01*
X154318784Y-120510566D01*
X154289944Y-120655553D01*
X154289944Y-120655556D01*
X154289944Y-120803392D01*
X154289944Y-120803394D01*
X154289943Y-120803394D01*
X147750500Y-120803394D01*
X147750500Y-119568337D01*
X147770185Y-119501298D01*
X147822989Y-119455543D01*
X147892147Y-119445599D01*
X147955703Y-119474624D01*
X147977602Y-119499446D01*
X147998210Y-119530288D01*
X147998213Y-119530292D01*
X148109707Y-119641786D01*
X148109711Y-119641789D01*
X148240814Y-119729390D01*
X148240827Y-119729397D01*
X148348312Y-119773918D01*
X148386503Y-119789737D01*
X148541153Y-119820499D01*
X148541156Y-119820500D01*
X148541158Y-119820500D01*
X148698844Y-119820500D01*
X148698845Y-119820499D01*
X148853497Y-119789737D01*
X148999179Y-119729394D01*
X149130289Y-119641789D01*
X149241789Y-119530289D01*
X149329394Y-119399179D01*
X149339570Y-119374613D01*
X149352038Y-119344511D01*
X149389737Y-119253497D01*
X149420500Y-119098842D01*
X149420500Y-118941158D01*
X149420500Y-118941155D01*
X149420499Y-118941153D01*
X149406206Y-118869300D01*
X149389737Y-118786503D01*
X149379562Y-118761939D01*
X149329397Y-118640827D01*
X149329390Y-118640814D01*
X149284692Y-118573920D01*
X155449499Y-118573920D01*
X155478340Y-118718907D01*
X155478343Y-118718917D01*
X155534912Y-118855488D01*
X155534919Y-118855501D01*
X155617048Y-118978415D01*
X155617051Y-118978419D01*
X155721580Y-119082948D01*
X155721584Y-119082951D01*
X155844498Y-119165080D01*
X155844511Y-119165087D01*
X155980899Y-119221580D01*
X155981087Y-119221658D01*
X155981091Y-119221658D01*
X155981092Y-119221659D01*
X156126079Y-119250500D01*
X156126082Y-119250500D01*
X156273920Y-119250500D01*
X156382415Y-119228918D01*
X156418913Y-119221658D01*
X156555495Y-119165084D01*
X156678416Y-119082951D01*
X156782951Y-118978416D01*
X156865084Y-118855495D01*
X156867825Y-118848879D01*
X156885022Y-118807360D01*
X156921658Y-118718913D01*
X156942078Y-118616256D01*
X156950500Y-118573920D01*
X156950500Y-118426079D01*
X156921659Y-118281092D01*
X156921658Y-118281091D01*
X156921658Y-118281087D01*
X156921656Y-118281082D01*
X156865087Y-118144511D01*
X156865080Y-118144498D01*
X156782951Y-118021584D01*
X156782948Y-118021580D01*
X156678419Y-117917051D01*
X156678415Y-117917048D01*
X156555501Y-117834919D01*
X156555488Y-117834912D01*
X156418917Y-117778343D01*
X156418907Y-117778340D01*
X156273920Y-117749500D01*
X156273918Y-117749500D01*
X156126082Y-117749500D01*
X156126080Y-117749500D01*
X155981092Y-117778340D01*
X155981082Y-117778343D01*
X155844511Y-117834912D01*
X155844498Y-117834919D01*
X155721584Y-117917048D01*
X155721580Y-117917051D01*
X155617051Y-118021580D01*
X155617048Y-118021584D01*
X155534919Y-118144498D01*
X155534912Y-118144511D01*
X155478343Y-118281082D01*
X155478340Y-118281092D01*
X155449500Y-118426079D01*
X155449500Y-118426082D01*
X155449500Y-118573918D01*
X155449500Y-118573920D01*
X155449499Y-118573920D01*
X149284692Y-118573920D01*
X149241789Y-118509711D01*
X149241786Y-118509707D01*
X149130292Y-118398213D01*
X149130288Y-118398210D01*
X148999185Y-118310609D01*
X148999172Y-118310602D01*
X148853501Y-118250264D01*
X148853489Y-118250261D01*
X148698845Y-118219500D01*
X148698842Y-118219500D01*
X148541158Y-118219500D01*
X148541155Y-118219500D01*
X148386510Y-118250261D01*
X148386498Y-118250264D01*
X148240827Y-118310602D01*
X148240814Y-118310609D01*
X148109711Y-118398210D01*
X148109707Y-118398213D01*
X147998213Y-118509707D01*
X147998208Y-118509713D01*
X147977601Y-118540554D01*
X147923988Y-118585359D01*
X147854663Y-118594065D01*
X147791636Y-118563909D01*
X147754918Y-118504466D01*
X147750500Y-118471662D01*
X147750500Y-117305314D01*
X157480893Y-117305314D01*
X157509734Y-117450301D01*
X157509737Y-117450311D01*
X157566306Y-117586882D01*
X157566313Y-117586895D01*
X157648442Y-117709809D01*
X157648445Y-117709813D01*
X157752974Y-117814342D01*
X157752978Y-117814345D01*
X157875892Y-117896474D01*
X157875905Y-117896481D01*
X158012476Y-117953050D01*
X158012481Y-117953052D01*
X158012485Y-117953052D01*
X158012486Y-117953053D01*
X158157473Y-117981894D01*
X158157476Y-117981894D01*
X158305314Y-117981894D01*
X158402856Y-117962490D01*
X158450307Y-117953052D01*
X158586889Y-117896478D01*
X158709810Y-117814345D01*
X158814345Y-117709810D01*
X158896478Y-117586889D01*
X158953052Y-117450307D01*
X158970211Y-117364044D01*
X158981894Y-117305314D01*
X158981894Y-117157473D01*
X158953053Y-117012486D01*
X158953052Y-117012485D01*
X158953052Y-117012481D01*
X158938910Y-116978338D01*
X158896481Y-116875905D01*
X158896479Y-116875901D01*
X158896478Y-116875899D01*
X158840488Y-116792104D01*
X158819611Y-116725429D01*
X158838095Y-116658049D01*
X158890074Y-116611358D01*
X158919399Y-116601598D01*
X159050603Y-116575499D01*
X159069913Y-116571658D01*
X159206495Y-116515084D01*
X159329416Y-116432951D01*
X159433951Y-116328416D01*
X159516084Y-116205495D01*
X159572658Y-116068913D01*
X159598888Y-115937049D01*
X159601500Y-115923920D01*
X159601500Y-115776079D01*
X159572659Y-115631092D01*
X159572658Y-115631091D01*
X159572658Y-115631087D01*
X159562384Y-115606284D01*
X159516087Y-115494511D01*
X159516080Y-115494498D01*
X159433951Y-115371584D01*
X159433948Y-115371580D01*
X159329419Y-115267051D01*
X159329415Y-115267048D01*
X159206501Y-115184919D01*
X159206488Y-115184912D01*
X159069917Y-115128343D01*
X159069907Y-115128340D01*
X158924920Y-115099500D01*
X158924918Y-115099500D01*
X158777082Y-115099500D01*
X158777080Y-115099500D01*
X158632092Y-115128340D01*
X158632082Y-115128343D01*
X158495511Y-115184912D01*
X158495498Y-115184919D01*
X158372584Y-115267048D01*
X158372580Y-115267051D01*
X158268051Y-115371580D01*
X158268048Y-115371584D01*
X158185919Y-115494498D01*
X158185912Y-115494511D01*
X158129343Y-115631082D01*
X158129340Y-115631092D01*
X158100500Y-115776079D01*
X158100500Y-115776082D01*
X158100500Y-115923918D01*
X158100500Y-115923920D01*
X158100499Y-115923920D01*
X158129340Y-116068907D01*
X158129343Y-116068917D01*
X158185912Y-116205488D01*
X158185919Y-116205500D01*
X158241904Y-116289287D01*
X158262782Y-116355964D01*
X158244298Y-116423344D01*
X158192319Y-116470035D01*
X158162995Y-116479795D01*
X158012485Y-116509735D01*
X158012476Y-116509737D01*
X157875905Y-116566306D01*
X157875892Y-116566313D01*
X157752978Y-116648442D01*
X157752974Y-116648445D01*
X157648445Y-116752974D01*
X157648442Y-116752978D01*
X157566313Y-116875892D01*
X157566306Y-116875905D01*
X157509737Y-117012476D01*
X157509734Y-117012486D01*
X157480894Y-117157473D01*
X157480894Y-117157476D01*
X157480894Y-117305312D01*
X157480894Y-117305314D01*
X157480893Y-117305314D01*
X147750500Y-117305314D01*
X147750500Y-116978338D01*
X147770185Y-116911299D01*
X147822989Y-116865544D01*
X147892147Y-116855600D01*
X147955703Y-116884625D01*
X147977602Y-116909448D01*
X148037045Y-116998411D01*
X148037051Y-116998419D01*
X148141580Y-117102948D01*
X148141584Y-117102951D01*
X148264498Y-117185080D01*
X148264511Y-117185087D01*
X148401082Y-117241656D01*
X148401087Y-117241658D01*
X148401091Y-117241658D01*
X148401092Y-117241659D01*
X148546079Y-117270500D01*
X148546082Y-117270500D01*
X148693920Y-117270500D01*
X148791462Y-117251096D01*
X148838913Y-117241658D01*
X148975495Y-117185084D01*
X149098416Y-117102951D01*
X149098419Y-117102948D01*
X149137665Y-117063703D01*
X149202948Y-116998419D01*
X149202951Y-116998416D01*
X149285084Y-116875495D01*
X149341658Y-116738913D01*
X149359654Y-116648442D01*
X149370500Y-116593920D01*
X149370500Y-116446079D01*
X149341659Y-116301092D01*
X149341658Y-116301091D01*
X149341658Y-116301087D01*
X149293186Y-116184064D01*
X149285087Y-116164511D01*
X149285080Y-116164498D01*
X149202951Y-116041584D01*
X149202948Y-116041580D01*
X149098419Y-115937051D01*
X149098415Y-115937048D01*
X148975501Y-115854919D01*
X148975488Y-115854912D01*
X148838917Y-115798343D01*
X148838907Y-115798340D01*
X148693920Y-115769500D01*
X148693918Y-115769500D01*
X148546082Y-115769500D01*
X148546080Y-115769500D01*
X148401092Y-115798340D01*
X148401082Y-115798343D01*
X148264511Y-115854912D01*
X148264498Y-115854919D01*
X148141584Y-115937048D01*
X148141580Y-115937051D01*
X148037051Y-116041580D01*
X148037048Y-116041584D01*
X147977602Y-116130552D01*
X147923990Y-116175357D01*
X147854665Y-116184064D01*
X147791637Y-116153910D01*
X147754918Y-116094467D01*
X147750500Y-116061661D01*
X147750500Y-114478338D01*
X147770185Y-114411299D01*
X147822989Y-114365544D01*
X147892147Y-114355600D01*
X147955703Y-114384625D01*
X147977602Y-114409448D01*
X148037045Y-114498411D01*
X148037051Y-114498419D01*
X148141580Y-114602948D01*
X148141584Y-114602951D01*
X148264498Y-114685080D01*
X148264511Y-114685087D01*
X148381394Y-114733501D01*
X148401087Y-114741658D01*
X148401091Y-114741658D01*
X148401092Y-114741659D01*
X148546079Y-114770500D01*
X148546082Y-114770500D01*
X148693920Y-114770500D01*
X148791462Y-114751096D01*
X148838913Y-114741658D01*
X148975495Y-114685084D01*
X149098416Y-114602951D01*
X149202951Y-114498416D01*
X149285084Y-114375495D01*
X149341658Y-114238913D01*
X149351096Y-114191462D01*
X149370500Y-114093920D01*
X149370500Y-113946079D01*
X149341659Y-113801092D01*
X149341658Y-113801091D01*
X149341658Y-113801087D01*
X149337315Y-113790602D01*
X149285087Y-113664511D01*
X149285080Y-113664498D01*
X149202951Y-113541584D01*
X149202948Y-113541580D01*
X149098419Y-113437051D01*
X149098415Y-113437048D01*
X148975501Y-113354919D01*
X148975488Y-113354912D01*
X148838917Y-113298343D01*
X148838907Y-113298340D01*
X148693920Y-113269500D01*
X148693918Y-113269500D01*
X148546082Y-113269500D01*
X148546080Y-113269500D01*
X148401092Y-113298340D01*
X148401082Y-113298343D01*
X148264511Y-113354912D01*
X148264498Y-113354919D01*
X148141584Y-113437048D01*
X148141580Y-113437051D01*
X148037051Y-113541580D01*
X148037048Y-113541584D01*
X147977602Y-113630552D01*
X147923990Y-113675357D01*
X147854665Y-113684064D01*
X147791637Y-113653910D01*
X147754918Y-113594467D01*
X147750500Y-113561661D01*
X147750500Y-113051857D01*
X156330781Y-113051857D01*
X156359622Y-113196844D01*
X156359625Y-113196854D01*
X156416194Y-113333425D01*
X156416201Y-113333438D01*
X156498330Y-113456352D01*
X156498333Y-113456356D01*
X156602862Y-113560885D01*
X156602866Y-113560888D01*
X156725780Y-113643017D01*
X156725793Y-113643024D01*
X156836549Y-113688900D01*
X156890953Y-113732740D01*
X156913018Y-113799034D01*
X156895739Y-113866734D01*
X156876779Y-113891142D01*
X156778210Y-113989711D01*
X156690609Y-114120814D01*
X156690602Y-114120827D01*
X156630264Y-114266498D01*
X156630261Y-114266510D01*
X156599500Y-114421153D01*
X156599500Y-114578846D01*
X156630261Y-114733489D01*
X156630264Y-114733501D01*
X156690602Y-114879172D01*
X156690609Y-114879185D01*
X156778210Y-115010288D01*
X156778213Y-115010292D01*
X156889707Y-115121786D01*
X156889711Y-115121789D01*
X157020814Y-115209390D01*
X157020827Y-115209397D01*
X157160018Y-115267051D01*
X157166503Y-115269737D01*
X157321153Y-115300499D01*
X157321156Y-115300500D01*
X157321158Y-115300500D01*
X157478844Y-115300500D01*
X157478845Y-115300499D01*
X157633497Y-115269737D01*
X157779179Y-115209394D01*
X157910289Y-115121789D01*
X158021789Y-115010289D01*
X158109394Y-114879179D01*
X158169737Y-114733497D01*
X158200500Y-114578842D01*
X158200500Y-114421158D01*
X158200500Y-114421155D01*
X158200499Y-114421153D01*
X158191417Y-114375495D01*
X158169737Y-114266503D01*
X158158309Y-114238913D01*
X158109397Y-114120827D01*
X158109390Y-114120814D01*
X158021789Y-113989711D01*
X158021786Y-113989707D01*
X157910292Y-113878213D01*
X157910288Y-113878210D01*
X157779185Y-113790609D01*
X157779172Y-113790602D01*
X157633000Y-113730057D01*
X157578596Y-113686217D01*
X157556531Y-113619922D01*
X157573810Y-113552223D01*
X157592767Y-113527818D01*
X157664233Y-113456353D01*
X157746366Y-113333432D01*
X157802940Y-113196850D01*
X157831782Y-113051855D01*
X157831782Y-112904019D01*
X157831782Y-112904016D01*
X157802941Y-112759029D01*
X157802940Y-112759028D01*
X157802940Y-112759024D01*
X157787533Y-112721830D01*
X157780065Y-112652363D01*
X157811339Y-112589884D01*
X157814387Y-112586725D01*
X157907951Y-112493162D01*
X157990084Y-112370241D01*
X158046658Y-112233659D01*
X158072659Y-112102948D01*
X158075500Y-112088666D01*
X158075500Y-111940825D01*
X158046659Y-111795838D01*
X158046658Y-111795837D01*
X158046658Y-111795833D01*
X158000213Y-111683704D01*
X157990087Y-111659257D01*
X157990080Y-111659244D01*
X157907951Y-111536330D01*
X157907948Y-111536326D01*
X157803419Y-111431797D01*
X157803415Y-111431794D01*
X157680501Y-111349665D01*
X157680488Y-111349658D01*
X157543917Y-111293089D01*
X157543907Y-111293086D01*
X157398920Y-111264246D01*
X157398918Y-111264246D01*
X157251082Y-111264246D01*
X157251080Y-111264246D01*
X157106092Y-111293086D01*
X157106082Y-111293089D01*
X156969511Y-111349658D01*
X156969498Y-111349665D01*
X156846584Y-111431794D01*
X156846580Y-111431797D01*
X156742051Y-111536326D01*
X156742048Y-111536330D01*
X156659919Y-111659244D01*
X156659912Y-111659257D01*
X156603343Y-111795828D01*
X156603340Y-111795838D01*
X156574500Y-111940825D01*
X156574500Y-111940828D01*
X156574500Y-112088664D01*
X156574500Y-112088666D01*
X156574499Y-112088666D01*
X156603340Y-112233653D01*
X156603342Y-112233659D01*
X156606654Y-112241656D01*
X156618747Y-112270849D01*
X156626216Y-112340318D01*
X156594941Y-112402797D01*
X156591868Y-112405983D01*
X156498330Y-112499521D01*
X156416201Y-112622435D01*
X156416194Y-112622448D01*
X156359625Y-112759019D01*
X156359622Y-112759029D01*
X156330782Y-112904016D01*
X156330782Y-112904019D01*
X156330782Y-113051855D01*
X156330782Y-113051857D01*
X156330781Y-113051857D01*
X147750500Y-113051857D01*
X147750500Y-111978338D01*
X147770185Y-111911299D01*
X147822989Y-111865544D01*
X147892147Y-111855600D01*
X147955703Y-111884625D01*
X147977602Y-111909448D01*
X148037045Y-111998411D01*
X148037051Y-111998419D01*
X148141580Y-112102948D01*
X148141584Y-112102951D01*
X148264498Y-112185080D01*
X148264511Y-112185087D01*
X148381785Y-112233663D01*
X148401087Y-112241658D01*
X148401091Y-112241658D01*
X148401092Y-112241659D01*
X148546079Y-112270500D01*
X148546082Y-112270500D01*
X148693920Y-112270500D01*
X148791462Y-112251096D01*
X148838913Y-112241658D01*
X148975495Y-112185084D01*
X149098416Y-112102951D01*
X149202951Y-111998416D01*
X149285084Y-111875495D01*
X149341658Y-111738913D01*
X149370500Y-111593918D01*
X149370500Y-111446082D01*
X149370500Y-111446079D01*
X149341659Y-111301092D01*
X149341658Y-111301091D01*
X149341658Y-111301087D01*
X149293186Y-111184064D01*
X149285087Y-111164511D01*
X149285080Y-111164498D01*
X149202951Y-111041584D01*
X149202948Y-111041580D01*
X149098419Y-110937051D01*
X149098415Y-110937048D01*
X148975501Y-110854919D01*
X148975488Y-110854912D01*
X148838917Y-110798343D01*
X148838907Y-110798340D01*
X148693920Y-110769500D01*
X148693918Y-110769500D01*
X148546082Y-110769500D01*
X148546080Y-110769500D01*
X148401092Y-110798340D01*
X148401082Y-110798343D01*
X148264511Y-110854912D01*
X148264498Y-110854919D01*
X148141584Y-110937048D01*
X148141580Y-110937051D01*
X148037051Y-111041580D01*
X148037048Y-111041584D01*
X147977602Y-111130552D01*
X147923990Y-111175357D01*
X147854665Y-111184064D01*
X147791637Y-111153910D01*
X147754918Y-111094467D01*
X147750500Y-111061661D01*
X147750500Y-109478338D01*
X147770185Y-109411299D01*
X147822989Y-109365544D01*
X147892147Y-109355600D01*
X147955703Y-109384625D01*
X147977602Y-109409448D01*
X148037045Y-109498411D01*
X148037051Y-109498419D01*
X148141580Y-109602948D01*
X148141584Y-109602951D01*
X148264498Y-109685080D01*
X148264511Y-109685087D01*
X148401082Y-109741656D01*
X148401087Y-109741658D01*
X148401091Y-109741658D01*
X148401092Y-109741659D01*
X148546079Y-109770500D01*
X148546082Y-109770500D01*
X148693920Y-109770500D01*
X148802420Y-109748917D01*
X148838913Y-109741658D01*
X148975495Y-109685084D01*
X149098416Y-109602951D01*
X149202951Y-109498416D01*
X149285084Y-109375495D01*
X149341658Y-109238913D01*
X149358557Y-109153959D01*
X149370500Y-109093920D01*
X149370500Y-108946079D01*
X149341659Y-108801092D01*
X149341658Y-108801091D01*
X149341658Y-108801087D01*
X149334145Y-108782948D01*
X149285087Y-108664511D01*
X149285080Y-108664498D01*
X149202951Y-108541584D01*
X149202948Y-108541580D01*
X149098419Y-108437051D01*
X149098415Y-108437048D01*
X148975501Y-108354919D01*
X148975488Y-108354912D01*
X148838917Y-108298343D01*
X148838907Y-108298340D01*
X148693920Y-108269500D01*
X148693918Y-108269500D01*
X148546082Y-108269500D01*
X148546080Y-108269500D01*
X148401092Y-108298340D01*
X148401082Y-108298343D01*
X148264511Y-108354912D01*
X148264498Y-108354919D01*
X148141584Y-108437048D01*
X148141580Y-108437051D01*
X148037051Y-108541580D01*
X148037048Y-108541584D01*
X147977602Y-108630552D01*
X147923990Y-108675357D01*
X147854665Y-108684064D01*
X147791637Y-108653910D01*
X147754918Y-108594467D01*
X147750500Y-108561661D01*
X147750500Y-108141153D01*
X154529500Y-108141153D01*
X154529500Y-108298846D01*
X154560261Y-108453489D01*
X154560264Y-108453501D01*
X154620602Y-108599172D01*
X154620609Y-108599185D01*
X154708210Y-108730288D01*
X154708213Y-108730292D01*
X154819707Y-108841786D01*
X154819711Y-108841789D01*
X154950814Y-108929390D01*
X154950827Y-108929397D01*
X155087481Y-108986000D01*
X155096503Y-108989737D01*
X155251153Y-109020499D01*
X155251156Y-109020500D01*
X155251158Y-109020500D01*
X155408844Y-109020500D01*
X155408845Y-109020499D01*
X155563497Y-108989737D01*
X155709179Y-108929394D01*
X155840289Y-108841789D01*
X155951789Y-108730289D01*
X156039394Y-108599179D01*
X156099737Y-108453497D01*
X156130500Y-108298842D01*
X156130500Y-108273920D01*
X156729499Y-108273920D01*
X156758340Y-108418907D01*
X156758343Y-108418917D01*
X156814912Y-108555488D01*
X156814919Y-108555501D01*
X156897048Y-108678415D01*
X156897051Y-108678419D01*
X157001580Y-108782948D01*
X157001584Y-108782951D01*
X157124498Y-108865080D01*
X157124511Y-108865087D01*
X157215801Y-108902900D01*
X157261087Y-108921658D01*
X157261091Y-108921658D01*
X157261092Y-108921659D01*
X157406079Y-108950500D01*
X157406082Y-108950500D01*
X157553920Y-108950500D01*
X157660022Y-108929394D01*
X157698913Y-108921658D01*
X157835495Y-108865084D01*
X157958416Y-108782951D01*
X158062951Y-108678416D01*
X158145084Y-108555495D01*
X158201658Y-108418913D01*
X158221351Y-108319911D01*
X158230500Y-108273920D01*
X158230500Y-108126079D01*
X158201659Y-107981092D01*
X158201658Y-107981091D01*
X158201658Y-107981087D01*
X158201656Y-107981082D01*
X158145087Y-107844511D01*
X158145080Y-107844498D01*
X158062951Y-107721584D01*
X158062948Y-107721580D01*
X157958419Y-107617051D01*
X157958415Y-107617048D01*
X157835501Y-107534919D01*
X157835488Y-107534912D01*
X157698917Y-107478343D01*
X157698907Y-107478340D01*
X157553920Y-107449500D01*
X157553918Y-107449500D01*
X157406082Y-107449500D01*
X157406080Y-107449500D01*
X157261092Y-107478340D01*
X157261082Y-107478343D01*
X157124511Y-107534912D01*
X157124498Y-107534919D01*
X157001584Y-107617048D01*
X157001580Y-107617051D01*
X156897051Y-107721580D01*
X156897048Y-107721584D01*
X156814919Y-107844498D01*
X156814912Y-107844511D01*
X156758343Y-107981082D01*
X156758340Y-107981092D01*
X156729500Y-108126079D01*
X156729500Y-108126082D01*
X156729500Y-108273918D01*
X156729500Y-108273920D01*
X156729499Y-108273920D01*
X156130500Y-108273920D01*
X156130500Y-108141158D01*
X156130500Y-108141155D01*
X156130499Y-108141153D01*
X156120235Y-108089553D01*
X156099737Y-107986503D01*
X156051024Y-107868898D01*
X156039397Y-107840827D01*
X156039390Y-107840814D01*
X155951789Y-107709711D01*
X155951786Y-107709707D01*
X155840292Y-107598213D01*
X155840288Y-107598210D01*
X155709185Y-107510609D01*
X155709172Y-107510602D01*
X155563501Y-107450264D01*
X155563489Y-107450261D01*
X155408845Y-107419500D01*
X155408842Y-107419500D01*
X155251158Y-107419500D01*
X155251155Y-107419500D01*
X155096510Y-107450261D01*
X155096498Y-107450264D01*
X154950827Y-107510602D01*
X154950814Y-107510609D01*
X154819711Y-107598210D01*
X154819707Y-107598213D01*
X154708213Y-107709707D01*
X154708210Y-107709711D01*
X154620609Y-107840814D01*
X154620602Y-107840827D01*
X154560264Y-107986498D01*
X154560261Y-107986510D01*
X154529500Y-108141153D01*
X147750500Y-108141153D01*
X147750500Y-106403615D01*
X147770185Y-106336576D01*
X147822989Y-106290821D01*
X147892147Y-106280877D01*
X147955703Y-106309902D01*
X147986219Y-106349811D01*
X147988436Y-106354414D01*
X148001245Y-106381014D01*
X148059359Y-106473501D01*
X148171581Y-106652101D01*
X148371198Y-106902413D01*
X148597587Y-107128802D01*
X148847899Y-107328419D01*
X149118987Y-107498755D01*
X149407442Y-107637668D01*
X149709637Y-107743410D01*
X150021771Y-107814653D01*
X150339915Y-107850499D01*
X150339916Y-107850500D01*
X150339919Y-107850500D01*
X150660084Y-107850500D01*
X150660084Y-107850499D01*
X150978229Y-107814653D01*
X151290363Y-107743410D01*
X151592558Y-107637668D01*
X151881013Y-107498755D01*
X152152101Y-107328419D01*
X152402413Y-107128802D01*
X152628802Y-106902413D01*
X152828419Y-106652101D01*
X152998755Y-106381013D01*
X153058716Y-106256503D01*
X153104635Y-106161153D01*
X154529500Y-106161153D01*
X154529500Y-106318846D01*
X154560261Y-106473489D01*
X154560264Y-106473501D01*
X154620602Y-106619172D01*
X154620609Y-106619185D01*
X154708210Y-106750288D01*
X154708213Y-106750292D01*
X154819707Y-106861786D01*
X154819711Y-106861789D01*
X154950814Y-106949390D01*
X154950827Y-106949397D01*
X155050060Y-106990500D01*
X155096503Y-107009737D01*
X155251153Y-107040499D01*
X155251156Y-107040500D01*
X155251158Y-107040500D01*
X155408844Y-107040500D01*
X155408845Y-107040499D01*
X155563497Y-107009737D01*
X155679576Y-106961656D01*
X155709172Y-106949397D01*
X155709172Y-106949396D01*
X155709179Y-106949394D01*
X155840289Y-106861789D01*
X155951789Y-106750289D01*
X156039394Y-106619179D01*
X156099737Y-106473497D01*
X156130500Y-106318842D01*
X156130500Y-106161158D01*
X156130500Y-106161155D01*
X156130499Y-106161153D01*
X156118020Y-106098416D01*
X156099737Y-106006503D01*
X156049207Y-105884511D01*
X156039397Y-105860827D01*
X156039390Y-105860814D01*
X155951789Y-105729711D01*
X155951786Y-105729707D01*
X155840292Y-105618213D01*
X155840288Y-105618210D01*
X155709185Y-105530609D01*
X155709172Y-105530602D01*
X155563501Y-105470264D01*
X155563489Y-105470261D01*
X155408845Y-105439500D01*
X155408842Y-105439500D01*
X155251158Y-105439500D01*
X155251155Y-105439500D01*
X155096510Y-105470261D01*
X155096498Y-105470264D01*
X154950827Y-105530602D01*
X154950814Y-105530609D01*
X154819711Y-105618210D01*
X154819707Y-105618213D01*
X154708213Y-105729707D01*
X154708210Y-105729711D01*
X154620609Y-105860814D01*
X154620602Y-105860827D01*
X154560264Y-106006498D01*
X154560261Y-106006510D01*
X154529500Y-106161153D01*
X153104635Y-106161153D01*
X153133476Y-106101264D01*
X153133476Y-106101262D01*
X153137665Y-106092565D01*
X153137667Y-106092560D01*
X153137666Y-106092560D01*
X153137668Y-106092558D01*
X153243410Y-105790363D01*
X153314653Y-105478229D01*
X153350500Y-105160081D01*
X153350500Y-104839919D01*
X153314653Y-104521771D01*
X153243410Y-104209637D01*
X153137668Y-103907442D01*
X152998755Y-103618987D01*
X152828419Y-103347899D01*
X152628802Y-103097587D01*
X152402413Y-102871198D01*
X152152101Y-102671581D01*
X151943237Y-102540343D01*
X151881010Y-102501243D01*
X151849814Y-102486220D01*
X151797955Y-102439397D01*
X151779642Y-102371970D01*
X151800690Y-102305346D01*
X151854416Y-102260678D01*
X151903616Y-102250500D01*
X158957649Y-102250500D01*
X159024688Y-102270185D01*
G37*
%TD.AperFunction*%
%TA.AperFunction,Conductor*%
G36*
X169219703Y-126221517D02*
G01*
X169226181Y-126227549D01*
X169231580Y-126232948D01*
X169231584Y-126232951D01*
X169354498Y-126315080D01*
X169354511Y-126315087D01*
X169474325Y-126364715D01*
X169491087Y-126371658D01*
X169491091Y-126371658D01*
X169491092Y-126371659D01*
X169636079Y-126400500D01*
X169636082Y-126400500D01*
X169783920Y-126400500D01*
X169881462Y-126381096D01*
X169928913Y-126371658D01*
X169958048Y-126359589D01*
X170027516Y-126352121D01*
X170089996Y-126383396D01*
X170125648Y-126443485D01*
X170129500Y-126474151D01*
X170129500Y-135260653D01*
X170109815Y-135327692D01*
X170108603Y-135329543D01*
X170064914Y-135394929D01*
X170008343Y-135531503D01*
X170008340Y-135531513D01*
X169979500Y-135676500D01*
X169979500Y-135676503D01*
X169979500Y-135824339D01*
X169979500Y-135824341D01*
X169979499Y-135824341D01*
X170008340Y-135969328D01*
X170008343Y-135969338D01*
X170064914Y-136105913D01*
X170092489Y-136147182D01*
X170113367Y-136213860D01*
X170103948Y-136263525D01*
X170046551Y-136402093D01*
X170046548Y-136402103D01*
X170017708Y-136547090D01*
X170017708Y-136547093D01*
X170017708Y-136694929D01*
X170017708Y-136694931D01*
X170017707Y-136694931D01*
X170046548Y-136839918D01*
X170046551Y-136839928D01*
X170103120Y-136976499D01*
X170103127Y-136976512D01*
X170185256Y-137099426D01*
X170185259Y-137099430D01*
X170289788Y-137203959D01*
X170289792Y-137203962D01*
X170412706Y-137286091D01*
X170412719Y-137286098D01*
X170508369Y-137325717D01*
X170549295Y-137342669D01*
X170549299Y-137342669D01*
X170549300Y-137342670D01*
X170694287Y-137371511D01*
X170694290Y-137371511D01*
X170842128Y-137371511D01*
X170939670Y-137352107D01*
X170987121Y-137342669D01*
X171028047Y-137325716D01*
X171097515Y-137318247D01*
X171159995Y-137349521D01*
X171195648Y-137409609D01*
X171199500Y-137440277D01*
X171199500Y-137458846D01*
X171230261Y-137613489D01*
X171230264Y-137613501D01*
X171290602Y-137759172D01*
X171290609Y-137759185D01*
X171378210Y-137890288D01*
X171378213Y-137890292D01*
X171489707Y-138001786D01*
X171489711Y-138001789D01*
X171520554Y-138022398D01*
X171565359Y-138076010D01*
X171574066Y-138145335D01*
X171543912Y-138208363D01*
X171484469Y-138245082D01*
X171451663Y-138249500D01*
X166828337Y-138249500D01*
X166761298Y-138229815D01*
X166715543Y-138177011D01*
X166705599Y-138107853D01*
X166734624Y-138044297D01*
X166759446Y-138022398D01*
X166802187Y-137993838D01*
X166848414Y-137962951D01*
X166952949Y-137858416D01*
X167035082Y-137735495D01*
X167091656Y-137598913D01*
X167113205Y-137490582D01*
X167145590Y-137428672D01*
X167147085Y-137427149D01*
X168247976Y-136326258D01*
X168309297Y-136292775D01*
X168378989Y-136297759D01*
X168404545Y-136310838D01*
X168470760Y-136355081D01*
X168470771Y-136355087D01*
X168543010Y-136385009D01*
X168607347Y-136411658D01*
X168607351Y-136411658D01*
X168607352Y-136411659D01*
X168752339Y-136440500D01*
X168752342Y-136440500D01*
X168900180Y-136440500D01*
X168997722Y-136421096D01*
X169045173Y-136411658D01*
X169181755Y-136355084D01*
X169304676Y-136272951D01*
X169409211Y-136168416D01*
X169491344Y-136045495D01*
X169547918Y-135908913D01*
X169571792Y-135788893D01*
X169576760Y-135763920D01*
X169576760Y-135616079D01*
X169547919Y-135471092D01*
X169547918Y-135471091D01*
X169547918Y-135471087D01*
X169541462Y-135455501D01*
X169491347Y-135334511D01*
X169491340Y-135334498D01*
X169409211Y-135211584D01*
X169409208Y-135211580D01*
X169304679Y-135107051D01*
X169304675Y-135107048D01*
X169181761Y-135024919D01*
X169181751Y-135024914D01*
X169091047Y-134987343D01*
X169036644Y-134943502D01*
X169014579Y-134877207D01*
X169014500Y-134872782D01*
X169014500Y-128524500D01*
X169034185Y-128457461D01*
X169086989Y-128411706D01*
X169138500Y-128400500D01*
X169153844Y-128400500D01*
X169153845Y-128400499D01*
X169308497Y-128369737D01*
X169454179Y-128309394D01*
X169585289Y-128221789D01*
X169696789Y-128110289D01*
X169784394Y-127979179D01*
X169844737Y-127833497D01*
X169875500Y-127678842D01*
X169875500Y-127521158D01*
X169875500Y-127521155D01*
X169875499Y-127521153D01*
X169869579Y-127491393D01*
X169844737Y-127366503D01*
X169817239Y-127300116D01*
X169784397Y-127220827D01*
X169784390Y-127220814D01*
X169696789Y-127089711D01*
X169696786Y-127089707D01*
X169585292Y-126978213D01*
X169585288Y-126978210D01*
X169454185Y-126890609D01*
X169454172Y-126890602D01*
X169308501Y-126830264D01*
X169308489Y-126830261D01*
X169153845Y-126799500D01*
X169153842Y-126799500D01*
X169138500Y-126799500D01*
X169071461Y-126779815D01*
X169025706Y-126727011D01*
X169014500Y-126675500D01*
X169014500Y-126315230D01*
X169034185Y-126248191D01*
X169086989Y-126202436D01*
X169156147Y-126192492D01*
X169219703Y-126221517D01*
G37*
%TD.AperFunction*%
%TA.AperFunction,Conductor*%
G36*
X172313370Y-118720277D02*
G01*
X172334012Y-118736911D01*
X172484920Y-118887819D01*
X172518405Y-118949142D01*
X172513421Y-119018834D01*
X172471549Y-119074767D01*
X172406085Y-119099184D01*
X172397239Y-119099500D01*
X172114767Y-119099500D01*
X172047728Y-119079815D01*
X172045876Y-119078602D01*
X171980501Y-119034919D01*
X171980488Y-119034912D01*
X171843917Y-118978343D01*
X171843907Y-118978340D01*
X171698920Y-118949500D01*
X171698918Y-118949500D01*
X171551082Y-118949500D01*
X171551080Y-118949500D01*
X171406092Y-118978340D01*
X171406082Y-118978343D01*
X171269511Y-119034912D01*
X171269498Y-119034919D01*
X171146584Y-119117048D01*
X171146580Y-119117051D01*
X171042051Y-119221580D01*
X171042048Y-119221584D01*
X170959919Y-119344498D01*
X170959912Y-119344511D01*
X170903343Y-119481082D01*
X170903340Y-119481092D01*
X170874500Y-119626079D01*
X170874500Y-119626082D01*
X170874500Y-119773918D01*
X170874500Y-119773920D01*
X170874499Y-119773920D01*
X170903340Y-119918907D01*
X170903343Y-119918917D01*
X170959912Y-120055488D01*
X170959919Y-120055501D01*
X171042048Y-120178415D01*
X171042051Y-120178419D01*
X171146580Y-120282948D01*
X171146584Y-120282951D01*
X171269498Y-120365080D01*
X171269511Y-120365087D01*
X171402449Y-120420151D01*
X171406087Y-120421658D01*
X171406091Y-120421658D01*
X171406092Y-120421659D01*
X171551079Y-120450500D01*
X171551082Y-120450500D01*
X171698920Y-120450500D01*
X171796462Y-120431096D01*
X171843913Y-120421658D01*
X171980495Y-120365084D01*
X172045876Y-120321398D01*
X172112553Y-120300520D01*
X172114767Y-120300500D01*
X172702277Y-120300500D01*
X172769316Y-120320185D01*
X172789958Y-120336819D01*
X173172849Y-120719710D01*
X173206334Y-120781033D01*
X173201350Y-120850725D01*
X173172851Y-120895070D01*
X173153212Y-120914708D01*
X173153208Y-120914714D01*
X173065609Y-121045814D01*
X173065602Y-121045827D01*
X173005264Y-121191498D01*
X173005261Y-121191510D01*
X172974500Y-121346153D01*
X172974500Y-121503846D01*
X173005261Y-121658489D01*
X173005264Y-121658501D01*
X173065602Y-121804172D01*
X173065609Y-121804185D01*
X173153210Y-121935288D01*
X173153213Y-121935292D01*
X173264707Y-122046786D01*
X173264711Y-122046789D01*
X173395814Y-122134390D01*
X173395827Y-122134397D01*
X173540033Y-122194128D01*
X173541503Y-122194737D01*
X173696153Y-122225499D01*
X173696156Y-122225500D01*
X173696158Y-122225500D01*
X173853844Y-122225500D01*
X173853845Y-122225499D01*
X174008497Y-122194737D01*
X174154179Y-122134394D01*
X174285289Y-122046789D01*
X174304926Y-122027151D01*
X174366247Y-121993665D01*
X174435939Y-121998648D01*
X174480289Y-122027150D01*
X176738529Y-124285390D01*
X176772014Y-124346713D01*
X176767030Y-124416405D01*
X176725158Y-124472338D01*
X176698302Y-124487632D01*
X176644505Y-124509916D01*
X176644498Y-124509919D01*
X176521584Y-124592048D01*
X176521580Y-124592051D01*
X176417051Y-124696580D01*
X176417048Y-124696584D01*
X176334919Y-124819498D01*
X176334912Y-124819511D01*
X176278343Y-124956082D01*
X176278340Y-124956092D01*
X176249500Y-125101079D01*
X176249500Y-125101082D01*
X176249500Y-125248918D01*
X176249500Y-125248920D01*
X176249499Y-125248920D01*
X176278340Y-125393907D01*
X176278343Y-125393917D01*
X176334912Y-125530488D01*
X176334919Y-125530501D01*
X176417048Y-125653415D01*
X176417051Y-125653419D01*
X176521580Y-125757948D01*
X176521584Y-125757951D01*
X176644498Y-125840080D01*
X176644511Y-125840087D01*
X176738104Y-125878854D01*
X176781087Y-125896658D01*
X176781091Y-125896658D01*
X176781092Y-125896659D01*
X176926079Y-125925500D01*
X176960788Y-125925500D01*
X177027827Y-125945185D01*
X177073582Y-125997989D01*
X177084788Y-126049500D01*
X177084788Y-126698178D01*
X177065103Y-126765217D01*
X177063891Y-126767068D01*
X177020202Y-126832454D01*
X176963631Y-126969028D01*
X176963628Y-126969038D01*
X176934788Y-127114025D01*
X176934788Y-127114028D01*
X176934788Y-127261864D01*
X176934788Y-127261866D01*
X176934787Y-127261866D01*
X176963628Y-127406853D01*
X176963631Y-127406863D01*
X177020200Y-127543434D01*
X177020207Y-127543447D01*
X177102336Y-127666361D01*
X177102339Y-127666365D01*
X177206868Y-127770894D01*
X177206872Y-127770897D01*
X177329786Y-127853026D01*
X177329799Y-127853033D01*
X177466370Y-127909602D01*
X177466375Y-127909604D01*
X177466379Y-127909604D01*
X177466380Y-127909605D01*
X177611367Y-127938446D01*
X177611370Y-127938446D01*
X177759208Y-127938446D01*
X177856750Y-127919042D01*
X177904201Y-127909604D01*
X178040783Y-127853030D01*
X178163704Y-127770897D01*
X178268239Y-127666362D01*
X178350372Y-127543441D01*
X178406946Y-127406859D01*
X178431694Y-127282445D01*
X178435788Y-127261866D01*
X178435788Y-127114025D01*
X178406947Y-126969038D01*
X178406946Y-126969037D01*
X178406946Y-126969033D01*
X178350372Y-126832451D01*
X178306684Y-126767067D01*
X178285808Y-126700390D01*
X178285788Y-126698178D01*
X178285788Y-124988049D01*
X178305473Y-124921010D01*
X178358277Y-124875255D01*
X178427435Y-124865311D01*
X178490991Y-124894336D01*
X178497469Y-124900368D01*
X179556341Y-125959240D01*
X179589826Y-126020563D01*
X179584842Y-126090255D01*
X179571763Y-126115811D01*
X179549114Y-126149708D01*
X179492543Y-126286282D01*
X179492540Y-126286292D01*
X179463700Y-126431279D01*
X179463700Y-126431282D01*
X179463700Y-126579118D01*
X179463700Y-126579120D01*
X179463699Y-126579120D01*
X179492540Y-126724107D01*
X179492543Y-126724117D01*
X179549112Y-126860688D01*
X179549119Y-126860701D01*
X179631248Y-126983615D01*
X179631251Y-126983619D01*
X179735780Y-127088148D01*
X179735784Y-127088151D01*
X179801554Y-127132098D01*
X179846359Y-127185711D01*
X179855066Y-127255036D01*
X179824911Y-127318063D01*
X179801554Y-127338302D01*
X179735784Y-127382248D01*
X179735780Y-127382251D01*
X179631251Y-127486780D01*
X179631248Y-127486784D01*
X179549119Y-127609698D01*
X179549112Y-127609711D01*
X179492543Y-127746282D01*
X179492540Y-127746292D01*
X179463700Y-127891279D01*
X179463700Y-127891282D01*
X179463700Y-128039118D01*
X179463700Y-128039120D01*
X179463699Y-128039120D01*
X179492540Y-128184107D01*
X179492543Y-128184117D01*
X179549112Y-128320688D01*
X179549119Y-128320701D01*
X179631248Y-128443615D01*
X179631251Y-128443619D01*
X179735780Y-128548148D01*
X179735784Y-128548151D01*
X179801554Y-128592098D01*
X179846359Y-128645711D01*
X179855066Y-128715036D01*
X179824911Y-128778063D01*
X179801554Y-128798302D01*
X179735784Y-128842248D01*
X179735780Y-128842251D01*
X179631251Y-128946780D01*
X179631248Y-128946784D01*
X179549119Y-129069698D01*
X179549112Y-129069711D01*
X179492543Y-129206282D01*
X179492540Y-129206292D01*
X179463700Y-129351279D01*
X179463700Y-129351282D01*
X179463700Y-129499118D01*
X179463700Y-129499120D01*
X179463699Y-129499120D01*
X179492540Y-129644107D01*
X179492543Y-129644117D01*
X179549112Y-129780688D01*
X179549119Y-129780701D01*
X179631248Y-129903615D01*
X179631251Y-129903619D01*
X179735780Y-130008148D01*
X179735784Y-130008151D01*
X179801554Y-130052098D01*
X179846359Y-130105711D01*
X179855066Y-130175036D01*
X179824911Y-130238063D01*
X179801554Y-130258302D01*
X179735784Y-130302248D01*
X179735780Y-130302251D01*
X179631251Y-130406780D01*
X179631248Y-130406784D01*
X179549119Y-130529698D01*
X179549112Y-130529711D01*
X179492543Y-130666282D01*
X179492540Y-130666292D01*
X179463700Y-130811279D01*
X179463700Y-130811282D01*
X179463700Y-130959118D01*
X179463700Y-130959120D01*
X179463699Y-130959120D01*
X179492540Y-131104107D01*
X179492543Y-131104117D01*
X179549112Y-131240688D01*
X179549119Y-131240701D01*
X179631248Y-131363615D01*
X179631251Y-131363619D01*
X179735780Y-131468148D01*
X179735784Y-131468151D01*
X179858698Y-131550280D01*
X179858711Y-131550287D01*
X179995282Y-131606856D01*
X179995287Y-131606858D01*
X179995291Y-131606858D01*
X179995292Y-131606859D01*
X180140279Y-131635700D01*
X180140282Y-131635700D01*
X180288120Y-131635700D01*
X180388597Y-131615713D01*
X180433113Y-131606858D01*
X180569695Y-131550284D01*
X180692616Y-131468151D01*
X180797151Y-131363616D01*
X180879284Y-131240695D01*
X180935858Y-131104113D01*
X180964700Y-130959118D01*
X180964700Y-130811282D01*
X180964700Y-130811279D01*
X180935859Y-130666292D01*
X180935858Y-130666291D01*
X180935858Y-130666287D01*
X180918964Y-130625501D01*
X180879287Y-130529711D01*
X180879280Y-130529698D01*
X180797151Y-130406784D01*
X180797148Y-130406780D01*
X180692616Y-130302248D01*
X180626845Y-130258302D01*
X180582040Y-130204690D01*
X180573333Y-130135365D01*
X180603487Y-130072338D01*
X180626845Y-130052098D01*
X180692616Y-130008151D01*
X180797148Y-129903619D01*
X180797151Y-129903616D01*
X180879284Y-129780695D01*
X180935858Y-129644113D01*
X180949250Y-129576789D01*
X180964700Y-129499120D01*
X180964700Y-129351279D01*
X180935859Y-129206292D01*
X180935858Y-129206291D01*
X180935858Y-129206287D01*
X180883100Y-129078917D01*
X180879287Y-129069711D01*
X180879280Y-129069698D01*
X180797151Y-128946784D01*
X180797148Y-128946780D01*
X180692616Y-128842248D01*
X180626845Y-128798302D01*
X180582040Y-128744690D01*
X180573333Y-128675365D01*
X180603487Y-128612338D01*
X180626845Y-128592098D01*
X180692616Y-128548151D01*
X180797148Y-128443619D01*
X180797151Y-128443616D01*
X180879284Y-128320695D01*
X180935858Y-128184113D01*
X180951409Y-128105935D01*
X180964700Y-128039120D01*
X180964700Y-127891279D01*
X180935859Y-127746292D01*
X180935858Y-127746291D01*
X180935858Y-127746287D01*
X180918304Y-127703907D01*
X180886252Y-127626526D01*
X180878783Y-127557057D01*
X180910058Y-127494578D01*
X180970147Y-127458926D01*
X181039972Y-127461420D01*
X181088494Y-127491393D01*
X181682181Y-128085080D01*
X181715666Y-128146403D01*
X181718500Y-128172761D01*
X181718500Y-129622330D01*
X181718499Y-129622348D01*
X181718499Y-129788054D01*
X181718498Y-129788054D01*
X181759423Y-129940785D01*
X181784171Y-129983648D01*
X181784172Y-129983652D01*
X181784173Y-129983652D01*
X181838479Y-130077714D01*
X181838481Y-130077717D01*
X181957349Y-130196585D01*
X181957355Y-130196590D01*
X182109064Y-130348299D01*
X182142549Y-130409622D01*
X182143000Y-130411788D01*
X182158340Y-130488907D01*
X182158343Y-130488917D01*
X182214912Y-130625488D01*
X182214919Y-130625501D01*
X182297048Y-130748415D01*
X182297051Y-130748419D01*
X182401580Y-130852948D01*
X182401584Y-130852951D01*
X182524498Y-130935080D01*
X182524511Y-130935087D01*
X182612812Y-130971662D01*
X182661087Y-130991658D01*
X182661091Y-130991658D01*
X182661092Y-130991659D01*
X182806079Y-131020500D01*
X182806082Y-131020500D01*
X182953920Y-131020500D01*
X183051462Y-131001096D01*
X183098913Y-130991658D01*
X183235495Y-130935084D01*
X183358416Y-130852951D01*
X183462951Y-130748416D01*
X183498287Y-130695532D01*
X183522398Y-130659448D01*
X183576010Y-130614642D01*
X183645335Y-130605935D01*
X183708362Y-130636089D01*
X183745082Y-130695532D01*
X183749500Y-130728338D01*
X183749500Y-134096384D01*
X183729815Y-134163423D01*
X183677011Y-134209178D01*
X183607853Y-134219122D01*
X183544297Y-134190097D01*
X183513780Y-134150186D01*
X183498756Y-134118989D01*
X183496450Y-134115319D01*
X183328419Y-133847899D01*
X183128802Y-133597587D01*
X182902413Y-133371198D01*
X182883252Y-133355918D01*
X182772378Y-133267499D01*
X182652101Y-133171581D01*
X182381013Y-133001245D01*
X182381010Y-133001243D01*
X182092559Y-132862332D01*
X181790364Y-132756590D01*
X181790362Y-132756589D01*
X181538261Y-132699049D01*
X181478229Y-132685347D01*
X181478225Y-132685346D01*
X181478216Y-132685345D01*
X181160085Y-132649500D01*
X181160081Y-132649500D01*
X180839919Y-132649500D01*
X180839914Y-132649500D01*
X180521783Y-132685345D01*
X180521771Y-132685347D01*
X180209637Y-132756589D01*
X180209635Y-132756590D01*
X179907440Y-132862332D01*
X179618989Y-133001243D01*
X179347896Y-133171582D01*
X179347894Y-133171583D01*
X179260736Y-133241090D01*
X179196050Y-133267499D01*
X179127354Y-133254742D01*
X179076461Y-133206871D01*
X179063436Y-133166784D01*
X179061689Y-133167132D01*
X179034249Y-133029185D01*
X179029737Y-133006503D01*
X179027558Y-133001243D01*
X178969397Y-132860827D01*
X178969390Y-132860814D01*
X178881789Y-132729711D01*
X178881786Y-132729707D01*
X178770292Y-132618213D01*
X178770288Y-132618210D01*
X178639185Y-132530609D01*
X178639172Y-132530602D01*
X178493501Y-132470264D01*
X178493489Y-132470261D01*
X178338845Y-132439500D01*
X178338842Y-132439500D01*
X178181158Y-132439500D01*
X178181155Y-132439500D01*
X178026510Y-132470261D01*
X178026498Y-132470264D01*
X177880827Y-132530602D01*
X177880814Y-132530609D01*
X177749711Y-132618210D01*
X177749707Y-132618213D01*
X177638213Y-132729707D01*
X177638210Y-132729711D01*
X177550609Y-132860814D01*
X177550602Y-132860827D01*
X177490264Y-133006498D01*
X177490261Y-133006510D01*
X177459500Y-133161153D01*
X177459500Y-133318846D01*
X177490261Y-133473489D01*
X177490264Y-133473501D01*
X177550602Y-133619172D01*
X177550609Y-133619185D01*
X177638210Y-133750288D01*
X177638213Y-133750292D01*
X177749707Y-133861786D01*
X177749711Y-133861789D01*
X177880814Y-133949390D01*
X177880827Y-133949397D01*
X177984657Y-133992404D01*
X178026503Y-134009737D01*
X178140940Y-134032500D01*
X178181153Y-134040499D01*
X178181156Y-134040500D01*
X178341697Y-134040500D01*
X178408736Y-134060185D01*
X178454491Y-134112989D01*
X178464435Y-134182147D01*
X178453417Y-134218302D01*
X178362332Y-134407440D01*
X178256590Y-134709635D01*
X178256589Y-134709637D01*
X178185347Y-135021771D01*
X178185345Y-135021783D01*
X178149500Y-135339914D01*
X178149500Y-135660085D01*
X178185345Y-135978216D01*
X178185346Y-135978225D01*
X178185347Y-135978229D01*
X178201607Y-136049471D01*
X178256589Y-136290362D01*
X178256590Y-136290364D01*
X178362332Y-136592559D01*
X178501243Y-136881010D01*
X178501245Y-136881013D01*
X178671581Y-137152101D01*
X178871198Y-137402413D01*
X179097587Y-137628802D01*
X179347899Y-137828419D01*
X179618987Y-137998755D01*
X179618989Y-137998756D01*
X179650186Y-138013780D01*
X179702045Y-138060603D01*
X179720358Y-138128030D01*
X179699310Y-138194654D01*
X179645584Y-138239322D01*
X179596384Y-138249500D01*
X172548337Y-138249500D01*
X172481298Y-138229815D01*
X172435543Y-138177011D01*
X172425599Y-138107853D01*
X172454624Y-138044297D01*
X172479446Y-138022398D01*
X172492343Y-138013780D01*
X172510289Y-138001789D01*
X172621789Y-137890289D01*
X172709394Y-137759179D01*
X172769737Y-137613497D01*
X172800500Y-137458842D01*
X172800500Y-137301158D01*
X172800500Y-137301155D01*
X172800499Y-137301153D01*
X172784141Y-137218917D01*
X172769737Y-137146503D01*
X172769735Y-137146498D01*
X172709397Y-137000827D01*
X172709390Y-137000814D01*
X172621789Y-136869711D01*
X172621786Y-136869707D01*
X172510292Y-136758213D01*
X172510288Y-136758210D01*
X172379185Y-136670609D01*
X172379172Y-136670602D01*
X172233501Y-136610264D01*
X172233489Y-136610261D01*
X172078845Y-136579500D01*
X172078842Y-136579500D01*
X171921158Y-136579500D01*
X171921155Y-136579500D01*
X171766510Y-136610261D01*
X171766503Y-136610263D01*
X171688770Y-136642460D01*
X171619301Y-136649927D01*
X171556822Y-136618652D01*
X171521170Y-136558562D01*
X171519702Y-136552090D01*
X171489867Y-136402103D01*
X171489866Y-136402102D01*
X171489866Y-136402098D01*
X171482782Y-136384996D01*
X171433293Y-136265518D01*
X171433292Y-136265516D01*
X171405717Y-136224247D01*
X171384840Y-136157572D01*
X171394259Y-136107905D01*
X171395081Y-136105920D01*
X171395084Y-136105916D01*
X171451658Y-135969334D01*
X171463678Y-135908907D01*
X171475236Y-135850804D01*
X171507621Y-135788893D01*
X171568337Y-135754319D01*
X171638106Y-135758059D01*
X171650621Y-135763573D01*
X171654274Y-135765086D01*
X171790856Y-135821660D01*
X171790860Y-135821660D01*
X171790861Y-135821661D01*
X171935848Y-135850502D01*
X171935851Y-135850502D01*
X172083689Y-135850502D01*
X172181231Y-135831098D01*
X172228682Y-135821660D01*
X172365264Y-135765086D01*
X172488185Y-135682953D01*
X172592720Y-135578418D01*
X172674853Y-135455497D01*
X172731427Y-135318915D01*
X172743946Y-135255979D01*
X172760269Y-135173922D01*
X172760269Y-135026081D01*
X172731428Y-134881094D01*
X172731427Y-134881093D01*
X172731427Y-134881089D01*
X172689038Y-134778752D01*
X172674856Y-134744513D01*
X172674849Y-134744500D01*
X172592720Y-134621586D01*
X172592717Y-134621582D01*
X172488188Y-134517053D01*
X172488184Y-134517050D01*
X172365270Y-134434921D01*
X172365257Y-134434914D01*
X172228686Y-134378345D01*
X172228676Y-134378342D01*
X172083689Y-134349502D01*
X172083687Y-134349502D01*
X171935851Y-134349502D01*
X171935849Y-134349502D01*
X171790861Y-134378342D01*
X171790851Y-134378345D01*
X171654280Y-134434914D01*
X171654267Y-134434921D01*
X171526288Y-134520435D01*
X171525274Y-134518917D01*
X171468842Y-134542878D01*
X171399976Y-134531079D01*
X171348420Y-134483922D01*
X171330500Y-134419710D01*
X171330500Y-131753920D01*
X175399499Y-131753920D01*
X175428340Y-131898907D01*
X175428343Y-131898917D01*
X175484912Y-132035488D01*
X175484919Y-132035501D01*
X175567048Y-132158415D01*
X175567051Y-132158419D01*
X175671580Y-132262948D01*
X175671584Y-132262951D01*
X175794498Y-132345080D01*
X175794511Y-132345087D01*
X175931082Y-132401656D01*
X175931087Y-132401658D01*
X175931091Y-132401658D01*
X175931092Y-132401659D01*
X176076079Y-132430500D01*
X176076082Y-132430500D01*
X176223920Y-132430500D01*
X176321462Y-132411096D01*
X176368913Y-132401658D01*
X176505495Y-132345084D01*
X176628416Y-132262951D01*
X176732951Y-132158416D01*
X176815084Y-132035495D01*
X176871658Y-131898913D01*
X176892442Y-131794426D01*
X176900500Y-131753920D01*
X176900500Y-131606079D01*
X176871659Y-131461092D01*
X176871658Y-131461091D01*
X176871658Y-131461087D01*
X176835218Y-131373112D01*
X176815087Y-131324511D01*
X176815080Y-131324498D01*
X176732951Y-131201584D01*
X176732948Y-131201580D01*
X176628419Y-131097051D01*
X176628415Y-131097048D01*
X176505501Y-131014919D01*
X176505488Y-131014912D01*
X176368917Y-130958343D01*
X176368907Y-130958340D01*
X176223920Y-130929500D01*
X176223918Y-130929500D01*
X176076082Y-130929500D01*
X176076080Y-130929500D01*
X175931092Y-130958340D01*
X175931082Y-130958343D01*
X175794511Y-131014912D01*
X175794498Y-131014919D01*
X175671584Y-131097048D01*
X175671580Y-131097051D01*
X175567051Y-131201580D01*
X175567048Y-131201584D01*
X175484919Y-131324498D01*
X175484912Y-131324511D01*
X175428343Y-131461082D01*
X175428340Y-131461092D01*
X175399500Y-131606079D01*
X175399500Y-131606082D01*
X175399500Y-131753918D01*
X175399500Y-131753920D01*
X175399499Y-131753920D01*
X171330500Y-131753920D01*
X171330500Y-126887000D01*
X171350185Y-126819961D01*
X171402989Y-126774206D01*
X171454500Y-126763000D01*
X171528844Y-126763000D01*
X171528845Y-126762999D01*
X171683497Y-126732237D01*
X171796220Y-126685546D01*
X171829172Y-126671897D01*
X171829172Y-126671896D01*
X171829179Y-126671894D01*
X171960289Y-126584289D01*
X172071789Y-126472789D01*
X172159394Y-126341679D01*
X172216887Y-126202877D01*
X173050175Y-126202877D01*
X173155436Y-126246478D01*
X173155440Y-126246479D01*
X173300326Y-126275299D01*
X173300329Y-126275300D01*
X173448071Y-126275300D01*
X173448073Y-126275299D01*
X173592960Y-126246479D01*
X173592975Y-126246475D01*
X173698224Y-126202878D01*
X173698224Y-126202877D01*
X174150175Y-126202877D01*
X174255436Y-126246478D01*
X174255440Y-126246479D01*
X174400326Y-126275299D01*
X174400329Y-126275300D01*
X174548071Y-126275300D01*
X174548073Y-126275299D01*
X174692960Y-126246479D01*
X174692975Y-126246475D01*
X174798224Y-126202878D01*
X174798224Y-126202877D01*
X174474201Y-125878854D01*
X174474200Y-125878854D01*
X174150175Y-126202877D01*
X173698224Y-126202877D01*
X173374201Y-125878854D01*
X173374200Y-125878854D01*
X173050175Y-126202877D01*
X172216887Y-126202877D01*
X172219737Y-126195997D01*
X172233755Y-126125519D01*
X172250500Y-126041344D01*
X172250500Y-125884500D01*
X172252468Y-125877796D01*
X172251246Y-125870917D01*
X172262185Y-125844705D01*
X172270185Y-125817461D01*
X172275464Y-125812886D01*
X172278156Y-125806437D01*
X172301530Y-125790299D01*
X172322989Y-125771706D01*
X172331287Y-125769756D01*
X172335654Y-125766742D01*
X172362452Y-125762435D01*
X172370404Y-125760568D01*
X172372461Y-125760500D01*
X172528842Y-125760500D01*
X172560005Y-125754301D01*
X172570144Y-125753966D01*
X172594538Y-125760261D01*
X172619635Y-125762506D01*
X172627794Y-125768843D01*
X172637797Y-125771425D01*
X172654916Y-125789910D01*
X172674814Y-125805366D01*
X172683269Y-125820526D01*
X172685271Y-125822688D01*
X172685643Y-125824783D01*
X172688801Y-125830445D01*
X172696621Y-125849324D01*
X173050483Y-125495463D01*
X173224200Y-125495463D01*
X173224200Y-125555137D01*
X173247036Y-125610268D01*
X173289232Y-125652464D01*
X173344363Y-125675300D01*
X173404037Y-125675300D01*
X173459168Y-125652464D01*
X173501364Y-125610268D01*
X173524200Y-125555137D01*
X173524200Y-125525300D01*
X173727754Y-125525300D01*
X173924200Y-125721746D01*
X174120646Y-125525300D01*
X174090809Y-125495463D01*
X174324200Y-125495463D01*
X174324200Y-125555137D01*
X174347036Y-125610268D01*
X174389232Y-125652464D01*
X174444363Y-125675300D01*
X174504037Y-125675300D01*
X174559168Y-125652464D01*
X174601364Y-125610268D01*
X174624200Y-125555137D01*
X174624200Y-125525299D01*
X174827754Y-125525299D01*
X174827754Y-125525301D01*
X175151777Y-125849324D01*
X175151778Y-125849324D01*
X175195375Y-125744075D01*
X175195379Y-125744060D01*
X175224199Y-125599173D01*
X175224200Y-125599171D01*
X175224200Y-125451428D01*
X175224199Y-125451426D01*
X175195379Y-125306540D01*
X175195378Y-125306536D01*
X175151777Y-125201275D01*
X174827754Y-125525299D01*
X174624200Y-125525299D01*
X174624200Y-125495463D01*
X174601364Y-125440332D01*
X174559168Y-125398136D01*
X174504037Y-125375300D01*
X174444363Y-125375300D01*
X174389232Y-125398136D01*
X174347036Y-125440332D01*
X174324200Y-125495463D01*
X174090809Y-125495463D01*
X173924200Y-125328854D01*
X173727754Y-125525300D01*
X173524200Y-125525300D01*
X173524200Y-125495463D01*
X173501364Y-125440332D01*
X173459168Y-125398136D01*
X173404037Y-125375300D01*
X173344363Y-125375300D01*
X173289232Y-125398136D01*
X173247036Y-125440332D01*
X173224200Y-125495463D01*
X173050483Y-125495463D01*
X173159689Y-125386257D01*
X173698224Y-124847721D01*
X173698222Y-124847720D01*
X174150174Y-124847720D01*
X174150174Y-124847721D01*
X174474200Y-125171746D01*
X174474201Y-125171746D01*
X174798224Y-124847721D01*
X174692967Y-124804122D01*
X174692959Y-124804120D01*
X174548072Y-124775300D01*
X174400328Y-124775300D01*
X174255440Y-124804120D01*
X174255428Y-124804123D01*
X174150174Y-124847720D01*
X173698222Y-124847720D01*
X173592967Y-124804122D01*
X173592959Y-124804120D01*
X173448072Y-124775300D01*
X173322803Y-124775300D01*
X173303621Y-124769667D01*
X173283644Y-124768954D01*
X173270784Y-124760025D01*
X173255764Y-124755615D01*
X173242674Y-124740508D01*
X173226251Y-124729106D01*
X173212041Y-124705156D01*
X173210009Y-124702811D01*
X173208255Y-124698784D01*
X173164820Y-124593922D01*
X173157352Y-124524455D01*
X173188627Y-124461976D01*
X173231925Y-124431913D01*
X173318243Y-124396160D01*
X173441164Y-124314027D01*
X173545699Y-124209492D01*
X173627832Y-124086571D01*
X173636748Y-124065045D01*
X173680586Y-124010643D01*
X173746879Y-123988576D01*
X173814579Y-124005853D01*
X173838990Y-124024816D01*
X173871520Y-124057346D01*
X173871524Y-124057349D01*
X174002627Y-124144950D01*
X174002640Y-124144957D01*
X174148311Y-124205295D01*
X174148316Y-124205297D01*
X174302966Y-124236059D01*
X174302969Y-124236060D01*
X174302971Y-124236060D01*
X174460657Y-124236060D01*
X174460658Y-124236059D01*
X174615310Y-124205297D01*
X174760992Y-124144954D01*
X174892102Y-124057349D01*
X175003602Y-123945849D01*
X175091207Y-123814739D01*
X175151550Y-123669057D01*
X175182313Y-123514402D01*
X175182313Y-123356718D01*
X175182313Y-123356715D01*
X175182312Y-123356713D01*
X175161614Y-123252660D01*
X175151550Y-123202063D01*
X175151548Y-123202058D01*
X175091210Y-123056387D01*
X175091203Y-123056374D01*
X175003602Y-122925271D01*
X175003599Y-122925267D01*
X174892105Y-122813773D01*
X174892101Y-122813770D01*
X174760998Y-122726169D01*
X174760985Y-122726162D01*
X174615314Y-122665824D01*
X174615302Y-122665821D01*
X174460658Y-122635060D01*
X174460655Y-122635060D01*
X174302971Y-122635060D01*
X174302968Y-122635060D01*
X174148323Y-122665821D01*
X174148311Y-122665824D01*
X174002640Y-122726162D01*
X174002627Y-122726169D01*
X173871524Y-122813770D01*
X173871520Y-122813773D01*
X173760026Y-122925267D01*
X173760023Y-122925271D01*
X173672422Y-123056374D01*
X173672414Y-123056389D01*
X173648831Y-123113323D01*
X173604990Y-123167726D01*
X173538695Y-123189790D01*
X173470996Y-123172510D01*
X173446590Y-123153550D01*
X173441167Y-123148127D01*
X173441163Y-123148124D01*
X173318249Y-123065995D01*
X173318236Y-123065988D01*
X173181665Y-123009419D01*
X173181655Y-123009416D01*
X173036668Y-122980576D01*
X173036666Y-122980576D01*
X172888830Y-122980576D01*
X172888828Y-122980576D01*
X172743840Y-123009416D01*
X172743830Y-123009419D01*
X172607259Y-123065988D01*
X172607246Y-123065995D01*
X172484332Y-123148124D01*
X172484328Y-123148127D01*
X172379799Y-123252656D01*
X172379796Y-123252660D01*
X172309413Y-123357996D01*
X172285868Y-123377672D01*
X172263786Y-123398981D01*
X172257878Y-123401064D01*
X172255801Y-123402801D01*
X172230502Y-123410722D01*
X172199614Y-123416866D01*
X172130023Y-123410639D01*
X172074845Y-123367776D01*
X172051601Y-123301886D01*
X172067669Y-123233889D01*
X172068036Y-123233249D01*
X172069627Y-123230492D01*
X172069629Y-123230491D01*
X172148686Y-123093559D01*
X172189610Y-122940832D01*
X172189610Y-122782717D01*
X172189610Y-122775122D01*
X172189609Y-122775104D01*
X172189609Y-122760658D01*
X172209294Y-122693619D01*
X172210507Y-122691767D01*
X172254189Y-122626392D01*
X172254189Y-122626391D01*
X172254193Y-122626386D01*
X172310767Y-122489804D01*
X172320205Y-122442353D01*
X172339609Y-122344811D01*
X172339609Y-122196970D01*
X172310768Y-122051983D01*
X172310767Y-122051982D01*
X172310767Y-122051978D01*
X172310479Y-122051282D01*
X172254196Y-121915402D01*
X172254189Y-121915389D01*
X172172060Y-121792475D01*
X172172057Y-121792471D01*
X172067528Y-121687942D01*
X172067524Y-121687939D01*
X171944610Y-121605810D01*
X171944597Y-121605803D01*
X171808026Y-121549234D01*
X171808016Y-121549231D01*
X171663029Y-121520391D01*
X171663027Y-121520391D01*
X171515191Y-121520391D01*
X171465886Y-121530198D01*
X171396295Y-121523969D01*
X171341118Y-121481106D01*
X171327137Y-121456036D01*
X171301650Y-121394505D01*
X171301646Y-121394498D01*
X171219517Y-121271584D01*
X171219514Y-121271580D01*
X171114985Y-121167051D01*
X171114981Y-121167048D01*
X170992067Y-121084919D01*
X170992054Y-121084912D01*
X170855483Y-121028343D01*
X170855473Y-121028340D01*
X170710486Y-120999500D01*
X170710484Y-120999500D01*
X170562648Y-120999500D01*
X170562646Y-120999500D01*
X170417658Y-121028340D01*
X170417648Y-121028343D01*
X170281077Y-121084912D01*
X170281064Y-121084919D01*
X170158150Y-121167048D01*
X170158146Y-121167051D01*
X170053617Y-121271580D01*
X170053614Y-121271584D01*
X169971485Y-121394498D01*
X169971478Y-121394511D01*
X169914909Y-121531082D01*
X169914906Y-121531092D01*
X169886066Y-121676079D01*
X169886066Y-121676082D01*
X169886066Y-121823918D01*
X169886066Y-121823920D01*
X169886065Y-121823920D01*
X169914906Y-121968907D01*
X169914909Y-121968917D01*
X169971478Y-122105488D01*
X169971485Y-122105501D01*
X170046432Y-122217666D01*
X170067310Y-122284343D01*
X170048826Y-122351724D01*
X170031014Y-122374236D01*
X170016247Y-122389003D01*
X169934118Y-122511917D01*
X169934111Y-122511930D01*
X169877541Y-122648503D01*
X169877539Y-122648511D01*
X169862199Y-122725629D01*
X169829814Y-122787540D01*
X169828263Y-122789118D01*
X168757315Y-123860066D01*
X168695992Y-123893551D01*
X168626300Y-123888567D01*
X168570367Y-123846695D01*
X168545950Y-123781231D01*
X168548017Y-123748192D01*
X168550500Y-123735713D01*
X168550500Y-123587877D01*
X168550500Y-123587874D01*
X168521659Y-123442887D01*
X168521658Y-123442886D01*
X168521658Y-123442882D01*
X168519242Y-123437049D01*
X168465087Y-123306306D01*
X168465080Y-123306293D01*
X168382951Y-123183379D01*
X168382948Y-123183375D01*
X168278419Y-123078846D01*
X168278415Y-123078843D01*
X168155501Y-122996714D01*
X168155495Y-122996711D01*
X168105642Y-122976061D01*
X168051239Y-122932219D01*
X168029175Y-122865925D01*
X168046455Y-122798226D01*
X168065411Y-122773823D01*
X170105520Y-120733716D01*
X170184577Y-120596784D01*
X170225501Y-120444057D01*
X170225501Y-120285942D01*
X170225501Y-120278347D01*
X170225500Y-120278329D01*
X170225500Y-118960201D01*
X170245185Y-118893162D01*
X170297989Y-118847407D01*
X170338396Y-118838616D01*
X170338217Y-118836798D01*
X170344279Y-118836201D01*
X170441821Y-118816797D01*
X170489272Y-118807359D01*
X170625854Y-118750785D01*
X170669697Y-118721489D01*
X170736373Y-118700612D01*
X170738588Y-118700592D01*
X172246331Y-118700592D01*
X172313370Y-118720277D01*
G37*
%TD.AperFunction*%
%TA.AperFunction,Conductor*%
G36*
X165799126Y-124465629D02*
G01*
X165845817Y-124517607D01*
X165856995Y-124586577D01*
X165829110Y-124650641D01*
X165821642Y-124658807D01*
X162726820Y-127753629D01*
X162665497Y-127787114D01*
X162595805Y-127782130D01*
X162539872Y-127740258D01*
X162515455Y-127674794D01*
X162517522Y-127641755D01*
X162520552Y-127626526D01*
X162534000Y-127558918D01*
X162534000Y-127411082D01*
X162534000Y-127411079D01*
X162505159Y-127266092D01*
X162505158Y-127266091D01*
X162505158Y-127266087D01*
X162448584Y-127129505D01*
X162404896Y-127064121D01*
X162399246Y-127046075D01*
X162389023Y-127030167D01*
X162384571Y-126999204D01*
X162384020Y-126997444D01*
X162384000Y-126995232D01*
X162384000Y-126896596D01*
X162403685Y-126829557D01*
X162420314Y-126808920D01*
X164739309Y-124489924D01*
X164800630Y-124456441D01*
X164870322Y-124461425D01*
X164895880Y-124474506D01*
X164920122Y-124490704D01*
X164920125Y-124490706D01*
X164920130Y-124490709D01*
X164920132Y-124490710D01*
X164920136Y-124490712D01*
X165001600Y-124524455D01*
X165056712Y-124547283D01*
X165056716Y-124547283D01*
X165056717Y-124547284D01*
X165201704Y-124576125D01*
X165201707Y-124576125D01*
X165349545Y-124576125D01*
X165453345Y-124555477D01*
X165494538Y-124547283D01*
X165600172Y-124503527D01*
X165631113Y-124490712D01*
X165631113Y-124490711D01*
X165631120Y-124490709D01*
X165665070Y-124468024D01*
X165731746Y-124447146D01*
X165799126Y-124465629D01*
G37*
%TD.AperFunction*%
%TA.AperFunction,Conductor*%
G36*
X171614686Y-102270185D02*
G01*
X171660441Y-102322989D01*
X171670385Y-102392147D01*
X171641360Y-102455703D01*
X171616538Y-102477602D01*
X171521584Y-102541048D01*
X171521580Y-102541051D01*
X171417051Y-102645580D01*
X171417048Y-102645584D01*
X171334919Y-102768498D01*
X171334912Y-102768511D01*
X171278343Y-102905082D01*
X171278340Y-102905092D01*
X171249500Y-103050079D01*
X171249500Y-103050082D01*
X171249500Y-103197918D01*
X171249500Y-103197920D01*
X171249499Y-103197920D01*
X171278340Y-103342907D01*
X171278343Y-103342917D01*
X171334912Y-103479488D01*
X171334919Y-103479501D01*
X171417048Y-103602415D01*
X171417051Y-103602419D01*
X171521580Y-103706948D01*
X171521584Y-103706951D01*
X171644498Y-103789080D01*
X171644511Y-103789087D01*
X171743973Y-103830285D01*
X171781087Y-103845658D01*
X171781091Y-103845658D01*
X171781092Y-103845659D01*
X171926079Y-103874500D01*
X171926082Y-103874500D01*
X172073920Y-103874500D01*
X172171462Y-103855096D01*
X172218913Y-103845658D01*
X172355495Y-103789084D01*
X172478416Y-103706951D01*
X172582951Y-103602416D01*
X172665084Y-103479495D01*
X172721658Y-103342913D01*
X172749520Y-103202846D01*
X172750500Y-103197920D01*
X172750500Y-103050079D01*
X172721659Y-102905092D01*
X172721658Y-102905091D01*
X172721658Y-102905087D01*
X172707621Y-102871198D01*
X172665087Y-102768511D01*
X172665080Y-102768498D01*
X172582951Y-102645584D01*
X172582948Y-102645580D01*
X172478419Y-102541051D01*
X172478415Y-102541048D01*
X172383462Y-102477602D01*
X172338657Y-102423990D01*
X172329950Y-102354665D01*
X172360105Y-102291637D01*
X172419548Y-102254918D01*
X172452353Y-102250500D01*
X174047647Y-102250500D01*
X174114686Y-102270185D01*
X174160441Y-102322989D01*
X174170385Y-102392147D01*
X174141360Y-102455703D01*
X174116538Y-102477602D01*
X174021584Y-102541048D01*
X174021580Y-102541051D01*
X173917051Y-102645580D01*
X173917048Y-102645584D01*
X173834919Y-102768498D01*
X173834912Y-102768511D01*
X173778343Y-102905082D01*
X173778340Y-102905092D01*
X173749500Y-103050079D01*
X173749500Y-103050082D01*
X173749500Y-103197918D01*
X173749500Y-103197920D01*
X173749499Y-103197920D01*
X173778340Y-103342907D01*
X173778343Y-103342917D01*
X173834912Y-103479488D01*
X173834919Y-103479501D01*
X173917048Y-103602415D01*
X173917051Y-103602419D01*
X174021580Y-103706948D01*
X174021584Y-103706951D01*
X174144498Y-103789080D01*
X174144511Y-103789087D01*
X174243973Y-103830285D01*
X174281087Y-103845658D01*
X174281091Y-103845658D01*
X174281092Y-103845659D01*
X174426079Y-103874500D01*
X174426082Y-103874500D01*
X174573920Y-103874500D01*
X174671462Y-103855096D01*
X174718913Y-103845658D01*
X174855495Y-103789084D01*
X174978416Y-103706951D01*
X175082951Y-103602416D01*
X175165084Y-103479495D01*
X175221658Y-103342913D01*
X175249520Y-103202846D01*
X175250500Y-103197920D01*
X175250500Y-103050079D01*
X175221659Y-102905092D01*
X175221658Y-102905091D01*
X175221658Y-102905087D01*
X175207621Y-102871198D01*
X175165087Y-102768511D01*
X175165080Y-102768498D01*
X175082951Y-102645584D01*
X175082948Y-102645580D01*
X174978419Y-102541051D01*
X174978415Y-102541048D01*
X174883462Y-102477602D01*
X174838657Y-102423990D01*
X174829950Y-102354665D01*
X174860105Y-102291637D01*
X174919548Y-102254918D01*
X174952353Y-102250500D01*
X179596384Y-102250500D01*
X179663423Y-102270185D01*
X179709178Y-102322989D01*
X179719122Y-102392147D01*
X179690097Y-102455703D01*
X179650186Y-102486220D01*
X179618989Y-102501243D01*
X179347900Y-102671580D01*
X179097587Y-102871197D01*
X178871197Y-103097587D01*
X178671580Y-103347900D01*
X178501243Y-103618989D01*
X178362332Y-103907440D01*
X178256590Y-104209635D01*
X178256589Y-104209637D01*
X178185347Y-104521771D01*
X178185345Y-104521783D01*
X178149500Y-104839914D01*
X178149500Y-105160085D01*
X178185345Y-105478216D01*
X178185346Y-105478225D01*
X178185347Y-105478229D01*
X178200833Y-105546079D01*
X178256589Y-105790362D01*
X178256590Y-105790364D01*
X178362332Y-106092559D01*
X178501243Y-106381010D01*
X178544475Y-106449813D01*
X178671581Y-106652101D01*
X178871198Y-106902413D01*
X179097587Y-107128802D01*
X179347899Y-107328419D01*
X179618987Y-107498755D01*
X179907442Y-107637668D01*
X180209637Y-107743410D01*
X180521771Y-107814653D01*
X180839915Y-107850499D01*
X180839916Y-107850500D01*
X180839919Y-107850500D01*
X181160084Y-107850500D01*
X181160084Y-107850499D01*
X181478229Y-107814653D01*
X181790363Y-107743410D01*
X182092558Y-107637668D01*
X182381013Y-107498755D01*
X182652101Y-107328419D01*
X182902413Y-107128802D01*
X183128802Y-106902413D01*
X183328419Y-106652101D01*
X183498755Y-106381013D01*
X183513780Y-106349812D01*
X183560601Y-106297954D01*
X183628028Y-106279641D01*
X183694652Y-106300688D01*
X183739321Y-106354414D01*
X183749500Y-106403615D01*
X183749500Y-109207012D01*
X183729815Y-109274051D01*
X183677011Y-109319806D01*
X183607853Y-109329750D01*
X183544297Y-109300725D01*
X183537819Y-109294693D01*
X183391339Y-109148213D01*
X183391335Y-109148210D01*
X183219368Y-109033305D01*
X183219358Y-109033300D01*
X183028274Y-108954150D01*
X183028266Y-108954148D01*
X182825420Y-108913800D01*
X182622000Y-108913800D01*
X182622000Y-109713800D01*
X182122000Y-109713800D01*
X182122000Y-108913800D01*
X181918579Y-108913800D01*
X181715733Y-108954148D01*
X181715725Y-108954150D01*
X181524641Y-109033300D01*
X181524631Y-109033305D01*
X181352664Y-109148210D01*
X181352660Y-109148213D01*
X181206413Y-109294460D01*
X181206410Y-109294464D01*
X181091505Y-109466431D01*
X181091500Y-109466441D01*
X181012351Y-109657523D01*
X181012348Y-109657533D01*
X181001156Y-109713798D01*
X181001158Y-109713800D01*
X181972272Y-109713800D01*
X181880386Y-109751860D01*
X181810060Y-109822186D01*
X181772000Y-109914072D01*
X181772000Y-110013528D01*
X181810060Y-110105414D01*
X181880386Y-110175740D01*
X181972272Y-110213800D01*
X181001157Y-110213800D01*
X181012350Y-110270074D01*
X181012351Y-110270076D01*
X181091500Y-110461158D01*
X181091505Y-110461168D01*
X181206410Y-110633135D01*
X181206413Y-110633139D01*
X181352660Y-110779386D01*
X181352664Y-110779389D01*
X181524631Y-110894294D01*
X181524641Y-110894299D01*
X181715725Y-110973449D01*
X181715733Y-110973451D01*
X181918579Y-111013799D01*
X181918583Y-111013800D01*
X182122000Y-111013800D01*
X182122000Y-110213800D01*
X182622000Y-110213800D01*
X182622000Y-111013800D01*
X182825417Y-111013800D01*
X182825420Y-111013799D01*
X183028266Y-110973451D01*
X183028274Y-110973449D01*
X183219358Y-110894299D01*
X183219368Y-110894294D01*
X183391335Y-110779389D01*
X183391339Y-110779386D01*
X183537819Y-110632907D01*
X183599142Y-110599422D01*
X183668834Y-110604406D01*
X183724767Y-110646278D01*
X183749184Y-110711742D01*
X183749500Y-110720588D01*
X183749500Y-118997012D01*
X183729815Y-119064051D01*
X183677011Y-119109806D01*
X183607853Y-119119750D01*
X183544297Y-119090725D01*
X183537819Y-119084693D01*
X183391339Y-118938213D01*
X183391335Y-118938210D01*
X183219368Y-118823305D01*
X183219358Y-118823300D01*
X183028274Y-118744150D01*
X183028266Y-118744148D01*
X182825420Y-118703800D01*
X182622000Y-118703800D01*
X182622000Y-119503800D01*
X182122000Y-119503800D01*
X182122000Y-118703800D01*
X181918579Y-118703800D01*
X181715733Y-118744148D01*
X181715725Y-118744150D01*
X181524641Y-118823300D01*
X181524631Y-118823305D01*
X181352664Y-118938210D01*
X181352660Y-118938213D01*
X181206413Y-119084460D01*
X181206410Y-119084464D01*
X181091505Y-119256431D01*
X181091500Y-119256441D01*
X181012351Y-119447523D01*
X181012348Y-119447533D01*
X181001156Y-119503798D01*
X181001158Y-119503800D01*
X181972272Y-119503800D01*
X181880386Y-119541860D01*
X181810060Y-119612186D01*
X181772000Y-119704072D01*
X181772000Y-119803528D01*
X181810060Y-119895414D01*
X181880386Y-119965740D01*
X181972272Y-120003800D01*
X181001157Y-120003800D01*
X181012350Y-120060074D01*
X181012351Y-120060076D01*
X181091500Y-120251158D01*
X181091505Y-120251168D01*
X181206410Y-120423135D01*
X181206413Y-120423139D01*
X181352660Y-120569386D01*
X181352664Y-120569389D01*
X181524631Y-120684294D01*
X181524641Y-120684299D01*
X181715725Y-120763449D01*
X181715733Y-120763451D01*
X181918579Y-120803799D01*
X181918583Y-120803800D01*
X182122000Y-120803800D01*
X182122000Y-120003800D01*
X182622000Y-120003800D01*
X182622000Y-120803800D01*
X182825417Y-120803800D01*
X182825420Y-120803799D01*
X183028266Y-120763451D01*
X183028274Y-120763449D01*
X183219358Y-120684299D01*
X183219368Y-120684294D01*
X183391335Y-120569389D01*
X183391339Y-120569386D01*
X183537819Y-120422907D01*
X183599142Y-120389422D01*
X183668834Y-120394406D01*
X183724767Y-120436278D01*
X183749184Y-120501742D01*
X183749500Y-120510588D01*
X183749500Y-124721662D01*
X183729815Y-124788701D01*
X183677011Y-124834456D01*
X183607853Y-124844400D01*
X183544297Y-124815375D01*
X183522399Y-124790554D01*
X183501791Y-124759713D01*
X183501786Y-124759707D01*
X183390292Y-124648213D01*
X183390288Y-124648210D01*
X183259185Y-124560609D01*
X183259172Y-124560602D01*
X183113501Y-124500264D01*
X183113489Y-124500261D01*
X182958845Y-124469500D01*
X182958842Y-124469500D01*
X182801158Y-124469500D01*
X182801155Y-124469500D01*
X182646510Y-124500261D01*
X182646498Y-124500264D01*
X182500827Y-124560602D01*
X182500814Y-124560609D01*
X182369711Y-124648210D01*
X182369707Y-124648213D01*
X182258213Y-124759707D01*
X182258210Y-124759711D01*
X182170609Y-124890814D01*
X182170602Y-124890827D01*
X182110264Y-125036498D01*
X182110261Y-125036507D01*
X182100295Y-125086610D01*
X182067909Y-125148521D01*
X182007193Y-125183094D01*
X181937423Y-125179353D01*
X181890997Y-125150098D01*
X180872058Y-124131159D01*
X180838573Y-124069836D01*
X180843557Y-124000144D01*
X180856636Y-123974589D01*
X180879284Y-123940695D01*
X180935858Y-123804113D01*
X180949464Y-123735712D01*
X180964700Y-123659120D01*
X180964700Y-123511279D01*
X180935859Y-123366292D01*
X180935858Y-123366291D01*
X180935858Y-123366287D01*
X180932424Y-123357996D01*
X180879287Y-123229711D01*
X180879280Y-123229698D01*
X180797151Y-123106784D01*
X180797148Y-123106780D01*
X180692616Y-123002248D01*
X180626845Y-122958302D01*
X180582040Y-122904690D01*
X180573333Y-122835365D01*
X180603487Y-122772338D01*
X180626845Y-122752098D01*
X180692616Y-122708151D01*
X180797148Y-122603619D01*
X180797151Y-122603616D01*
X180879284Y-122480695D01*
X180935858Y-122344113D01*
X180956618Y-122239748D01*
X180964700Y-122199120D01*
X180964700Y-122051279D01*
X180935859Y-121906292D01*
X180935858Y-121906291D01*
X180935858Y-121906287D01*
X180919387Y-121866522D01*
X180879287Y-121769711D01*
X180879280Y-121769698D01*
X180797151Y-121646784D01*
X180797148Y-121646780D01*
X180692619Y-121542251D01*
X180692615Y-121542248D01*
X180569701Y-121460119D01*
X180569688Y-121460112D01*
X180433117Y-121403543D01*
X180433107Y-121403540D01*
X180288120Y-121374700D01*
X180288118Y-121374700D01*
X180140282Y-121374700D01*
X180140280Y-121374700D01*
X179995292Y-121403540D01*
X179995282Y-121403543D01*
X179858711Y-121460112D01*
X179858698Y-121460119D01*
X179735784Y-121542248D01*
X179735780Y-121542251D01*
X179631251Y-121646780D01*
X179631248Y-121646784D01*
X179549119Y-121769698D01*
X179549112Y-121769711D01*
X179492543Y-121906282D01*
X179492540Y-121906292D01*
X179463700Y-122051279D01*
X179463700Y-122051282D01*
X179463700Y-122199118D01*
X179463700Y-122199120D01*
X179463699Y-122199120D01*
X179492540Y-122344107D01*
X179492543Y-122344117D01*
X179542147Y-122463873D01*
X179549616Y-122533342D01*
X179518340Y-122595821D01*
X179458251Y-122631473D01*
X179388426Y-122628979D01*
X179339905Y-122599006D01*
X178727019Y-121986120D01*
X178693534Y-121924797D01*
X178690700Y-121898439D01*
X178690700Y-121464771D01*
X178690699Y-121464766D01*
X178689456Y-121460125D01*
X178689454Y-121460116D01*
X178649777Y-121312041D01*
X178610829Y-121244582D01*
X178610829Y-121244580D01*
X178570724Y-121175116D01*
X178570721Y-121175112D01*
X178570720Y-121175110D01*
X178458916Y-121063306D01*
X178458915Y-121063305D01*
X178454585Y-121058975D01*
X178454574Y-121058965D01*
X177280699Y-119885090D01*
X177247214Y-119823767D01*
X177252198Y-119754075D01*
X177294070Y-119698142D01*
X177299489Y-119694307D01*
X177347452Y-119662258D01*
X177414860Y-119617218D01*
X177526360Y-119505718D01*
X177527642Y-119503800D01*
X178001157Y-119503800D01*
X178972272Y-119503800D01*
X178880386Y-119541860D01*
X178810060Y-119612186D01*
X178772000Y-119704072D01*
X178772000Y-119803528D01*
X178810060Y-119895414D01*
X178880386Y-119965740D01*
X178972272Y-120003800D01*
X178001157Y-120003800D01*
X178012350Y-120060074D01*
X178012351Y-120060076D01*
X178091500Y-120251158D01*
X178091505Y-120251168D01*
X178206410Y-120423135D01*
X178206413Y-120423139D01*
X178352660Y-120569386D01*
X178352664Y-120569389D01*
X178524631Y-120684294D01*
X178524641Y-120684299D01*
X178715725Y-120763449D01*
X178715733Y-120763451D01*
X178918579Y-120803799D01*
X178918583Y-120803800D01*
X179122000Y-120803800D01*
X179122000Y-120003800D01*
X179622000Y-120003800D01*
X179622000Y-120803800D01*
X179825417Y-120803800D01*
X179825420Y-120803799D01*
X180028266Y-120763451D01*
X180028274Y-120763449D01*
X180219358Y-120684299D01*
X180219368Y-120684294D01*
X180391335Y-120569389D01*
X180391339Y-120569386D01*
X180537586Y-120423139D01*
X180537589Y-120423135D01*
X180652494Y-120251168D01*
X180652499Y-120251158D01*
X180731648Y-120060076D01*
X180731649Y-120060074D01*
X180742843Y-120003800D01*
X179771728Y-120003800D01*
X179863614Y-119965740D01*
X179933940Y-119895414D01*
X179972000Y-119803528D01*
X179972000Y-119704072D01*
X179933940Y-119612186D01*
X179863614Y-119541860D01*
X179771728Y-119503800D01*
X180742842Y-119503800D01*
X180742843Y-119503798D01*
X180731651Y-119447533D01*
X180731648Y-119447523D01*
X180652499Y-119256441D01*
X180652494Y-119256431D01*
X180537589Y-119084464D01*
X180537586Y-119084460D01*
X180391339Y-118938213D01*
X180391335Y-118938210D01*
X180219368Y-118823305D01*
X180219358Y-118823300D01*
X180116052Y-118780509D01*
X180061649Y-118736668D01*
X180039584Y-118670373D01*
X180056863Y-118602674D01*
X180060403Y-118597057D01*
X180082552Y-118563909D01*
X180145947Y-118469032D01*
X180203275Y-118330630D01*
X180232500Y-118183703D01*
X180232500Y-118033897D01*
X180203275Y-117886970D01*
X180145947Y-117748568D01*
X180145946Y-117748567D01*
X180145943Y-117748561D01*
X180062719Y-117624009D01*
X180062716Y-117624005D01*
X179956794Y-117518083D01*
X179956790Y-117518080D01*
X179832238Y-117434856D01*
X179832229Y-117434851D01*
X179693830Y-117377525D01*
X179693822Y-117377523D01*
X179546907Y-117348300D01*
X179546903Y-117348300D01*
X179397097Y-117348300D01*
X179397092Y-117348300D01*
X179250177Y-117377523D01*
X179250169Y-117377525D01*
X179111770Y-117434851D01*
X179111761Y-117434856D01*
X178987209Y-117518080D01*
X178987205Y-117518083D01*
X178881283Y-117624005D01*
X178881280Y-117624009D01*
X178798056Y-117748561D01*
X178798051Y-117748570D01*
X178740725Y-117886969D01*
X178740723Y-117886977D01*
X178711500Y-118033892D01*
X178711500Y-118183707D01*
X178740723Y-118330622D01*
X178740725Y-118330630D01*
X178798051Y-118469029D01*
X178798053Y-118469032D01*
X178847554Y-118543116D01*
X178868432Y-118609792D01*
X178849948Y-118677172D01*
X178797969Y-118723863D01*
X178768644Y-118733623D01*
X178715732Y-118744148D01*
X178715725Y-118744150D01*
X178524641Y-118823300D01*
X178524631Y-118823305D01*
X178352664Y-118938210D01*
X178352660Y-118938213D01*
X178206413Y-119084460D01*
X178206410Y-119084464D01*
X178091505Y-119256431D01*
X178091500Y-119256441D01*
X178012351Y-119447523D01*
X178012350Y-119447525D01*
X178001157Y-119503800D01*
X177527642Y-119503800D01*
X177613965Y-119374608D01*
X177674308Y-119228926D01*
X177705071Y-119074271D01*
X177705071Y-118916587D01*
X177705071Y-118916584D01*
X177705070Y-118916582D01*
X177692919Y-118855495D01*
X177674308Y-118761932D01*
X177663944Y-118736911D01*
X177613968Y-118616256D01*
X177613961Y-118616243D01*
X177526360Y-118485140D01*
X177526357Y-118485136D01*
X177414863Y-118373642D01*
X177414859Y-118373639D01*
X177283756Y-118286038D01*
X177283743Y-118286031D01*
X177138072Y-118225693D01*
X177138060Y-118225690D01*
X176983416Y-118194929D01*
X176983413Y-118194929D01*
X176825729Y-118194929D01*
X176825726Y-118194929D01*
X176671081Y-118225690D01*
X176671069Y-118225693D01*
X176525398Y-118286031D01*
X176525385Y-118286038D01*
X176394282Y-118373639D01*
X176394278Y-118373642D01*
X176282784Y-118485136D01*
X176282779Y-118485142D01*
X176205691Y-118600511D01*
X176152079Y-118645315D01*
X176082754Y-118654022D01*
X176019727Y-118623867D01*
X176014909Y-118619300D01*
X173008964Y-115613355D01*
X173008962Y-115613352D01*
X172890091Y-115494481D01*
X172890090Y-115494480D01*
X172787640Y-115435331D01*
X172787639Y-115435330D01*
X172753157Y-115415422D01*
X172697255Y-115400443D01*
X172600431Y-115374499D01*
X172442317Y-115374499D01*
X172434721Y-115374499D01*
X172434705Y-115374500D01*
X171428664Y-115374500D01*
X171361625Y-115354815D01*
X171323030Y-115312987D01*
X171322374Y-115313426D01*
X171319588Y-115309257D01*
X171319303Y-115308948D01*
X171318987Y-115308358D01*
X171236856Y-115185440D01*
X171236853Y-115185436D01*
X171132324Y-115080907D01*
X171132320Y-115080904D01*
X171009406Y-114998775D01*
X171009393Y-114998768D01*
X170872822Y-114942199D01*
X170872812Y-114942196D01*
X170727825Y-114913356D01*
X170727823Y-114913356D01*
X170579987Y-114913356D01*
X170579985Y-114913356D01*
X170434997Y-114942196D01*
X170434987Y-114942199D01*
X170396952Y-114957954D01*
X170327482Y-114965423D01*
X170265003Y-114934147D01*
X170229351Y-114874058D01*
X170225500Y-114843393D01*
X170225500Y-109713800D01*
X178001157Y-109713800D01*
X178972272Y-109713800D01*
X178880386Y-109751860D01*
X178810060Y-109822186D01*
X178772000Y-109914072D01*
X178772000Y-110013528D01*
X178810060Y-110105414D01*
X178880386Y-110175740D01*
X178972272Y-110213800D01*
X178001157Y-110213800D01*
X178012350Y-110270074D01*
X178012351Y-110270076D01*
X178091500Y-110461158D01*
X178091505Y-110461168D01*
X178206410Y-110633135D01*
X178206413Y-110633139D01*
X178352660Y-110779386D01*
X178352664Y-110779389D01*
X178524631Y-110894294D01*
X178524641Y-110894299D01*
X178715724Y-110973449D01*
X178768643Y-110983975D01*
X178830554Y-111016360D01*
X178865128Y-111077076D01*
X178861389Y-111146845D01*
X178847554Y-111174484D01*
X178798056Y-111248561D01*
X178798051Y-111248570D01*
X178740725Y-111386969D01*
X178740723Y-111386977D01*
X178711500Y-111533892D01*
X178711500Y-111683707D01*
X178740723Y-111830622D01*
X178740725Y-111830630D01*
X178798051Y-111969029D01*
X178798056Y-111969038D01*
X178881280Y-112093590D01*
X178881283Y-112093594D01*
X178987205Y-112199516D01*
X178987209Y-112199519D01*
X179111761Y-112282743D01*
X179111767Y-112282746D01*
X179111768Y-112282747D01*
X179250170Y-112340075D01*
X179397092Y-112369299D01*
X179397096Y-112369300D01*
X179397097Y-112369300D01*
X179546904Y-112369300D01*
X179546905Y-112369299D01*
X179693830Y-112340075D01*
X179832232Y-112282747D01*
X179956791Y-112199519D01*
X180062719Y-112093591D01*
X180145947Y-111969032D01*
X180203275Y-111830630D01*
X180232500Y-111683703D01*
X180232500Y-111533897D01*
X180203275Y-111386970D01*
X180145947Y-111248568D01*
X180145946Y-111248567D01*
X180145943Y-111248561D01*
X180060403Y-111120542D01*
X180039525Y-111053865D01*
X180058009Y-110986484D01*
X180109988Y-110939794D01*
X180116053Y-110937090D01*
X180219355Y-110894301D01*
X180219368Y-110894294D01*
X180391335Y-110779389D01*
X180391339Y-110779386D01*
X180537586Y-110633139D01*
X180537589Y-110633135D01*
X180652494Y-110461168D01*
X180652499Y-110461158D01*
X180731648Y-110270076D01*
X180731649Y-110270074D01*
X180742843Y-110213800D01*
X179771728Y-110213800D01*
X179863614Y-110175740D01*
X179933940Y-110105414D01*
X179972000Y-110013528D01*
X179972000Y-109914072D01*
X179933940Y-109822186D01*
X179863614Y-109751860D01*
X179771728Y-109713800D01*
X180742842Y-109713800D01*
X180742843Y-109713798D01*
X180731651Y-109657533D01*
X180731648Y-109657523D01*
X180652499Y-109466441D01*
X180652494Y-109466431D01*
X180537589Y-109294464D01*
X180537586Y-109294460D01*
X180391339Y-109148213D01*
X180391335Y-109148210D01*
X180219368Y-109033305D01*
X180219358Y-109033300D01*
X180028274Y-108954150D01*
X180028266Y-108954148D01*
X179825420Y-108913800D01*
X179622000Y-108913800D01*
X179622000Y-109713800D01*
X179122000Y-109713800D01*
X179122000Y-108913800D01*
X178918579Y-108913800D01*
X178715733Y-108954148D01*
X178715725Y-108954150D01*
X178524641Y-109033300D01*
X178524631Y-109033305D01*
X178352664Y-109148210D01*
X178352660Y-109148213D01*
X178206413Y-109294460D01*
X178206410Y-109294464D01*
X178091505Y-109466431D01*
X178091500Y-109466441D01*
X178012351Y-109657523D01*
X178012350Y-109657525D01*
X178001157Y-109713800D01*
X170225500Y-109713800D01*
X170225500Y-109517882D01*
X170245185Y-109450843D01*
X170261819Y-109430201D01*
X170551399Y-109140621D01*
X170880520Y-108811501D01*
X170959577Y-108674569D01*
X171000501Y-108521842D01*
X171000501Y-108363727D01*
X171000501Y-108356132D01*
X171000500Y-108356114D01*
X171000500Y-108091767D01*
X171005745Y-108073901D01*
X171005989Y-108055284D01*
X171019648Y-108026556D01*
X171020185Y-108024728D01*
X171020951Y-108023553D01*
X173708300Y-108023553D01*
X173708300Y-108181246D01*
X173739061Y-108335889D01*
X173739064Y-108335901D01*
X173799402Y-108481572D01*
X173799409Y-108481585D01*
X173887010Y-108612688D01*
X173887013Y-108612692D01*
X173998507Y-108724186D01*
X173998511Y-108724189D01*
X174129614Y-108811790D01*
X174129627Y-108811797D01*
X174275298Y-108872135D01*
X174275303Y-108872137D01*
X174429953Y-108902899D01*
X174429956Y-108902900D01*
X174429958Y-108902900D01*
X174587644Y-108902900D01*
X174587645Y-108902899D01*
X174742297Y-108872137D01*
X174887979Y-108811794D01*
X175019089Y-108724189D01*
X175130589Y-108612689D01*
X175218194Y-108481579D01*
X175218574Y-108480663D01*
X175252593Y-108398531D01*
X175278537Y-108335897D01*
X175309300Y-108181242D01*
X175309300Y-108023558D01*
X175309300Y-108023555D01*
X175309299Y-108023553D01*
X175296158Y-107957488D01*
X175278537Y-107868903D01*
X175257104Y-107817159D01*
X175218197Y-107723227D01*
X175218190Y-107723214D01*
X175130589Y-107592111D01*
X175130586Y-107592107D01*
X175019092Y-107480613D01*
X175019088Y-107480610D01*
X174887985Y-107393009D01*
X174887972Y-107393002D01*
X174742301Y-107332664D01*
X174742289Y-107332661D01*
X174587645Y-107301900D01*
X174587642Y-107301900D01*
X174429958Y-107301900D01*
X174429955Y-107301900D01*
X174275310Y-107332661D01*
X174275298Y-107332664D01*
X174129627Y-107393002D01*
X174129614Y-107393009D01*
X173998511Y-107480610D01*
X173998507Y-107480613D01*
X173887013Y-107592107D01*
X173887010Y-107592111D01*
X173799409Y-107723214D01*
X173799402Y-107723227D01*
X173739064Y-107868898D01*
X173739061Y-107868910D01*
X173708300Y-108023553D01*
X171020951Y-108023553D01*
X171021068Y-108023373D01*
X171021274Y-108023060D01*
X171065084Y-107957495D01*
X171121658Y-107820913D01*
X171139375Y-107731847D01*
X171150500Y-107675920D01*
X171150500Y-107528079D01*
X171121659Y-107383092D01*
X171121658Y-107383091D01*
X171121658Y-107383087D01*
X171120106Y-107379339D01*
X171065087Y-107246511D01*
X171065080Y-107246498D01*
X170982951Y-107123584D01*
X170982948Y-107123580D01*
X170878419Y-107019051D01*
X170878415Y-107019048D01*
X170755501Y-106936919D01*
X170755488Y-106936912D01*
X170618917Y-106880343D01*
X170618907Y-106880340D01*
X170473920Y-106851500D01*
X170473918Y-106851500D01*
X170326082Y-106851500D01*
X170326080Y-106851500D01*
X170181092Y-106880340D01*
X170181082Y-106880343D01*
X170044511Y-106936912D01*
X170044498Y-106936919D01*
X169921584Y-107019048D01*
X169921580Y-107019051D01*
X169817051Y-107123580D01*
X169817048Y-107123584D01*
X169734919Y-107246498D01*
X169734912Y-107246511D01*
X169678343Y-107383082D01*
X169678340Y-107383092D01*
X169649500Y-107528079D01*
X169649500Y-107528082D01*
X169649500Y-107675918D01*
X169649500Y-107675920D01*
X169649499Y-107675920D01*
X169678340Y-107820907D01*
X169678343Y-107820917D01*
X169734912Y-107957488D01*
X169734919Y-107957501D01*
X169778602Y-108022876D01*
X169784252Y-108040922D01*
X169794477Y-108056832D01*
X169798928Y-108087791D01*
X169799480Y-108089553D01*
X169799500Y-108091767D01*
X169799500Y-108142687D01*
X169779815Y-108209726D01*
X169763181Y-108230368D01*
X169144481Y-108849067D01*
X169144477Y-108849072D01*
X169130263Y-108873692D01*
X169130259Y-108873700D01*
X169126911Y-108879500D01*
X169065423Y-108986000D01*
X169041801Y-109074154D01*
X169037945Y-109082894D01*
X169021320Y-109102583D01*
X169007909Y-109124586D01*
X168999151Y-109128839D01*
X168992870Y-109136280D01*
X168968237Y-109143856D01*
X168945062Y-109155115D01*
X168935395Y-109153959D01*
X168926089Y-109156822D01*
X168901271Y-109149879D01*
X168875687Y-109146820D01*
X168868179Y-109140621D01*
X168858802Y-109137998D01*
X168841677Y-109118739D01*
X168821809Y-109102334D01*
X168818844Y-109093059D01*
X168812375Y-109085784D01*
X168808381Y-109060327D01*
X168800535Y-109035782D01*
X168800500Y-109032832D01*
X168800500Y-105693920D01*
X171249499Y-105693920D01*
X171278340Y-105838907D01*
X171278343Y-105838917D01*
X171334912Y-105975488D01*
X171334919Y-105975501D01*
X171417048Y-106098415D01*
X171417051Y-106098419D01*
X171521580Y-106202948D01*
X171521584Y-106202951D01*
X171644498Y-106285080D01*
X171644511Y-106285087D01*
X171768818Y-106336576D01*
X171781087Y-106341658D01*
X171781091Y-106341658D01*
X171781092Y-106341659D01*
X171926079Y-106370500D01*
X171926082Y-106370500D01*
X172073920Y-106370500D01*
X172177911Y-106349814D01*
X172218913Y-106341658D01*
X172355495Y-106285084D01*
X172478416Y-106202951D01*
X172582951Y-106098416D01*
X172665084Y-105975495D01*
X172721658Y-105838913D01*
X172743381Y-105729707D01*
X172750500Y-105693920D01*
X173749499Y-105693920D01*
X173778340Y-105838907D01*
X173778343Y-105838917D01*
X173834912Y-105975488D01*
X173834919Y-105975501D01*
X173917048Y-106098415D01*
X173917051Y-106098419D01*
X174021580Y-106202948D01*
X174021584Y-106202951D01*
X174144498Y-106285080D01*
X174144511Y-106285087D01*
X174268818Y-106336576D01*
X174281087Y-106341658D01*
X174281091Y-106341658D01*
X174281092Y-106341659D01*
X174426079Y-106370500D01*
X174426082Y-106370500D01*
X174573920Y-106370500D01*
X174677911Y-106349814D01*
X174718913Y-106341658D01*
X174855495Y-106285084D01*
X174978416Y-106202951D01*
X175082951Y-106098416D01*
X175165084Y-105975495D01*
X175221658Y-105838913D01*
X175243381Y-105729707D01*
X175250500Y-105693920D01*
X175250500Y-105546079D01*
X175221659Y-105401092D01*
X175221658Y-105401091D01*
X175221658Y-105401087D01*
X175221656Y-105401082D01*
X175165087Y-105264511D01*
X175165080Y-105264498D01*
X175082951Y-105141584D01*
X175082948Y-105141580D01*
X174978419Y-105037051D01*
X174978415Y-105037048D01*
X174855501Y-104954919D01*
X174855488Y-104954912D01*
X174718917Y-104898343D01*
X174718907Y-104898340D01*
X174573920Y-104869500D01*
X174573918Y-104869500D01*
X174426082Y-104869500D01*
X174426080Y-104869500D01*
X174281092Y-104898340D01*
X174281082Y-104898343D01*
X174144511Y-104954912D01*
X174144498Y-104954919D01*
X174021584Y-105037048D01*
X174021580Y-105037051D01*
X173917051Y-105141580D01*
X173917048Y-105141584D01*
X173834919Y-105264498D01*
X173834912Y-105264511D01*
X173778343Y-105401082D01*
X173778340Y-105401092D01*
X173749500Y-105546079D01*
X173749500Y-105546082D01*
X173749500Y-105693918D01*
X173749500Y-105693920D01*
X173749499Y-105693920D01*
X172750500Y-105693920D01*
X172750500Y-105546079D01*
X172721659Y-105401092D01*
X172721658Y-105401091D01*
X172721658Y-105401087D01*
X172721656Y-105401082D01*
X172665087Y-105264511D01*
X172665080Y-105264498D01*
X172582951Y-105141584D01*
X172582948Y-105141580D01*
X172478419Y-105037051D01*
X172478415Y-105037048D01*
X172355501Y-104954919D01*
X172355488Y-104954912D01*
X172218917Y-104898343D01*
X172218907Y-104898340D01*
X172073920Y-104869500D01*
X172073918Y-104869500D01*
X171926082Y-104869500D01*
X171926080Y-104869500D01*
X171781092Y-104898340D01*
X171781082Y-104898343D01*
X171644511Y-104954912D01*
X171644498Y-104954919D01*
X171521584Y-105037048D01*
X171521580Y-105037051D01*
X171417051Y-105141580D01*
X171417048Y-105141584D01*
X171334919Y-105264498D01*
X171334912Y-105264511D01*
X171278343Y-105401082D01*
X171278340Y-105401092D01*
X171249500Y-105546079D01*
X171249500Y-105546082D01*
X171249500Y-105693918D01*
X171249500Y-105693920D01*
X171249499Y-105693920D01*
X168800500Y-105693920D01*
X168800500Y-104724096D01*
X168820185Y-104657057D01*
X168836815Y-104636419D01*
X169440301Y-104032932D01*
X169501622Y-103999449D01*
X169503644Y-103999027D01*
X169580913Y-103983658D01*
X169717495Y-103927084D01*
X169840416Y-103844951D01*
X169944951Y-103740416D01*
X170027084Y-103617495D01*
X170083658Y-103480913D01*
X170112500Y-103335918D01*
X170112500Y-103188082D01*
X170112500Y-103188079D01*
X170083659Y-103043092D01*
X170083658Y-103043091D01*
X170083658Y-103043087D01*
X170058442Y-102982210D01*
X170027087Y-102906511D01*
X170027080Y-102906498D01*
X169944951Y-102783584D01*
X169944948Y-102783580D01*
X169840419Y-102679051D01*
X169840415Y-102679048D01*
X169717501Y-102596919D01*
X169717488Y-102596912D01*
X169580917Y-102540343D01*
X169580907Y-102540340D01*
X169435920Y-102511500D01*
X169435918Y-102511500D01*
X169288082Y-102511500D01*
X169288080Y-102511500D01*
X169143092Y-102540340D01*
X169143082Y-102540343D01*
X169006511Y-102596912D01*
X169006498Y-102596919D01*
X168883584Y-102679048D01*
X168883580Y-102679051D01*
X168779051Y-102783580D01*
X168779048Y-102783584D01*
X168696919Y-102906498D01*
X168696912Y-102906511D01*
X168640342Y-103043084D01*
X168640340Y-103043092D01*
X168625000Y-103120210D01*
X168592615Y-103182121D01*
X168591064Y-103183699D01*
X167831286Y-103943478D01*
X167719481Y-104055282D01*
X167719480Y-104055284D01*
X167682150Y-104119943D01*
X167669361Y-104142094D01*
X167669359Y-104142096D01*
X167640425Y-104192209D01*
X167640424Y-104192210D01*
X167628070Y-104238317D01*
X167599499Y-104344943D01*
X167599499Y-104344945D01*
X167599499Y-104513046D01*
X167599500Y-104513059D01*
X167599500Y-120619903D01*
X167579815Y-120686942D01*
X167563181Y-120707584D01*
X167131381Y-121139384D01*
X167070058Y-121172869D01*
X167000366Y-121167885D01*
X166944433Y-121126013D01*
X166920016Y-121060549D01*
X166919700Y-121051703D01*
X166919700Y-119412567D01*
X166939385Y-119345528D01*
X166940598Y-119343676D01*
X166984280Y-119278301D01*
X166984280Y-119278300D01*
X166984284Y-119278295D01*
X167040858Y-119141713D01*
X167066047Y-119015083D01*
X167069700Y-118996720D01*
X167069700Y-118848879D01*
X167040859Y-118703892D01*
X167040858Y-118703891D01*
X167040858Y-118703887D01*
X167040822Y-118703800D01*
X166984287Y-118567311D01*
X166984280Y-118567298D01*
X166902151Y-118444384D01*
X166902148Y-118444380D01*
X166797619Y-118339851D01*
X166797615Y-118339848D01*
X166674701Y-118257719D01*
X166674688Y-118257712D01*
X166538117Y-118201143D01*
X166538107Y-118201140D01*
X166393120Y-118172300D01*
X166393118Y-118172300D01*
X166245282Y-118172300D01*
X166245280Y-118172300D01*
X166100292Y-118201140D01*
X166100282Y-118201143D01*
X165963711Y-118257712D01*
X165963698Y-118257719D01*
X165840784Y-118339848D01*
X165840780Y-118339851D01*
X165736251Y-118444380D01*
X165736248Y-118444384D01*
X165654119Y-118567298D01*
X165654112Y-118567311D01*
X165597543Y-118703882D01*
X165597540Y-118703892D01*
X165568700Y-118848879D01*
X165568700Y-118848882D01*
X165568700Y-118996718D01*
X165568700Y-118996720D01*
X165568699Y-118996720D01*
X165597540Y-119141707D01*
X165597543Y-119141717D01*
X165654112Y-119278288D01*
X165654119Y-119278301D01*
X165697802Y-119343676D01*
X165718680Y-119410353D01*
X165718700Y-119412567D01*
X165718700Y-121760702D01*
X165699015Y-121827741D01*
X165682381Y-121848383D01*
X165212181Y-122318583D01*
X165150858Y-122352068D01*
X165081166Y-122347084D01*
X165025233Y-122305212D01*
X165000816Y-122239748D01*
X165000500Y-122230902D01*
X165000500Y-106024096D01*
X165020185Y-105957057D01*
X165036814Y-105936420D01*
X167078301Y-103894932D01*
X167139622Y-103861449D01*
X167141644Y-103861027D01*
X167218913Y-103845658D01*
X167355495Y-103789084D01*
X167478416Y-103706951D01*
X167582951Y-103602416D01*
X167665084Y-103479495D01*
X167721658Y-103342913D01*
X167749520Y-103202846D01*
X167750500Y-103197920D01*
X167750500Y-103050079D01*
X167721659Y-102905092D01*
X167721658Y-102905091D01*
X167721658Y-102905087D01*
X167707621Y-102871198D01*
X167665087Y-102768511D01*
X167665080Y-102768498D01*
X167582951Y-102645584D01*
X167582948Y-102645580D01*
X167478419Y-102541051D01*
X167478415Y-102541048D01*
X167383462Y-102477602D01*
X167338657Y-102423990D01*
X167329950Y-102354665D01*
X167360105Y-102291637D01*
X167419548Y-102254918D01*
X167452353Y-102250500D01*
X171547647Y-102250500D01*
X171614686Y-102270185D01*
G37*
%TD.AperFunction*%
%TA.AperFunction,Conductor*%
G36*
X171542366Y-123821794D02*
G01*
X171576189Y-123823607D01*
X171577122Y-123824279D01*
X171578269Y-123824362D01*
X171605373Y-123844651D01*
X171632861Y-123864473D01*
X171633282Y-123865543D01*
X171634203Y-123866233D01*
X171646043Y-123897977D01*
X171658442Y-123929491D01*
X171658360Y-123931002D01*
X171658620Y-123931697D01*
X171656553Y-123964735D01*
X171635397Y-124071093D01*
X171635397Y-124071098D01*
X171635397Y-124218934D01*
X171635397Y-124218936D01*
X171635396Y-124218936D01*
X171664237Y-124363923D01*
X171664240Y-124363933D01*
X171720810Y-124500506D01*
X171723062Y-124504719D01*
X171737301Y-124573122D01*
X171728262Y-124610620D01*
X171680264Y-124726498D01*
X171680261Y-124726510D01*
X171649500Y-124881153D01*
X171649500Y-125038000D01*
X171629815Y-125105039D01*
X171577011Y-125150794D01*
X171525500Y-125162000D01*
X171454500Y-125162000D01*
X171387461Y-125142315D01*
X171341706Y-125089511D01*
X171330500Y-125038000D01*
X171330500Y-124020981D01*
X171350185Y-123953942D01*
X171366813Y-123933305D01*
X171447258Y-123852860D01*
X171477007Y-123836616D01*
X171506419Y-123819868D01*
X171507566Y-123819929D01*
X171508577Y-123819378D01*
X171542366Y-123821794D01*
G37*
%TD.AperFunction*%
%TA.AperFunction,Conductor*%
G36*
X161848820Y-121703114D02*
G01*
X161850247Y-121702909D01*
X161880051Y-121711085D01*
X161945712Y-121738283D01*
X161945716Y-121738283D01*
X161945717Y-121738284D01*
X162090704Y-121767125D01*
X162244635Y-121767125D01*
X162244635Y-121768829D01*
X162305282Y-121780323D01*
X162355998Y-121828382D01*
X162370420Y-121866522D01*
X162399340Y-122011907D01*
X162399343Y-122011917D01*
X162455912Y-122148488D01*
X162455919Y-122148501D01*
X162538048Y-122271415D01*
X162538051Y-122271419D01*
X162642580Y-122375948D01*
X162642584Y-122375951D01*
X162765498Y-122458080D01*
X162765511Y-122458087D01*
X162895501Y-122511930D01*
X162902087Y-122514658D01*
X162902091Y-122514658D01*
X162902092Y-122514659D01*
X163047079Y-122543500D01*
X163047082Y-122543500D01*
X163194920Y-122543500D01*
X163292462Y-122524096D01*
X163339913Y-122514658D01*
X163476495Y-122458084D01*
X163504912Y-122439096D01*
X163571587Y-122418218D01*
X163638968Y-122436701D01*
X163685659Y-122488679D01*
X163696837Y-122557649D01*
X163688365Y-122589649D01*
X163667142Y-122640887D01*
X163667140Y-122640892D01*
X163638300Y-122785879D01*
X163638300Y-122785882D01*
X163638300Y-122933718D01*
X163638300Y-122933720D01*
X163638299Y-122933720D01*
X163667140Y-123078707D01*
X163667143Y-123078717D01*
X163723712Y-123215288D01*
X163723719Y-123215301D01*
X163805848Y-123338215D01*
X163805851Y-123338219D01*
X163911517Y-123443885D01*
X163945002Y-123505208D01*
X163940018Y-123574900D01*
X163911517Y-123619247D01*
X162797181Y-124733583D01*
X162735858Y-124767068D01*
X162666166Y-124762084D01*
X162610233Y-124720212D01*
X162585816Y-124654748D01*
X162585500Y-124645902D01*
X162585500Y-124493576D01*
X162556659Y-124348589D01*
X162556658Y-124348588D01*
X162556658Y-124348584D01*
X162544369Y-124318916D01*
X162500087Y-124212008D01*
X162500080Y-124211995D01*
X162417951Y-124089081D01*
X162417948Y-124089077D01*
X162313419Y-123984548D01*
X162313415Y-123984545D01*
X162190501Y-123902416D01*
X162190488Y-123902409D01*
X162053917Y-123845840D01*
X162053907Y-123845837D01*
X161976788Y-123830497D01*
X161914877Y-123798112D01*
X161913299Y-123796561D01*
X161744919Y-123628181D01*
X161711434Y-123566858D01*
X161708600Y-123540500D01*
X161708600Y-121825647D01*
X161717841Y-121794173D01*
X161725958Y-121762374D01*
X161727638Y-121760809D01*
X161728285Y-121758608D01*
X161753066Y-121737134D01*
X161777095Y-121714763D01*
X161779355Y-121714355D01*
X161781089Y-121712853D01*
X161813552Y-121708185D01*
X161845855Y-121702357D01*
X161848820Y-121703114D01*
G37*
%TD.AperFunction*%
%TA.AperFunction,Conductor*%
G36*
X166557834Y-123513914D02*
G01*
X166613767Y-123555786D01*
X166638184Y-123621250D01*
X166638500Y-123630096D01*
X166638500Y-123790588D01*
X166618815Y-123857627D01*
X166602181Y-123878269D01*
X166108807Y-124371642D01*
X166047484Y-124405127D01*
X165977792Y-124400143D01*
X165921859Y-124358271D01*
X165897442Y-124292807D01*
X165912294Y-124224534D01*
X165918018Y-124215079D01*
X165940709Y-124181120D01*
X165997283Y-124044538D01*
X166007968Y-123990818D01*
X166040352Y-123928909D01*
X166041904Y-123927330D01*
X166310116Y-123659118D01*
X166426820Y-123542414D01*
X166488142Y-123508930D01*
X166557834Y-123513914D01*
G37*
%TD.AperFunction*%
%TA.AperFunction,Conductor*%
G36*
X176969442Y-121277004D02*
G01*
X176991959Y-121294820D01*
X177453381Y-121756242D01*
X177468084Y-121783169D01*
X177484677Y-121808988D01*
X177485568Y-121815188D01*
X177486866Y-121817565D01*
X177489700Y-121843923D01*
X177489700Y-121894767D01*
X177470015Y-121961806D01*
X177417211Y-122007561D01*
X177348053Y-122017505D01*
X177284497Y-121988480D01*
X177278019Y-121982448D01*
X176786119Y-121490548D01*
X176752634Y-121429225D01*
X176757618Y-121359533D01*
X176799490Y-121303600D01*
X176804906Y-121299767D01*
X176806495Y-121298704D01*
X176835387Y-121279399D01*
X176902061Y-121258521D01*
X176969442Y-121277004D01*
G37*
%TD.AperFunction*%
%TA.AperFunction,Conductor*%
G36*
X170365719Y-116361785D02*
G01*
X170367147Y-116361580D01*
X170396945Y-116369754D01*
X170434992Y-116385514D01*
X170547969Y-116407987D01*
X170609880Y-116440372D01*
X170611459Y-116441923D01*
X170625056Y-116455520D01*
X170711867Y-116505639D01*
X170711869Y-116505641D01*
X170749923Y-116527611D01*
X170761987Y-116534577D01*
X170914715Y-116575500D01*
X172221277Y-116575500D01*
X172288316Y-116595185D01*
X172308958Y-116611819D01*
X175705179Y-120008040D01*
X175720392Y-120035900D01*
X175737079Y-120062914D01*
X175737017Y-120066348D01*
X175738664Y-120069363D01*
X175736399Y-120101033D01*
X175735833Y-120132773D01*
X175733829Y-120136960D01*
X175733680Y-120139055D01*
X175720601Y-120164611D01*
X175700236Y-120195090D01*
X175646624Y-120239895D01*
X175577299Y-120248604D01*
X175514271Y-120218449D01*
X175509452Y-120213881D01*
X173034018Y-117738447D01*
X173034016Y-117738444D01*
X172915145Y-117619573D01*
X172915144Y-117619572D01*
X172828332Y-117569452D01*
X172828332Y-117569451D01*
X172828328Y-117569450D01*
X172778213Y-117540515D01*
X172625485Y-117499591D01*
X172467371Y-117499591D01*
X172459775Y-117499591D01*
X172459759Y-117499592D01*
X170781663Y-117499592D01*
X170714624Y-117479907D01*
X170712811Y-117478719D01*
X170625854Y-117420617D01*
X170625853Y-117420616D01*
X170625851Y-117420615D01*
X170489276Y-117364044D01*
X170489266Y-117364041D01*
X170344279Y-117335200D01*
X170338217Y-117334604D01*
X170338476Y-117331964D01*
X170282461Y-117315516D01*
X170236706Y-117262712D01*
X170225500Y-117211201D01*
X170225500Y-116484318D01*
X170234742Y-116452840D01*
X170242859Y-116421043D01*
X170244539Y-116419478D01*
X170245185Y-116417279D01*
X170269965Y-116395806D01*
X170293997Y-116373433D01*
X170296256Y-116373025D01*
X170297989Y-116371524D01*
X170330461Y-116366854D01*
X170362756Y-116361029D01*
X170365719Y-116361785D01*
G37*
%TD.AperFunction*%
%TA.AperFunction,Conductor*%
G36*
X161849107Y-108159718D02*
G01*
X161850247Y-108159555D01*
X161881067Y-108173630D01*
X161912118Y-108187146D01*
X161913129Y-108188272D01*
X161913803Y-108188580D01*
X161935701Y-108213401D01*
X161947038Y-108230368D01*
X161989556Y-108294001D01*
X162094086Y-108398531D01*
X162094090Y-108398534D01*
X162217004Y-108480663D01*
X162217017Y-108480670D01*
X162316416Y-108521842D01*
X162353593Y-108537241D01*
X162353597Y-108537241D01*
X162353598Y-108537242D01*
X162498585Y-108566083D01*
X162498588Y-108566083D01*
X162646426Y-108566083D01*
X162676308Y-108560139D01*
X162745900Y-108566366D01*
X162801077Y-108609229D01*
X162824322Y-108675118D01*
X162824500Y-108681756D01*
X162824500Y-112516274D01*
X162804815Y-112583313D01*
X162752011Y-112629068D01*
X162682853Y-112639012D01*
X162631610Y-112619376D01*
X162509106Y-112537522D01*
X162509088Y-112537512D01*
X162372517Y-112480943D01*
X162372507Y-112480940D01*
X162227520Y-112452100D01*
X162227518Y-112452100D01*
X162079682Y-112452100D01*
X162079680Y-112452100D01*
X161934692Y-112480940D01*
X161934682Y-112480943D01*
X161880052Y-112503572D01*
X161810583Y-112511041D01*
X161748104Y-112479766D01*
X161712452Y-112419676D01*
X161708600Y-112389011D01*
X161708600Y-108282293D01*
X161718143Y-108249792D01*
X161727105Y-108217126D01*
X161727961Y-108216356D01*
X161728285Y-108215254D01*
X161753869Y-108193085D01*
X161779084Y-108170436D01*
X161780220Y-108170251D01*
X161781089Y-108169499D01*
X161814620Y-108164677D01*
X161848054Y-108159260D01*
X161849107Y-108159718D01*
G37*
%TD.AperFunction*%
%TA.AperFunction,Conductor*%
G36*
X164114686Y-102270185D02*
G01*
X164160441Y-102322989D01*
X164170385Y-102392147D01*
X164141360Y-102455703D01*
X164116538Y-102477602D01*
X164021584Y-102541048D01*
X164021580Y-102541051D01*
X163917051Y-102645580D01*
X163917048Y-102645584D01*
X163834919Y-102768498D01*
X163834912Y-102768511D01*
X163778342Y-102905084D01*
X163778340Y-102905090D01*
X163763000Y-102982210D01*
X163730614Y-103044120D01*
X163729064Y-103045698D01*
X163056286Y-103718478D01*
X162944481Y-103830282D01*
X162944479Y-103830285D01*
X162936014Y-103844948D01*
X162911446Y-103887501D01*
X162865423Y-103967215D01*
X162824499Y-104119943D01*
X162824499Y-104119945D01*
X162824499Y-104288046D01*
X162824500Y-104288059D01*
X162824500Y-106949410D01*
X162804815Y-107016449D01*
X162752011Y-107062204D01*
X162682853Y-107072148D01*
X162676308Y-107071027D01*
X162646426Y-107065083D01*
X162646424Y-107065083D01*
X162498588Y-107065083D01*
X162498586Y-107065083D01*
X162353598Y-107093923D01*
X162353588Y-107093926D01*
X162217017Y-107150495D01*
X162217004Y-107150502D01*
X162094090Y-107232631D01*
X162094086Y-107232634D01*
X161989557Y-107337163D01*
X161989554Y-107337167D01*
X161935702Y-107417763D01*
X161882090Y-107462568D01*
X161812765Y-107471275D01*
X161749737Y-107441121D01*
X161713018Y-107381678D01*
X161708600Y-107348872D01*
X161708600Y-104325998D01*
X161728285Y-104258959D01*
X161744915Y-104238321D01*
X162088303Y-103894932D01*
X162149624Y-103861449D01*
X162151646Y-103861027D01*
X162228915Y-103845658D01*
X162365497Y-103789084D01*
X162488418Y-103706951D01*
X162592953Y-103602416D01*
X162675086Y-103479495D01*
X162731660Y-103342913D01*
X162759522Y-103202846D01*
X162760502Y-103197920D01*
X162760502Y-103050079D01*
X162731661Y-102905092D01*
X162731660Y-102905091D01*
X162731660Y-102905087D01*
X162717623Y-102871198D01*
X162675089Y-102768511D01*
X162675082Y-102768498D01*
X162592953Y-102645584D01*
X162592950Y-102645580D01*
X162488421Y-102541051D01*
X162488417Y-102541048D01*
X162393464Y-102477602D01*
X162348659Y-102423990D01*
X162339952Y-102354665D01*
X162370107Y-102291637D01*
X162429550Y-102254918D01*
X162462355Y-102250500D01*
X164047647Y-102250500D01*
X164114686Y-102270185D01*
G37*
%TD.AperFunction*%
%TD*%
M02*
