M48
; DRILL file {KiCad 9.0.4} date 2025-11-28T22:46:08-0500
; FORMAT={-:-/ absolute / inch / decimal}
; #@! TF.CreationDate,2025-11-28T22:46:08-05:00
; #@! TF.GenerationSoftware,Kicad,Pcbnew,9.0.4
; #@! TF.FileFunction,Plated,1,4,PTH
FMAT,2
INCH
; #@! TA.AperFunction,Plated,PTH,ViaDrill
T1C0.0118
; #@! TA.AperFunction,Plated,PTH,ComponentDrill
T2C0.0118
; #@! TA.AperFunction,Plated,PTH,ComponentDrill
T3C0.0197
; #@! TA.AperFunction,Plated,PTH,ComponentDrill
T4C0.1693
%
G90
G05
T1
X5.8512Y-4.2921
X5.8512Y-4.3906
X5.8512Y-4.489
X5.8512Y-4.5874
X5.8512Y-4.6858
X5.8512Y-4.7843
X5.8512Y-4.8827
X5.8512Y-4.9811
X5.8512Y-5.178
X5.8537Y-5.077
X5.9012Y-4.6791
X5.9161Y-5.0996
X5.9213Y-4.4606
X5.9563Y-5.1894
X5.9859Y-4.9788
X5.9921Y-4.3331
X5.9935Y-4.7829
X5.9937Y-4.8858
X5.9955Y-4.9201
X6.0195Y-5.0476
X6.0261Y-5.1133
X6.03Y-5.1572
X6.0559Y-4.2848
X6.066Y-4.9583
X6.0984Y-4.6024
X6.104Y-4.7531
X6.1154Y-4.1827
X6.1154Y-4.2606
X6.1319Y-4.9154
X6.1319Y-4.8827
X6.1463Y-4.3183
X6.1496Y-4.6654
X6.1811Y-4.06
X6.1835Y-5.2473
X6.1843Y-4.448
X6.1939Y-4.41
X6.1954Y-5.1374
X6.1969Y-4.5079
X6.1992Y-5.0713
X6.2Y-4.1827
X6.2Y-4.2598
X6.2245Y-5.1489
X6.229Y-4.1925
X6.2296Y-4.6154
X6.2427Y-5.0182
X6.2511Y-5.2613
X6.2529Y-5.0442
X6.254Y-4.561
X6.2584Y-4.2165
X6.2795Y-4.06
X6.2795Y-4.1583
X6.2795Y-5.3189
X6.2795Y-5.4087
X6.2913Y-5.2598
X6.2929Y-5.0732
X6.3008Y-4.3122
X6.3027Y-4.7266
X6.3027Y-4.7846
X6.306Y-5.139
X6.3151Y-4.2362
X6.3342Y-4.9006
X6.3694Y-5.0191
X6.3715Y-4.9042
X6.3716Y-5.1948
X6.375Y-5.0606
X6.378Y-4.1583
X6.378Y-5.4087
X6.3783Y-4.06
X6.384Y-4.4568
X6.384Y-4.718
X6.3844Y-4.7644
X6.3992Y-4.2898
X6.4Y-4.875
X6.4005Y-4.2447
X6.4106Y-4.6876
X6.4221Y-4.795
X6.4319Y-5.2261
X6.472Y-4.837
X6.4764Y-4.06
X6.4764Y-5.3101
X6.4874Y-5.2343
X6.5008Y-5.3835
X6.5069Y-4.875
X6.5256Y-5.248
X6.5276Y-4.8976
X6.5322Y-5.1014
X6.548Y-4.682
X6.55Y-5.4087
X6.57Y-4.7707
X6.5748Y-4.06
X6.5748Y-5.3101
X6.5984Y-5.2224
X6.6063Y-4.8686
X6.6441Y-4.2728
X6.6467Y-5.3421
X6.6565Y-5.0236
X6.6678Y-4.0654
X6.6732Y-5.2579
X6.6732Y-5.4087
X6.6815Y-4.9469
X6.6832Y-4.1513
X6.7036Y-4.649
X6.7087Y-4.2363
X6.7165Y-4.8373
X6.718Y-4.7933
X6.7187Y-4.5537
X6.7217Y-5.3445
X6.7232Y-5.3788
X6.7261Y-4.7452
X6.7294Y-4.4981
X6.7354Y-4.678
X6.75Y-4.9592
X6.7504Y-5.133
X6.755Y-4.893
X6.7555Y-4.8138
X6.7569Y-4.4567
X6.7569Y-4.7126
X6.7717Y-4.06
X6.7717Y-4.1583
X6.7717Y-5.4087
X6.772Y-4.256
X6.772Y-5.3189
X6.7868Y-4.8876
X6.7894Y-4.9197
X6.8053Y-5.0839
X6.8053Y-5.133
X6.8053Y-5.1878
X6.8096Y-4.8713
X6.8415Y-4.7805
X6.8437Y-4.3642
X6.8555Y-4.5382
X6.8654Y-4.8597
X6.8665Y-5.133
X6.8701Y-4.06
X6.8701Y-4.1583
X6.8704Y-4.256
X6.8945Y-4.3169
X6.92Y-4.725
X6.935Y-5.1843
X6.939Y-4.9606
X6.944Y-4.7489
X6.9469Y-5.0269
X6.9488Y-4.3677
X6.9613Y-5.29
X6.9647Y-4.6849
X6.9685Y-4.9281
X6.9803Y-4.7953
X6.9955Y-5.0074
X7.0181Y-5.2457
X7.024Y-5.2
X7.095Y-4.8081
X7.095Y-4.8656
X7.095Y-4.923
X7.095Y-4.9805
X7.095Y-5.038
X7.095Y-5.0955
X7.095Y-5.153
X7.2Y-4.8335
X7.2Y-4.9319
X7.2Y-5.0303
X7.2Y-5.1287
T2
X6.8258Y-4.9419
X6.8691Y-4.9419
T4
X5.9252Y-4.1339
X5.9252Y-5.3346
X7.126Y-4.1339
X7.126Y-5.3346
X7.126Y-5.3346
T3
G00X7.0481Y-4.3293
M15
G01X7.0757Y-4.3293
M16
G05
G00X7.0481Y-4.7147
M15
G01X7.0757Y-4.7147
M16
G05
G00X7.1662Y-4.3293
M15
G01X7.1938Y-4.3293
M16
G05
G00X7.1662Y-4.7147
M15
G01X7.1938Y-4.7147
M16
G05
M30
