%TF.GenerationSoftware,KiCad,Pcbnew,9.0.4*%
%TF.CreationDate,2025-11-28T22:46:11-05:00*%
%TF.ProjectId,STM32H743VIT6 FC,53544d33-3248-4373-9433-564954362046,rev?*%
%TF.SameCoordinates,Original*%
%TF.FileFunction,Paste,Top*%
%TF.FilePolarity,Positive*%
%FSLAX46Y46*%
G04 Gerber Fmt 4.6, Leading zero omitted, Abs format (unit mm)*
G04 Created by KiCad (PCBNEW 9.0.4) date 2025-11-28 22:46:11*
%MOMM*%
%LPD*%
G01*
G04 APERTURE LIST*
G04 Aperture macros list*
%AMRoundRect*
0 Rectangle with rounded corners*
0 $1 Rounding radius*
0 $2 $3 $4 $5 $6 $7 $8 $9 X,Y pos of 4 corners*
0 Add a 4 corners polygon primitive as box body*
4,1,4,$2,$3,$4,$5,$6,$7,$8,$9,$2,$3,0*
0 Add four circle primitives for the rounded corners*
1,1,$1+$1,$2,$3*
1,1,$1+$1,$4,$5*
1,1,$1+$1,$6,$7*
1,1,$1+$1,$8,$9*
0 Add four rect primitives between the rounded corners*
20,1,$1+$1,$2,$3,$4,$5,0*
20,1,$1+$1,$4,$5,$6,$7,0*
20,1,$1+$1,$6,$7,$8,$9,0*
20,1,$1+$1,$8,$9,$2,$3,0*%
G04 Aperture macros list end*
%ADD10C,0.010000*%
%ADD11RoundRect,0.250000X0.550000X-0.550000X0.550000X0.550000X-0.550000X0.550000X-0.550000X-0.550000X0*%
%ADD12RoundRect,0.250000X-0.550000X0.550000X-0.550000X-0.550000X0.550000X-0.550000X0.550000X0.550000X0*%
%ADD13RoundRect,0.250000X-0.550000X-0.550000X0.550000X-0.550000X0.550000X0.550000X-0.550000X0.550000X0*%
%ADD14RoundRect,0.250000X0.550000X0.550000X-0.550000X0.550000X-0.550000X-0.550000X0.550000X-0.550000X0*%
%ADD15RoundRect,0.237500X-0.250000X-0.237500X0.250000X-0.237500X0.250000X0.237500X-0.250000X0.237500X0*%
%ADD16RoundRect,0.237500X-0.300000X-0.237500X0.300000X-0.237500X0.300000X0.237500X-0.300000X0.237500X0*%
%ADD17RoundRect,0.150000X0.512500X0.150000X-0.512500X0.150000X-0.512500X-0.150000X0.512500X-0.150000X0*%
%ADD18RoundRect,0.237500X0.287500X0.237500X-0.287500X0.237500X-0.287500X-0.237500X0.287500X-0.237500X0*%
%ADD19RoundRect,0.172500X0.172500X-0.262500X0.172500X0.262500X-0.172500X0.262500X-0.172500X-0.262500X0*%
%ADD20RoundRect,0.093750X0.106250X-0.093750X0.106250X0.093750X-0.106250X0.093750X-0.106250X-0.093750X0*%
%ADD21RoundRect,0.237500X0.237500X-0.300000X0.237500X0.300000X-0.237500X0.300000X-0.237500X-0.300000X0*%
%ADD22RoundRect,0.237500X0.237500X-0.250000X0.237500X0.250000X-0.237500X0.250000X-0.237500X-0.250000X0*%
%ADD23RoundRect,0.052500X0.417500X0.157500X-0.417500X0.157500X-0.417500X-0.157500X0.417500X-0.157500X0*%
%ADD24R,1.550000X0.600000*%
%ADD25R,1.550000X0.300000*%
%ADD26RoundRect,0.237500X-0.237500X0.300000X-0.237500X-0.300000X0.237500X-0.300000X0.237500X0.300000X0*%
%ADD27R,1.900000X0.400000*%
%ADD28RoundRect,0.237500X0.300000X0.237500X-0.300000X0.237500X-0.300000X-0.237500X0.300000X-0.237500X0*%
%ADD29RoundRect,0.087500X-0.207500X-0.087500X0.207500X-0.087500X0.207500X0.087500X-0.207500X0.087500X0*%
%ADD30RoundRect,0.087500X-0.087500X-0.207500X0.087500X-0.207500X0.087500X0.207500X-0.087500X0.207500X0*%
%ADD31R,0.650000X1.050000*%
%ADD32RoundRect,0.237500X-0.237500X0.250000X-0.237500X-0.250000X0.237500X-0.250000X0.237500X0.250000X0*%
%ADD33RoundRect,0.150000X-0.150000X0.587500X-0.150000X-0.587500X0.150000X-0.587500X0.150000X0.587500X0*%
%ADD34RoundRect,0.075000X-0.725000X-0.075000X0.725000X-0.075000X0.725000X0.075000X-0.725000X0.075000X0*%
%ADD35RoundRect,0.075000X-0.075000X-0.725000X0.075000X-0.725000X0.075000X0.725000X-0.075000X0.725000X0*%
G04 APERTURE END LIST*
D10*
%TO.C,U_FLASH1*%
X172430800Y-129953200D02*
X170930800Y-129953200D01*
X170930800Y-128503200D01*
X172430800Y-128503200D01*
X172430800Y-129953200D01*
G36*
X172430800Y-129953200D02*
G01*
X170930800Y-129953200D01*
X170930800Y-128503200D01*
X172430800Y-128503200D01*
X172430800Y-129953200D01*
G37*
X172430800Y-132253200D02*
X170930800Y-132253200D01*
X170930800Y-130803200D01*
X172430800Y-130803200D01*
X172430800Y-132253200D01*
G36*
X172430800Y-132253200D02*
G01*
X170930800Y-132253200D01*
X170930800Y-130803200D01*
X172430800Y-130803200D01*
X172430800Y-132253200D01*
G37*
X174780800Y-129953200D02*
X173280800Y-129953200D01*
X173280800Y-128503200D01*
X174780800Y-128503200D01*
X174780800Y-129953200D01*
G36*
X174780800Y-129953200D02*
G01*
X173280800Y-129953200D01*
X173280800Y-128503200D01*
X174780800Y-128503200D01*
X174780800Y-129953200D01*
G37*
X174780800Y-132253200D02*
X173280800Y-132253200D01*
X173280800Y-130803200D01*
X174780800Y-130803200D01*
X174780800Y-132253200D01*
G36*
X174780800Y-132253200D02*
G01*
X173280800Y-132253200D01*
X173280800Y-130803200D01*
X174780800Y-130803200D01*
X174780800Y-132253200D01*
G37*
%TD*%
D11*
%TO.C,AVTX_J2*%
X148620000Y-109020000D03*
X148620000Y-111520000D03*
X148620000Y-114020000D03*
X148620000Y-116520000D03*
X148620000Y-119020000D03*
X148620000Y-121520000D03*
%TD*%
D12*
%TO.C,OTHER_J2*%
X148620000Y-131520000D03*
X148620000Y-129020000D03*
X148620000Y-126520000D03*
X148620000Y-124020000D03*
%TD*%
D13*
%TO.C,GPS_J2*%
X172000000Y-134876800D03*
X169500000Y-134876800D03*
X167000000Y-134876800D03*
X164500000Y-134876800D03*
X162000000Y-134876800D03*
X159500000Y-134876800D03*
%TD*%
%TO.C,VTX_J2*%
X172000000Y-137380000D03*
X169500000Y-137380000D03*
X167000000Y-137380000D03*
X164500000Y-137380000D03*
X162000000Y-137380000D03*
X159500000Y-137380000D03*
%TD*%
D12*
%TO.C,RX_J2*%
X182880000Y-130270000D03*
X182880000Y-127770000D03*
X182880000Y-125270000D03*
X182880000Y-122770000D03*
%TD*%
D14*
%TO.C,DEBUG_J2*%
X164508800Y-108102400D03*
X167008800Y-108102400D03*
X172008800Y-108102400D03*
X174508800Y-108102400D03*
%TD*%
%TO.C,CAM_J2*%
X159500000Y-105620000D03*
X162000000Y-105620000D03*
X164500000Y-105620000D03*
%TD*%
D13*
%TO.C,UART2_J2*%
X167000000Y-105620000D03*
X174500000Y-105620000D03*
X172000000Y-105620000D03*
X169500000Y-105620000D03*
%TD*%
D15*
%TO.C,MCU_R1*%
X159844100Y-108407200D03*
X161669100Y-108407200D03*
%TD*%
D16*
%TO.C,FLASH_C1*%
X174041900Y-134366000D03*
X175766900Y-134366000D03*
%TD*%
D15*
%TO.C,USB_R3*%
X171030000Y-112315400D03*
X172855000Y-112315400D03*
%TD*%
D17*
%TO.C,U2*%
X175130000Y-115800000D03*
X175130000Y-114850000D03*
X175130000Y-113900000D03*
X172855000Y-113900000D03*
X172855000Y-114850000D03*
X172855000Y-115800000D03*
%TD*%
D18*
%TO.C,5V_D1*%
X180214200Y-125045200D03*
X178464200Y-125045200D03*
%TD*%
%TO.C,3V3_D1*%
X180214200Y-122125200D03*
X178464200Y-122125200D03*
%TD*%
D16*
%TO.C,USB_C1*%
X171080000Y-118820000D03*
X172805000Y-118820000D03*
%TD*%
D19*
%TO.C,U_3V1*%
X173524200Y-125525300D03*
X174324200Y-125525300D03*
D20*
X173274200Y-126412800D03*
X173924200Y-126412800D03*
X174574200Y-126412800D03*
X174574200Y-124637800D03*
X173924200Y-124637800D03*
X173274200Y-124637800D03*
%TD*%
D21*
%TO.C,MCU_C3*%
X153820000Y-110560000D03*
X153820000Y-108835000D03*
%TD*%
D18*
%TO.C,MCU_D1*%
X180214200Y-130885200D03*
X178464200Y-130885200D03*
%TD*%
%TO.C,MCU_D3*%
X180214200Y-127965200D03*
X178464200Y-127965200D03*
%TD*%
%TO.C,9V_D1*%
X180214200Y-126505200D03*
X178464200Y-126505200D03*
%TD*%
D22*
%TO.C,USB_R1*%
X175130000Y-119197900D03*
X175130000Y-117372900D03*
%TD*%
D16*
%TO.C,MCU_C14*%
X171080000Y-110850000D03*
X172805000Y-110850000D03*
%TD*%
D21*
%TO.C,MCU_C6*%
X151173630Y-115098630D03*
X151173630Y-113373630D03*
%TD*%
D23*
%TO.C,U_FLASH1*%
X176750800Y-132283200D03*
X176750800Y-131013200D03*
X176750800Y-129743200D03*
X176750800Y-128473200D03*
X168960800Y-128473200D03*
X168960800Y-129743200D03*
X168960800Y-131013200D03*
X168960800Y-132283200D03*
%TD*%
D24*
%TO.C,J1*%
X177397000Y-118058800D03*
X177397000Y-117258800D03*
D25*
X177397000Y-116108800D03*
X177397000Y-115108800D03*
X177397000Y-114608800D03*
X177397000Y-113608800D03*
D24*
X177397000Y-111658800D03*
X177397000Y-112458800D03*
D25*
X177397000Y-113108800D03*
X177397000Y-114108800D03*
X177397000Y-115608800D03*
X177397000Y-116608800D03*
%TD*%
D26*
%TO.C,IMU_C1*%
X163310955Y-130222902D03*
X163310955Y-131947902D03*
%TD*%
%TO.C,MCU_C11*%
X151240000Y-127780000D03*
X151240000Y-129505000D03*
%TD*%
D27*
%TO.C,Y_MCU1*%
X151240000Y-117160000D03*
X151240000Y-118360000D03*
X151240000Y-119560000D03*
%TD*%
D28*
%TO.C,MCU_C13*%
X163650600Y-128540000D03*
X161925600Y-128540000D03*
%TD*%
D18*
%TO.C,USB_D1*%
X180214200Y-123585200D03*
X178464200Y-123585200D03*
%TD*%
D16*
%TO.C,MCU_C5*%
X165228100Y-128540000D03*
X166953100Y-128540000D03*
%TD*%
D21*
%TO.C,MCU_C1*%
X151173630Y-111786130D03*
X151173630Y-110061130D03*
%TD*%
D26*
%TO.C,IMU_C3*%
X161837755Y-130222902D03*
X161837755Y-131947902D03*
%TD*%
D29*
%TO.C,U_IMU1*%
X156527500Y-129755200D03*
X156527500Y-130255200D03*
X156527500Y-130755200D03*
X156527500Y-131255200D03*
D30*
X157192500Y-131420200D03*
X157692500Y-131420200D03*
X158192500Y-131420200D03*
D29*
X158857500Y-131255200D03*
X158857500Y-130755200D03*
X158857500Y-130255200D03*
X158857500Y-129755200D03*
D30*
X158192500Y-129590200D03*
X157692500Y-129590200D03*
X157192500Y-129590200D03*
%TD*%
D21*
%TO.C,3V3_C2*%
X171450000Y-125962500D03*
X171450000Y-124237500D03*
%TD*%
D22*
%TO.C,USB_R2*%
X175130000Y-112307900D03*
X175130000Y-110482900D03*
%TD*%
D26*
%TO.C,IMU_C2*%
X164784155Y-130222902D03*
X164784155Y-131947902D03*
%TD*%
D21*
%TO.C,MCU_C9*%
X151240000Y-122912500D03*
X151240000Y-121187500D03*
%TD*%
D31*
%TO.C,SW2*%
X157480000Y-105150000D03*
X157480000Y-109300000D03*
X155330000Y-105150000D03*
X155330000Y-109300000D03*
%TD*%
D15*
%TO.C,FLASH_R1*%
X173991900Y-135824800D03*
X175816900Y-135824800D03*
%TD*%
D21*
%TO.C,3v3_C1*%
X176199800Y-126008300D03*
X176199800Y-124283300D03*
%TD*%
D32*
%TO.C,FB1*%
X153800000Y-126887500D03*
X153800000Y-128712500D03*
%TD*%
D15*
%TO.C,USB_R4*%
X171030000Y-117365400D03*
X172855000Y-117365400D03*
%TD*%
%TO.C,FLASH_R2*%
X173991900Y-137287000D03*
X175816900Y-137287000D03*
%TD*%
D18*
%TO.C,MCU_D2*%
X180214200Y-129425200D03*
X178464200Y-129425200D03*
%TD*%
D21*
%TO.C,MCU_C4*%
X169494200Y-110209500D03*
X169494200Y-108484500D03*
%TD*%
D33*
%TO.C,D0*%
X174855000Y-121081800D03*
X172955000Y-121081800D03*
X173905000Y-122956800D03*
%TD*%
D34*
%TO.C,U_STM32*%
X153660000Y-112600000D03*
X153660000Y-113100000D03*
X153660000Y-113600000D03*
X153660000Y-114100000D03*
X153660000Y-114600000D03*
X153660000Y-115100000D03*
X153660000Y-115600000D03*
X153660000Y-116100000D03*
X153660000Y-116600000D03*
X153660000Y-117100000D03*
X153660000Y-117600000D03*
X153660000Y-118100000D03*
X153660000Y-118600000D03*
X153660000Y-119100000D03*
X153660000Y-119600000D03*
X153660000Y-120100000D03*
X153660000Y-120600000D03*
X153660000Y-121100000D03*
X153660000Y-121600000D03*
X153660000Y-122100000D03*
X153660000Y-122600000D03*
X153660000Y-123100000D03*
X153660000Y-123600000D03*
X153660000Y-124100000D03*
X153660000Y-124600000D03*
D35*
X155335000Y-126275000D03*
X155835000Y-126275000D03*
X156335000Y-126275000D03*
X156835000Y-126275000D03*
X157335000Y-126275000D03*
X157835000Y-126275000D03*
X158335000Y-126275000D03*
X158835000Y-126275000D03*
X159335000Y-126275000D03*
X159835000Y-126275000D03*
X160335000Y-126275000D03*
X160835000Y-126275000D03*
X161335000Y-126275000D03*
X161835000Y-126275000D03*
X162335000Y-126275000D03*
X162835000Y-126275000D03*
X163335000Y-126275000D03*
X163835000Y-126275000D03*
X164335000Y-126275000D03*
X164835000Y-126275000D03*
X165335000Y-126275000D03*
X165835000Y-126275000D03*
X166335000Y-126275000D03*
X166835000Y-126275000D03*
X167335000Y-126275000D03*
D34*
X169010000Y-124600000D03*
X169010000Y-124100000D03*
X169010000Y-123600000D03*
X169010000Y-123100000D03*
X169010000Y-122600000D03*
X169010000Y-122100000D03*
X169010000Y-121600000D03*
X169010000Y-121100000D03*
X169010000Y-120600000D03*
X169010000Y-120100000D03*
X169010000Y-119600000D03*
X169010000Y-119100000D03*
X169010000Y-118600000D03*
X169010000Y-118100000D03*
X169010000Y-117600000D03*
X169010000Y-117100000D03*
X169010000Y-116600000D03*
X169010000Y-116100000D03*
X169010000Y-115600000D03*
X169010000Y-115100000D03*
X169010000Y-114600000D03*
X169010000Y-114100000D03*
X169010000Y-113600000D03*
X169010000Y-113100000D03*
X169010000Y-112600000D03*
D35*
X167335000Y-110925000D03*
X166835000Y-110925000D03*
X166335000Y-110925000D03*
X165835000Y-110925000D03*
X165335000Y-110925000D03*
X164835000Y-110925000D03*
X164335000Y-110925000D03*
X163835000Y-110925000D03*
X163335000Y-110925000D03*
X162835000Y-110925000D03*
X162335000Y-110925000D03*
X161835000Y-110925000D03*
X161335000Y-110925000D03*
X160835000Y-110925000D03*
X160335000Y-110925000D03*
X159835000Y-110925000D03*
X159335000Y-110925000D03*
X158835000Y-110925000D03*
X158335000Y-110925000D03*
X157835000Y-110925000D03*
X157335000Y-110925000D03*
X156835000Y-110925000D03*
X156335000Y-110925000D03*
X155835000Y-110925000D03*
X155335000Y-110925000D03*
%TD*%
D26*
%TO.C,MCU_C10*%
X151240000Y-124480000D03*
X151240000Y-126205000D03*
%TD*%
D14*
%TO.C,ESC_J2*%
X157000000Y-103124000D03*
X159500000Y-103124000D03*
X162000000Y-103124000D03*
X164500000Y-103124000D03*
X167000000Y-103124000D03*
X169500000Y-103124000D03*
X172000000Y-103124000D03*
X174500000Y-103124000D03*
%TD*%
M02*
